G04 WakeBack carrier v1*
%TF.GenerationSoftware,WakeBack,gen_carrier.py,1*%
%TF.FileFunction,Soldermask,Top*%
%TF.FilePolarity,Negative*%
%FSLAX46Y46*%
%MOMM*%
%LPD*%
%ADD10R,1.8000X1.8000*%
%ADD11C,1.8000*%
%ADD12R,1.5000X1.5000*%
%ADD13C,1.5000*%
%ADD14R,1.9000X1.5000*%
%ADD15R,1.2000X1.4000*%
D10*
X-20620000Y-4620000D03*
D11*
X-18080000Y-4620000D03*
D11*
X-15540000Y-4620000D03*
D11*
X-13000000Y-4620000D03*
D11*
X-10460000Y-4620000D03*
D11*
X-7920000Y-4620000D03*
D11*
X-5380000Y-4620000D03*
D11*
X-20620000Y10620000D03*
D11*
X-18080000Y10620000D03*
D11*
X-15540000Y10620000D03*
D11*
X-13000000Y10620000D03*
D11*
X-10460000Y10620000D03*
D11*
X-7920000Y10620000D03*
D11*
X-5380000Y10620000D03*
D10*
X-7620000Y19500000D03*
D11*
X-5080000Y19500000D03*
D11*
X-2540000Y19500000D03*
D11*
X0Y19500000D03*
D10*
X4000000Y-13000000D03*
D11*
X6540000Y-13000000D03*
D11*
X9080000Y-13000000D03*
D11*
X11620000Y-13000000D03*
D11*
X14160000Y-13000000D03*
D10*
X-15240000Y-19000000D03*
D11*
X-12700000Y-19000000D03*
D11*
X-10160000Y-19000000D03*
D11*
X-7620000Y-19000000D03*
D11*
X-5080000Y-19000000D03*
D11*
X-2540000Y-19000000D03*
D10*
X-15240000Y-23500000D03*
D11*
X-12700000Y-23500000D03*
D12*
X-10160000Y-23500000D03*
D13*
X-8160000Y-23500000D03*
D10*
X-5080000Y-23500000D03*
D11*
X-2540000Y-23500000D03*
D14*
X-24500000Y-8400000D03*
D14*
X-24500000Y-11600000D03*
D14*
X-21500000Y-8400000D03*
D14*
X-21500000Y-11600000D03*
D14*
X-18200000Y-8400000D03*
D14*
X-18200000Y-11600000D03*
D14*
X-15200000Y-8400000D03*
D14*
X-15200000Y-11600000D03*
D14*
X-12700000Y-8400000D03*
D14*
X-12700000Y-11600000D03*
D15*
X-13700000Y-15500000D03*
D15*
X-11700000Y-15500000D03*
M02*
