G04 WakeBack carrier v1*
%TF.GenerationSoftware,WakeBack,gen_carrier.py,1*%
%TF.FileFunction,Copper,L1,Top*%
%TF.FilePolarity,Positive*%
%FSLAX46Y46*%
%MOMM*%
%LPD*%
%ADD10C,0.5000*%
%ADD11C,0.3000*%
%ADD12R,1.7000X1.7000*%
%ADD13C,1.7000*%
%ADD14R,1.4000X1.4000*%
%ADD15C,1.4000*%
%ADD16R,1.8000X1.4000*%
%ADD17R,1.1000X1.3000*%
%ADD18C,0.7000*%
D10*
X-15540000Y10620000D02*
X-15540000Y16000000D01*
X-9000000Y16000000D01*
X-7620000Y17400000D01*
X-7620000Y19500000D01*
D11*
X-5380000Y10620000D02*
X-5380000Y15000000D01*
X-2540000Y17840000D01*
X-2540000Y19500000D01*
D11*
X-5380000Y-4620000D02*
X-3400000Y-4620000D01*
X0Y-1200000D01*
X0Y19500000D01*
D11*
X-10460000Y-4620000D02*
X-10460000Y-9500000D01*
X9080000Y-9500000D01*
X9080000Y-13000000D01*
D11*
X-7920000Y-4620000D02*
X-7920000Y-7500000D01*
X11620000Y-7500000D01*
X11620000Y-13000000D01*
D11*
X-20620000Y-4620000D02*
X-20620000Y-6900000D01*
X-24500000Y-6900000D01*
X-24500000Y-8400000D01*
D11*
X-21500000Y-6900000D02*
X-21500000Y-8400000D01*
D11*
X-18080000Y-4620000D02*
X-18080000Y-6900000D01*
X-15200000Y-6900000D01*
X-15200000Y-8400000D01*
D11*
X-18200000Y-6900000D02*
X-18200000Y-8400000D01*
D11*
X-13000000Y-4620000D02*
X-12700000Y-6000000D01*
X-12700000Y-8400000D01*
D11*
X-12700000Y-11600000D02*
X-12700000Y-13200000D01*
X-13700000Y-14200000D01*
X-13700000Y-15500000D01*
D10*
X-21500000Y-11600000D02*
X-21500000Y-13600000D01*
D10*
X-15200000Y-11600000D02*
X-15200000Y-13400000D01*
D10*
X-11700000Y-15500000D02*
X-9400000Y-15500000D01*
D10*
X-15240000Y-23500000D02*
X-15240000Y-19000000D01*
D10*
X-15240000Y-19000000D02*
X-18200000Y-16000000D01*
X-18200000Y-11600000D01*
D10*
X-12700000Y-23500000D02*
X-12700000Y-19000000D01*
D10*
X-10160000Y-23500000D02*
X-10160000Y-19000000D01*
D10*
X-8160000Y-23500000D02*
X-8160000Y-21500000D01*
X-7620000Y-20900000D01*
X-7620000Y-19000000D01*
D10*
X-5080000Y-19000000D02*
X-5080000Y-23500000D01*
D10*
X-24500000Y-11600000D02*
X-24500000Y-13600000D01*
D12*
X-20620000Y-4620000D03*
D13*
X-18080000Y-4620000D03*
D13*
X-15540000Y-4620000D03*
D13*
X-13000000Y-4620000D03*
D13*
X-10460000Y-4620000D03*
D13*
X-7920000Y-4620000D03*
D13*
X-5380000Y-4620000D03*
D13*
X-20620000Y10620000D03*
D13*
X-18080000Y10620000D03*
D13*
X-15540000Y10620000D03*
D13*
X-13000000Y10620000D03*
D13*
X-10460000Y10620000D03*
D13*
X-7920000Y10620000D03*
D13*
X-5380000Y10620000D03*
D12*
X-7620000Y19500000D03*
D13*
X-5080000Y19500000D03*
D13*
X-2540000Y19500000D03*
D13*
X0Y19500000D03*
D12*
X4000000Y-13000000D03*
D13*
X6540000Y-13000000D03*
D13*
X9080000Y-13000000D03*
D13*
X11620000Y-13000000D03*
D13*
X14160000Y-13000000D03*
D12*
X-15240000Y-19000000D03*
D13*
X-12700000Y-19000000D03*
D13*
X-10160000Y-19000000D03*
D13*
X-7620000Y-19000000D03*
D13*
X-5080000Y-19000000D03*
D13*
X-2540000Y-19000000D03*
D12*
X-15240000Y-23500000D03*
D13*
X-12700000Y-23500000D03*
D14*
X-10160000Y-23500000D03*
D15*
X-8160000Y-23500000D03*
D12*
X-5080000Y-23500000D03*
D13*
X-2540000Y-23500000D03*
D16*
X-24500000Y-8400000D03*
D16*
X-24500000Y-11600000D03*
D16*
X-21500000Y-8400000D03*
D16*
X-21500000Y-11600000D03*
D16*
X-18200000Y-8400000D03*
D16*
X-18200000Y-11600000D03*
D16*
X-15200000Y-8400000D03*
D16*
X-15200000Y-11600000D03*
D16*
X-12700000Y-8400000D03*
D16*
X-12700000Y-11600000D03*
D17*
X-13700000Y-15500000D03*
D17*
X-11700000Y-15500000D03*
D18*
X-21500000Y-13600000D03*
D18*
X-15200000Y-13400000D03*
D18*
X-9400000Y-15500000D03*
D18*
X-24500000Y-13600000D03*
M02*
