G04 WakeBack carrier v1*
%TF.GenerationSoftware,WakeBack,gen_carrier.py,1*%
%TF.FileFunction,Legend,Bot*%
%TF.FilePolarity,Positive*%
%FSLAX46Y46*%
%MOMM*%
%LPD*%
%LPD*%
G36*
X-9721742Y-24872125D02*
G01*
X-9915492Y-24872125D01*
X-9915492Y-25341625D01*
X-10065867Y-25341625D01*
X-10065867Y-24872125D01*
X-10259242Y-24872125D01*
X-10259242Y-24758375D01*
X-9721742Y-24758375D01*
X-9721742Y-24872125D01*
G37*
%LPD*%
G36*
X-14965680Y-25186688D02*
G01*
X-14942055Y-25218188D01*
X-14904867Y-25238250D01*
X-14856055Y-25244938D01*
X-14816867Y-25241531D01*
X-14775305Y-25231312D01*
X-14731336Y-25214156D01*
X-14684930Y-25190188D01*
X-14684930Y-25308562D01*
X-14733086Y-25325594D01*
X-14781555Y-25337688D01*
X-14830430Y-25344906D01*
X-14879805Y-25347312D01*
X-14982117Y-25333938D01*
X-15059305Y-25293812D01*
X-15107773Y-25229969D01*
X-15123930Y-25145688D01*
X-15109086Y-25060906D01*
X-15064555Y-24997063D01*
X-14993367Y-24957031D01*
X-14898555Y-24943688D01*
X-14880148Y-24944344D01*
X-14862430Y-24946312D01*
X-14845117Y-24949375D01*
X-14827930Y-24953562D01*
X-14827930Y-24863312D01*
X-15081805Y-24863312D01*
X-15081805Y-24752688D01*
X-14707930Y-24752688D01*
X-14707930Y-25080812D01*
X-14748773Y-25065594D01*
X-14786805Y-25054938D01*
X-14822492Y-25048562D01*
X-14856055Y-25046438D01*
X-14904867Y-25053094D01*
X-14942055Y-25073062D01*
X-14965680Y-25104469D01*
X-14973555Y-25145688D01*
X-14965680Y-25186688D01*
G37*
%LPD*%
G36*
X-9158039Y-24872125D02*
G01*
X-9351789Y-24872125D01*
X-9351789Y-25341625D01*
X-9502164Y-25341625D01*
X-9502164Y-24872125D01*
X-9695539Y-24872125D01*
X-9695539Y-24758375D01*
X-9158039Y-24758375D01*
X-9158039Y-24872125D01*
G37*
%LPD*%
G36*
X-12103883Y-25242844D02*
G01*
X-12081227Y-25243562D01*
X-12004820Y-25230969D01*
X-11948102Y-25193188D01*
X-11912945Y-25132188D01*
X-11901227Y-25050188D01*
X-11913383Y-24967625D01*
X-11949852Y-24906688D01*
X-12008758Y-24869000D01*
X-12088227Y-24856438D01*
X-12136664Y-24859875D01*
X-12184977Y-24870188D01*
X-12233352Y-24887312D01*
X-12281977Y-24911438D01*
X-12281977Y-24790812D01*
X-12233195Y-24771969D01*
X-12181352Y-24758438D01*
X-12126883Y-24750188D01*
X-12069977Y-24747438D01*
X-11935133Y-24767656D01*
X-11832352Y-24828312D01*
X-11767383Y-24924219D01*
X-11745727Y-25050188D01*
X-11767008Y-25175094D01*
X-11830852Y-25271062D01*
X-11931133Y-25332188D01*
X-12061727Y-25352562D01*
X-12125227Y-25349156D01*
X-12186727Y-25338938D01*
X-12246164Y-25321781D01*
X-12303477Y-25297812D01*
X-12303477Y-25017312D01*
X-12069102Y-25017312D01*
X-12069102Y-25118188D01*
X-12160977Y-25118188D01*
X-12160977Y-25231438D01*
X-12143945Y-25236875D01*
X-12124852Y-25240688D01*
X-12103883Y-25242844D01*
G37*
%LPD*%
G36*
X-9024398Y-25235375D02*
G01*
X-9061148Y-25341625D01*
X-9212273Y-25341625D01*
X-8996273Y-24758375D01*
X-8816898Y-24758375D01*
X-8600898Y-25341625D01*
X-8752148Y-25341625D01*
X-8789273Y-25235375D01*
X-9024398Y-25235375D01*
G37*
%LPC*%
G36*
X-8986523Y-25127125D02*
G01*
X-8826773Y-25127125D01*
X-8906773Y-24895125D01*
X-8986523Y-25127125D01*
G37*
%LPD*%
G36*
X-13649273Y-25111469D02*
G01*
X-13654273Y-25048938D01*
X-13649273Y-24987219D01*
X-13634273Y-24932313D01*
X-13609117Y-24883719D01*
X-13573398Y-24841188D01*
X-13522273Y-24802438D01*
X-13461898Y-24776938D01*
X-13379930Y-24762688D01*
X-13264023Y-24757938D01*
X-13105523Y-24757938D01*
X-13105523Y-25341188D01*
X-13264023Y-25341188D01*
X-13378867Y-25336469D01*
X-13460898Y-25322313D01*
X-13521836Y-25296719D01*
X-13573398Y-25257938D01*
X-13609117Y-25215469D01*
X-13634273Y-25166812D01*
X-13649273Y-25111469D01*
G37*
%LPC*%
G36*
X-13309773Y-25227562D02*
G01*
X-13255898Y-25227562D01*
X-13255898Y-24871688D01*
X-13309773Y-24871688D01*
X-13391336Y-24883031D01*
X-13450773Y-24917062D01*
X-13487148Y-24972656D01*
X-13499273Y-25048938D01*
X-13487086Y-25125719D01*
X-13450523Y-25181812D01*
X-13391023Y-25216125D01*
X-13309773Y-25227562D01*
G37*
%LPD*%
G36*
X-12815992Y-25157938D02*
G01*
X-12603867Y-24757938D01*
X-12435992Y-24757938D01*
X-12435992Y-25341188D01*
X-12578492Y-25341188D01*
X-12578492Y-24941188D01*
X-12790617Y-25341188D01*
X-12958617Y-25341188D01*
X-12958617Y-24757938D01*
X-12815992Y-24757938D01*
X-12815992Y-25157938D01*
G37*
%LPD*%
G36*
X-15795070Y-24752688D02*
G01*
X-15643945Y-24752688D01*
X-15489570Y-25183188D01*
X-15334945Y-24752688D01*
X-15183695Y-24752688D01*
X-15399695Y-25335938D01*
X-15497481Y-25335938D01*
X-15580313Y-25285248D01*
X-15603072Y-25271128D01*
X-15795070Y-24752688D01*
G37*
%LPD*%
G36*
X-17783852Y-23745562D02*
G01*
X-17839226Y-23745562D01*
X-17923602Y-23681773D01*
X-17923602Y-23308062D01*
X-17783852Y-23308062D01*
X-17783852Y-23745562D01*
G37*
%LPD*%
G36*
X-17676398Y-23454562D02*
G01*
X-17656617Y-23327125D01*
X-17597273Y-23231562D01*
X-17502492Y-23171750D01*
X-17376398Y-23151812D01*
X-17251242Y-23171938D01*
X-17156273Y-23232312D01*
X-17096367Y-23328062D01*
X-17076398Y-23454562D01*
X-17096398Y-23581094D01*
X-17156398Y-23676438D01*
X-17252523Y-23736156D01*
X-17380648Y-23756062D01*
X-17392398Y-23756062D01*
X-17487648Y-23862312D01*
X-17631023Y-23862312D01*
X-17513523Y-23731062D01*
X-17583180Y-23686375D01*
X-17634398Y-23624062D01*
X-17665898Y-23546125D01*
X-17676398Y-23454562D01*
G37*
%LPC*%
G36*
X-17437711Y-23635250D02*
G01*
X-17376398Y-23647938D01*
X-17314336Y-23635500D01*
X-17268898Y-23598188D01*
X-17241148Y-23537344D01*
X-17231898Y-23454562D01*
X-17241367Y-23372688D01*
X-17269773Y-23311562D01*
X-17315367Y-23273500D01*
X-17376398Y-23260812D01*
X-17437711Y-23273500D01*
X-17483398Y-23311562D01*
X-17511805Y-23372688D01*
X-17521273Y-23454562D01*
X-17511805Y-23536094D01*
X-17483398Y-23597188D01*
X-17437711Y-23635250D01*
G37*
%LPD*%
G36*
X-17783852Y-23251812D02*
G01*
X-17923602Y-23251812D01*
X-17923602Y-23137688D01*
X-17783852Y-23137688D01*
X-17783852Y-23251812D01*
G37*
%LPD*%
G36*
X-11631672Y-22448180D02*
G01*
X-11402312Y-22448180D01*
X-11402312Y-22217836D01*
X-11297688Y-22217836D01*
X-11297688Y-22448180D01*
X-11068328Y-22448180D01*
X-11068328Y-22551820D01*
X-11297688Y-22551820D01*
X-11297688Y-22782164D01*
X-11402312Y-22782164D01*
X-11402312Y-22551820D01*
X-11631672Y-22551820D01*
X-11631672Y-22448180D01*
G37*
%LPD*%
G36*
X-13045906Y-20668125D02*
G01*
X-13291156Y-20668125D01*
X-13291156Y-20554500D01*
X-13045906Y-20554500D01*
X-13045906Y-20668125D01*
G37*
%LPD*%
G36*
X-12259219Y-20841625D02*
G01*
X-12259219Y-20258375D01*
X-12108844Y-20258375D01*
X-12108844Y-20841625D01*
X-12259219Y-20841625D01*
G37*
%LPD*%
G36*
X-12406500Y-20258375D02*
G01*
X-12406500Y-20841625D01*
X-12549000Y-20841625D01*
X-12549000Y-20441625D01*
X-12761125Y-20841625D01*
X-12929125Y-20841625D01*
X-12929125Y-20258375D01*
X-12786500Y-20258375D01*
X-12786500Y-20658375D01*
X-12574375Y-20258375D01*
X-12406500Y-20258375D01*
G37*
%LPD*%
G36*
X-20586091Y-19063451D02*
G01*
X-20594458Y-19107246D01*
X-20586091Y-19150809D01*
X-20560990Y-19184277D01*
X-20521478Y-19205594D01*
X-20469615Y-19212699D01*
X-20427978Y-19209080D01*
X-20383818Y-19198223D01*
X-20337101Y-19179994D01*
X-20287794Y-19154527D01*
X-20287794Y-19280301D01*
X-20338960Y-19298396D01*
X-20390458Y-19311246D01*
X-20442388Y-19318916D01*
X-20494849Y-19321473D01*
X-20603556Y-19307262D01*
X-20685568Y-19264629D01*
X-20737066Y-19196795D01*
X-20754232Y-19107246D01*
X-20738460Y-19017166D01*
X-20691146Y-18949332D01*
X-20615509Y-18906799D01*
X-20514771Y-18892621D01*
X-20495214Y-18893318D01*
X-20476388Y-18895410D01*
X-20457994Y-18898664D01*
X-20439732Y-18903113D01*
X-20439732Y-18807223D01*
X-20709474Y-18807223D01*
X-20709474Y-18689684D01*
X-20312232Y-18689684D01*
X-20312232Y-19038316D01*
X-20355628Y-19022146D01*
X-20396037Y-19010824D01*
X-20433955Y-19004051D01*
X-20469615Y-19001793D01*
X-20521478Y-19008865D01*
X-20560990Y-19030082D01*
X-20586091Y-19063451D01*
G37*
%LPD*%
G36*
X-20882877Y-19141213D02*
G01*
X-20932483Y-19239926D01*
X-21012370Y-19301086D01*
X-21119483Y-19321473D01*
X-21217930Y-19306465D01*
X-21294131Y-19261441D01*
X-21343040Y-19191516D01*
X-21359342Y-19101801D01*
X-21344766Y-19020387D01*
X-21301038Y-18956238D01*
X-21233569Y-18914502D01*
X-21147772Y-18900590D01*
X-21111381Y-18903146D01*
X-21077913Y-18910816D01*
X-21047167Y-18923467D01*
X-21018678Y-18941230D01*
X-21033620Y-18872865D01*
X-21065163Y-18823691D01*
X-21112875Y-18793908D01*
X-21176327Y-18783980D01*
X-21209928Y-18786205D01*
X-21244327Y-18792879D01*
X-21280385Y-18804234D01*
X-21318702Y-18820504D01*
X-21318702Y-18705887D01*
X-21279057Y-18694266D01*
X-21239014Y-18685965D01*
X-21198141Y-18680984D01*
X-21156006Y-18679324D01*
X-21035545Y-18701271D01*
X-20943772Y-18767113D01*
X-20885700Y-18871338D01*
X-20866342Y-19008434D01*
X-20882877Y-19141213D01*
G37*
%LPC*%
G36*
X-21084487Y-19214160D02*
G01*
X-21058256Y-19193840D01*
X-21042518Y-19159840D01*
X-21037272Y-19112293D01*
X-21042518Y-19064680D01*
X-21058256Y-19030746D01*
X-21084487Y-19010326D01*
X-21121209Y-19003520D01*
X-21158131Y-19010326D01*
X-21184428Y-19030746D01*
X-21200167Y-19064680D01*
X-21205413Y-19112293D01*
X-21200167Y-19159840D01*
X-21184428Y-19193840D01*
X-21158131Y-19214160D01*
X-21121209Y-19220934D01*
X-21084487Y-19214160D01*
G37*
%LPD*%
G36*
X-19671395Y-19000199D02*
G01*
X-19687997Y-19136564D01*
X-19737801Y-19237801D01*
X-19818219Y-19300555D01*
X-19926661Y-19321473D01*
X-20034803Y-19300555D01*
X-20115122Y-19237801D01*
X-20164926Y-19136564D01*
X-20181528Y-19000199D01*
X-20164926Y-18863469D01*
X-20115122Y-18762199D01*
X-20034803Y-18699445D01*
X-19926661Y-18678527D01*
X-19818219Y-18699445D01*
X-19737801Y-18762199D01*
X-19687997Y-18863469D01*
X-19671395Y-19000199D01*
G37*
%LPC*%
G36*
X-19831168Y-18998871D02*
G01*
X-19836680Y-18899859D01*
X-19853215Y-18835246D01*
X-19882600Y-18799586D01*
X-19926661Y-18787699D01*
X-19970754Y-18799586D01*
X-19999973Y-18835246D01*
X-20016309Y-18899859D01*
X-20021754Y-18998871D01*
X-20016243Y-19099078D01*
X-19999708Y-19164621D01*
X-19970489Y-19200680D01*
X-19926661Y-19212699D01*
X-19882600Y-19200680D01*
X-19853215Y-19164621D01*
X-19836680Y-19099078D01*
X-19831168Y-18998871D01*
G37*
%LPD*%
G36*
X-18206291Y-18810543D02*
G01*
X-18411751Y-18810543D01*
X-18411751Y-18689684D01*
X-17840658Y-18689684D01*
X-17840658Y-18810543D01*
X-18046517Y-18810543D01*
X-18046517Y-19309387D01*
X-18206291Y-19309387D01*
X-18206291Y-18810543D01*
G37*
%LPD*%
G36*
X-18941092Y-19041902D02*
G01*
X-18988606Y-18978152D01*
X-19004444Y-18891824D01*
X-18988606Y-18805895D01*
X-18941092Y-18742277D01*
X-18864094Y-18702832D01*
X-18759538Y-18689684D01*
X-18494444Y-18689684D01*
X-18494444Y-19309387D01*
X-18654217Y-19309387D01*
X-18654217Y-19094363D01*
X-18759538Y-19094363D01*
X-18864094Y-19081248D01*
X-18941092Y-19041902D01*
G37*
%LPC*%
G36*
X-18833415Y-18928646D02*
G01*
X-18814389Y-18955973D01*
X-18783743Y-18972906D01*
X-18742538Y-18978551D01*
X-18654217Y-18978551D01*
X-18654217Y-18805496D01*
X-18742538Y-18805496D01*
X-18783743Y-18811107D01*
X-18814389Y-18827941D01*
X-18833415Y-18855135D01*
X-18839756Y-18891824D01*
X-18833415Y-18928646D01*
G37*
%LPD*%
G36*
X-19591691Y-19196496D02*
G01*
X-19591691Y-19080684D01*
X-19503371Y-19080684D01*
X-19503371Y-18689684D01*
X-19325667Y-18689684D01*
X-19077574Y-19059566D01*
X-19077574Y-19196496D01*
X-19352230Y-19196496D01*
X-19352230Y-19309387D01*
X-19503371Y-19309387D01*
X-19503371Y-19196496D01*
X-19591691Y-19196496D01*
G37*
%LPC*%
G36*
X-19352230Y-19080684D02*
G01*
X-19177183Y-19080684D01*
X-19352230Y-18821301D01*
X-19352230Y-19080684D01*
G37*
%LPD*%
G36*
X-15979594Y-17444750D02*
G01*
X-15775719Y-17444750D01*
X-15775719Y-17240000D01*
X-15682719Y-17240000D01*
X-15682719Y-17444750D01*
X-15478844Y-17444750D01*
X-15478844Y-17536875D01*
X-15682719Y-17536875D01*
X-15682719Y-17741625D01*
X-15775719Y-17741625D01*
X-15775719Y-17536875D01*
X-15979594Y-17536875D01*
X-15979594Y-17444750D01*
G37*
%LPD*%
G36*
X-10720883Y-17444750D02*
G01*
X-10517008Y-17444750D01*
X-10517008Y-17240000D01*
X-10424008Y-17240000D01*
X-10424008Y-17444750D01*
X-10220133Y-17444750D01*
X-10220133Y-17536875D01*
X-10424008Y-17536875D01*
X-10424008Y-17741625D01*
X-10517008Y-17741625D01*
X-10517008Y-17536875D01*
X-10720883Y-17536875D01*
X-10720883Y-17444750D01*
G37*
%LPD*%
G36*
X-9599117Y-17158375D02*
G01*
X-9599117Y-17741625D01*
X-9848617Y-17741625D01*
X-9950242Y-17731281D01*
X-10022117Y-17700250D01*
X-10064867Y-17648031D01*
X-10079117Y-17574375D01*
X-10072461Y-17523656D01*
X-10052492Y-17481500D01*
X-10020523Y-17449562D01*
X-9977617Y-17429500D01*
X-10010992Y-17411156D01*
X-10035367Y-17385125D01*
X-10050367Y-17352094D01*
X-10055367Y-17312750D01*
X-10041742Y-17242906D01*
X-10000867Y-17195125D01*
X-9929617Y-17167562D01*
X-9824867Y-17158375D01*
X-9599117Y-17158375D01*
G37*
%LPC*%
G36*
X-9886492Y-17368625D02*
G01*
X-9863898Y-17380344D01*
X-9832617Y-17384250D01*
X-9749492Y-17384250D01*
X-9749492Y-17260750D01*
X-9832617Y-17260750D01*
X-9863898Y-17264719D01*
X-9886492Y-17276625D01*
X-9900273Y-17295969D01*
X-9904867Y-17322500D01*
X-9900273Y-17349281D01*
X-9886492Y-17368625D01*
G37*
%LPC*%
G36*
X-9905867Y-17620125D02*
G01*
X-9877398Y-17634469D01*
X-9837742Y-17639250D01*
X-9749492Y-17639250D01*
X-9749492Y-17486500D01*
X-9837742Y-17486500D01*
X-9877711Y-17491250D01*
X-9906117Y-17505500D01*
X-9923086Y-17529156D01*
X-9928742Y-17562375D01*
X-9923023Y-17596125D01*
X-9905867Y-17620125D01*
G37*
%LPD*%
G36*
X-14650781Y-17741625D02*
G01*
X-14650781Y-17158375D01*
X-14500406Y-17158375D01*
X-14500406Y-17741625D01*
X-14650781Y-17741625D01*
G37*
%LPD*%
G36*
X-14965938Y-17158375D02*
G01*
X-14798062Y-17158375D01*
X-14798062Y-17741625D01*
X-14940562Y-17741625D01*
X-14940562Y-17341625D01*
X-15152688Y-17741625D01*
X-15320688Y-17741625D01*
X-15320688Y-17158375D01*
X-15178062Y-17158375D01*
X-15178062Y-17558375D01*
X-14965938Y-17158375D01*
G37*
%LPD*%
G36*
X-24946477Y2995938D02*
G01*
X-24701227Y2995938D01*
X-24701227Y2882312D01*
X-24946477Y2882312D01*
X-24946477Y2995938D01*
G37*
%LPD*%
G36*
X-26146539Y2882312D02*
G01*
X-26391789Y2882312D01*
X-26391789Y2995938D01*
X-26146539Y2995938D01*
X-26146539Y2882312D01*
G37*
%LPD*%
G36*
X-24310086Y3281156D02*
G01*
X-24223711Y3219188D01*
X-24169055Y3121094D01*
X-24150836Y2992062D01*
X-24166398Y2867094D01*
X-24213086Y2774188D01*
X-24288273Y2716625D01*
X-24389086Y2697438D01*
X-24481742Y2711562D01*
X-24553461Y2753938D01*
X-24599492Y2819750D01*
X-24614836Y2904188D01*
X-24601117Y2980812D01*
X-24559961Y3041188D01*
X-24496461Y3080469D01*
X-24415711Y3093562D01*
X-24381461Y3091156D01*
X-24349961Y3083938D01*
X-24321023Y3072031D01*
X-24294211Y3055312D01*
X-24308273Y3119656D01*
X-24337961Y3165938D01*
X-24382867Y3193969D01*
X-24442586Y3203312D01*
X-24474211Y3201219D01*
X-24506586Y3194938D01*
X-24540523Y3184250D01*
X-24576586Y3168938D01*
X-24576586Y3276812D01*
X-24539273Y3287750D01*
X-24501586Y3295562D01*
X-24463117Y3300250D01*
X-24423461Y3301812D01*
X-24310086Y3281156D01*
G37*
%LPC*%
G36*
X-24465023Y2849562D02*
G01*
X-24450211Y2817562D01*
X-24425461Y2798438D01*
X-24390711Y2792062D01*
X-24356148Y2798438D01*
X-24331461Y2817562D01*
X-24316648Y2849562D01*
X-24311711Y2894312D01*
X-24316648Y2939125D01*
X-24331461Y2971062D01*
X-24356148Y2990281D01*
X-24390711Y2996688D01*
X-24425461Y2990281D01*
X-24450211Y2971062D01*
X-24465023Y2939125D01*
X-24469961Y2894312D01*
X-24465023Y2849562D01*
G37*
%LPD*%
G36*
X-26052023Y3007312D02*
G01*
X-26036398Y3132000D01*
X-25989523Y3224812D01*
X-25914117Y3282562D01*
X-25812898Y3301812D01*
X-25720555Y3287656D01*
X-25649023Y3245188D01*
X-25603180Y3179156D01*
X-25587898Y3094312D01*
X-25601617Y3017438D01*
X-25642773Y2957062D01*
X-25706305Y2917969D01*
X-25787148Y2904938D01*
X-25821023Y2907375D01*
X-25852398Y2914688D01*
X-25881617Y2926875D01*
X-25909023Y2943938D01*
X-25894680Y2879562D01*
X-25864898Y2833188D01*
X-25819961Y2805250D01*
X-25760148Y2795938D01*
X-25727930Y2798031D01*
X-25695273Y2804312D01*
X-25661742Y2814812D01*
X-25626648Y2829562D01*
X-25626648Y2721688D01*
X-25662930Y2711094D01*
X-25700023Y2703562D01*
X-25738398Y2698969D01*
X-25778523Y2697438D01*
X-25892305Y2718094D01*
X-25978898Y2780062D01*
X-26033742Y2878188D01*
X-26052023Y3007312D01*
G37*
%LPC*%
G36*
X-25812148Y3207312D02*
G01*
X-25846742Y3200844D01*
X-25871523Y3181438D01*
X-25886430Y3149438D01*
X-25891398Y3104938D01*
X-25886430Y3060094D01*
X-25871523Y3028062D01*
X-25846742Y3008938D01*
X-25812148Y3002562D01*
X-25777555Y3008938D01*
X-25752773Y3028062D01*
X-25737867Y3060094D01*
X-25732898Y3104938D01*
X-25737867Y3149438D01*
X-25752773Y3181438D01*
X-25777555Y3200844D01*
X-25812148Y3207312D01*
G37*
%LPD*%
G36*
X-27057023Y2867094D02*
G01*
X-27103711Y2774188D01*
X-27178898Y2716625D01*
X-27279711Y2697438D01*
X-27372367Y2711562D01*
X-27444086Y2753938D01*
X-27490117Y2819750D01*
X-27505461Y2904188D01*
X-27491742Y2980812D01*
X-27450586Y3041188D01*
X-27387086Y3080469D01*
X-27306336Y3093562D01*
X-27272086Y3091156D01*
X-27240586Y3083938D01*
X-27211648Y3072031D01*
X-27184836Y3055312D01*
X-27198898Y3119656D01*
X-27228586Y3165938D01*
X-27273492Y3193969D01*
X-27333211Y3203312D01*
X-27364836Y3201219D01*
X-27397211Y3194938D01*
X-27431148Y3184250D01*
X-27467211Y3168938D01*
X-27467211Y3276812D01*
X-27429898Y3287750D01*
X-27392211Y3295562D01*
X-27353742Y3300250D01*
X-27314086Y3301812D01*
X-27200711Y3281156D01*
X-27114336Y3219188D01*
X-27059680Y3121094D01*
X-27041461Y2992062D01*
X-27057023Y2867094D01*
G37*
%LPC*%
G36*
X-27246773Y2798438D02*
G01*
X-27222086Y2817562D01*
X-27207273Y2849562D01*
X-27202336Y2894312D01*
X-27207273Y2939125D01*
X-27222086Y2971062D01*
X-27246773Y2990281D01*
X-27281336Y2996688D01*
X-27316086Y2990281D01*
X-27340836Y2971062D01*
X-27355648Y2939125D01*
X-27360586Y2894312D01*
X-27355648Y2849562D01*
X-27340836Y2817562D01*
X-27316086Y2798438D01*
X-27281336Y2792062D01*
X-27246773Y2798438D01*
G37*
%LPD*%
G36*
X-23266430Y3302562D02*
G01*
X-23164367Y3282875D01*
X-23088680Y3223812D01*
X-23041805Y3128500D01*
X-23026180Y2999812D01*
X-23041805Y2871469D01*
X-23088680Y2776188D01*
X-23164367Y2717125D01*
X-23266430Y2697438D01*
X-23368211Y2717125D01*
X-23443805Y2776188D01*
X-23490680Y2871469D01*
X-23506305Y2999812D01*
X-23490680Y3128500D01*
X-23443805Y3223812D01*
X-23368211Y3282875D01*
X-23266430Y3302562D01*
G37*
%LPC*%
G36*
X-23266430Y2799812D02*
G01*
X-23224961Y2811125D01*
X-23197305Y2845062D01*
X-23181742Y2906750D01*
X-23176555Y3001062D01*
X-23181742Y3094250D01*
X-23197305Y3155062D01*
X-23224961Y3188625D01*
X-23266430Y3199812D01*
X-23307930Y3188625D01*
X-23335430Y3155062D01*
X-23350805Y3094250D01*
X-23355930Y3001062D01*
X-23350742Y2906750D01*
X-23335180Y2845062D01*
X-23307680Y2811125D01*
X-23266430Y2799812D01*
G37*
%LPD*%
G36*
X-25043758Y3128500D02*
G01*
X-25028133Y2999812D01*
X-25043758Y2871469D01*
X-25090633Y2776188D01*
X-25166320Y2717125D01*
X-25268383Y2697438D01*
X-25370164Y2717125D01*
X-25445758Y2776188D01*
X-25492633Y2871469D01*
X-25508258Y2999812D01*
X-25492633Y3128500D01*
X-25445758Y3223812D01*
X-25370164Y3282875D01*
X-25268383Y3302562D01*
X-25166320Y3282875D01*
X-25090633Y3223812D01*
X-25043758Y3128500D01*
G37*
%LPC*%
G36*
X-25183695Y2906750D02*
G01*
X-25178508Y3001062D01*
X-25183695Y3094250D01*
X-25199258Y3155062D01*
X-25226914Y3188625D01*
X-25268383Y3199812D01*
X-25309883Y3188625D01*
X-25337383Y3155062D01*
X-25352758Y3094250D01*
X-25357883Y3001062D01*
X-25352695Y2906750D01*
X-25337133Y2845062D01*
X-25309633Y2811125D01*
X-25268383Y2799812D01*
X-25226914Y2811125D01*
X-25199258Y2845062D01*
X-25183695Y2906750D01*
G37*
%LPD*%
G36*
X-26697695Y3302562D02*
G01*
X-26649570Y3300344D01*
X-26600445Y3293688D01*
X-26550539Y3282938D01*
X-26500070Y3268188D01*
X-26500070Y3140062D01*
X-26546227Y3166125D01*
X-26589445Y3184812D01*
X-26629633Y3196062D01*
X-26666445Y3199812D01*
X-26707633Y3193562D01*
X-26739695Y3174812D01*
X-26760320Y3145812D01*
X-26767195Y3108812D01*
X-26763789Y3082781D01*
X-26753570Y3057688D01*
X-26736195Y3032781D01*
X-26711320Y3007312D01*
X-26498445Y2819312D01*
X-26498445Y2708812D01*
X-26922320Y2708812D01*
X-26922320Y2819312D01*
X-26665695Y2819312D01*
X-26790320Y2928688D01*
X-26855633Y2990906D01*
X-26893820Y3039062D01*
X-26912289Y3081906D01*
X-26918445Y3127938D01*
X-26903945Y3201312D01*
X-26860445Y3256438D01*
X-26790758Y3291031D01*
X-26697695Y3302562D01*
G37*
%LPD*%
G36*
X-22908383Y3081906D02*
G01*
X-22914539Y3127938D01*
X-22900039Y3201312D01*
X-22856539Y3256438D01*
X-22786852Y3291031D01*
X-22693789Y3302562D01*
X-22645664Y3300344D01*
X-22596539Y3293688D01*
X-22546633Y3282938D01*
X-22496164Y3268188D01*
X-22496164Y3140062D01*
X-22542320Y3166125D01*
X-22585539Y3184812D01*
X-22625727Y3196062D01*
X-22662539Y3199812D01*
X-22703727Y3193562D01*
X-22735789Y3174812D01*
X-22756414Y3145812D01*
X-22763289Y3108812D01*
X-22759883Y3082781D01*
X-22749664Y3057688D01*
X-22732289Y3032781D01*
X-22707414Y3007312D01*
X-22494539Y2819312D01*
X-22494539Y2708812D01*
X-22918414Y2708812D01*
X-22918414Y2819312D01*
X-22661789Y2819312D01*
X-22786414Y2928688D01*
X-22851727Y2990906D01*
X-22889914Y3039062D01*
X-22908383Y3081906D01*
G37*
%LPD*%
G36*
X-24013320Y3201312D02*
G01*
X-23969820Y3256438D01*
X-23900133Y3291031D01*
X-23807070Y3302562D01*
X-23758945Y3300344D01*
X-23709820Y3293688D01*
X-23659914Y3282938D01*
X-23609445Y3268188D01*
X-23609445Y3140062D01*
X-23655602Y3166125D01*
X-23698820Y3184812D01*
X-23739008Y3196062D01*
X-23775820Y3199812D01*
X-23817008Y3193562D01*
X-23849070Y3174812D01*
X-23869695Y3145812D01*
X-23876570Y3108812D01*
X-23873164Y3082781D01*
X-23862945Y3057688D01*
X-23845570Y3032781D01*
X-23820695Y3007312D01*
X-23607820Y2819312D01*
X-23607820Y2708812D01*
X-24031695Y2708812D01*
X-24031695Y2819312D01*
X-23775070Y2819312D01*
X-23899695Y2928688D01*
X-23965008Y2990906D01*
X-24003195Y3039062D01*
X-24021664Y3081906D01*
X-24027820Y3127938D01*
X-24013320Y3201312D01*
G37*
%LPD*%
G36*
X-8192195Y16000750D02*
G01*
X-8208633Y15903906D01*
X-8257945Y15831375D01*
X-8337039Y15786094D01*
X-8442570Y15771000D01*
X-8492195Y15773406D01*
X-8541820Y15780625D01*
X-8591445Y15792531D01*
X-8641070Y15809000D01*
X-8641070Y15916750D01*
X-8592820Y15893594D01*
X-8545820Y15877125D01*
X-8500102Y15867281D01*
X-8455445Y15864000D01*
X-8406852Y15870156D01*
X-8370320Y15888625D01*
X-8346195Y15919406D01*
X-8334820Y15962500D01*
X-8661695Y15962500D01*
X-8661695Y16002250D01*
X-8646227Y16095750D01*
X-8599820Y16168250D01*
X-8527633Y16214844D01*
X-8434820Y16230375D01*
X-8333633Y16215031D01*
X-8256820Y16169000D01*
X-8208352Y16096312D01*
X-8192195Y16000750D01*
G37*
%LPC*%
G36*
X-8512133Y16084750D02*
G01*
X-8517945Y16048750D01*
X-8336320Y16048750D01*
X-8347352Y16086719D01*
X-8367945Y16114625D01*
X-8397133Y16131781D01*
X-8433945Y16137500D01*
X-8467883Y16131375D01*
X-8494695Y16113000D01*
X-8512133Y16084750D01*
G37*
%LPD*%
G36*
X-9440695Y16219875D02*
G01*
X-9440695Y15782375D01*
X-9580445Y15782375D01*
X-9580445Y16219875D01*
X-9440695Y16219875D01*
G37*
%LPD*%
G36*
X-8907398Y16148000D02*
G01*
X-8907398Y16219875D01*
X-8767648Y16219875D01*
X-8767648Y15782375D01*
X-8907398Y15782375D01*
X-8907398Y15984000D01*
X-8914680Y16040906D01*
X-8936523Y16082875D01*
X-8971836Y16108844D01*
X-9019523Y16117500D01*
X-9037836Y16116469D01*
X-9056023Y16113375D01*
X-9074305Y16108219D01*
X-9092648Y16100750D01*
X-9092148Y16227250D01*
X-9078367Y16228875D01*
X-9068273Y16229750D01*
X-9060430Y16230219D01*
X-9053148Y16230375D01*
X-9007742Y16225438D01*
X-8969273Y16210625D01*
X-8936367Y16185156D01*
X-8907398Y16148000D01*
G37*
%LPD*%
G36*
X-9879664Y15782375D02*
G01*
X-9999664Y15782375D01*
X-9999664Y15882375D01*
X-9927789Y15882375D01*
X-9897758Y15885062D01*
X-9879664Y15893125D01*
X-9870570Y15908812D01*
X-9867539Y15934375D01*
X-9867539Y16119875D01*
X-10011789Y16119875D01*
X-10011789Y16219875D01*
X-9867539Y16219875D01*
X-9867539Y16344125D01*
X-9727789Y16344125D01*
X-9727789Y16219875D01*
X-9658164Y16219875D01*
X-9658164Y16119875D01*
X-9727789Y16119875D01*
X-9727789Y15934375D01*
X-9736414Y15863562D01*
X-9762289Y15816875D01*
X-9808945Y15791000D01*
X-9879664Y15782375D01*
G37*
%LPD*%
G36*
X-9440695Y16390250D02*
G01*
X-9440695Y16276125D01*
X-9580445Y16276125D01*
X-9580445Y16390250D01*
X-9440695Y16390250D01*
G37*
%LPD*%
G36*
X-6894242Y-27149000D02*
G01*
X-6870617Y-27180500D01*
X-6833430Y-27200562D01*
X-6784617Y-27207250D01*
X-6745430Y-27203844D01*
X-6703867Y-27193625D01*
X-6659898Y-27176469D01*
X-6613492Y-27152500D01*
X-6613492Y-27270875D01*
X-6661648Y-27287906D01*
X-6710117Y-27300000D01*
X-6758992Y-27307219D01*
X-6808367Y-27309625D01*
X-6910680Y-27296250D01*
X-6987867Y-27256125D01*
X-7036336Y-27192281D01*
X-7052492Y-27108000D01*
X-7037648Y-27023219D01*
X-6993117Y-26959375D01*
X-6921930Y-26919344D01*
X-6827117Y-26906000D01*
X-6808711Y-26906656D01*
X-6790992Y-26908625D01*
X-6773680Y-26911688D01*
X-6756492Y-26915875D01*
X-6756492Y-26825625D01*
X-7010367Y-26825625D01*
X-7010367Y-26715000D01*
X-6636492Y-26715000D01*
X-6636492Y-27043125D01*
X-6677336Y-27027906D01*
X-6715367Y-27017250D01*
X-6751055Y-27010875D01*
X-6784617Y-27008750D01*
X-6833430Y-27015406D01*
X-6870617Y-27035375D01*
X-6894242Y-27066781D01*
X-6902117Y-27108000D01*
X-6894242Y-27149000D01*
G37*
%LPD*%
G36*
X-4982570Y-26783250D02*
G01*
X-4935695Y-26878562D01*
X-4920070Y-27007250D01*
X-4935695Y-27135594D01*
X-4982570Y-27230875D01*
X-5058258Y-27289938D01*
X-5160320Y-27309625D01*
X-5262102Y-27289938D01*
X-5337695Y-27230875D01*
X-5384570Y-27135594D01*
X-5400195Y-27007250D01*
X-5384570Y-26878562D01*
X-5337695Y-26783250D01*
X-5262102Y-26724188D01*
X-5160320Y-26704500D01*
X-5058258Y-26724188D01*
X-4982570Y-26783250D01*
G37*
%LPC*%
G36*
X-5091195Y-27162000D02*
G01*
X-5075633Y-27100312D01*
X-5070445Y-27006000D01*
X-5075633Y-26912812D01*
X-5091195Y-26852000D01*
X-5118852Y-26818438D01*
X-5160320Y-26807250D01*
X-5201820Y-26818438D01*
X-5229320Y-26852000D01*
X-5244695Y-26912812D01*
X-5249820Y-27006000D01*
X-5244633Y-27100312D01*
X-5229070Y-27162000D01*
X-5201570Y-27195938D01*
X-5160320Y-27207250D01*
X-5118852Y-27195938D01*
X-5091195Y-27162000D01*
G37*
%LPD*%
G36*
X-5545336Y-27265250D02*
G01*
X-5617242Y-27298531D01*
X-5716961Y-27309625D01*
X-5816305Y-27298531D01*
X-5887836Y-27265250D01*
X-5931055Y-27210281D01*
X-5945461Y-27134125D01*
X-5937898Y-27082719D01*
X-5915211Y-27041000D01*
X-5877680Y-27009250D01*
X-5825586Y-26987750D01*
X-5872211Y-26967375D01*
X-5905836Y-26938500D01*
X-5926180Y-26901156D01*
X-5932961Y-26855625D01*
X-5919180Y-26790406D01*
X-5877836Y-26743000D01*
X-5810117Y-26714125D01*
X-5716961Y-26704500D01*
X-5623211Y-26714188D01*
X-5555211Y-26743250D01*
X-5513961Y-26790656D01*
X-5500211Y-26855625D01*
X-5506930Y-26901156D01*
X-5527086Y-26938500D01*
X-5560617Y-26967375D01*
X-5607211Y-26987750D01*
X-5555117Y-27009250D01*
X-5517586Y-27041000D01*
X-5494898Y-27082719D01*
X-5487336Y-27134125D01*
X-5501836Y-27210281D01*
X-5545336Y-27265250D01*
G37*
%LPC*%
G36*
X-5781086Y-27192250D02*
G01*
X-5753930Y-27209312D01*
X-5716961Y-27215000D01*
X-5679680Y-27209312D01*
X-5652086Y-27192250D01*
X-5635117Y-27164344D01*
X-5629461Y-27126375D01*
X-5635117Y-27088375D01*
X-5652086Y-27060375D01*
X-5679680Y-27043031D01*
X-5716961Y-27037250D01*
X-5753930Y-27042969D01*
X-5781086Y-27060125D01*
X-5797773Y-27088125D01*
X-5803336Y-27126375D01*
X-5797773Y-27164344D01*
X-5781086Y-27192250D01*
G37*
%LPC*%
G36*
X-5785648Y-26840188D02*
G01*
X-5790461Y-26870875D01*
X-5785648Y-26901625D01*
X-5771211Y-26924375D01*
X-5748086Y-26938438D01*
X-5716961Y-26943125D01*
X-5685211Y-26938438D01*
X-5661711Y-26924375D01*
X-5647180Y-26901625D01*
X-5642336Y-26870875D01*
X-5647180Y-26840406D01*
X-5661711Y-26817750D01*
X-5685211Y-26803688D01*
X-5716961Y-26799000D01*
X-5748086Y-26803656D01*
X-5771211Y-26817625D01*
X-5785648Y-26840188D01*
G37*
%LPD*%
G36*
X-6048977Y-27135594D02*
G01*
X-6095852Y-27230875D01*
X-6171539Y-27289938D01*
X-6273602Y-27309625D01*
X-6375383Y-27289938D01*
X-6450977Y-27230875D01*
X-6497852Y-27135594D01*
X-6513477Y-27007250D01*
X-6497852Y-26878562D01*
X-6450977Y-26783250D01*
X-6375383Y-26724188D01*
X-6273602Y-26704500D01*
X-6171539Y-26724188D01*
X-6095852Y-26783250D01*
X-6048977Y-26878562D01*
X-6033352Y-27007250D01*
X-6048977Y-27135594D01*
G37*
%LPC*%
G36*
X-6188914Y-26912812D02*
G01*
X-6204477Y-26852000D01*
X-6232133Y-26818438D01*
X-6273602Y-26807250D01*
X-6315102Y-26818438D01*
X-6342602Y-26852000D01*
X-6357977Y-26912812D01*
X-6363102Y-27006000D01*
X-6357914Y-27100312D01*
X-6342352Y-27162000D01*
X-6314852Y-27195938D01*
X-6273602Y-27207250D01*
X-6232133Y-27195938D01*
X-6204477Y-27162000D01*
X-6188914Y-27100312D01*
X-6183727Y-27006000D01*
X-6188914Y-26912812D01*
G37*
%LPD*%
G36*
X-3616633Y-27051000D02*
G01*
X-3856883Y-27051000D01*
X-3856883Y-26937250D01*
X-3616633Y-26937250D01*
X-3616633Y-26828750D01*
X-3872008Y-26828750D01*
X-3872008Y-26715000D01*
X-3466258Y-26715000D01*
X-3466258Y-27298250D01*
X-3880633Y-27298250D01*
X-3880633Y-27184625D01*
X-3616633Y-27184625D01*
X-3616633Y-27051000D01*
G37*
%LPD*%
G36*
X-4429055Y-27253781D02*
G01*
X-4480617Y-27215000D01*
X-4516336Y-27172531D01*
X-4541492Y-27123875D01*
X-4556492Y-27068531D01*
X-4561492Y-27006000D01*
X-4556492Y-26944281D01*
X-4541492Y-26889375D01*
X-4516336Y-26840781D01*
X-4480617Y-26798250D01*
X-4429492Y-26759500D01*
X-4369117Y-26734000D01*
X-4287148Y-26719750D01*
X-4171242Y-26715000D01*
X-4012742Y-26715000D01*
X-4012742Y-27298250D01*
X-4171242Y-27298250D01*
X-4286086Y-27293531D01*
X-4368117Y-27279375D01*
X-4429055Y-27253781D01*
G37*
%LPC*%
G36*
X-4406492Y-27006000D02*
G01*
X-4394305Y-27082781D01*
X-4357742Y-27138875D01*
X-4298242Y-27173188D01*
X-4216992Y-27184625D01*
X-4163117Y-27184625D01*
X-4163117Y-26828750D01*
X-4216992Y-26828750D01*
X-4298555Y-26840094D01*
X-4357992Y-26874125D01*
X-4394367Y-26929719D01*
X-4406492Y-27006000D01*
G37*
%LPD*%
G36*
X-6192305Y-25044750D02*
G01*
X-5988430Y-25044750D01*
X-5988430Y-24840000D01*
X-5895430Y-24840000D01*
X-5895430Y-25044750D01*
X-5691555Y-25044750D01*
X-5691555Y-25136875D01*
X-5895430Y-25136875D01*
X-5895430Y-25341625D01*
X-5988430Y-25341625D01*
X-5988430Y-25136875D01*
X-6192305Y-25136875D01*
X-6192305Y-25044750D01*
G37*
%LPD*%
G36*
X-8391258Y-24767562D02*
G01*
X-8286508Y-24758375D01*
X-8060758Y-24758375D01*
X-8060758Y-25341625D01*
X-8310258Y-25341625D01*
X-8411883Y-25331281D01*
X-8483758Y-25300250D01*
X-8526508Y-25248031D01*
X-8540758Y-25174375D01*
X-8534102Y-25123656D01*
X-8514133Y-25081500D01*
X-8482164Y-25049562D01*
X-8439258Y-25029500D01*
X-8472633Y-25011156D01*
X-8497008Y-24985125D01*
X-8512008Y-24952094D01*
X-8517008Y-24912750D01*
X-8503383Y-24842906D01*
X-8462508Y-24795125D01*
X-8391258Y-24767562D01*
G37*
%LPC*%
G36*
X-8366508Y-24922500D02*
G01*
X-8361914Y-24949281D01*
X-8348133Y-24968625D01*
X-8325539Y-24980344D01*
X-8294258Y-24984250D01*
X-8211133Y-24984250D01*
X-8211133Y-24860750D01*
X-8294258Y-24860750D01*
X-8325539Y-24864719D01*
X-8348133Y-24876625D01*
X-8361914Y-24895969D01*
X-8366508Y-24922500D01*
G37*
%LPC*%
G36*
X-8390383Y-25162375D02*
G01*
X-8384664Y-25196125D01*
X-8367508Y-25220125D01*
X-8339039Y-25234469D01*
X-8299383Y-25239250D01*
X-8211133Y-25239250D01*
X-8211133Y-25086500D01*
X-8299383Y-25086500D01*
X-8339352Y-25091250D01*
X-8367758Y-25105500D01*
X-8384727Y-25129156D01*
X-8390383Y-25162375D01*
G37*
%LPD*%
G36*
X-4931336Y-25235375D02*
G01*
X-4968086Y-25341625D01*
X-5119211Y-25341625D01*
X-4903211Y-24758375D01*
X-4723836Y-24758375D01*
X-4507836Y-25341625D01*
X-4659086Y-25341625D01*
X-4696211Y-25235375D01*
X-4931336Y-25235375D01*
G37*
%LPC*%
G36*
X-4893461Y-25127125D02*
G01*
X-4733711Y-25127125D01*
X-4813711Y-24895125D01*
X-4893461Y-25127125D01*
G37*
%LPD*%
G36*
X-5064977Y-24758375D02*
G01*
X-5064977Y-24872125D01*
X-5258727Y-24872125D01*
X-5258727Y-25341625D01*
X-5409102Y-25341625D01*
X-5409102Y-24872125D01*
X-5602477Y-24872125D01*
X-5602477Y-24758375D01*
X-5064977Y-24758375D01*
G37*
%LPD*%
G36*
X-4298195Y-24767562D02*
G01*
X-4193445Y-24758375D01*
X-3967695Y-24758375D01*
X-3967695Y-25341625D01*
X-4217195Y-25341625D01*
X-4318820Y-25331281D01*
X-4390695Y-25300250D01*
X-4433445Y-25248031D01*
X-4447695Y-25174375D01*
X-4441039Y-25123656D01*
X-4421070Y-25081500D01*
X-4389102Y-25049562D01*
X-4346195Y-25029500D01*
X-4379570Y-25011156D01*
X-4403945Y-24985125D01*
X-4418945Y-24952094D01*
X-4423945Y-24912750D01*
X-4410320Y-24842906D01*
X-4369445Y-24795125D01*
X-4298195Y-24767562D01*
G37*
%LPC*%
G36*
X-4273445Y-24922500D02*
G01*
X-4268852Y-24949281D01*
X-4255070Y-24968625D01*
X-4232477Y-24980344D01*
X-4201195Y-24984250D01*
X-4118070Y-24984250D01*
X-4118070Y-24860750D01*
X-4201195Y-24860750D01*
X-4232477Y-24864719D01*
X-4255070Y-24876625D01*
X-4268852Y-24895969D01*
X-4273445Y-24922500D01*
G37*
%LPC*%
G36*
X-4297320Y-25162375D02*
G01*
X-4291602Y-25196125D01*
X-4274445Y-25220125D01*
X-4245977Y-25234469D01*
X-4206320Y-25239250D01*
X-4118070Y-25239250D01*
X-4118070Y-25086500D01*
X-4206320Y-25086500D01*
X-4246289Y-25091250D01*
X-4274695Y-25105500D01*
X-4291664Y-25129156D01*
X-4297320Y-25162375D01*
G37*
%LPD*%
G36*
X-8032445Y-20668125D02*
G01*
X-8032445Y-20554500D01*
X-7787195Y-20554500D01*
X-7787195Y-20668125D01*
X-8032445Y-20668125D01*
G37*
%LPD*%
G36*
X-7433305Y-20258375D02*
G01*
X-7207555Y-20258375D01*
X-7207555Y-20841625D01*
X-7457055Y-20841625D01*
X-7558680Y-20831281D01*
X-7630555Y-20800250D01*
X-7673305Y-20748031D01*
X-7687555Y-20674375D01*
X-7680898Y-20623656D01*
X-7660930Y-20581500D01*
X-7628961Y-20549562D01*
X-7586055Y-20529500D01*
X-7619430Y-20511156D01*
X-7643805Y-20485125D01*
X-7658805Y-20452094D01*
X-7663805Y-20412750D01*
X-7650180Y-20342906D01*
X-7609305Y-20295125D01*
X-7538055Y-20267562D01*
X-7433305Y-20258375D01*
G37*
%LPC*%
G36*
X-7508711Y-20449281D02*
G01*
X-7494930Y-20468625D01*
X-7472336Y-20480344D01*
X-7441055Y-20484250D01*
X-7357930Y-20484250D01*
X-7357930Y-20360750D01*
X-7441055Y-20360750D01*
X-7472336Y-20364719D01*
X-7494930Y-20376625D01*
X-7508711Y-20395969D01*
X-7513305Y-20422500D01*
X-7508711Y-20449281D01*
G37*
%LPC*%
G36*
X-7531461Y-20696125D02*
G01*
X-7514305Y-20720125D01*
X-7485836Y-20734469D01*
X-7446180Y-20739250D01*
X-7357930Y-20739250D01*
X-7357930Y-20586500D01*
X-7446180Y-20586500D01*
X-7486148Y-20591250D01*
X-7514555Y-20605500D01*
X-7531523Y-20629156D01*
X-7537180Y-20662375D01*
X-7531461Y-20696125D01*
G37*
%LPD*%
G36*
X-6290508Y-17444312D02*
G01*
X-6086633Y-17444312D01*
X-6086633Y-17239562D01*
X-5993633Y-17239562D01*
X-5993633Y-17444312D01*
X-5789758Y-17444312D01*
X-5789758Y-17536437D01*
X-5993633Y-17536437D01*
X-5993633Y-17741188D01*
X-6086633Y-17741188D01*
X-6086633Y-17536437D01*
X-6290508Y-17536437D01*
X-6290508Y-17444312D01*
G37*
%LPD*%
G36*
X-5085820Y-17157938D02*
G01*
X-4935445Y-17157938D01*
X-4935445Y-17507562D01*
X-4929539Y-17569531D01*
X-4911820Y-17610938D01*
X-4880633Y-17634188D01*
X-4834320Y-17641938D01*
X-4788289Y-17634188D01*
X-4757195Y-17610938D01*
X-4739477Y-17569531D01*
X-4733570Y-17507562D01*
X-4733570Y-17157938D01*
X-4583195Y-17157938D01*
X-4583195Y-17507562D01*
X-4598695Y-17615625D01*
X-4645195Y-17692062D01*
X-4723539Y-17737438D01*
X-4834320Y-17752562D01*
X-4945352Y-17737438D01*
X-5023695Y-17692062D01*
X-5070289Y-17615625D01*
X-5085820Y-17507562D01*
X-5085820Y-17157938D01*
G37*
%LPD*%
G36*
X-4169492Y-17752562D02*
G01*
X-4294867Y-17732438D01*
X-4389742Y-17672062D01*
X-4449555Y-17576344D01*
X-4469492Y-17450188D01*
X-4449555Y-17323688D01*
X-4389742Y-17227938D01*
X-4294867Y-17167562D01*
X-4169492Y-17147438D01*
X-4044336Y-17167562D01*
X-3949367Y-17227938D01*
X-3889461Y-17323688D01*
X-3869492Y-17450188D01*
X-3889461Y-17576344D01*
X-3949367Y-17672062D01*
X-4044336Y-17732438D01*
X-4169492Y-17752562D01*
G37*
%LPC*%
G36*
X-4169492Y-17643562D02*
G01*
X-4108461Y-17630875D01*
X-4062867Y-17592812D01*
X-4034461Y-17531719D01*
X-4024992Y-17450188D01*
X-4034461Y-17368312D01*
X-4062867Y-17307187D01*
X-4108461Y-17269125D01*
X-4169492Y-17256438D01*
X-4230805Y-17269125D01*
X-4276492Y-17307187D01*
X-4304898Y-17368312D01*
X-4314367Y-17450188D01*
X-4304898Y-17531719D01*
X-4276492Y-17592812D01*
X-4230805Y-17630875D01*
X-4169492Y-17643562D01*
G37*
%LPD*%
G36*
X-5356930Y-17271688D02*
G01*
X-5356930Y-17741188D01*
X-5507305Y-17741188D01*
X-5507305Y-17271688D01*
X-5700680Y-17271688D01*
X-5700680Y-17157938D01*
X-5163180Y-17157938D01*
X-5163180Y-17271688D01*
X-5356930Y-17271688D01*
G37*
%LPD*%
G36*
X-4235148Y15814375D02*
G01*
X-4235148Y15933500D01*
X-4094523Y15933500D01*
X-4094523Y15814375D01*
X-4055523Y15668750D01*
X-4138648Y15668750D01*
X-4235148Y15814375D01*
G37*
%LPD*%
G36*
X-3743352Y15728656D02*
G01*
X-3728914Y15712875D01*
X-3707945Y15704344D01*
X-3677289Y15701500D01*
X-3633539Y15701500D01*
X-3633539Y15609750D01*
X-3714414Y15609750D01*
X-3769008Y15617031D01*
X-3811789Y15638875D01*
X-3846445Y15678906D01*
X-3876414Y15741000D01*
X-4060414Y16219875D01*
X-3920664Y16219875D01*
X-3820664Y15923000D01*
X-3703039Y16219875D01*
X-3563164Y16219875D01*
X-3758164Y15765625D01*
X-3754164Y15753500D01*
X-3743352Y15728656D01*
G37*
%LPD*%
G36*
X-6776039Y15812375D02*
G01*
X-6808602Y15845625D01*
X-6808602Y15782375D01*
X-6948477Y15782375D01*
X-6948477Y16219875D01*
X-6808602Y16219875D01*
X-6808602Y16003875D01*
X-6802352Y15950656D01*
X-6783602Y15910500D01*
X-6753914Y15885281D01*
X-6714852Y15876875D01*
X-6697883Y15878719D01*
X-6682977Y15884250D01*
X-6670445Y15893281D01*
X-6660602Y15905375D01*
X-6654945Y15919156D01*
X-6651227Y15939250D01*
X-6649164Y15969875D01*
X-6648477Y16015250D01*
X-6648570Y16042094D01*
X-6648852Y16086875D01*
X-6649133Y16136063D01*
X-6649227Y16176125D01*
X-6649227Y16219875D01*
X-6508602Y16219875D01*
X-6508602Y15952750D01*
X-6518508Y15874562D01*
X-6548227Y15817500D01*
X-6596914Y15782625D01*
X-6663727Y15771000D01*
X-6704445Y15775531D01*
X-6741602Y15789125D01*
X-6776039Y15812375D01*
G37*
%LPD*%
G36*
X-5119883Y15904594D02*
G01*
X-5167789Y15831875D01*
X-5244008Y15786219D01*
X-5344914Y15771000D01*
X-5445445Y15786219D01*
X-5521289Y15831875D01*
X-5568914Y15904594D01*
X-5584789Y16000750D01*
X-5568914Y16096781D01*
X-5521289Y16169375D01*
X-5445445Y16215125D01*
X-5344914Y16230375D01*
X-5244008Y16215125D01*
X-5167789Y16169375D01*
X-5119883Y16096781D01*
X-5103914Y16000750D01*
X-5119883Y15904594D01*
G37*
%LPC*%
G36*
X-5432977Y15945219D02*
G01*
X-5414789Y15904375D01*
X-5385258Y15879344D01*
X-5344914Y15871000D01*
X-5303945Y15879344D01*
X-5274039Y15904375D01*
X-5255758Y15945219D01*
X-5249664Y16000750D01*
X-5255758Y16056250D01*
X-5274039Y16097000D01*
X-5303945Y16122031D01*
X-5344914Y16130375D01*
X-5385258Y16122031D01*
X-5414789Y16097000D01*
X-5432977Y16056250D01*
X-5439039Y16000750D01*
X-5432977Y15945219D01*
G37*
%LPD*%
G36*
X-4881695Y16230375D02*
G01*
X-4776195Y16215187D01*
X-4696445Y16169625D01*
X-4646383Y16097094D01*
X-4629695Y16000750D01*
X-4646383Y15904375D01*
X-4696445Y15831750D01*
X-4776195Y15786188D01*
X-4881695Y15771000D01*
X-4915633Y15772531D01*
X-4949445Y15777125D01*
X-4982977Y15784656D01*
X-5016070Y15795250D01*
X-5016070Y15909750D01*
X-4989945Y15892938D01*
X-4961570Y15880750D01*
X-4931227Y15873438D01*
X-4899195Y15871000D01*
X-4847164Y15879531D01*
X-4808070Y15905125D01*
X-4783602Y15946156D01*
X-4775445Y16000750D01*
X-4783602Y16055312D01*
X-4808070Y16096250D01*
X-4847164Y16121844D01*
X-4899195Y16130375D01*
X-4929539Y16128031D01*
X-4958820Y16121000D01*
X-4987508Y16109094D01*
X-5016070Y16092125D01*
X-5016070Y16206250D01*
X-4982789Y16216844D01*
X-4949445Y16224375D01*
X-4915820Y16228875D01*
X-4881695Y16230375D01*
G37*
%LPD*%
G36*
X-5826148Y15782375D02*
G01*
X-5826148Y16219875D01*
X-5686398Y16219875D01*
X-5686398Y15782375D01*
X-5826148Y15782375D01*
G37*
%LPD*%
G36*
X-7255227Y16189094D02*
G01*
X-7222633Y16155875D01*
X-7222633Y16219875D01*
X-7082883Y16219875D01*
X-7082883Y15782375D01*
X-7222633Y15782375D01*
X-7222633Y15997625D01*
X-7228883Y16050875D01*
X-7247633Y16091125D01*
X-7277320Y16116531D01*
X-7316383Y16125000D01*
X-7333383Y16123094D01*
X-7348383Y16117375D01*
X-7361039Y16108219D01*
X-7370758Y16096000D01*
X-7376070Y16083031D01*
X-7379508Y16064375D01*
X-7381383Y16034094D01*
X-7382008Y15986250D01*
X-7382008Y15825750D01*
X-7382008Y15782375D01*
X-7522633Y15782375D01*
X-7522633Y16048750D01*
X-7512820Y16126906D01*
X-7483383Y16183875D01*
X-7435008Y16218750D01*
X-7368383Y16230375D01*
X-7327227Y16225844D01*
X-7289758Y16212250D01*
X-7255227Y16189094D01*
G37*
%LPD*%
G36*
X-7673039Y16166125D02*
G01*
X-7634133Y16092656D01*
X-7621164Y16000750D01*
X-7634133Y15908812D01*
X-7673039Y15835250D01*
X-7732258Y15787062D01*
X-7805914Y15771000D01*
X-7848820Y15775500D01*
X-7886289Y15789000D01*
X-7919664Y15812156D01*
X-7950039Y15845625D01*
X-7950039Y15782375D01*
X-8090664Y15782375D01*
X-8090664Y16390250D01*
X-7950039Y16390250D01*
X-7950039Y16155875D01*
X-7919633Y16189094D01*
X-7886164Y16212250D01*
X-7848602Y16225844D01*
X-7805914Y16230375D01*
X-7732258Y16214312D01*
X-7673039Y16166125D01*
G37*
%LPC*%
G36*
X-7789664Y16096000D02*
G01*
X-7818508Y16120656D01*
X-7857789Y16128875D01*
X-7897445Y16120656D01*
X-7926414Y16096000D01*
X-7944133Y16055812D01*
X-7950039Y16000750D01*
X-7944133Y15945656D01*
X-7926414Y15905375D01*
X-7897445Y15880812D01*
X-7857789Y15872625D01*
X-7818508Y15880812D01*
X-7789664Y15905375D01*
X-7771945Y15945656D01*
X-7766039Y16000750D01*
X-7771945Y16055812D01*
X-7789664Y16096000D01*
G37*
%LPD*%
G36*
X-6100367Y16390250D02*
G01*
X-5960617Y16390250D01*
X-5960617Y15782375D01*
X-6100367Y15782375D01*
X-6100367Y16390250D01*
G37*
%LPD*%
G36*
X-5826148Y16276125D02*
G01*
X-5826148Y16390250D01*
X-5686398Y16390250D01*
X-5686398Y16276125D01*
X-5826148Y16276125D01*
G37*
%LPD*%
G36*
X-4483883Y17707156D02*
G01*
X-4461227Y17706438D01*
X-4384820Y17719031D01*
X-4328102Y17756812D01*
X-4292945Y17817812D01*
X-4281227Y17899812D01*
X-4293383Y17982375D01*
X-4329852Y18043312D01*
X-4388758Y18081000D01*
X-4468227Y18093562D01*
X-4516664Y18090125D01*
X-4564977Y18079812D01*
X-4613352Y18062688D01*
X-4661977Y18038562D01*
X-4661977Y18159187D01*
X-4613195Y18178031D01*
X-4561352Y18191562D01*
X-4506883Y18199812D01*
X-4449977Y18202562D01*
X-4315133Y18182344D01*
X-4212352Y18121688D01*
X-4147383Y18025781D01*
X-4125727Y17899812D01*
X-4147008Y17774906D01*
X-4210852Y17678938D01*
X-4311133Y17617812D01*
X-4441727Y17597437D01*
X-4505227Y17600844D01*
X-4566727Y17611062D01*
X-4626164Y17628219D01*
X-4683477Y17652188D01*
X-4683477Y17932688D01*
X-4449102Y17932688D01*
X-4449102Y17831812D01*
X-4540977Y17831812D01*
X-4540977Y17718562D01*
X-4523945Y17713125D01*
X-4504852Y17709312D01*
X-4483883Y17707156D01*
G37*
%LPD*%
G36*
X-8101391Y18196312D02*
G01*
X-8057453Y18188500D01*
X-8013141Y18177562D01*
X-8013141Y18067437D01*
X-8049984Y18081469D01*
X-8087016Y18091562D01*
X-8123922Y18097750D01*
X-8160391Y18099812D01*
X-8204047Y18095219D01*
X-8236516Y18081438D01*
X-8256766Y18059281D01*
X-8263516Y18029562D01*
X-8256578Y17997844D01*
X-8235766Y17975438D01*
X-8200859Y17962125D01*
X-8151391Y17957688D01*
X-8088141Y17957688D01*
X-8088141Y17860812D01*
X-8148266Y17860812D01*
X-8204234Y17855688D01*
X-8244641Y17840312D01*
X-8269109Y17814969D01*
X-8277266Y17779938D01*
X-8269297Y17745688D01*
X-8245391Y17720438D01*
X-8206547Y17704969D01*
X-8153766Y17699812D01*
X-8113172Y17702500D01*
X-8071891Y17710562D01*
X-8030203Y17723906D01*
X-7988141Y17742437D01*
X-7988141Y17626437D01*
X-8032516Y17613750D01*
X-8077391Y17604687D01*
X-8122484Y17599250D01*
X-8167516Y17597437D01*
X-8279547Y17608719D01*
X-8361141Y17642562D01*
X-8411016Y17698094D01*
X-8427641Y17774437D01*
X-8419953Y17827531D01*
X-8396891Y17870312D01*
X-8359172Y17902437D01*
X-8307266Y17923312D01*
X-8353547Y17941406D01*
X-8386891Y17969188D01*
X-8407141Y18006437D01*
X-8413891Y18052938D01*
X-8399766Y18118500D01*
X-8357391Y18165188D01*
X-8286703Y18193219D01*
X-8187391Y18202562D01*
X-8144766Y18201000D01*
X-8101391Y18196312D01*
G37*
%LPD*%
G36*
X-6925609Y18196312D02*
G01*
X-6881672Y18188500D01*
X-6837359Y18177562D01*
X-6837359Y18067437D01*
X-6874203Y18081469D01*
X-6911234Y18091562D01*
X-6948141Y18097750D01*
X-6984609Y18099812D01*
X-7028266Y18095219D01*
X-7060734Y18081438D01*
X-7080984Y18059281D01*
X-7087734Y18029562D01*
X-7080797Y17997844D01*
X-7059984Y17975438D01*
X-7025078Y17962125D01*
X-6975609Y17957688D01*
X-6912359Y17957688D01*
X-6912359Y17860812D01*
X-6972484Y17860812D01*
X-7028453Y17855688D01*
X-7068859Y17840312D01*
X-7093328Y17814969D01*
X-7101484Y17779938D01*
X-7093516Y17745688D01*
X-7069609Y17720438D01*
X-7030766Y17704969D01*
X-6977984Y17699812D01*
X-6937391Y17702500D01*
X-6896109Y17710562D01*
X-6854422Y17723906D01*
X-6812359Y17742437D01*
X-6812359Y17626437D01*
X-6856734Y17613750D01*
X-6901609Y17604687D01*
X-6946703Y17599250D01*
X-6991734Y17597437D01*
X-7103766Y17608719D01*
X-7185359Y17642562D01*
X-7235234Y17698094D01*
X-7251859Y17774437D01*
X-7244172Y17827531D01*
X-7221109Y17870312D01*
X-7183391Y17902437D01*
X-7131484Y17923312D01*
X-7177766Y17941406D01*
X-7211109Y17969188D01*
X-7231359Y18006437D01*
X-7238109Y18052938D01*
X-7223984Y18118500D01*
X-7181609Y18165188D01*
X-7110922Y18193219D01*
X-7011609Y18202562D01*
X-6968984Y18201000D01*
X-6925609Y18196312D01*
G37*
%LPD*%
G36*
X-4983867Y18192062D02*
G01*
X-4815992Y18192062D01*
X-4815992Y17608812D01*
X-4958492Y17608812D01*
X-4958492Y18008812D01*
X-5170617Y17608812D01*
X-5338617Y17608812D01*
X-5338617Y18192062D01*
X-5195992Y18192062D01*
X-5195992Y17792062D01*
X-4983867Y18192062D01*
G37*
%LPD*%
G36*
X-6029273Y17838531D02*
G01*
X-6034273Y17901062D01*
X-6029273Y17962781D01*
X-6014273Y18017687D01*
X-5989117Y18066281D01*
X-5953398Y18108812D01*
X-5902273Y18147562D01*
X-5841898Y18173062D01*
X-5759930Y18187312D01*
X-5644023Y18192062D01*
X-5485523Y18192062D01*
X-5485523Y17608812D01*
X-5644023Y17608812D01*
X-5758867Y17613531D01*
X-5840898Y17627687D01*
X-5901836Y17653281D01*
X-5953398Y17692062D01*
X-5989117Y17734531D01*
X-6014273Y17783187D01*
X-6029273Y17838531D01*
G37*
%LPC*%
G36*
X-5689773Y17722437D02*
G01*
X-5635898Y17722437D01*
X-5635898Y18078312D01*
X-5689773Y18078312D01*
X-5771336Y18066969D01*
X-5830773Y18032938D01*
X-5867148Y17977344D01*
X-5879273Y17901062D01*
X-5867086Y17824281D01*
X-5830523Y17768188D01*
X-5771023Y17733875D01*
X-5689773Y17722437D01*
G37*
%LPD*%
G36*
X-7930750Y18192062D02*
G01*
X-7779625Y18192062D01*
X-7625250Y17761562D01*
X-7470625Y18192062D01*
X-7319375Y18192062D01*
X-7535375Y17608812D01*
X-7714750Y17608812D01*
X-7930750Y18192062D01*
G37*
%LPD*%
G36*
X-4278015Y21511887D02*
G01*
X-4333530Y21474234D01*
X-4414015Y21448402D01*
X-4475905Y21434723D01*
X-4522954Y21421408D01*
X-4551210Y21406434D01*
X-4565354Y21387342D01*
X-4570069Y21361676D01*
X-4563130Y21332988D01*
X-4542312Y21311738D01*
X-4508411Y21298689D01*
X-4462226Y21294340D01*
X-4409731Y21298324D01*
X-4355312Y21310277D01*
X-4298933Y21330199D01*
X-4240562Y21357824D01*
X-4240562Y21223020D01*
X-4299929Y21203695D01*
X-4359296Y21189816D01*
X-4418530Y21181350D01*
X-4477499Y21178527D01*
X-4586438Y21191045D01*
X-4663304Y21228598D01*
X-4708925Y21291750D01*
X-4724132Y21381066D01*
X-4713208Y21450195D01*
X-4680437Y21501395D01*
X-4621933Y21538383D01*
X-4533546Y21564613D01*
X-4465546Y21578293D01*
X-4424474Y21589217D01*
X-4398476Y21602066D01*
X-4384630Y21618768D01*
X-4380015Y21640980D01*
X-4386854Y21669801D01*
X-4407374Y21689855D01*
X-4442304Y21701709D01*
X-4492108Y21705660D01*
X-4536601Y21702738D01*
X-4583749Y21693973D01*
X-4632956Y21679596D01*
X-4683358Y21659574D01*
X-4683358Y21790793D01*
X-4626647Y21804174D01*
X-4571796Y21813770D01*
X-4518571Y21819547D01*
X-4466741Y21821473D01*
X-4367729Y21809021D01*
X-4294882Y21771668D01*
X-4250058Y21711172D01*
X-4235116Y21629293D01*
X-4245841Y21563020D01*
X-4278015Y21511887D01*
G37*
%LPD*%
G36*
X-4139275Y21608176D02*
G01*
X-4123437Y21694105D01*
X-4075924Y21757723D01*
X-3998926Y21797168D01*
X-3894369Y21810316D01*
X-3629275Y21810316D01*
X-3629275Y21190613D01*
X-3789049Y21190613D01*
X-3789049Y21405637D01*
X-3894369Y21405637D01*
X-3998926Y21418752D01*
X-4075924Y21458098D01*
X-4123437Y21521848D01*
X-4139275Y21608176D01*
G37*
%LPC*%
G36*
X-3918574Y21527094D02*
G01*
X-3877369Y21521449D01*
X-3789049Y21521449D01*
X-3789049Y21694504D01*
X-3877369Y21694504D01*
X-3918574Y21688893D01*
X-3949221Y21672059D01*
X-3968246Y21644865D01*
X-3974588Y21608176D01*
X-3968246Y21571354D01*
X-3949221Y21544027D01*
X-3918574Y21527094D01*
G37*
%LPD*%
G36*
X-4276010Y23712832D02*
G01*
X-4356143Y23594969D01*
X-4484670Y23521387D01*
X-4656158Y23496859D01*
X-4736799Y23500770D01*
X-4817439Y23512500D01*
X-4898080Y23531848D01*
X-4978721Y23558609D01*
X-4978721Y23733703D01*
X-4900314Y23696074D01*
X-4823939Y23669312D01*
X-4749646Y23653316D01*
X-4677080Y23647984D01*
X-4598115Y23657988D01*
X-4538752Y23688000D01*
X-4499549Y23738020D01*
X-4481064Y23808047D01*
X-5012236Y23808047D01*
X-5012236Y23872641D01*
X-4987100Y24024578D01*
X-4911689Y24142391D01*
X-4794385Y24218105D01*
X-4643564Y24243344D01*
X-4479135Y24218410D01*
X-4354314Y24143609D01*
X-4275553Y24025492D01*
X-4249299Y23870203D01*
X-4276010Y23712832D01*
G37*
%LPC*%
G36*
X-4778643Y23948203D02*
G01*
X-4483502Y23948203D01*
X-4501428Y24009902D01*
X-4534893Y24055250D01*
X-4582322Y24083129D01*
X-4642143Y24092422D01*
X-4697291Y24082469D01*
X-4740861Y24052609D01*
X-4769197Y24006703D01*
X-4778643Y23948203D01*
G37*
%LPD*%
G36*
X-6997174Y24226281D02*
G01*
X-6769268Y24226281D01*
X-6592955Y23734922D01*
X-6415830Y24226281D01*
X-6188533Y24226281D01*
X-6467830Y23515344D01*
X-6717268Y23515344D01*
X-6997174Y24226281D01*
G37*
%LPD*%
G36*
X-4084209Y24226281D02*
G01*
X-3857115Y24226281D01*
X-3857115Y23515344D01*
X-4084209Y23515344D01*
X-4084209Y24226281D01*
G37*
%LPD*%
G36*
X-5411504Y24226281D02*
G01*
X-5184410Y24226281D01*
X-5184410Y23515344D01*
X-5411504Y23515344D01*
X-5411504Y23842984D01*
X-5423336Y23935457D01*
X-5458832Y24003656D01*
X-5516215Y24045855D01*
X-5593707Y24059922D01*
X-5623465Y24058246D01*
X-5653020Y24053219D01*
X-5682727Y24044840D01*
X-5712535Y24032703D01*
X-5711723Y24238266D01*
X-5689328Y24240906D01*
X-5672926Y24242328D01*
X-5660180Y24243090D01*
X-5648348Y24243344D01*
X-5574562Y24235320D01*
X-5512051Y24211250D01*
X-5458578Y24169863D01*
X-5411504Y24109484D01*
X-5411504Y24226281D01*
G37*
%LPD*%
G36*
X-7384508Y23684141D02*
G01*
X-7168586Y23684141D01*
X-7168586Y23515344D01*
X-7831383Y23515344D01*
X-7831383Y23684141D01*
X-7615461Y23684141D01*
X-7615461Y24463125D01*
X-7383086Y24463125D01*
X-7162898Y24417422D01*
X-7162898Y24251062D01*
X-7384508Y24296766D01*
X-7384508Y23684141D01*
G37*
%LPD*%
G36*
X-4084209Y24503141D02*
G01*
X-3857115Y24503141D01*
X-3857115Y24317687D01*
X-4084209Y24317687D01*
X-4084209Y24503141D01*
G37*
%LPD*%
G36*
X669539Y-27027906D02*
G01*
X631508Y-27017250D01*
X595820Y-27010875D01*
X562258Y-27008750D01*
X513445Y-27015406D01*
X476258Y-27035375D01*
X452633Y-27066781D01*
X444758Y-27108000D01*
X452633Y-27149000D01*
X476258Y-27180500D01*
X513445Y-27200562D01*
X562258Y-27207250D01*
X601445Y-27203844D01*
X643008Y-27193625D01*
X686977Y-27176469D01*
X733383Y-27152500D01*
X733383Y-27270875D01*
X685227Y-27287906D01*
X636758Y-27300000D01*
X587883Y-27307219D01*
X538508Y-27309625D01*
X436195Y-27296250D01*
X359008Y-27256125D01*
X310539Y-27192281D01*
X294383Y-27108000D01*
X309227Y-27023219D01*
X353758Y-26959375D01*
X424945Y-26919344D01*
X519758Y-26906000D01*
X538164Y-26906656D01*
X555883Y-26908625D01*
X573195Y-26911688D01*
X590383Y-26915875D01*
X590383Y-26825625D01*
X336508Y-26825625D01*
X336508Y-26715000D01*
X710383Y-26715000D01*
X710383Y-27043125D01*
X669539Y-27027906D01*
G37*
%LPD*%
G36*
X2538477Y-27007250D02*
G01*
X2554102Y-26878562D01*
X2600977Y-26783250D01*
X2676570Y-26724188D01*
X2778352Y-26704500D01*
X2880414Y-26724188D01*
X2956102Y-26783250D01*
X3002977Y-26878562D01*
X3018602Y-27007250D01*
X3002977Y-27135594D01*
X2956102Y-27230875D01*
X2880414Y-27289938D01*
X2778352Y-27309625D01*
X2676570Y-27289938D01*
X2600977Y-27230875D01*
X2554102Y-27135594D01*
X2538477Y-27007250D01*
G37*
%LPC*%
G36*
X2688852Y-27006000D02*
G01*
X2694039Y-27100312D01*
X2709602Y-27162000D01*
X2737102Y-27195938D01*
X2778352Y-27207250D01*
X2819820Y-27195938D01*
X2847477Y-27162000D01*
X2863039Y-27100312D01*
X2868227Y-27006000D01*
X2863039Y-26912812D01*
X2847477Y-26852000D01*
X2819820Y-26818438D01*
X2778352Y-26807250D01*
X2736852Y-26818438D01*
X2709352Y-26852000D01*
X2693977Y-26912812D01*
X2688852Y-27006000D01*
G37*
%LPD*%
G36*
X-492273Y-26937875D02*
G01*
X-512523Y-26900625D01*
X-519273Y-26854125D01*
X-505148Y-26788562D01*
X-462773Y-26741875D01*
X-392086Y-26713844D01*
X-292773Y-26704500D01*
X-250148Y-26706062D01*
X-206773Y-26710750D01*
X-162836Y-26718562D01*
X-118523Y-26729500D01*
X-118523Y-26839625D01*
X-155367Y-26825594D01*
X-192398Y-26815500D01*
X-229305Y-26809312D01*
X-265773Y-26807250D01*
X-309430Y-26811844D01*
X-341898Y-26825625D01*
X-362148Y-26847781D01*
X-368898Y-26877500D01*
X-361961Y-26909219D01*
X-341148Y-26931625D01*
X-306242Y-26944938D01*
X-256773Y-26949375D01*
X-193523Y-26949375D01*
X-193523Y-27046250D01*
X-253648Y-27046250D01*
X-309617Y-27051375D01*
X-350023Y-27066750D01*
X-374492Y-27092094D01*
X-382648Y-27127125D01*
X-374680Y-27161375D01*
X-350773Y-27186625D01*
X-311930Y-27202094D01*
X-259148Y-27207250D01*
X-218555Y-27204562D01*
X-177273Y-27196500D01*
X-135586Y-27183156D01*
X-93523Y-27164625D01*
X-93523Y-27280625D01*
X-137898Y-27293312D01*
X-182773Y-27302375D01*
X-227867Y-27307812D01*
X-272898Y-27309625D01*
X-384930Y-27298344D01*
X-466523Y-27264500D01*
X-516398Y-27208969D01*
X-533023Y-27132625D01*
X-525336Y-27079531D01*
X-502273Y-27036750D01*
X-464555Y-27004625D01*
X-412648Y-26983750D01*
X-458930Y-26965656D01*
X-492273Y-26937875D01*
G37*
%LPD*%
G36*
X-1052539Y-26783250D02*
G01*
X-976945Y-26724188D01*
X-875164Y-26704500D01*
X-773102Y-26724188D01*
X-697414Y-26783250D01*
X-650539Y-26878562D01*
X-634914Y-27007250D01*
X-650539Y-27135594D01*
X-697414Y-27230875D01*
X-773102Y-27289938D01*
X-875164Y-27309625D01*
X-976945Y-27289938D01*
X-1052539Y-27230875D01*
X-1099414Y-27135594D01*
X-1115039Y-27007250D01*
X-1099414Y-26878562D01*
X-1052539Y-26783250D01*
G37*
%LPC*%
G36*
X-943914Y-27162000D02*
G01*
X-916414Y-27195938D01*
X-875164Y-27207250D01*
X-833695Y-27195938D01*
X-806039Y-27162000D01*
X-790477Y-27100312D01*
X-785289Y-27006000D01*
X-790477Y-26912812D01*
X-806039Y-26852000D01*
X-833695Y-26818438D01*
X-875164Y-26807250D01*
X-916664Y-26818438D01*
X-944164Y-26852000D01*
X-959539Y-26912812D01*
X-964664Y-27006000D01*
X-959477Y-27100312D01*
X-943914Y-27162000D01*
G37*
%LPD*%
G36*
X-1533586Y-26724188D02*
G01*
X-1431805Y-26704500D01*
X-1329742Y-26724188D01*
X-1254055Y-26783250D01*
X-1207180Y-26878562D01*
X-1191555Y-27007250D01*
X-1207180Y-27135594D01*
X-1254055Y-27230875D01*
X-1329742Y-27289938D01*
X-1431805Y-27309625D01*
X-1533586Y-27289938D01*
X-1609180Y-27230875D01*
X-1656055Y-27135594D01*
X-1671680Y-27007250D01*
X-1656055Y-26878562D01*
X-1609180Y-26783250D01*
X-1533586Y-26724188D01*
G37*
%LPC*%
G36*
X-1473055Y-27195938D02*
G01*
X-1431805Y-27207250D01*
X-1390336Y-27195938D01*
X-1362680Y-27162000D01*
X-1347117Y-27100312D01*
X-1341930Y-27006000D01*
X-1347117Y-26912812D01*
X-1362680Y-26852000D01*
X-1390336Y-26818438D01*
X-1431805Y-26807250D01*
X-1473305Y-26818438D01*
X-1500805Y-26852000D01*
X-1516180Y-26912812D01*
X-1521305Y-27006000D01*
X-1516117Y-27100312D01*
X-1500555Y-27162000D01*
X-1473055Y-27195938D01*
G37*
%LPD*%
G36*
X1144773Y-27077500D02*
G01*
X1111711Y-27081531D01*
X1086023Y-27093625D01*
X1064055Y-27116562D01*
X1042398Y-27153375D01*
X971273Y-27298250D01*
X811148Y-27298250D01*
X892773Y-27132625D01*
X917648Y-27088656D01*
X942273Y-27057500D01*
X968273Y-27037094D01*
X997523Y-27025625D01*
X948367Y-27003125D01*
X913398Y-26970875D01*
X892398Y-26928594D01*
X885398Y-26876000D01*
X898836Y-26803625D01*
X939148Y-26753750D01*
X1008180Y-26724688D01*
X1108023Y-26715000D01*
X1337648Y-26715000D01*
X1337648Y-27298250D01*
X1187273Y-27298250D01*
X1187273Y-27077500D01*
X1144773Y-27077500D01*
G37*
%LPC*%
G36*
X1187273Y-26973625D02*
G01*
X1187273Y-26824000D01*
X1124023Y-26824000D01*
X1083461Y-26828312D01*
X1056273Y-26841250D01*
X1040898Y-26864062D01*
X1035773Y-26898250D01*
X1040898Y-26932844D01*
X1056273Y-26956125D01*
X1083461Y-26969250D01*
X1124023Y-26973625D01*
X1187273Y-26973625D01*
G37*
%LPD*%
G36*
X-3106867Y-27184625D02*
G01*
X-3106867Y-26715000D01*
X-2956492Y-26715000D01*
X-2956492Y-27298250D01*
X-3370867Y-27298250D01*
X-3370867Y-27184625D01*
X-3106867Y-27184625D01*
G37*
%LPD*%
G36*
X-2057039Y-27116562D02*
G01*
X-2078695Y-27153375D01*
X-2149820Y-27298250D01*
X-2309945Y-27298250D01*
X-2228320Y-27132625D01*
X-2203445Y-27088656D01*
X-2178820Y-27057500D01*
X-2152820Y-27037094D01*
X-2123570Y-27025625D01*
X-2172727Y-27003125D01*
X-2207695Y-26970875D01*
X-2228695Y-26928594D01*
X-2235695Y-26876000D01*
X-2222258Y-26803625D01*
X-2181945Y-26753750D01*
X-2112914Y-26724688D01*
X-2013070Y-26715000D01*
X-1783445Y-26715000D01*
X-1783445Y-27298250D01*
X-1933820Y-27298250D01*
X-1933820Y-27077500D01*
X-1976320Y-27077500D01*
X-2009383Y-27081531D01*
X-2035070Y-27093625D01*
X-2057039Y-27116562D01*
G37*
%LPC*%
G36*
X-2037633Y-26828312D02*
G01*
X-2064820Y-26841250D01*
X-2080195Y-26864062D01*
X-2085320Y-26898250D01*
X-2080195Y-26932844D01*
X-2064820Y-26956125D01*
X-2037633Y-26969250D01*
X-1997070Y-26973625D01*
X-1933820Y-26973625D01*
X-1933820Y-26824000D01*
X-1997070Y-26824000D01*
X-2037633Y-26828312D01*
G37*
%LPD*%
G36*
X2432961Y-27298250D02*
G01*
X2293211Y-27298250D01*
X2293211Y-27115875D01*
X2122461Y-27298250D01*
X1952961Y-27298250D01*
X2183461Y-27061500D01*
X1969711Y-26860750D01*
X2132211Y-26860750D01*
X2293211Y-27021250D01*
X2293211Y-26690375D01*
X2432961Y-26690375D01*
X2432961Y-27298250D01*
G37*
%LPD*%
G36*
X-3199617Y-25054500D02*
G01*
X-3199617Y-25168125D01*
X-3444867Y-25168125D01*
X-3444867Y-25054500D01*
X-3199617Y-25054500D01*
G37*
%LPD*%
G36*
X-2732414Y-24758375D02*
G01*
X-2732414Y-24872125D01*
X-2926164Y-24872125D01*
X-2926164Y-25341625D01*
X-3076539Y-25341625D01*
X-3076539Y-24872125D01*
X-3269914Y-24872125D01*
X-3269914Y-24758375D01*
X-2732414Y-24758375D01*
G37*
%LPD*%
G36*
X-2036883Y-24795125D02*
G01*
X-1965633Y-24767562D01*
X-1860883Y-24758375D01*
X-1635133Y-24758375D01*
X-1635133Y-25341625D01*
X-1884633Y-25341625D01*
X-1986258Y-25331281D01*
X-2058133Y-25300250D01*
X-2100883Y-25248031D01*
X-2115133Y-25174375D01*
X-2108477Y-25123656D01*
X-2088508Y-25081500D01*
X-2056539Y-25049562D01*
X-2013633Y-25029500D01*
X-2047008Y-25011156D01*
X-2071383Y-24985125D01*
X-2086383Y-24952094D01*
X-2091383Y-24912750D01*
X-2077758Y-24842906D01*
X-2036883Y-24795125D01*
G37*
%LPC*%
G36*
X-1936289Y-24895969D02*
G01*
X-1940883Y-24922500D01*
X-1936289Y-24949281D01*
X-1922508Y-24968625D01*
X-1899914Y-24980344D01*
X-1868633Y-24984250D01*
X-1785508Y-24984250D01*
X-1785508Y-24860750D01*
X-1868633Y-24860750D01*
X-1899914Y-24864719D01*
X-1922508Y-24876625D01*
X-1936289Y-24895969D01*
G37*
%LPC*%
G36*
X-1959102Y-25129156D02*
G01*
X-1964758Y-25162375D01*
X-1959039Y-25196125D01*
X-1941883Y-25220125D01*
X-1913414Y-25234469D01*
X-1873758Y-25239250D01*
X-1785508Y-25239250D01*
X-1785508Y-25086500D01*
X-1873758Y-25086500D01*
X-1913727Y-25091250D01*
X-1942133Y-25105500D01*
X-1959102Y-25129156D01*
G37*
%LPD*%
G36*
X-2326523Y-25341625D02*
G01*
X-2363648Y-25235375D01*
X-2598773Y-25235375D01*
X-2635523Y-25341625D01*
X-2786648Y-25341625D01*
X-2570648Y-24758375D01*
X-2391273Y-24758375D01*
X-2175273Y-25341625D01*
X-2326523Y-25341625D01*
G37*
%LPC*%
G36*
X-2401148Y-25127125D02*
G01*
X-2481148Y-24895125D01*
X-2560898Y-25127125D01*
X-2401148Y-25127125D01*
G37*
%LPD*%
G36*
X-3297820Y-20667688D02*
G01*
X-3543070Y-20667688D01*
X-3543070Y-20554062D01*
X-3297820Y-20554062D01*
X-3297820Y-20667688D01*
G37*
%LPD*%
G36*
X-2753258Y-20607562D02*
G01*
X-2753258Y-20257938D01*
X-2602883Y-20257938D01*
X-2602883Y-20607562D01*
X-2596977Y-20669531D01*
X-2579258Y-20710938D01*
X-2548070Y-20734188D01*
X-2501758Y-20741938D01*
X-2455727Y-20734188D01*
X-2424633Y-20710938D01*
X-2406914Y-20669531D01*
X-2401008Y-20607562D01*
X-2401008Y-20257938D01*
X-2250633Y-20257938D01*
X-2250633Y-20607562D01*
X-2266133Y-20715625D01*
X-2312633Y-20792062D01*
X-2390977Y-20837438D01*
X-2501758Y-20852562D01*
X-2612789Y-20837438D01*
X-2691133Y-20792062D01*
X-2737727Y-20715625D01*
X-2753258Y-20607562D01*
G37*
%LPD*%
G36*
X-1836930Y-20852562D02*
G01*
X-1962305Y-20832438D01*
X-2057180Y-20772062D01*
X-2116992Y-20676344D01*
X-2136930Y-20550188D01*
X-2116992Y-20423688D01*
X-2057180Y-20327938D01*
X-1962305Y-20267562D01*
X-1836930Y-20247438D01*
X-1711773Y-20267562D01*
X-1616805Y-20327938D01*
X-1556898Y-20423688D01*
X-1536930Y-20550188D01*
X-1556898Y-20676344D01*
X-1616805Y-20772062D01*
X-1711773Y-20832438D01*
X-1836930Y-20852562D01*
G37*
%LPC*%
G36*
X-1836930Y-20743562D02*
G01*
X-1775898Y-20730875D01*
X-1730305Y-20692813D01*
X-1701898Y-20631719D01*
X-1692430Y-20550188D01*
X-1701898Y-20468312D01*
X-1730305Y-20407188D01*
X-1775898Y-20369125D01*
X-1836930Y-20356438D01*
X-1898242Y-20369125D01*
X-1943930Y-20407188D01*
X-1972336Y-20468312D01*
X-1981805Y-20550188D01*
X-1972336Y-20631719D01*
X-1943930Y-20692813D01*
X-1898242Y-20730875D01*
X-1836930Y-20743562D01*
G37*
%LPD*%
G36*
X-2830617Y-20371688D02*
G01*
X-3024367Y-20371688D01*
X-3024367Y-20841188D01*
X-3174742Y-20841188D01*
X-3174742Y-20371688D01*
X-3368117Y-20371688D01*
X-3368117Y-20257938D01*
X-2830617Y-20257938D01*
X-2830617Y-20371688D01*
G37*
%LPD*%
G36*
X-1735992Y16183750D02*
G01*
X-1667023Y16218719D01*
X-1565117Y16230375D01*
X-1519836Y16228969D01*
X-1474492Y16224750D01*
X-1429305Y16217781D01*
X-1384242Y16208125D01*
X-1384242Y16101500D01*
X-1418836Y16117250D01*
X-1456117Y16128500D01*
X-1496398Y16135250D01*
X-1539742Y16137500D01*
X-1587898Y16133625D01*
X-1621367Y16122000D01*
X-1641055Y16102156D01*
X-1647617Y16073375D01*
X-1647617Y16062500D01*
X-1565117Y16062500D01*
X-1466930Y16053500D01*
X-1398867Y16026500D01*
X-1359211Y15980344D01*
X-1345992Y15913625D01*
X-1356586Y15856250D01*
X-1388367Y15810625D01*
X-1437148Y15780906D01*
X-1498742Y15771000D01*
X-1545305Y15775531D01*
X-1584242Y15789125D01*
X-1617711Y15812781D01*
X-1647617Y15847250D01*
X-1647617Y15782375D01*
X-1788617Y15782375D01*
X-1788617Y16032000D01*
X-1775461Y16122500D01*
X-1735992Y16183750D01*
G37*
%LPC*%
G36*
X-1647617Y15963250D02*
G01*
X-1640867Y15924188D01*
X-1620617Y15892250D01*
X-1590523Y15871062D01*
X-1554242Y15864000D01*
X-1526055Y15867750D01*
X-1504742Y15879000D01*
X-1491430Y15896969D01*
X-1486992Y15920625D01*
X-1492492Y15946062D01*
X-1508992Y15964375D01*
X-1536523Y15975531D01*
X-1574867Y15979250D01*
X-1647617Y15979250D01*
X-1647617Y15963250D01*
G37*
%LPD*%
G36*
X1486305Y16215125D02*
G01*
X1586836Y16230375D01*
X1687742Y16215125D01*
X1763961Y16169375D01*
X1811867Y16096781D01*
X1827836Y16000750D01*
X1811867Y15904594D01*
X1763961Y15831875D01*
X1687742Y15786219D01*
X1586836Y15771000D01*
X1486305Y15786219D01*
X1410461Y15831875D01*
X1362836Y15904594D01*
X1346961Y16000750D01*
X1362836Y16096781D01*
X1410461Y16169375D01*
X1486305Y16215125D01*
G37*
%LPC*%
G36*
X1627805Y16122031D02*
G01*
X1586836Y16130375D01*
X1546492Y16122031D01*
X1516961Y16097000D01*
X1498773Y16056250D01*
X1492711Y16000750D01*
X1498773Y15945219D01*
X1516961Y15904375D01*
X1546492Y15879344D01*
X1586836Y15871000D01*
X1627805Y15879344D01*
X1657711Y15904375D01*
X1675992Y15945219D01*
X1682086Y16000750D01*
X1675992Y16056250D01*
X1657711Y16097000D01*
X1627805Y16122031D01*
G37*
%LPD*%
G36*
X-421742Y15962500D02*
G01*
X-421742Y16002250D01*
X-406273Y16095750D01*
X-359867Y16168250D01*
X-287680Y16214844D01*
X-194867Y16230375D01*
X-93680Y16215031D01*
X-16867Y16169000D01*
X31602Y16096312D01*
X47758Y16000750D01*
X31320Y15903906D01*
X-17992Y15831375D01*
X-97086Y15786094D01*
X-202617Y15771000D01*
X-252242Y15773406D01*
X-301867Y15780625D01*
X-351492Y15792531D01*
X-401117Y15809000D01*
X-401117Y15916750D01*
X-352867Y15893594D01*
X-305867Y15877125D01*
X-260148Y15867281D01*
X-215492Y15864000D01*
X-166898Y15870156D01*
X-130367Y15888625D01*
X-106242Y15919406D01*
X-94867Y15962500D01*
X-421742Y15962500D01*
G37*
%LPC*%
G36*
X-272180Y16084750D02*
G01*
X-277992Y16048750D01*
X-96367Y16048750D01*
X-107398Y16086719D01*
X-127992Y16114625D01*
X-157180Y16131781D01*
X-193992Y16137500D01*
X-227930Y16131375D01*
X-254742Y16113000D01*
X-272180Y16084750D01*
G37*
%LPD*%
G36*
X-2986117Y16214844D02*
G01*
X-2893305Y16230375D01*
X-2792117Y16215031D01*
X-2715305Y16169000D01*
X-2666836Y16096312D01*
X-2650680Y16000750D01*
X-2667117Y15903906D01*
X-2716430Y15831375D01*
X-2795523Y15786094D01*
X-2901055Y15771000D01*
X-2950680Y15773406D01*
X-3000305Y15780625D01*
X-3049930Y15792531D01*
X-3099555Y15809000D01*
X-3099555Y15916750D01*
X-3051305Y15893594D01*
X-3004305Y15877125D01*
X-2958586Y15867281D01*
X-2913930Y15864000D01*
X-2865336Y15870156D01*
X-2828805Y15888625D01*
X-2804680Y15919406D01*
X-2793305Y15962500D01*
X-3120180Y15962500D01*
X-3120180Y16002250D01*
X-3104711Y16095750D01*
X-3058305Y16168250D01*
X-2986117Y16214844D01*
G37*
%LPC*%
G36*
X-2826430Y16114625D02*
G01*
X-2855617Y16131781D01*
X-2892430Y16137500D01*
X-2926367Y16131375D01*
X-2953180Y16113000D01*
X-2970617Y16084750D01*
X-2976430Y16048750D01*
X-2794805Y16048750D01*
X-2805836Y16086719D01*
X-2826430Y16114625D01*
G37*
%LPD*%
G36*
X-3518914Y16230219D02*
G01*
X-3511633Y16230375D01*
X-3466227Y16225438D01*
X-3427758Y16210625D01*
X-3394852Y16185156D01*
X-3365883Y16148000D01*
X-3365883Y16219875D01*
X-3226133Y16219875D01*
X-3226133Y15782375D01*
X-3365883Y15782375D01*
X-3365883Y15984000D01*
X-3373164Y16040906D01*
X-3395008Y16082875D01*
X-3430320Y16108844D01*
X-3478008Y16117500D01*
X-3496320Y16116469D01*
X-3514508Y16113375D01*
X-3532789Y16108219D01*
X-3551133Y16100750D01*
X-3550633Y16227250D01*
X-3536852Y16228875D01*
X-3526758Y16229750D01*
X-3518914Y16230219D01*
G37*
%LPD*%
G36*
X-2314008Y16219875D02*
G01*
X-2244383Y16219875D01*
X-2244383Y16119875D01*
X-2314008Y16119875D01*
X-2314008Y15934375D01*
X-2322633Y15863562D01*
X-2348508Y15816875D01*
X-2395164Y15791000D01*
X-2465883Y15782375D01*
X-2585883Y15782375D01*
X-2585883Y15882375D01*
X-2514008Y15882375D01*
X-2483977Y15885062D01*
X-2465883Y15893125D01*
X-2456789Y15908812D01*
X-2453758Y15934375D01*
X-2453758Y16119875D01*
X-2598008Y16119875D01*
X-2598008Y16219875D01*
X-2453758Y16219875D01*
X-2453758Y16344125D01*
X-2314008Y16344125D01*
X-2314008Y16219875D01*
G37*
%LPD*%
G36*
X2685695Y16219875D02*
G01*
X2685695Y16344125D01*
X2825445Y16344125D01*
X2825445Y16219875D01*
X2895070Y16219875D01*
X2895070Y16119875D01*
X2825445Y16119875D01*
X2825445Y15934375D01*
X2816820Y15863562D01*
X2790945Y15816875D01*
X2744289Y15791000D01*
X2673570Y15782375D01*
X2553570Y15782375D01*
X2553570Y15882375D01*
X2625445Y15882375D01*
X2655477Y15885062D01*
X2673570Y15893125D01*
X2682664Y15908812D01*
X2685695Y15934375D01*
X2685695Y16119875D01*
X2541445Y16119875D01*
X2541445Y16219875D01*
X2685695Y16219875D01*
G37*
%LPD*%
G36*
X2024758Y16219875D02*
G01*
X2024758Y16344125D01*
X2164508Y16344125D01*
X2164508Y16219875D01*
X2234133Y16219875D01*
X2234133Y16119875D01*
X2164508Y16119875D01*
X2164508Y15934375D01*
X2155883Y15863562D01*
X2130008Y15816875D01*
X2083352Y15791000D01*
X2012633Y15782375D01*
X1892633Y15782375D01*
X1892633Y15882375D01*
X1964508Y15882375D01*
X1994539Y15885062D01*
X2012633Y15893125D01*
X2021727Y15908812D01*
X2024758Y15934375D01*
X2024758Y16119875D01*
X1880508Y16119875D01*
X1880508Y16219875D01*
X2024758Y16219875D01*
G37*
%LPD*%
G36*
X814211Y16219875D02*
G01*
X814211Y16344125D01*
X953961Y16344125D01*
X953961Y16219875D01*
X1023586Y16219875D01*
X1023586Y16119875D01*
X953961Y16119875D01*
X953961Y15934375D01*
X945336Y15863562D01*
X919461Y15816875D01*
X872805Y15791000D01*
X802086Y15782375D01*
X682086Y15782375D01*
X682086Y15882375D01*
X753961Y15882375D01*
X783992Y15885062D01*
X802086Y15893125D01*
X811180Y15908812D01*
X814211Y15934375D01*
X814211Y16119875D01*
X669961Y16119875D01*
X669961Y16219875D01*
X814211Y16219875D01*
G37*
%LPD*%
G36*
X-1861961Y16219875D02*
G01*
X-1861961Y16119875D01*
X-1931586Y16119875D01*
X-1931586Y15934375D01*
X-1940211Y15863562D01*
X-1966086Y15816875D01*
X-2012742Y15791000D01*
X-2083461Y15782375D01*
X-2203461Y15782375D01*
X-2203461Y15882375D01*
X-2131586Y15882375D01*
X-2101555Y15885062D01*
X-2083461Y15893125D01*
X-2074367Y15908812D01*
X-2071336Y15934375D01*
X-2071336Y16119875D01*
X-2215586Y16119875D01*
X-2215586Y16219875D01*
X-2071336Y16219875D01*
X-2071336Y16344125D01*
X-1931586Y16344125D01*
X-1931586Y16219875D01*
X-1861961Y16219875D01*
G37*
%LPD*%
G36*
X-945961Y16390250D02*
G01*
X-806211Y16390250D01*
X-806211Y15782375D01*
X-945961Y15782375D01*
X-945961Y15845625D01*
X-976492Y15812375D01*
X-1010086Y15789125D01*
X-1047867Y15775531D01*
X-1090961Y15771000D01*
X-1164586Y15787062D01*
X-1223711Y15835250D01*
X-1262711Y15908812D01*
X-1275711Y16000750D01*
X-1262711Y16092656D01*
X-1223711Y16166125D01*
X-1164586Y16214312D01*
X-1090961Y16230375D01*
X-1047867Y16225844D01*
X-1010086Y16212250D01*
X-976492Y16189094D01*
X-945961Y16155875D01*
X-945961Y16390250D01*
G37*
%LPC*%
G36*
X-999273Y15880875D02*
G01*
X-969961Y15905625D01*
X-951961Y15945906D01*
X-945961Y16000750D01*
X-951961Y16055594D01*
X-969961Y16095875D01*
X-999273Y16120625D01*
X-1038961Y16128875D01*
X-1078523Y16120656D01*
X-1107461Y16096000D01*
X-1125273Y16055812D01*
X-1131211Y16000750D01*
X-1125273Y15945656D01*
X-1107461Y15905375D01*
X-1078523Y15880812D01*
X-1038961Y15872625D01*
X-999273Y15880875D01*
G37*
%LPD*%
G36*
X144664Y15782375D02*
G01*
X144664Y16048750D01*
X154477Y16126906D01*
X183914Y16183875D01*
X232289Y16218750D01*
X298914Y16230375D01*
X340070Y16225844D01*
X377539Y16212250D01*
X412070Y16189094D01*
X444664Y16155875D01*
X444664Y16390250D01*
X584414Y16390250D01*
X584414Y15782375D01*
X444664Y15782375D01*
X444664Y15997625D01*
X438414Y16050875D01*
X419664Y16091125D01*
X389977Y16116531D01*
X350914Y16125000D01*
X333914Y16123094D01*
X318914Y16117375D01*
X306258Y16108219D01*
X296539Y16096000D01*
X291227Y16083031D01*
X287789Y16064375D01*
X285914Y16033906D01*
X285289Y15985500D01*
X285289Y15825750D01*
X285289Y15782375D01*
X144664Y15782375D01*
G37*
%LPD*%
G36*
X-415008Y17608375D02*
G01*
X-571633Y17608375D01*
X-369383Y17906000D01*
X-563883Y18191625D01*
X-406008Y18191625D01*
X-278758Y18003750D01*
X-151008Y18191625D01*
X6117Y18191625D01*
X-188508Y17906000D01*
X13867Y17608375D01*
X-143508Y17608375D01*
X-278758Y17807625D01*
X-415008Y17608375D01*
G37*
%LPD*%
G36*
X151633Y17817969D02*
G01*
X176258Y17849125D01*
X202258Y17869531D01*
X231508Y17881000D01*
X182352Y17903500D01*
X147383Y17935750D01*
X126383Y17978031D01*
X119383Y18030625D01*
X132820Y18103000D01*
X173133Y18152875D01*
X242164Y18181938D01*
X342008Y18191625D01*
X571633Y18191625D01*
X571633Y17608375D01*
X421258Y17608375D01*
X421258Y17829125D01*
X378758Y17829125D01*
X345695Y17825094D01*
X320008Y17813000D01*
X298039Y17790062D01*
X276383Y17753250D01*
X205258Y17608375D01*
X45133Y17608375D01*
X126758Y17774000D01*
X151633Y17817969D01*
G37*
%LPC*%
G36*
X290258Y17950500D02*
G01*
X317445Y17937375D01*
X358008Y17933000D01*
X421258Y17933000D01*
X421258Y18082625D01*
X358008Y18082625D01*
X317445Y18078312D01*
X290258Y18065375D01*
X274883Y18042562D01*
X269758Y18008375D01*
X274883Y17973781D01*
X290258Y17950500D01*
G37*
%LPD*%
G36*
X-2818414Y17807625D02*
G01*
X-2954664Y17608375D01*
X-3111289Y17608375D01*
X-2909039Y17906000D01*
X-3103539Y18191625D01*
X-2945664Y18191625D01*
X-2818414Y18003750D01*
X-2690664Y18191625D01*
X-2533539Y18191625D01*
X-2728164Y17906000D01*
X-2525789Y17608375D01*
X-2683164Y17608375D01*
X-2818414Y17807625D01*
G37*
%LPD*%
G36*
X-2162461Y18077875D02*
G01*
X-2162461Y17608375D01*
X-2312836Y17608375D01*
X-2312836Y18077875D01*
X-2506211Y18077875D01*
X-2506211Y18191625D01*
X-1968711Y18191625D01*
X-1968711Y18077875D01*
X-2162461Y18077875D01*
G37*
%LPD*%
G36*
X-3252337Y21294340D02*
G01*
X-3171155Y21307721D01*
X-3110892Y21347863D01*
X-3073538Y21412676D01*
X-3061087Y21499801D01*
X-3074003Y21587523D01*
X-3112751Y21652270D01*
X-3175339Y21692312D01*
X-3259774Y21705660D01*
X-3311239Y21702008D01*
X-3362571Y21691051D01*
X-3413970Y21672855D01*
X-3465634Y21647223D01*
X-3465634Y21775387D01*
X-3413804Y21795408D01*
X-3358720Y21809785D01*
X-3300847Y21818551D01*
X-3240384Y21821473D01*
X-3097112Y21799990D01*
X-2987907Y21735543D01*
X-2918878Y21633643D01*
X-2895868Y21499801D01*
X-2918479Y21367088D01*
X-2986313Y21265121D01*
X-3092862Y21200176D01*
X-3231618Y21178527D01*
X-3299087Y21182146D01*
X-3364431Y21193004D01*
X-3427583Y21211232D01*
X-3488478Y21236699D01*
X-3488478Y21534730D01*
X-3239454Y21534730D01*
X-3239454Y21427551D01*
X-3337071Y21427551D01*
X-3337071Y21307223D01*
X-3318976Y21301445D01*
X-3298688Y21297395D01*
X-3276409Y21295104D01*
X-3252337Y21294340D01*
G37*
%LPD*%
G36*
X-982084Y24144625D02*
G01*
X-900732Y24026762D01*
X-873615Y23870203D01*
X-900732Y23713594D01*
X-982084Y23595578D01*
X-1111678Y23521539D01*
X-1283115Y23496859D01*
X-1338264Y23499348D01*
X-1393209Y23506812D01*
X-1447697Y23519051D01*
X-1501475Y23536266D01*
X-1501475Y23722328D01*
X-1459021Y23695008D01*
X-1412912Y23675203D01*
X-1363604Y23663320D01*
X-1311553Y23659359D01*
X-1227002Y23673223D01*
X-1163475Y23714812D01*
X-1123713Y23781488D01*
X-1110459Y23870203D01*
X-1123713Y23958867D01*
X-1163475Y24025391D01*
X-1227002Y24066980D01*
X-1311553Y24080844D01*
X-1360861Y24077035D01*
X-1408443Y24065609D01*
X-1455061Y24046262D01*
X-1501475Y24018688D01*
X-1501475Y24204141D01*
X-1447393Y24221355D01*
X-1393209Y24233594D01*
X-1338568Y24240906D01*
X-1283115Y24243344D01*
X-1111678Y24218664D01*
X-982084Y24144625D01*
G37*
%LPD*%
G36*
X-1779604Y24222879D02*
G01*
X-1706377Y24207188D01*
X-1706377Y24033922D01*
X-1762592Y24059516D01*
X-1823174Y24077797D01*
X-1888631Y24088766D01*
X-1959064Y24092422D01*
X-2037318Y24086125D01*
X-2091705Y24067234D01*
X-2123697Y24034988D01*
X-2134361Y23988219D01*
X-2134361Y23970547D01*
X-2000299Y23970547D01*
X-1840744Y23955922D01*
X-1730143Y23912047D01*
X-1665701Y23837043D01*
X-1644221Y23728625D01*
X-1661436Y23635391D01*
X-1713080Y23561250D01*
X-1792350Y23512957D01*
X-1892439Y23496859D01*
X-1968104Y23504223D01*
X-2031377Y23526312D01*
X-2085764Y23564754D01*
X-2134361Y23620766D01*
X-2134361Y23515344D01*
X-2363486Y23515344D01*
X-2363486Y23920984D01*
X-2342107Y24068047D01*
X-2277971Y24167578D01*
X-2165896Y24224402D01*
X-2000299Y24243344D01*
X-1926717Y24241059D01*
X-1853033Y24234203D01*
X-1779604Y24222879D01*
G37*
%LPC*%
G36*
X-1936822Y23654078D02*
G01*
X-1902189Y23672359D01*
X-1880557Y23701559D01*
X-1873346Y23740000D01*
X-1882283Y23781336D01*
X-1909096Y23811094D01*
X-1953834Y23829223D01*
X-2016143Y23835266D01*
X-2134361Y23835266D01*
X-2134361Y23809266D01*
X-2123393Y23745789D01*
X-2090486Y23693891D01*
X-2041584Y23659461D01*
X-1982627Y23647984D01*
X-1936822Y23654078D01*
G37*
%LPD*%
G36*
X-2849057Y24169863D02*
G01*
X-2801982Y24109484D01*
X-2801982Y24226281D01*
X-2574889Y24226281D01*
X-2574889Y23515344D01*
X-2801982Y23515344D01*
X-2801982Y23842984D01*
X-2813814Y23935457D01*
X-2849311Y24003656D01*
X-2906693Y24045855D01*
X-2984186Y24059922D01*
X-3013943Y24058246D01*
X-3043498Y24053219D01*
X-3073205Y24044840D01*
X-3103014Y24032703D01*
X-3102201Y24238266D01*
X-3079807Y24240906D01*
X-3063404Y24242328D01*
X-3050658Y24243090D01*
X-3038826Y24243344D01*
X-2965041Y24235320D01*
X-2902529Y24211250D01*
X-2849057Y24169863D01*
G37*
%LPD*%
G36*
X-3543643Y24211250D02*
G01*
X-3490170Y24169863D01*
X-3443096Y24109484D01*
X-3443096Y24226281D01*
X-3216002Y24226281D01*
X-3216002Y23515344D01*
X-3443096Y23515344D01*
X-3443096Y23842984D01*
X-3454928Y23935457D01*
X-3490424Y24003656D01*
X-3547807Y24045855D01*
X-3625299Y24059922D01*
X-3655057Y24058246D01*
X-3684611Y24053219D01*
X-3714318Y24044840D01*
X-3744127Y24032703D01*
X-3743314Y24238266D01*
X-3720920Y24240906D01*
X-3704518Y24242328D01*
X-3691771Y24243090D01*
X-3679939Y24243344D01*
X-3606154Y24235320D01*
X-3543643Y24211250D01*
G37*
%LPD*%
G36*
X1204023Y23757672D02*
G01*
X1260086Y23857254D01*
X1278773Y23988219D01*
X1260086Y24119590D01*
X1204023Y24219172D01*
X1115105Y24282090D01*
X998258Y24303062D01*
X927063Y24297680D01*
X859320Y24281531D01*
X792797Y24253805D01*
X725258Y24213688D01*
X725258Y24409703D01*
X794066Y24440324D01*
X865617Y24462312D01*
X940164Y24475719D01*
X1017961Y24480188D01*
X1230176Y24447078D01*
X1393133Y24347750D01*
X1496879Y24191750D01*
X1531461Y23988219D01*
X1496879Y23785246D01*
X1393133Y23629297D01*
X1230176Y23529969D01*
X1017961Y23496859D01*
X940164Y23501328D01*
X865617Y23514734D01*
X794066Y23536723D01*
X725258Y23567344D01*
X725258Y23763562D01*
X792797Y23723395D01*
X859320Y23695516D01*
X927063Y23679367D01*
X998258Y23673984D01*
X1115105Y23694906D01*
X1204023Y23757672D01*
G37*
%LPD*%
G36*
X-266426Y24373476D02*
G01*
X-161728Y24357945D01*
X0Y24350000D01*
X39403Y24351936D01*
X278408Y24117203D01*
X278408Y24375253D01*
X321899Y24381704D01*
X478970Y24421048D01*
X522768Y24436720D01*
X522768Y23515344D01*
X278408Y23515344D01*
X278408Y23888688D01*
X-98592Y23515344D01*
X-404498Y23515344D01*
X98846Y24014219D01*
X-266426Y24373476D01*
G37*
%LPD*%
G36*
X2350283Y23515344D02*
G01*
X2289955Y23688000D01*
X1907877Y23688000D01*
X1848158Y23515344D01*
X1602580Y23515344D01*
X1953580Y24463125D01*
X2245064Y24463125D01*
X2596064Y23515344D01*
X2350283Y23515344D01*
G37*
%LPC*%
G36*
X2229018Y23863906D02*
G01*
X2099018Y24240906D01*
X1969424Y23863906D01*
X2229018Y23863906D01*
G37*
%LPD*%
G36*
X5909961Y-27124750D02*
G01*
X5664711Y-27124750D01*
X5664711Y-27011125D01*
X5909961Y-27011125D01*
X5909961Y-27124750D01*
G37*
%LPD*%
G36*
X3110742Y-27135594D02*
G01*
X3095117Y-27007250D01*
X3110742Y-26878562D01*
X3157617Y-26783250D01*
X3233211Y-26724188D01*
X3334992Y-26704500D01*
X3437055Y-26724188D01*
X3512742Y-26783250D01*
X3559617Y-26878562D01*
X3575242Y-27007250D01*
X3559617Y-27135594D01*
X3512742Y-27230875D01*
X3437055Y-27289938D01*
X3334992Y-27309625D01*
X3233211Y-27289938D01*
X3157617Y-27230875D01*
X3110742Y-27135594D01*
G37*
%LPC*%
G36*
X3250617Y-26912812D02*
G01*
X3245492Y-27006000D01*
X3250680Y-27100312D01*
X3266242Y-27162000D01*
X3293742Y-27195938D01*
X3334992Y-27207250D01*
X3376461Y-27195938D01*
X3404117Y-27162000D01*
X3419680Y-27100312D01*
X3424867Y-27006000D01*
X3419680Y-26912812D01*
X3404117Y-26852000D01*
X3376461Y-26818438D01*
X3334992Y-26807250D01*
X3293492Y-26818438D01*
X3265992Y-26852000D01*
X3250617Y-26912812D01*
G37*
%LPD*%
G36*
X6419727Y-26845500D02*
G01*
X6283352Y-26817375D01*
X6283352Y-27194375D01*
X6416227Y-27194375D01*
X6416227Y-27298250D01*
X6008352Y-27298250D01*
X6008352Y-27194375D01*
X6141227Y-27194375D01*
X6141227Y-26715000D01*
X6284227Y-26715000D01*
X6419727Y-26743125D01*
X6419727Y-26845500D01*
G37*
%LPD*%
G36*
X3943508Y-26817375D02*
G01*
X3943508Y-27194375D01*
X4076383Y-27194375D01*
X4076383Y-27298250D01*
X3668508Y-27298250D01*
X3668508Y-27194375D01*
X3801383Y-27194375D01*
X3801383Y-26715000D01*
X3944383Y-26715000D01*
X4079883Y-26743125D01*
X4079883Y-26845500D01*
X3943508Y-26817375D01*
G37*
%LPD*%
G36*
X5547805Y-26715000D02*
G01*
X5547805Y-27298250D01*
X5397430Y-27298250D01*
X5397430Y-27077500D01*
X5354930Y-27077500D01*
X5321867Y-27081531D01*
X5296180Y-27093625D01*
X5274211Y-27116562D01*
X5252555Y-27153375D01*
X5181430Y-27298250D01*
X5021305Y-27298250D01*
X5102930Y-27132625D01*
X5127805Y-27088656D01*
X5152430Y-27057500D01*
X5178430Y-27037094D01*
X5207680Y-27025625D01*
X5158523Y-27003125D01*
X5123555Y-26970875D01*
X5102555Y-26928594D01*
X5095555Y-26876000D01*
X5108992Y-26803625D01*
X5149305Y-26753750D01*
X5218336Y-26724688D01*
X5318180Y-26715000D01*
X5547805Y-26715000D01*
G37*
%LPC*%
G36*
X5251055Y-26932844D02*
G01*
X5266430Y-26956125D01*
X5293617Y-26969250D01*
X5334180Y-26973625D01*
X5397430Y-26973625D01*
X5397430Y-26824000D01*
X5334180Y-26824000D01*
X5293617Y-26828312D01*
X5266430Y-26841250D01*
X5251055Y-26864062D01*
X5245930Y-26898250D01*
X5251055Y-26932844D01*
G37*
%LPD*%
G36*
X6822867Y-26715000D02*
G01*
X7052492Y-26715000D01*
X7052492Y-27298250D01*
X6902117Y-27298250D01*
X6902117Y-27077500D01*
X6859617Y-27077500D01*
X6826555Y-27081531D01*
X6800867Y-27093625D01*
X6778898Y-27116562D01*
X6757242Y-27153375D01*
X6686117Y-27298250D01*
X6525992Y-27298250D01*
X6607617Y-27132625D01*
X6632492Y-27088656D01*
X6657117Y-27057500D01*
X6683117Y-27037094D01*
X6712367Y-27025625D01*
X6663211Y-27003125D01*
X6628242Y-26970875D01*
X6607242Y-26928594D01*
X6600242Y-26876000D01*
X6613680Y-26803625D01*
X6653992Y-26753750D01*
X6723023Y-26724688D01*
X6822867Y-26715000D01*
G37*
%LPC*%
G36*
X6750617Y-26898250D02*
G01*
X6755742Y-26932844D01*
X6771117Y-26956125D01*
X6798305Y-26969250D01*
X6838867Y-26973625D01*
X6902117Y-26973625D01*
X6902117Y-26824000D01*
X6838867Y-26824000D01*
X6798305Y-26828312D01*
X6771117Y-26841250D01*
X6755742Y-26864062D01*
X6750617Y-26898250D01*
G37*
%LPD*%
G36*
X4485414Y-27083000D02*
G01*
X4568539Y-27083000D01*
X4568539Y-26715000D01*
X4735789Y-26715000D01*
X4969289Y-27063125D01*
X4969289Y-27192000D01*
X4710789Y-27192000D01*
X4710789Y-27298250D01*
X4568539Y-27298250D01*
X4568539Y-27192000D01*
X4485414Y-27192000D01*
X4485414Y-27083000D01*
G37*
%LPC*%
G36*
X4710789Y-26838875D02*
G01*
X4710789Y-27083000D01*
X4875539Y-27083000D01*
X4710789Y-26838875D01*
G37*
%LPD*%
G36*
X8231926Y-15684105D02*
G01*
X8391699Y-15684105D01*
X8391699Y-16055582D01*
X8397975Y-16121424D01*
X8416801Y-16165418D01*
X8449938Y-16190121D01*
X8499145Y-16198355D01*
X8548053Y-16190121D01*
X8581090Y-16165418D01*
X8599916Y-16121424D01*
X8606191Y-16055582D01*
X8606191Y-15684105D01*
X8765965Y-15684105D01*
X8765965Y-16055582D01*
X8749496Y-16170398D01*
X8700090Y-16251613D01*
X8616850Y-16299824D01*
X8499145Y-16315895D01*
X8381174Y-16299824D01*
X8297934Y-16251613D01*
X8248428Y-16170398D01*
X8231926Y-16055582D01*
X8231926Y-15684105D01*
G37*
%LPD*%
G36*
X4694391Y-14303687D02*
G01*
X4738328Y-14311500D01*
X4782641Y-14322438D01*
X4782641Y-14432562D01*
X4745797Y-14418531D01*
X4708766Y-14408438D01*
X4671859Y-14402250D01*
X4635391Y-14400188D01*
X4591734Y-14404781D01*
X4559266Y-14418562D01*
X4539016Y-14440719D01*
X4532266Y-14470438D01*
X4539203Y-14502156D01*
X4560016Y-14524562D01*
X4594922Y-14537875D01*
X4644391Y-14542312D01*
X4707641Y-14542312D01*
X4707641Y-14639188D01*
X4647516Y-14639188D01*
X4591547Y-14644312D01*
X4551141Y-14659688D01*
X4526672Y-14685031D01*
X4518516Y-14720062D01*
X4526484Y-14754312D01*
X4550391Y-14779562D01*
X4589234Y-14795031D01*
X4642016Y-14800188D01*
X4682609Y-14797500D01*
X4723891Y-14789438D01*
X4765578Y-14776094D01*
X4807641Y-14757562D01*
X4807641Y-14873562D01*
X4763266Y-14886250D01*
X4718391Y-14895312D01*
X4673297Y-14900750D01*
X4628266Y-14902562D01*
X4516234Y-14891281D01*
X4434641Y-14857438D01*
X4384766Y-14801906D01*
X4368141Y-14725562D01*
X4375828Y-14672469D01*
X4398891Y-14629688D01*
X4436609Y-14597562D01*
X4488516Y-14576688D01*
X4442234Y-14558594D01*
X4408891Y-14530812D01*
X4388641Y-14493562D01*
X4381891Y-14447062D01*
X4396016Y-14381500D01*
X4438391Y-14334812D01*
X4509078Y-14306781D01*
X4608391Y-14297438D01*
X4651016Y-14299000D01*
X4694391Y-14303687D01*
G37*
%LPD*%
G36*
X7136117Y-14792844D02*
G01*
X7158773Y-14793562D01*
X7235180Y-14780969D01*
X7291898Y-14743188D01*
X7327055Y-14682188D01*
X7338773Y-14600188D01*
X7326617Y-14517625D01*
X7290148Y-14456688D01*
X7231242Y-14419000D01*
X7151773Y-14406438D01*
X7103336Y-14409875D01*
X7055023Y-14420187D01*
X7006648Y-14437312D01*
X6958023Y-14461437D01*
X6958023Y-14340812D01*
X7006805Y-14321969D01*
X7058648Y-14308438D01*
X7113117Y-14300188D01*
X7170023Y-14297438D01*
X7304867Y-14317656D01*
X7407648Y-14378312D01*
X7472617Y-14474219D01*
X7494273Y-14600188D01*
X7472992Y-14725094D01*
X7409148Y-14821062D01*
X7308867Y-14882187D01*
X7178273Y-14902562D01*
X7114773Y-14899156D01*
X7053273Y-14888937D01*
X6993836Y-14871781D01*
X6936523Y-14847812D01*
X6936523Y-14567312D01*
X7170898Y-14567312D01*
X7170898Y-14668188D01*
X7079023Y-14668188D01*
X7079023Y-14781438D01*
X7096055Y-14786875D01*
X7115148Y-14790687D01*
X7136117Y-14792844D01*
G37*
%LPD*%
G36*
X3518609Y-14303687D02*
G01*
X3562547Y-14311500D01*
X3606859Y-14322438D01*
X3606859Y-14432562D01*
X3570016Y-14418531D01*
X3532984Y-14408438D01*
X3496078Y-14402250D01*
X3459609Y-14400188D01*
X3415953Y-14404781D01*
X3383484Y-14418562D01*
X3363234Y-14440719D01*
X3356484Y-14470438D01*
X3363422Y-14502156D01*
X3384234Y-14524562D01*
X3419141Y-14537875D01*
X3468609Y-14542312D01*
X3531859Y-14542312D01*
X3531859Y-14639188D01*
X3471734Y-14639188D01*
X3415766Y-14644312D01*
X3375359Y-14659688D01*
X3350891Y-14685031D01*
X3342734Y-14720062D01*
X3350703Y-14754312D01*
X3374609Y-14779562D01*
X3413453Y-14795031D01*
X3466234Y-14800188D01*
X3506828Y-14797500D01*
X3548109Y-14789438D01*
X3589797Y-14776094D01*
X3631859Y-14757562D01*
X3631859Y-14873562D01*
X3587484Y-14886250D01*
X3542609Y-14895312D01*
X3497516Y-14900750D01*
X3452484Y-14902562D01*
X3340453Y-14891281D01*
X3258859Y-14857438D01*
X3208984Y-14801906D01*
X3192359Y-14725562D01*
X3200047Y-14672469D01*
X3223109Y-14629688D01*
X3260828Y-14597562D01*
X3312734Y-14576688D01*
X3266453Y-14558594D01*
X3233109Y-14530812D01*
X3212859Y-14493562D01*
X3206109Y-14447062D01*
X3220234Y-14381500D01*
X3262609Y-14334812D01*
X3333297Y-14306781D01*
X3432609Y-14297438D01*
X3475234Y-14299000D01*
X3518609Y-14303687D01*
G37*
%LPD*%
G36*
X6636133Y-14307938D02*
G01*
X6804008Y-14307938D01*
X6804008Y-14891188D01*
X6661508Y-14891188D01*
X6661508Y-14491187D01*
X6449383Y-14891188D01*
X6281383Y-14891188D01*
X6281383Y-14307938D01*
X6424008Y-14307938D01*
X6424008Y-14707938D01*
X6636133Y-14307938D01*
G37*
%LPD*%
G36*
X3905250Y-14891188D02*
G01*
X3689250Y-14307938D01*
X3840375Y-14307938D01*
X3994750Y-14738438D01*
X4149375Y-14307938D01*
X4300625Y-14307938D01*
X4084625Y-14891188D01*
X3905250Y-14891188D01*
G37*
%LPD*%
G36*
X8332070Y-14891188D02*
G01*
X8180945Y-14891188D01*
X8396945Y-14307938D01*
X8576320Y-14307938D01*
X8792320Y-14891188D01*
X8641070Y-14891188D01*
X8603945Y-14784938D01*
X8368820Y-14784938D01*
X8332070Y-14891188D01*
G37*
%LPC*%
G36*
X8566445Y-14676688D02*
G01*
X8486445Y-14444687D01*
X8406695Y-14676688D01*
X8566445Y-14676688D01*
G37*
%LPD*%
G36*
X5590727Y-14661469D02*
G01*
X5585727Y-14598938D01*
X5590727Y-14537219D01*
X5605727Y-14482312D01*
X5630883Y-14433719D01*
X5666602Y-14391188D01*
X5717727Y-14352437D01*
X5778102Y-14326938D01*
X5860070Y-14312688D01*
X5975977Y-14307938D01*
X6134477Y-14307938D01*
X6134477Y-14891188D01*
X5975977Y-14891188D01*
X5861133Y-14886469D01*
X5779102Y-14872312D01*
X5718164Y-14846719D01*
X5666602Y-14807938D01*
X5630883Y-14765469D01*
X5605727Y-14716812D01*
X5590727Y-14661469D01*
G37*
%LPC*%
G36*
X5930227Y-14777562D02*
G01*
X5984102Y-14777562D01*
X5984102Y-14421688D01*
X5930227Y-14421688D01*
X5848664Y-14433031D01*
X5789227Y-14467062D01*
X5752852Y-14522656D01*
X5740727Y-14598938D01*
X5752914Y-14675719D01*
X5789477Y-14731812D01*
X5848977Y-14766125D01*
X5930227Y-14777562D01*
G37*
%LPD*%
G36*
X8325680Y2012625D02*
G01*
X8361180Y2025687D01*
X8397430Y2044125D01*
X8397430Y1935125D01*
X8358898Y1923906D01*
X8320555Y1916000D01*
X8281523Y1911312D01*
X8241180Y1909750D01*
X8129648Y1923656D01*
X8048055Y1965375D01*
X7998086Y2033469D01*
X7981430Y2126500D01*
X7981430Y2519875D01*
X8122055Y2519875D01*
X8122055Y2455000D01*
X8152430Y2488531D01*
X8185805Y2511625D01*
X8223273Y2525125D01*
X8266180Y2529625D01*
X8339367Y2513938D01*
X8398680Y2466875D01*
X8437867Y2395406D01*
X8450930Y2306250D01*
X8437867Y2217156D01*
X8398680Y2145375D01*
X8339367Y2098125D01*
X8266180Y2082375D01*
X8223273Y2086875D01*
X8185805Y2100375D01*
X8152430Y2123437D01*
X8122055Y2156625D01*
X8122055Y2126500D01*
X8130086Y2070969D01*
X8154180Y2032375D01*
X8195367Y2009781D01*
X8254930Y2002250D01*
X8290367Y2004844D01*
X8325680Y2012625D01*
G37*
%LPC*%
G36*
X8175430Y2192000D02*
G01*
X8214305Y2184000D01*
X8253836Y2191750D01*
X8282680Y2215000D01*
X8300211Y2253312D01*
X8306055Y2306250D01*
X8300023Y2358125D01*
X8281930Y2396750D01*
X8252898Y2420844D01*
X8214305Y2428875D01*
X8175430Y2420844D01*
X8146305Y2396750D01*
X8128117Y2358125D01*
X8122055Y2306250D01*
X8128117Y2254562D01*
X8146305Y2216000D01*
X8175430Y2192000D01*
G37*
%LPD*%
G36*
X7863461Y2203906D02*
G01*
X7814148Y2131375D01*
X7735055Y2086094D01*
X7629523Y2071000D01*
X7579898Y2073406D01*
X7530273Y2080625D01*
X7480648Y2092531D01*
X7431023Y2109000D01*
X7431023Y2216750D01*
X7479273Y2193594D01*
X7526273Y2177125D01*
X7571992Y2167281D01*
X7616648Y2164000D01*
X7665242Y2170156D01*
X7701773Y2188625D01*
X7725898Y2219406D01*
X7737273Y2262500D01*
X7410398Y2262500D01*
X7410398Y2302250D01*
X7425867Y2395750D01*
X7472273Y2468250D01*
X7544461Y2514844D01*
X7637273Y2530375D01*
X7738461Y2515031D01*
X7815273Y2469000D01*
X7863742Y2396312D01*
X7879898Y2300750D01*
X7863461Y2203906D01*
G37*
%LPC*%
G36*
X7554148Y2348750D02*
G01*
X7735773Y2348750D01*
X7724742Y2386719D01*
X7704148Y2414625D01*
X7674961Y2431781D01*
X7638148Y2437500D01*
X7604211Y2431375D01*
X7577398Y2413000D01*
X7559961Y2384750D01*
X7554148Y2348750D01*
G37*
%LPD*%
G36*
X9010617Y2392656D02*
G01*
X9023586Y2300750D01*
X9010617Y2208812D01*
X8971711Y2135250D01*
X8912492Y2087062D01*
X8838836Y2071000D01*
X8795930Y2075500D01*
X8758461Y2089000D01*
X8725086Y2112156D01*
X8694711Y2145625D01*
X8694711Y2082375D01*
X8554086Y2082375D01*
X8554086Y2690250D01*
X8694711Y2690250D01*
X8694711Y2455875D01*
X8725117Y2489094D01*
X8758586Y2512250D01*
X8796148Y2525844D01*
X8838836Y2530375D01*
X8912492Y2514312D01*
X8971711Y2466125D01*
X9010617Y2392656D01*
G37*
%LPC*%
G36*
X8826242Y2420656D02*
G01*
X8786961Y2428875D01*
X8747305Y2420656D01*
X8718336Y2396000D01*
X8700617Y2355812D01*
X8694711Y2300750D01*
X8700617Y2245656D01*
X8718336Y2205375D01*
X8747305Y2180812D01*
X8786961Y2172625D01*
X8826242Y2180812D01*
X8855086Y2205375D01*
X8872805Y2245656D01*
X8878711Y2300750D01*
X8872805Y2355812D01*
X8855086Y2396000D01*
X8826242Y2420656D01*
G37*
%LPD*%
G36*
X6796592Y4100156D02*
G01*
X6776045Y3979102D01*
X6714404Y3888438D01*
X6615537Y3831836D01*
X6483623Y3812969D01*
X6421592Y3815977D01*
X6359561Y3825000D01*
X6297529Y3839883D01*
X6235498Y3860469D01*
X6235498Y3995156D01*
X6295811Y3966211D01*
X6354561Y3945625D01*
X6411709Y3933320D01*
X6467529Y3929219D01*
X6528271Y3936914D01*
X6573936Y3960000D01*
X6604092Y3998477D01*
X6618311Y4052344D01*
X6209717Y4052344D01*
X6209717Y4102031D01*
X6229053Y4218906D01*
X6287061Y4309531D01*
X6377295Y4367773D01*
X6493311Y4387188D01*
X6619795Y4368008D01*
X6715811Y4310469D01*
X6776396Y4219609D01*
X6796592Y4100156D01*
G37*
%LPC*%
G36*
X6396670Y4205156D02*
G01*
X6389404Y4160156D01*
X6616436Y4160156D01*
X6602646Y4207617D01*
X6576904Y4242500D01*
X6540420Y4263945D01*
X6494404Y4271094D01*
X6451982Y4263438D01*
X6418467Y4240469D01*
X6396670Y4205156D01*
G37*
%LPD*%
G36*
X7967979Y4100156D02*
G01*
X7947432Y3979102D01*
X7885791Y3888438D01*
X7786924Y3831836D01*
X7655010Y3812969D01*
X7592979Y3815977D01*
X7530947Y3825000D01*
X7468916Y3839883D01*
X7406885Y3860469D01*
X7406885Y3995156D01*
X7467197Y3966211D01*
X7525947Y3945625D01*
X7583096Y3933320D01*
X7638916Y3929219D01*
X7699658Y3936914D01*
X7745322Y3960000D01*
X7775479Y3998477D01*
X7789697Y4052344D01*
X7381104Y4052344D01*
X7381104Y4102031D01*
X7400439Y4218906D01*
X7458447Y4309531D01*
X7548682Y4367773D01*
X7664697Y4387188D01*
X7791182Y4368008D01*
X7887197Y4310469D01*
X7947783Y4219609D01*
X7967979Y4100156D01*
G37*
%LPC*%
G36*
X7568057Y4205156D02*
G01*
X7560791Y4160156D01*
X7787822Y4160156D01*
X7774033Y4207617D01*
X7748291Y4242500D01*
X7711807Y4263945D01*
X7665791Y4271094D01*
X7623369Y4263438D01*
X7589854Y4240469D01*
X7568057Y4205156D01*
G37*
%LPD*%
G36*
X7073975Y4284219D02*
G01*
X7073975Y4374062D01*
X7248662Y4374062D01*
X7248662Y3827188D01*
X7073975Y3827188D01*
X7073975Y4079219D01*
X7064873Y4150352D01*
X7037568Y4202812D01*
X6993428Y4235273D01*
X6933818Y4246094D01*
X6910928Y4244805D01*
X6888193Y4240938D01*
X6865342Y4234492D01*
X6842412Y4225156D01*
X6843037Y4383281D01*
X6860264Y4385312D01*
X6872881Y4386406D01*
X6882686Y4386992D01*
X6891787Y4387188D01*
X6948545Y4381016D01*
X6996631Y4362500D01*
X7037764Y4330664D01*
X7073975Y4284219D01*
G37*
%LPD*%
G36*
X8423369Y4335586D02*
G01*
X8464111Y4294062D01*
X8464111Y4587031D01*
X8638799Y4587031D01*
X8638799Y3827188D01*
X8464111Y3827188D01*
X8464111Y4096250D01*
X8456299Y4162813D01*
X8432861Y4213125D01*
X8395752Y4244883D01*
X8346924Y4255469D01*
X8325674Y4253086D01*
X8306924Y4245938D01*
X8291104Y4234492D01*
X8278955Y4219219D01*
X8272314Y4203008D01*
X8268018Y4179688D01*
X8265674Y4141602D01*
X8264893Y4081094D01*
X8264893Y3881406D01*
X8264893Y3827188D01*
X8089111Y3827188D01*
X8089111Y4160156D01*
X8101377Y4257852D01*
X8138174Y4329062D01*
X8198643Y4372656D01*
X8281924Y4387188D01*
X8333369Y4381523D01*
X8380205Y4364531D01*
X8423369Y4335586D01*
G37*
%LPD*%
G36*
X5042633Y15782375D02*
G01*
X4901633Y15782375D01*
X4901633Y15933500D01*
X5042633Y15933500D01*
X5042633Y15782375D01*
G37*
%LPD*%
G36*
X7109898Y15864000D02*
G01*
X7158492Y15870156D01*
X7195023Y15888625D01*
X7219148Y15919406D01*
X7230523Y15962500D01*
X6903648Y15962500D01*
X6903648Y16002250D01*
X6919117Y16095750D01*
X6965523Y16168250D01*
X7037711Y16214844D01*
X7130523Y16230375D01*
X7231711Y16215031D01*
X7308523Y16169000D01*
X7356992Y16096312D01*
X7373148Y16000750D01*
X7356711Y15903906D01*
X7307398Y15831375D01*
X7228305Y15786094D01*
X7122773Y15771000D01*
X7073148Y15773406D01*
X7023523Y15780625D01*
X6973898Y15792531D01*
X6924273Y15809000D01*
X6924273Y15916750D01*
X6972523Y15893594D01*
X7019523Y15877125D01*
X7065242Y15867281D01*
X7109898Y15864000D01*
G37*
%LPC*%
G36*
X7197398Y16114625D02*
G01*
X7168211Y16131781D01*
X7131398Y16137500D01*
X7097461Y16131375D01*
X7070648Y16113000D01*
X7053211Y16084750D01*
X7047398Y16048750D01*
X7229023Y16048750D01*
X7217992Y16086719D01*
X7197398Y16114625D01*
G37*
%LPD*%
G36*
X3787164Y15962500D02*
G01*
X3460289Y15962500D01*
X3460289Y16002250D01*
X3475758Y16095750D01*
X3522164Y16168250D01*
X3594352Y16214844D01*
X3687164Y16230375D01*
X3788352Y16215031D01*
X3865164Y16169000D01*
X3913633Y16096312D01*
X3929789Y16000750D01*
X3913352Y15903906D01*
X3864039Y15831375D01*
X3784945Y15786094D01*
X3679414Y15771000D01*
X3629789Y15773406D01*
X3580164Y15780625D01*
X3530539Y15792531D01*
X3480914Y15809000D01*
X3480914Y15916750D01*
X3529164Y15893594D01*
X3576164Y15877125D01*
X3621883Y15867281D01*
X3666539Y15864000D01*
X3715133Y15870156D01*
X3751664Y15888625D01*
X3775789Y15919406D01*
X3787164Y15962500D01*
G37*
%LPC*%
G36*
X3627289Y16113000D02*
G01*
X3609852Y16084750D01*
X3604039Y16048750D01*
X3785664Y16048750D01*
X3774633Y16086719D01*
X3754039Y16114625D01*
X3724852Y16131781D01*
X3688039Y16137500D01*
X3654102Y16131375D01*
X3627289Y16113000D01*
G37*
%LPD*%
G36*
X8082039Y15867281D02*
G01*
X8126695Y15864000D01*
X8175289Y15870156D01*
X8211820Y15888625D01*
X8235945Y15919406D01*
X8247320Y15962500D01*
X7920445Y15962500D01*
X7920445Y16002250D01*
X7935914Y16095750D01*
X7982320Y16168250D01*
X8054508Y16214844D01*
X8147320Y16230375D01*
X8248508Y16215031D01*
X8325320Y16169000D01*
X8373789Y16096312D01*
X8389945Y16000750D01*
X8373508Y15903906D01*
X8324195Y15831375D01*
X8245102Y15786094D01*
X8139570Y15771000D01*
X8089945Y15773406D01*
X8040320Y15780625D01*
X7990695Y15792531D01*
X7941070Y15809000D01*
X7941070Y15916750D01*
X7989320Y15893594D01*
X8036320Y15877125D01*
X8082039Y15867281D01*
G37*
%LPC*%
G36*
X8234789Y16086719D02*
G01*
X8214195Y16114625D01*
X8185008Y16131781D01*
X8148195Y16137500D01*
X8114258Y16131375D01*
X8087445Y16113000D01*
X8070008Y16084750D01*
X8064195Y16048750D01*
X8245820Y16048750D01*
X8234789Y16086719D01*
G37*
%LPD*%
G36*
X7629898Y16121844D02*
G01*
X7577867Y16130375D01*
X7547523Y16128031D01*
X7518242Y16121000D01*
X7489555Y16109094D01*
X7460992Y16092125D01*
X7460992Y16206250D01*
X7494273Y16216844D01*
X7527617Y16224375D01*
X7561242Y16228875D01*
X7595367Y16230375D01*
X7700867Y16215187D01*
X7780617Y16169625D01*
X7830680Y16097094D01*
X7847367Y16000750D01*
X7830680Y15904375D01*
X7780617Y15831750D01*
X7700867Y15786188D01*
X7595367Y15771000D01*
X7561430Y15772531D01*
X7527617Y15777125D01*
X7494086Y15784656D01*
X7460992Y15795250D01*
X7460992Y15909750D01*
X7487117Y15892938D01*
X7515492Y15880750D01*
X7545836Y15873438D01*
X7577867Y15871000D01*
X7629898Y15879531D01*
X7668992Y15905125D01*
X7693461Y15946156D01*
X7701617Y16000750D01*
X7693461Y16055312D01*
X7668992Y16096250D01*
X7629898Y16121844D01*
G37*
%LPD*%
G36*
X5856742Y15888625D02*
G01*
X5880867Y15919406D01*
X5892242Y15962500D01*
X5565367Y15962500D01*
X5565367Y16002250D01*
X5580836Y16095750D01*
X5627242Y16168250D01*
X5699430Y16214844D01*
X5792242Y16230375D01*
X5893430Y16215031D01*
X5970242Y16169000D01*
X6018711Y16096312D01*
X6034867Y16000750D01*
X6018430Y15903906D01*
X5969117Y15831375D01*
X5890023Y15786094D01*
X5784492Y15771000D01*
X5734867Y15773406D01*
X5685242Y15780625D01*
X5635617Y15792531D01*
X5585992Y15809000D01*
X5585992Y15916750D01*
X5634242Y15893594D01*
X5681242Y15877125D01*
X5726961Y15867281D01*
X5771617Y15864000D01*
X5820211Y15870156D01*
X5856742Y15888625D01*
G37*
%LPC*%
G36*
X5793117Y16137500D02*
G01*
X5759180Y16131375D01*
X5732367Y16113000D01*
X5714930Y16084750D01*
X5709117Y16048750D01*
X5890742Y16048750D01*
X5879711Y16086719D01*
X5859117Y16114625D01*
X5829930Y16131781D01*
X5793117Y16137500D01*
G37*
%LPD*%
G36*
X6657945Y15782375D02*
G01*
X6657945Y16219875D01*
X6797695Y16219875D01*
X6797695Y15782375D01*
X6657945Y15782375D01*
G37*
%LPD*%
G36*
X6080977Y16219875D02*
G01*
X6221227Y16219875D01*
X6329727Y15917500D01*
X6438727Y16219875D01*
X6578602Y16219875D01*
X6406727Y15782375D01*
X6253227Y15782375D01*
X6080977Y16219875D01*
G37*
%LPD*%
G36*
X3401711Y16219875D02*
G01*
X3243836Y16006250D01*
X3409461Y15782375D01*
X3261461Y15782375D01*
X3164211Y15920625D01*
X3065711Y15782375D01*
X2917711Y15782375D01*
X3083336Y16007000D01*
X2925461Y16219875D01*
X3073586Y16219875D01*
X3164211Y16090250D01*
X3253586Y16219875D01*
X3401711Y16219875D01*
G37*
%LPD*%
G36*
X8611852Y15984000D02*
G01*
X8604570Y16040906D01*
X8582727Y16082875D01*
X8547414Y16108844D01*
X8499727Y16117500D01*
X8481414Y16116469D01*
X8463227Y16113375D01*
X8444945Y16108219D01*
X8426602Y16100750D01*
X8427102Y16227250D01*
X8440883Y16228875D01*
X8450977Y16229750D01*
X8458820Y16230219D01*
X8466102Y16230375D01*
X8511508Y16225438D01*
X8549977Y16210625D01*
X8582883Y16185156D01*
X8611852Y16148000D01*
X8611852Y16219875D01*
X8751602Y16219875D01*
X8751602Y15782375D01*
X8611852Y15782375D01*
X8611852Y15984000D01*
G37*
%LPD*%
G36*
X4167320Y15782375D02*
G01*
X4026695Y15782375D01*
X4026695Y16048750D01*
X4036508Y16126906D01*
X4065945Y16183875D01*
X4114320Y16218750D01*
X4180945Y16230375D01*
X4222102Y16225844D01*
X4259570Y16212250D01*
X4294102Y16189094D01*
X4326695Y16155875D01*
X4326695Y16219875D01*
X4466445Y16219875D01*
X4466445Y15782375D01*
X4326695Y15782375D01*
X4326695Y15997625D01*
X4320445Y16050875D01*
X4301695Y16091125D01*
X4272008Y16116531D01*
X4232945Y16125000D01*
X4215945Y16123094D01*
X4200945Y16117375D01*
X4188289Y16108219D01*
X4178570Y16096000D01*
X4173258Y16083031D01*
X4169820Y16064375D01*
X4167945Y16034094D01*
X4167320Y15986250D01*
X4167320Y15825750D01*
X4167320Y15782375D01*
G37*
%LPD*%
G36*
X5189227Y16116469D02*
G01*
X5171039Y16113375D01*
X5152758Y16108219D01*
X5134414Y16100750D01*
X5134914Y16227250D01*
X5148695Y16228875D01*
X5158789Y16229750D01*
X5166633Y16230219D01*
X5173914Y16230375D01*
X5219320Y16225438D01*
X5257789Y16210625D01*
X5290695Y16185156D01*
X5319664Y16148000D01*
X5319664Y16219875D01*
X5459414Y16219875D01*
X5459414Y15782375D01*
X5319664Y15782375D01*
X5319664Y15984000D01*
X5312383Y16040906D01*
X5290539Y16082875D01*
X5255227Y16108844D01*
X5207539Y16117500D01*
X5189227Y16116469D01*
G37*
%LPD*%
G36*
X5042633Y16219875D02*
G01*
X5042633Y16068750D01*
X4901633Y16068750D01*
X4901633Y16219875D01*
X5042633Y16219875D01*
G37*
%LPD*%
G36*
X6657945Y16390250D02*
G01*
X6797695Y16390250D01*
X6797695Y16276125D01*
X6657945Y16276125D01*
X6657945Y16390250D01*
G37*
%LPD*%
G36*
X7324180Y23515344D02*
G01*
X7154164Y24235828D01*
X6982117Y23515344D01*
X6700383Y23515344D01*
X6476945Y24463125D01*
X6709117Y24463125D01*
X6873039Y23774328D01*
X7035539Y24463125D01*
X7270961Y24463125D01*
X7433461Y23774328D01*
X7597180Y24463125D01*
X7831383Y24463125D01*
X7606117Y23515344D01*
X7324180Y23515344D01*
G37*
%LPD*%
G36*
X2732387Y24212266D02*
G01*
X2754527Y24325762D01*
X2820949Y24403406D01*
X2936730Y24448195D01*
X3106949Y24463125D01*
X3473793Y24463125D01*
X3473793Y23515344D01*
X3068355Y23515344D01*
X2903215Y23532152D01*
X2786418Y23582578D01*
X2716949Y23667434D01*
X2693793Y23787125D01*
X2704609Y23869543D01*
X2737059Y23938047D01*
X2789008Y23989945D01*
X2858730Y24022547D01*
X2804496Y24052355D01*
X2764887Y24094656D01*
X2740512Y24148332D01*
X2732387Y24212266D01*
G37*
%LPC*%
G36*
X3006809Y24270969D02*
G01*
X2984414Y24239535D01*
X2976949Y24196422D01*
X2984414Y24152902D01*
X3006809Y24121469D01*
X3043523Y24102426D01*
X3094355Y24096078D01*
X3229434Y24096078D01*
X3229434Y24296766D01*
X3094355Y24296766D01*
X3043523Y24290316D01*
X3006809Y24270969D01*
G37*
%LPC*%
G36*
X2974918Y23899047D02*
G01*
X2947344Y23860605D01*
X2938152Y23806625D01*
X2947445Y23751781D01*
X2975324Y23712781D01*
X3021586Y23689473D01*
X3086027Y23681703D01*
X3229434Y23681703D01*
X3229434Y23929922D01*
X3086027Y23929922D01*
X3021078Y23922203D01*
X2974918Y23899047D01*
G37*
%LPD*%
G36*
X4117471Y23699984D02*
G01*
X4117471Y23917125D01*
X3727064Y23917125D01*
X3727064Y24101969D01*
X4117471Y24101969D01*
X4117471Y24278281D01*
X3702486Y24278281D01*
X3702486Y24463125D01*
X4361830Y24463125D01*
X4361830Y23515344D01*
X3688471Y23515344D01*
X3688471Y23699984D01*
X4117471Y23699984D01*
G37*
%LPD*%
G36*
X4747844Y23515344D02*
G01*
X4441938Y23515344D01*
X4945281Y24014219D01*
X4488859Y24463125D01*
X4772625Y24463125D01*
X5124844Y24117203D01*
X5124844Y24463125D01*
X5369203Y24463125D01*
X5369203Y23515344D01*
X5124844Y23515344D01*
X5124844Y23888688D01*
X4747844Y23515344D01*
G37*
%LPD*%
G36*
X5740541Y23515344D02*
G01*
X5494963Y23515344D01*
X5845963Y24463125D01*
X6137447Y24463125D01*
X6488447Y23515344D01*
X6242666Y23515344D01*
X6182338Y23688000D01*
X5800260Y23688000D01*
X5740541Y23515344D01*
G37*
%LPC*%
G36*
X5861807Y23863906D02*
G01*
X6121400Y23863906D01*
X5991400Y24240906D01*
X5861807Y23863906D01*
G37*
%LPD*%
G36*
X9125455Y-15684105D02*
G01*
X9267432Y-16015738D01*
X9408479Y-15684105D01*
X9611814Y-15684105D01*
X9611814Y-16303809D01*
X9460408Y-16303809D01*
X9460408Y-15850520D01*
X9317635Y-16184676D01*
X9216299Y-16184676D01*
X9073525Y-15850520D01*
X9073525Y-16303809D01*
X8922518Y-16303809D01*
X8922518Y-15684105D01*
X9125455Y-15684105D01*
G37*
%LPD*%
G36*
X9768301Y-16303809D02*
G01*
X9768301Y-15684105D01*
X9928074Y-15684105D01*
X9928074Y-16303809D01*
X9768301Y-16303809D01*
G37*
%LPD*%
G36*
X14877531Y-14891625D02*
G01*
X14727156Y-14891625D01*
X14727156Y-14308375D01*
X14877531Y-14308375D01*
X14877531Y-14891625D01*
G37*
%LPD*%
G36*
X14579875Y-14308375D02*
G01*
X14579875Y-14891625D01*
X14437375Y-14891625D01*
X14437375Y-14491625D01*
X14225250Y-14891625D01*
X14057250Y-14891625D01*
X14057250Y-14308375D01*
X14199875Y-14308375D01*
X14199875Y-14708375D01*
X14412000Y-14308375D01*
X14579875Y-14308375D01*
G37*
%LPD*%
G36*
X13786219Y-14422125D02*
G01*
X13786219Y-14891625D01*
X13635844Y-14891625D01*
X13635844Y-14422125D01*
X13442469Y-14422125D01*
X13442469Y-14308375D01*
X13979969Y-14308375D01*
X13979969Y-14422125D01*
X13786219Y-14422125D01*
G37*
%LPD*%
G36*
X12406797Y-14540687D02*
G01*
X12376516Y-14588812D01*
X12324266Y-14624250D01*
X12248516Y-14648562D01*
X12190266Y-14661438D01*
X12145984Y-14673969D01*
X12119391Y-14688062D01*
X12106078Y-14706031D01*
X12101641Y-14730188D01*
X12108172Y-14757187D01*
X12127766Y-14777188D01*
X12159672Y-14789469D01*
X12203141Y-14793562D01*
X12252547Y-14789812D01*
X12303766Y-14778562D01*
X12356828Y-14759812D01*
X12411766Y-14733812D01*
X12411766Y-14860688D01*
X12355891Y-14878875D01*
X12300016Y-14891938D01*
X12244266Y-14899906D01*
X12188766Y-14902562D01*
X12086234Y-14890781D01*
X12013891Y-14855437D01*
X11970953Y-14796000D01*
X11956641Y-14711938D01*
X11966922Y-14646875D01*
X11997766Y-14598688D01*
X12052828Y-14563875D01*
X12136016Y-14539187D01*
X12200016Y-14526312D01*
X12238672Y-14516031D01*
X12263141Y-14503938D01*
X12276172Y-14488219D01*
X12280516Y-14467312D01*
X12274078Y-14440188D01*
X12254766Y-14421312D01*
X12221891Y-14410156D01*
X12175016Y-14406438D01*
X12133141Y-14409188D01*
X12088766Y-14417438D01*
X12042453Y-14430969D01*
X11995016Y-14449812D01*
X11995016Y-14326312D01*
X12048391Y-14313719D01*
X12100016Y-14304688D01*
X12150109Y-14299250D01*
X12198891Y-14297438D01*
X12292078Y-14309156D01*
X12360641Y-14344312D01*
X12402828Y-14401250D01*
X12416891Y-14478312D01*
X12406797Y-14540687D01*
G37*
%LPD*%
G36*
X11691219Y-14519344D02*
G01*
X11656719Y-14458062D01*
X11602000Y-14419344D01*
X11530094Y-14406438D01*
X11486281Y-14409750D01*
X11444594Y-14419688D01*
X11403656Y-14436750D01*
X11362094Y-14461437D01*
X11362094Y-14340812D01*
X11404438Y-14321969D01*
X11448469Y-14308438D01*
X11494344Y-14300188D01*
X11542219Y-14297438D01*
X11672812Y-14317812D01*
X11773094Y-14378938D01*
X11836938Y-14474938D01*
X11858219Y-14600188D01*
X11836938Y-14725094D01*
X11773094Y-14821062D01*
X11672812Y-14882187D01*
X11542219Y-14902562D01*
X11494344Y-14899812D01*
X11448469Y-14891562D01*
X11404438Y-14878031D01*
X11362094Y-14859188D01*
X11362094Y-14738438D01*
X11403656Y-14763156D01*
X11444594Y-14780312D01*
X11486281Y-14790250D01*
X11530094Y-14793562D01*
X11602000Y-14780688D01*
X11656719Y-14742062D01*
X11691219Y-14680781D01*
X11702719Y-14600188D01*
X11691219Y-14519344D01*
G37*
%LPD*%
G36*
X9979055Y-14478312D02*
G01*
X9968961Y-14540687D01*
X9938680Y-14588812D01*
X9886430Y-14624250D01*
X9810680Y-14648562D01*
X9752430Y-14661438D01*
X9708148Y-14673969D01*
X9681555Y-14688062D01*
X9668242Y-14706031D01*
X9663805Y-14730188D01*
X9670336Y-14757187D01*
X9689930Y-14777188D01*
X9721836Y-14789469D01*
X9765305Y-14793562D01*
X9814711Y-14789812D01*
X9865930Y-14778562D01*
X9918992Y-14759812D01*
X9973930Y-14733812D01*
X9973930Y-14860688D01*
X9918055Y-14878875D01*
X9862180Y-14891938D01*
X9806430Y-14899906D01*
X9750930Y-14902562D01*
X9648398Y-14890781D01*
X9576055Y-14855437D01*
X9533117Y-14796000D01*
X9518805Y-14711938D01*
X9529086Y-14646875D01*
X9559930Y-14598688D01*
X9614992Y-14563875D01*
X9698180Y-14539187D01*
X9762180Y-14526312D01*
X9800836Y-14516031D01*
X9825305Y-14503938D01*
X9838336Y-14488219D01*
X9842680Y-14467312D01*
X9836242Y-14440188D01*
X9816930Y-14421312D01*
X9784055Y-14410156D01*
X9737180Y-14406438D01*
X9695305Y-14409188D01*
X9650930Y-14417438D01*
X9604617Y-14430969D01*
X9557180Y-14449812D01*
X9557180Y-14326312D01*
X9610555Y-14313719D01*
X9662180Y-14304688D01*
X9712273Y-14299250D01*
X9761055Y-14297438D01*
X9854242Y-14309156D01*
X9922805Y-14344312D01*
X9964992Y-14401250D01*
X9979055Y-14478312D01*
G37*
%LPD*%
G36*
X8858008Y-14716812D02*
G01*
X8843008Y-14661469D01*
X8838008Y-14598938D01*
X8843008Y-14537219D01*
X8858008Y-14482312D01*
X8883164Y-14433719D01*
X8918883Y-14391188D01*
X8970008Y-14352437D01*
X9030383Y-14326938D01*
X9112352Y-14312688D01*
X9228258Y-14307938D01*
X9386758Y-14307938D01*
X9386758Y-14891188D01*
X9228258Y-14891188D01*
X9113414Y-14886469D01*
X9031383Y-14872312D01*
X8970445Y-14846719D01*
X8918883Y-14807938D01*
X8883164Y-14765469D01*
X8858008Y-14716812D01*
G37*
%LPC*%
G36*
X9101258Y-14766125D02*
G01*
X9182508Y-14777562D01*
X9236383Y-14777562D01*
X9236383Y-14421688D01*
X9182508Y-14421688D01*
X9100945Y-14433031D01*
X9041508Y-14467062D01*
X9005133Y-14522656D01*
X8993008Y-14598938D01*
X9005195Y-14675719D01*
X9041758Y-14731812D01*
X9101258Y-14766125D01*
G37*
%LPD*%
G36*
X11087109Y-14777562D02*
G01*
X11087109Y-14307938D01*
X11237484Y-14307938D01*
X11237484Y-14891188D01*
X10823109Y-14891188D01*
X10823109Y-14777562D01*
X11087109Y-14777562D01*
G37*
%LPD*%
G36*
X10247445Y2515031D02*
G01*
X10324258Y2469000D01*
X10372727Y2396312D01*
X10388883Y2300750D01*
X10372445Y2203906D01*
X10323133Y2131375D01*
X10244039Y2086094D01*
X10138508Y2071000D01*
X10088883Y2073406D01*
X10039258Y2080625D01*
X9989633Y2092531D01*
X9940008Y2109000D01*
X9940008Y2216750D01*
X9988258Y2193594D01*
X10035258Y2177125D01*
X10080977Y2167281D01*
X10125633Y2164000D01*
X10174227Y2170156D01*
X10210758Y2188625D01*
X10234883Y2219406D01*
X10246258Y2262500D01*
X9919383Y2262500D01*
X9919383Y2302250D01*
X9934852Y2395750D01*
X9981258Y2468250D01*
X10053445Y2514844D01*
X10146258Y2530375D01*
X10247445Y2515031D01*
G37*
%LPC*%
G36*
X10147133Y2437500D02*
G01*
X10113195Y2431375D01*
X10086383Y2413000D01*
X10068945Y2384750D01*
X10063133Y2348750D01*
X10244758Y2348750D01*
X10233727Y2386719D01*
X10213133Y2414625D01*
X10183945Y2431781D01*
X10147133Y2437500D01*
G37*
%LPD*%
G36*
X14107039Y2468250D02*
G01*
X14179227Y2514844D01*
X14272039Y2530375D01*
X14373227Y2515031D01*
X14450039Y2469000D01*
X14498508Y2396312D01*
X14514664Y2300750D01*
X14498227Y2203906D01*
X14448914Y2131375D01*
X14369820Y2086094D01*
X14264289Y2071000D01*
X14214664Y2073406D01*
X14165039Y2080625D01*
X14115414Y2092531D01*
X14065789Y2109000D01*
X14065789Y2216750D01*
X14114039Y2193594D01*
X14161039Y2177125D01*
X14206758Y2167281D01*
X14251414Y2164000D01*
X14300008Y2170156D01*
X14336539Y2188625D01*
X14360664Y2219406D01*
X14372039Y2262500D01*
X14045164Y2262500D01*
X14045164Y2302250D01*
X14060633Y2395750D01*
X14107039Y2468250D01*
G37*
%LPC*%
G36*
X14359508Y2386719D02*
G01*
X14338914Y2414625D01*
X14309727Y2431781D01*
X14272914Y2437500D01*
X14238977Y2431375D01*
X14212164Y2413000D01*
X14194727Y2384750D01*
X14188914Y2348750D01*
X14370539Y2348750D01*
X14359508Y2386719D01*
G37*
%LPD*%
G36*
X12152992Y2396781D02*
G01*
X12168961Y2300750D01*
X12152992Y2204594D01*
X12105086Y2131875D01*
X12028867Y2086219D01*
X11927961Y2071000D01*
X11827430Y2086219D01*
X11751586Y2131875D01*
X11703961Y2204594D01*
X11688086Y2300750D01*
X11703961Y2396781D01*
X11751586Y2469375D01*
X11827430Y2515125D01*
X11927961Y2530375D01*
X12028867Y2515125D01*
X12105086Y2469375D01*
X12152992Y2396781D01*
G37*
%LPC*%
G36*
X11839898Y2356250D02*
G01*
X11833836Y2300750D01*
X11839898Y2245219D01*
X11858086Y2204375D01*
X11887617Y2179344D01*
X11927961Y2171000D01*
X11968930Y2179344D01*
X11998836Y2204375D01*
X12017117Y2245219D01*
X12023211Y2300750D01*
X12017117Y2356250D01*
X11998836Y2397000D01*
X11968930Y2422031D01*
X11927961Y2430375D01*
X11887617Y2422031D01*
X11858086Y2397000D01*
X11839898Y2356250D01*
G37*
%LPD*%
G36*
X9503164Y2469000D02*
G01*
X9551633Y2396312D01*
X9567789Y2300750D01*
X9551352Y2203906D01*
X9502039Y2131375D01*
X9422945Y2086094D01*
X9317414Y2071000D01*
X9267789Y2073406D01*
X9218164Y2080625D01*
X9168539Y2092531D01*
X9118914Y2109000D01*
X9118914Y2216750D01*
X9167164Y2193594D01*
X9214164Y2177125D01*
X9259883Y2167281D01*
X9304539Y2164000D01*
X9353133Y2170156D01*
X9389664Y2188625D01*
X9413789Y2219406D01*
X9425164Y2262500D01*
X9098289Y2262500D01*
X9098289Y2302250D01*
X9113758Y2395750D01*
X9160164Y2468250D01*
X9232352Y2514844D01*
X9325164Y2530375D01*
X9426352Y2515031D01*
X9503164Y2469000D01*
G37*
%LPC*%
G36*
X9292102Y2431375D02*
G01*
X9265289Y2413000D01*
X9247852Y2384750D01*
X9242039Y2348750D01*
X9423664Y2348750D01*
X9412633Y2386719D01*
X9392039Y2414625D01*
X9362852Y2431781D01*
X9326039Y2437500D01*
X9292102Y2431375D01*
G37*
%LPD*%
G36*
X13587086Y2518750D02*
G01*
X13653711Y2530375D01*
X13694867Y2525844D01*
X13732336Y2512250D01*
X13766867Y2489094D01*
X13799461Y2455875D01*
X13799461Y2519875D01*
X13939211Y2519875D01*
X13939211Y2082375D01*
X13799461Y2082375D01*
X13799461Y2297625D01*
X13793211Y2350875D01*
X13774461Y2391125D01*
X13744773Y2416531D01*
X13705711Y2425000D01*
X13688711Y2423094D01*
X13673711Y2417375D01*
X13661055Y2408219D01*
X13651336Y2396000D01*
X13646023Y2383031D01*
X13642586Y2364375D01*
X13640711Y2334094D01*
X13640086Y2286250D01*
X13640086Y2125750D01*
X13640086Y2082375D01*
X13499461Y2082375D01*
X13499461Y2348750D01*
X13509273Y2426906D01*
X13538711Y2483875D01*
X13587086Y2518750D01*
G37*
%LPD*%
G36*
X11364711Y2419875D02*
G01*
X11295086Y2419875D01*
X11295086Y2234375D01*
X11286461Y2163562D01*
X11260586Y2116875D01*
X11213930Y2091000D01*
X11143211Y2082375D01*
X11023211Y2082375D01*
X11023211Y2182375D01*
X11095086Y2182375D01*
X11125117Y2185062D01*
X11143211Y2193125D01*
X11152305Y2208812D01*
X11155336Y2234375D01*
X11155336Y2419875D01*
X11011086Y2419875D01*
X11011086Y2519875D01*
X11155336Y2519875D01*
X11155336Y2644125D01*
X11295086Y2644125D01*
X11295086Y2519875D01*
X11364711Y2519875D01*
X11364711Y2419875D01*
G37*
%LPD*%
G36*
X12575258Y2419875D02*
G01*
X12505633Y2419875D01*
X12505633Y2234375D01*
X12497008Y2163562D01*
X12471133Y2116875D01*
X12424477Y2091000D01*
X12353758Y2082375D01*
X12233758Y2082375D01*
X12233758Y2182375D01*
X12305633Y2182375D01*
X12335664Y2185062D01*
X12353758Y2193125D01*
X12362852Y2208812D01*
X12365883Y2234375D01*
X12365883Y2419875D01*
X12221633Y2419875D01*
X12221633Y2519875D01*
X12365883Y2519875D01*
X12365883Y2644125D01*
X12505633Y2644125D01*
X12505633Y2519875D01*
X12575258Y2519875D01*
X12575258Y2419875D01*
G37*
%LPD*%
G36*
X16589602Y2665625D02*
G01*
X16589602Y2316000D01*
X16574102Y2207938D01*
X16527602Y2131500D01*
X16449258Y2086125D01*
X16338477Y2071000D01*
X16227445Y2086125D01*
X16149102Y2131500D01*
X16102508Y2207938D01*
X16086977Y2316000D01*
X16086977Y2665625D01*
X16237352Y2665625D01*
X16237352Y2316000D01*
X16243258Y2254031D01*
X16260977Y2212625D01*
X16292164Y2189375D01*
X16338477Y2181625D01*
X16384508Y2189375D01*
X16415602Y2212625D01*
X16433320Y2254031D01*
X16439227Y2316000D01*
X16439227Y2665625D01*
X16589602Y2665625D01*
G37*
%LPD*%
G36*
X15534242Y2523750D02*
G01*
X15534242Y2647250D01*
X15587617Y2659844D01*
X15639242Y2668875D01*
X15689336Y2674312D01*
X15738117Y2676125D01*
X15831305Y2664406D01*
X15899867Y2629250D01*
X15942055Y2572312D01*
X15956117Y2495250D01*
X15946023Y2432875D01*
X15915742Y2384750D01*
X15863492Y2349312D01*
X15787742Y2325000D01*
X15729492Y2312125D01*
X15685211Y2299594D01*
X15658617Y2285500D01*
X15645305Y2267531D01*
X15640867Y2243375D01*
X15647398Y2216375D01*
X15666992Y2196375D01*
X15698898Y2184094D01*
X15742367Y2180000D01*
X15791773Y2183750D01*
X15842992Y2195000D01*
X15896055Y2213750D01*
X15950992Y2239750D01*
X15950992Y2112875D01*
X15895117Y2094687D01*
X15839242Y2081625D01*
X15783492Y2073656D01*
X15727992Y2071000D01*
X15625461Y2082781D01*
X15553117Y2118125D01*
X15510180Y2177562D01*
X15495867Y2261625D01*
X15506148Y2326688D01*
X15536992Y2374875D01*
X15592055Y2409688D01*
X15675242Y2434375D01*
X15739242Y2447250D01*
X15777898Y2457531D01*
X15802367Y2469625D01*
X15815398Y2485344D01*
X15819742Y2506250D01*
X15813305Y2533375D01*
X15793992Y2552250D01*
X15761117Y2563406D01*
X15714242Y2567125D01*
X15672367Y2564375D01*
X15627992Y2556125D01*
X15581680Y2542594D01*
X15534242Y2523750D01*
G37*
%LPD*%
G36*
X14951945Y2412844D02*
G01*
X14927570Y2438875D01*
X14912570Y2471906D01*
X14907570Y2511250D01*
X14921195Y2581094D01*
X14962070Y2628875D01*
X15033320Y2656438D01*
X15138070Y2665625D01*
X15363820Y2665625D01*
X15363820Y2082375D01*
X15114320Y2082375D01*
X15012695Y2092719D01*
X14940820Y2123750D01*
X14898070Y2175969D01*
X14883820Y2249625D01*
X14890477Y2300344D01*
X14910445Y2342500D01*
X14942414Y2374438D01*
X14985320Y2394500D01*
X14951945Y2412844D01*
G37*
%LPC*%
G36*
X15213445Y2563250D02*
G01*
X15130320Y2563250D01*
X15099039Y2559281D01*
X15076445Y2547375D01*
X15062664Y2528031D01*
X15058070Y2501500D01*
X15062664Y2474719D01*
X15076445Y2455375D01*
X15099039Y2443656D01*
X15130320Y2439750D01*
X15213445Y2439750D01*
X15213445Y2563250D01*
G37*
%LPC*%
G36*
X15213445Y2337500D02*
G01*
X15125195Y2337500D01*
X15085227Y2332750D01*
X15056820Y2318500D01*
X15039852Y2294844D01*
X15034195Y2261625D01*
X15039914Y2227875D01*
X15057070Y2203875D01*
X15085539Y2189531D01*
X15125195Y2184750D01*
X15213445Y2184750D01*
X15213445Y2337500D01*
G37*
%LPD*%
G36*
X13173492Y2525844D02*
G01*
X13216180Y2530375D01*
X13289836Y2514312D01*
X13349055Y2466125D01*
X13387961Y2392656D01*
X13400930Y2300750D01*
X13387961Y2208812D01*
X13349055Y2135250D01*
X13289836Y2087062D01*
X13216180Y2071000D01*
X13173273Y2075500D01*
X13135805Y2089000D01*
X13102430Y2112156D01*
X13072055Y2145625D01*
X13072055Y2082375D01*
X12931430Y2082375D01*
X12931430Y2690250D01*
X13072055Y2690250D01*
X13072055Y2455875D01*
X13102461Y2489094D01*
X13135930Y2512250D01*
X13173492Y2525844D01*
G37*
%LPC*%
G36*
X13250148Y2245656D02*
G01*
X13256055Y2300750D01*
X13250148Y2355812D01*
X13232430Y2396000D01*
X13203586Y2420656D01*
X13164305Y2428875D01*
X13124648Y2420656D01*
X13095680Y2396000D01*
X13077961Y2355812D01*
X13072055Y2300750D01*
X13077961Y2245656D01*
X13095680Y2205375D01*
X13124648Y2180812D01*
X13164305Y2172625D01*
X13203586Y2180812D01*
X13232430Y2205375D01*
X13250148Y2245656D01*
G37*
%LPD*%
G36*
X10681195Y2525844D02*
G01*
X10718664Y2512250D01*
X10753195Y2489094D01*
X10785789Y2455875D01*
X10785789Y2690250D01*
X10925539Y2690250D01*
X10925539Y2082375D01*
X10785789Y2082375D01*
X10785789Y2297625D01*
X10779539Y2350875D01*
X10760789Y2391125D01*
X10731102Y2416531D01*
X10692039Y2425000D01*
X10675039Y2423094D01*
X10660039Y2417375D01*
X10647383Y2408219D01*
X10637664Y2396000D01*
X10632352Y2383031D01*
X10628914Y2364375D01*
X10627039Y2333906D01*
X10626414Y2285500D01*
X10626414Y2125750D01*
X10626414Y2082375D01*
X10485789Y2082375D01*
X10485789Y2348750D01*
X10495602Y2426906D01*
X10525039Y2483875D01*
X10573414Y2518750D01*
X10640039Y2530375D01*
X10681195Y2525844D01*
G37*
%LPD*%
G36*
X25000000Y11075000D02*
G01*
X25014632Y11073559D01*
X25028701Y11069291D01*
X25041668Y11062360D01*
X25053033Y11053033D01*
X25062360Y11041668D01*
X25069291Y11028701D01*
X25073559Y11014632D01*
X25075000Y11000000D01*
X25075000Y-5000000D01*
X25073559Y-5014632D01*
X25069291Y-5028701D01*
X25062360Y-5041668D01*
X25053033Y-5053033D01*
X25041668Y-5062360D01*
X25028701Y-5069291D01*
X25014632Y-5073559D01*
X25000000Y-5075000D01*
X-1000000Y-5075000D01*
X-1014632Y-5073559D01*
X-1028701Y-5069291D01*
X-1041668Y-5062360D01*
X-1053033Y-5053033D01*
X-1062360Y-5041668D01*
X-1069291Y-5028701D01*
X-1073559Y-5014632D01*
X-1075000Y-5000000D01*
X-1075000Y11000000D01*
X-1073559Y11014632D01*
X-1069291Y11028701D01*
X-1062360Y11041668D01*
X-1053033Y11053033D01*
X-1041668Y11062360D01*
X-1028701Y11069291D01*
X-1014632Y11073559D01*
X-1000000Y11075000D01*
X25000000Y11075000D01*
G37*
%LPC*%
G36*
X24925000Y10925000D02*
G01*
X-925000Y10925000D01*
X-925000Y-4925000D01*
X24925000Y-4925000D01*
X24925000Y10925000D01*
G37*
%LPD*%
G36*
X10391494Y3864688D02*
G01*
X10350791Y3906250D01*
X10350791Y3827188D01*
X10175947Y3827188D01*
X10175947Y4374062D01*
X10350791Y4374062D01*
X10350791Y4104063D01*
X10358604Y4037539D01*
X10382041Y3987344D01*
X10419150Y3955820D01*
X10467979Y3945312D01*
X10489189Y3947617D01*
X10507822Y3954531D01*
X10523486Y3965820D01*
X10535791Y3980938D01*
X10542861Y3998164D01*
X10547510Y4023281D01*
X10550088Y4061562D01*
X10550947Y4118281D01*
X10550830Y4151836D01*
X10550479Y4207812D01*
X10550127Y4269297D01*
X10550010Y4319375D01*
X10550010Y4374062D01*
X10725791Y4374062D01*
X10725791Y4040156D01*
X10713408Y3942422D01*
X10676260Y3871094D01*
X10615400Y3827500D01*
X10531885Y3812969D01*
X10480986Y3818633D01*
X10434541Y3835625D01*
X10391494Y3864688D01*
G37*
%LPD*%
G36*
X9686064Y4219609D02*
G01*
X9706260Y4100156D01*
X9685713Y3979102D01*
X9624072Y3888438D01*
X9525205Y3831836D01*
X9393291Y3812969D01*
X9331260Y3815977D01*
X9269229Y3825000D01*
X9207197Y3839883D01*
X9145166Y3860469D01*
X9145166Y3995156D01*
X9205479Y3966211D01*
X9264229Y3945625D01*
X9321377Y3933320D01*
X9377197Y3929219D01*
X9437939Y3936914D01*
X9483604Y3960000D01*
X9513760Y3998477D01*
X9527979Y4052344D01*
X9119385Y4052344D01*
X9119385Y4102031D01*
X9138721Y4218906D01*
X9196729Y4309531D01*
X9286963Y4367773D01*
X9402979Y4387188D01*
X9529463Y4368008D01*
X9625479Y4310469D01*
X9686064Y4219609D01*
G37*
%LPC*%
G36*
X9328135Y4240469D02*
G01*
X9306338Y4205156D01*
X9299072Y4160156D01*
X9526104Y4160156D01*
X9512314Y4207617D01*
X9486572Y4242500D01*
X9450088Y4263945D01*
X9404072Y4271094D01*
X9361650Y4263438D01*
X9328135Y4240469D01*
G37*
%LPD*%
G36*
X12163779Y4100156D02*
G01*
X12143818Y3979961D01*
X12083936Y3889062D01*
X11988662Y3831992D01*
X11862529Y3812969D01*
X11736865Y3831992D01*
X11642061Y3889062D01*
X11582529Y3979961D01*
X11562686Y4100156D01*
X11582529Y4220195D01*
X11642061Y4310938D01*
X11736865Y4368125D01*
X11862529Y4387188D01*
X11988662Y4368125D01*
X12083936Y4310938D01*
X12143818Y4220195D01*
X12163779Y4100156D01*
G37*
%LPC*%
G36*
X11744873Y4100156D02*
G01*
X11752451Y4030742D01*
X11775186Y3979688D01*
X11812100Y3948398D01*
X11862529Y3937969D01*
X11913740Y3948398D01*
X11951123Y3979688D01*
X11973975Y4030742D01*
X11981592Y4100156D01*
X11973975Y4169531D01*
X11951123Y4220469D01*
X11913740Y4251758D01*
X11862529Y4262188D01*
X11812100Y4251758D01*
X11775186Y4220469D01*
X11752451Y4169531D01*
X11744873Y4100156D01*
G37*
%LPD*%
G36*
X12872061Y4381328D02*
G01*
X12915928Y4363750D01*
X12955303Y4334609D01*
X12989990Y4294062D01*
X12989990Y4374062D01*
X13165771Y4374062D01*
X13165771Y3827188D01*
X12989990Y3827188D01*
X12989990Y4096250D01*
X12983154Y4164102D01*
X12962646Y4214219D01*
X12929561Y4245156D01*
X12884990Y4255469D01*
X12851084Y4248906D01*
X12829365Y4229219D01*
X12817646Y4186953D01*
X12813740Y4112344D01*
X12813740Y3827188D01*
X12637959Y3827188D01*
X12637959Y4095781D01*
X12630381Y4164258D01*
X12609834Y4214375D01*
X12577021Y4245195D01*
X12532959Y4255469D01*
X12500107Y4248906D01*
X12477803Y4229219D01*
X12464912Y4195117D01*
X12460615Y4145000D01*
X12460693Y4133789D01*
X12460928Y4125469D01*
X12461162Y4118828D01*
X12461553Y4112344D01*
X12461553Y3827188D01*
X12285771Y3827188D01*
X12285771Y4160156D01*
X12298115Y4257852D01*
X12335146Y4329062D01*
X12395732Y4372656D01*
X12478740Y4387188D01*
X12531162Y4380547D01*
X12579053Y4360625D01*
X12621592Y4328008D01*
X12657959Y4283281D01*
X12685615Y4327031D01*
X12723896Y4359844D01*
X12770615Y4380352D01*
X12823896Y4387188D01*
X12872061Y4381328D01*
G37*
%LPD*%
G36*
X14739346Y4186406D02*
G01*
X14697393Y4189063D01*
X14636377Y4180742D01*
X14589893Y4155781D01*
X14560361Y4116523D01*
X14550518Y4065000D01*
X14560361Y4013750D01*
X14589893Y3974375D01*
X14636377Y3949297D01*
X14697393Y3940938D01*
X14746377Y3945195D01*
X14798330Y3957969D01*
X14853291Y3979414D01*
X14911299Y4009375D01*
X14911299Y3861406D01*
X14851104Y3840117D01*
X14790518Y3825000D01*
X14729424Y3815977D01*
X14667705Y3812969D01*
X14539814Y3829688D01*
X14443330Y3879844D01*
X14382744Y3959648D01*
X14362549Y4065000D01*
X14381104Y4170977D01*
X14436768Y4250781D01*
X14525752Y4300820D01*
X14644268Y4317500D01*
X14667275Y4316680D01*
X14689424Y4314219D01*
X14711064Y4310391D01*
X14732549Y4305156D01*
X14732549Y4417969D01*
X14415205Y4417969D01*
X14415205Y4556250D01*
X14882549Y4556250D01*
X14882549Y4146094D01*
X14831494Y4165117D01*
X14783955Y4178438D01*
X14739346Y4186406D01*
G37*
%LPD*%
G36*
X13840303Y4566484D02*
G01*
X13889873Y4568438D01*
X14031592Y4542617D01*
X14139561Y4465156D01*
X14207881Y4342539D01*
X14230654Y4181250D01*
X14211201Y4025039D01*
X14152842Y3908906D01*
X14058857Y3836953D01*
X13932842Y3812969D01*
X13817021Y3830625D01*
X13727373Y3883594D01*
X13669834Y3965859D01*
X13650654Y4071406D01*
X13667803Y4167188D01*
X13719248Y4242656D01*
X13798623Y4291758D01*
X13899561Y4308125D01*
X13942373Y4305117D01*
X13981748Y4296094D01*
X14017920Y4281211D01*
X14051436Y4260312D01*
X14033857Y4340742D01*
X13996748Y4398594D01*
X13940615Y4433633D01*
X13865967Y4445312D01*
X13826436Y4442695D01*
X13785967Y4434844D01*
X13743545Y4421484D01*
X13698467Y4402344D01*
X13698467Y4537188D01*
X13745107Y4550859D01*
X13792217Y4560625D01*
X13840303Y4566484D01*
G37*
%LPC*%
G36*
X13837920Y4115078D02*
G01*
X13831748Y4059063D01*
X13837920Y4003125D01*
X13856436Y3963125D01*
X13887373Y3939219D01*
X13930811Y3931250D01*
X13974014Y3939219D01*
X14004873Y3963125D01*
X14023389Y4003125D01*
X14029561Y4059063D01*
X14023389Y4115078D01*
X14004873Y4155000D01*
X13974014Y4179023D01*
X13930811Y4187031D01*
X13887373Y4179023D01*
X13856436Y4155000D01*
X13837920Y4115078D01*
G37*
%LPD*%
G36*
X15208936Y4544766D02*
G01*
X15336162Y4569375D01*
X15463740Y4544766D01*
X15558350Y4470938D01*
X15616943Y4351797D01*
X15636475Y4190938D01*
X15616943Y4030508D01*
X15558350Y3911406D01*
X15463740Y3837578D01*
X15336162Y3812969D01*
X15208936Y3837578D01*
X15114443Y3911406D01*
X15055850Y4030508D01*
X15036318Y4190938D01*
X15055850Y4351797D01*
X15114443Y4470938D01*
X15208936Y4544766D01*
G37*
%LPC*%
G36*
X15284600Y3955078D02*
G01*
X15336162Y3940938D01*
X15387998Y3955078D01*
X15422568Y3997500D01*
X15442021Y4074609D01*
X15448506Y4192500D01*
X15442021Y4308984D01*
X15422568Y4385000D01*
X15387998Y4426953D01*
X15336162Y4440938D01*
X15284287Y4426953D01*
X15249912Y4385000D01*
X15230693Y4308984D01*
X15224287Y4192500D01*
X15230771Y4074609D01*
X15250225Y3997500D01*
X15284600Y3955078D01*
G37*
%LPD*%
G36*
X17021123Y3827188D02*
G01*
X16833154Y3827188D01*
X16833154Y4080156D01*
X16709248Y4080156D01*
X16586240Y4095586D01*
X16495654Y4141875D01*
X16439756Y4216875D01*
X16421123Y4318438D01*
X16439756Y4419531D01*
X16495654Y4494375D01*
X16586240Y4540781D01*
X16709248Y4556250D01*
X17021123Y4556250D01*
X17021123Y3827188D01*
G37*
%LPC*%
G36*
X16729248Y4420000D02*
G01*
X16680771Y4413398D01*
X16644717Y4393594D01*
X16622334Y4361602D01*
X16614873Y4318438D01*
X16622334Y4275117D01*
X16644717Y4242969D01*
X16680771Y4223047D01*
X16729248Y4216406D01*
X16833154Y4216406D01*
X16833154Y4420000D01*
X16729248Y4420000D01*
G37*
%LPD*%
G36*
X17790283Y4556250D02*
G01*
X17790283Y4414062D01*
X17548096Y4414062D01*
X17548096Y3827188D01*
X17360127Y3827188D01*
X17360127Y4414062D01*
X17118408Y4414062D01*
X17118408Y4556250D01*
X17790283Y4556250D01*
G37*
%LPD*%
G36*
X16335088Y3960000D02*
G01*
X16011963Y3960000D01*
X16011963Y3827188D01*
X15834150Y3827188D01*
X15834150Y3960000D01*
X15730244Y3960000D01*
X15730244Y4096250D01*
X15834150Y4096250D01*
X15834150Y4556250D01*
X16043213Y4556250D01*
X16335088Y4121094D01*
X16335088Y3960000D01*
G37*
%LPC*%
G36*
X16217900Y4096250D02*
G01*
X16011963Y4401406D01*
X16011963Y4096250D01*
X16217900Y4096250D01*
G37*
%LPD*%
G36*
X11409893Y4306875D02*
G01*
X11458525Y4215039D01*
X11474736Y4100156D01*
X11458525Y3985234D01*
X11409893Y3893281D01*
X11335869Y3833047D01*
X11243799Y3812969D01*
X11190166Y3818594D01*
X11143330Y3835469D01*
X11101611Y3864414D01*
X11063643Y3906250D01*
X11063643Y3827188D01*
X10887861Y3827188D01*
X10887861Y4587031D01*
X11063643Y4587031D01*
X11063643Y4294062D01*
X11101650Y4335586D01*
X11143486Y4364531D01*
X11190439Y4381523D01*
X11243799Y4387188D01*
X11335869Y4367109D01*
X11409893Y4306875D01*
G37*
%LPC*%
G36*
X11264111Y4219219D02*
G01*
X11228057Y4250039D01*
X11178955Y4260312D01*
X11129385Y4250039D01*
X11093174Y4219219D01*
X11071025Y4168984D01*
X11063643Y4100156D01*
X11071025Y4031289D01*
X11093174Y3980938D01*
X11129385Y3950234D01*
X11178955Y3940000D01*
X11228057Y3950234D01*
X11264111Y3980938D01*
X11286260Y4031289D01*
X11293643Y4100156D01*
X11286260Y4168984D01*
X11264111Y4219219D01*
G37*
%LPD*%
G36*
X9833252Y4587031D02*
G01*
X10007939Y4587031D01*
X10007939Y3827188D01*
X9833252Y3827188D01*
X9833252Y4587031D01*
G37*
%LPD*%
G36*
X9304336Y16219875D02*
G01*
X9304336Y15782375D01*
X9164586Y15782375D01*
X9164586Y16219875D01*
X9304336Y16219875D01*
G37*
%LPD*%
G36*
X9711789Y16376125D02*
G01*
X9836945Y16356000D01*
X9931914Y16295625D01*
X9991820Y16199875D01*
X10011789Y16073375D01*
X9991789Y15946844D01*
X9931789Y15851500D01*
X9835664Y15791781D01*
X9707539Y15771875D01*
X9695789Y15771875D01*
X9600539Y15665625D01*
X9457164Y15665625D01*
X9574664Y15796875D01*
X9505008Y15841562D01*
X9453789Y15903875D01*
X9422289Y15981812D01*
X9411789Y16073375D01*
X9431570Y16200813D01*
X9490914Y16296375D01*
X9585695Y16356188D01*
X9711789Y16376125D01*
G37*
%LPC*%
G36*
X9650477Y15892688D02*
G01*
X9711789Y15880000D01*
X9773852Y15892438D01*
X9819289Y15929750D01*
X9847039Y15990594D01*
X9856289Y16073375D01*
X9846820Y16155250D01*
X9818414Y16216375D01*
X9772820Y16254438D01*
X9711789Y16267125D01*
X9650477Y16254438D01*
X9604789Y16216375D01*
X9576383Y16155250D01*
X9566914Y16073375D01*
X9576383Y15991844D01*
X9604789Y15930750D01*
X9650477Y15892688D01*
G37*
%LPD*%
G36*
X9304336Y16390250D02*
G01*
X9304336Y16276125D01*
X9164586Y16276125D01*
X9164586Y16390250D01*
X9304336Y16390250D01*
G37*
%LPD*%
M02*
