M48
; WakeBack carrier v1
; #@! TF.FileFunction,Plated,1,2,PTH
FMAT,2
METRIC
T1C0.350
T2C0.800
T3C1.000
%
G90
G05
T1
X-21.500Y-13.600
X-15.200Y-13.400
X-9.400Y-15.500
X-24.500Y-13.600
T2
X-10.160Y-23.500
X-8.160Y-23.500
T3
X-20.620Y-4.620
X-18.080Y-4.620
X-15.540Y-4.620
X-13.000Y-4.620
X-10.460Y-4.620
X-7.920Y-4.620
X-5.380Y-4.620
X-20.620Y10.620
X-18.080Y10.620
X-15.540Y10.620
X-13.000Y10.620
X-10.460Y10.620
X-7.920Y10.620
X-5.380Y10.620
X-7.620Y19.500
X-5.080Y19.500
X-2.540Y19.500
X0.000Y19.500
X4.000Y-13.000
X6.540Y-13.000
X9.080Y-13.000
X11.620Y-13.000
X14.160Y-13.000
X-15.240Y-19.000
X-12.700Y-19.000
X-10.160Y-19.000
X-7.620Y-19.000
X-5.080Y-19.000
X-2.540Y-19.000
X-15.240Y-23.500
X-12.700Y-23.500
X-5.080Y-23.500
X-2.540Y-23.500
T0
M30
