G04 WakeBack carrier v1*
%TF.GenerationSoftware,WakeBack,gen_carrier.py,1*%
%TF.FileFunction,Copper,L2,Bot*%
%TF.FilePolarity,Positive*%
%FSLAX46Y46*%
%MOMM*%
%LPD*%
%ADD10C,0.3000*%
%ADD11C,0.5000*%
%ADD12R,1.7000X1.7000*%
%ADD13C,1.7000*%
%ADD14R,1.4000X1.4000*%
%ADD15C,1.4000*%
%ADD16C,0.7000*%
%LPD*%
G36*
X29464464Y-1447496D02*
G01*
X29455027Y-1628260D01*
X29444482Y-1808962D01*
X29432828Y-1989595D01*
X29420066Y-2170154D01*
X29406196Y-2350632D01*
X29391220Y-2531021D01*
X29375136Y-2711314D01*
X29357947Y-2891505D01*
X29339652Y-3071588D01*
X29320253Y-3251555D01*
X29299750Y-3431399D01*
X29278144Y-3611115D01*
X29255435Y-3790694D01*
X29231625Y-3970131D01*
X29206715Y-4149418D01*
X29180705Y-4328549D01*
X29153596Y-4507517D01*
X29125390Y-4686315D01*
X29096087Y-4864937D01*
X29065688Y-5043375D01*
X29034195Y-5221624D01*
X29001610Y-5399676D01*
X28967932Y-5577525D01*
X28933163Y-5755164D01*
X28897306Y-5932586D01*
X28860360Y-6109785D01*
X28822328Y-6286754D01*
X28783211Y-6463486D01*
X28743009Y-6639975D01*
X28701726Y-6816214D01*
X28659362Y-6992196D01*
X28615920Y-7167915D01*
X28571400Y-7343364D01*
X28525804Y-7518536D01*
X28479134Y-7693426D01*
X28431392Y-7868026D01*
X28382579Y-8042329D01*
X28332698Y-8216330D01*
X28281750Y-8390022D01*
X28229738Y-8563397D01*
X28176662Y-8736451D01*
X28122526Y-8909175D01*
X28067331Y-9081564D01*
X28011079Y-9253611D01*
X27953773Y-9425309D01*
X27895414Y-9596653D01*
X27836005Y-9767635D01*
X27775548Y-9938250D01*
X27714045Y-10108490D01*
X27651499Y-10278350D01*
X27587911Y-10447823D01*
X27523285Y-10616903D01*
X27457623Y-10785583D01*
X27390927Y-10953856D01*
X27323200Y-11121718D01*
X27254444Y-11289160D01*
X27184662Y-11456178D01*
X27113856Y-11622764D01*
X27042030Y-11788913D01*
X26969186Y-11954618D01*
X26895326Y-12119873D01*
X26820453Y-12284671D01*
X26744571Y-12449007D01*
X26667682Y-12612874D01*
X26589789Y-12776267D01*
X26510895Y-12939178D01*
X26431002Y-13101602D01*
X26350115Y-13263533D01*
X26268235Y-13424965D01*
X26185367Y-13585891D01*
X26101512Y-13746306D01*
X26016675Y-13906203D01*
X25930859Y-14065576D01*
X25844066Y-14224420D01*
X25756300Y-14382729D01*
X25667564Y-14540496D01*
X25577862Y-14697715D01*
X25487197Y-14854381D01*
X25395573Y-15010488D01*
X25302992Y-15166030D01*
X25209459Y-15321000D01*
X25114976Y-15475394D01*
X25019548Y-15629206D01*
X24923178Y-15782429D01*
X24825870Y-15935057D01*
X24727627Y-16087086D01*
X24628453Y-16238509D01*
X24528352Y-16389321D01*
X24427327Y-16539515D01*
X24325382Y-16689087D01*
X24222522Y-16838031D01*
X24118750Y-16986340D01*
X24014070Y-17134010D01*
X23908485Y-17281035D01*
X23802001Y-17427410D01*
X23694620Y-17573128D01*
X23586348Y-17718185D01*
X23477187Y-17862574D01*
X23367142Y-18006291D01*
X23256218Y-18149330D01*
X23144418Y-18291686D01*
X23031746Y-18433353D01*
X22918208Y-18574327D01*
X22803807Y-18714600D01*
X22688547Y-18854170D01*
X22572433Y-18993029D01*
X22455469Y-19131173D01*
X22337659Y-19268597D01*
X22219009Y-19405296D01*
X22099522Y-19541264D01*
X21979203Y-19676496D01*
X21858056Y-19810988D01*
X21736087Y-19944733D01*
X21613299Y-20077728D01*
X21489698Y-20209967D01*
X21365287Y-20341444D01*
X21240072Y-20472156D01*
X21114058Y-20602098D01*
X20987248Y-20731263D01*
X20859648Y-20859648D01*
X20731263Y-20987248D01*
X20602098Y-21114058D01*
X20472156Y-21240072D01*
X20341444Y-21365287D01*
X20209967Y-21489698D01*
X20077728Y-21613299D01*
X19944733Y-21736087D01*
X19810988Y-21858056D01*
X19676496Y-21979203D01*
X19541264Y-22099522D01*
X19405296Y-22219009D01*
X19268597Y-22337659D01*
X19131173Y-22455469D01*
X18993029Y-22572433D01*
X18854170Y-22688547D01*
X18714600Y-22803807D01*
X18574327Y-22918208D01*
X18433353Y-23031746D01*
X18291686Y-23144418D01*
X18149330Y-23256218D01*
X18006291Y-23367142D01*
X17862574Y-23477187D01*
X17718185Y-23586348D01*
X17573128Y-23694620D01*
X17427410Y-23802001D01*
X17281035Y-23908485D01*
X17134010Y-24014070D01*
X16986340Y-24118750D01*
X16838031Y-24222522D01*
X16689087Y-24325382D01*
X16539515Y-24427327D01*
X16389321Y-24528352D01*
X16238509Y-24628453D01*
X16087086Y-24727627D01*
X15935057Y-24825870D01*
X15782429Y-24923178D01*
X15629206Y-25019548D01*
X15475394Y-25114976D01*
X15321000Y-25209459D01*
X15166030Y-25302992D01*
X15010488Y-25395573D01*
X14854381Y-25487197D01*
X14697715Y-25577862D01*
X14540496Y-25667564D01*
X14382729Y-25756300D01*
X14224420Y-25844066D01*
X14065576Y-25930859D01*
X13906203Y-26016675D01*
X13746306Y-26101512D01*
X13585891Y-26185367D01*
X13424965Y-26268235D01*
X13263533Y-26350115D01*
X13101602Y-26431002D01*
X12939178Y-26510895D01*
X12776267Y-26589789D01*
X12612874Y-26667682D01*
X12449007Y-26744571D01*
X12284671Y-26820453D01*
X12119873Y-26895326D01*
X11954618Y-26969186D01*
X11788913Y-27042030D01*
X11622764Y-27113856D01*
X11456178Y-27184662D01*
X11289160Y-27254444D01*
X11121718Y-27323200D01*
X10953856Y-27390927D01*
X10785583Y-27457623D01*
X10616903Y-27523285D01*
X10447823Y-27587911D01*
X10278350Y-27651499D01*
X10108490Y-27714045D01*
X9938250Y-27775548D01*
X9767635Y-27836005D01*
X9596653Y-27895414D01*
X9425309Y-27953773D01*
X9253611Y-28011079D01*
X9081564Y-28067331D01*
X8909175Y-28122526D01*
X8736451Y-28176662D01*
X8563397Y-28229738D01*
X8390022Y-28281750D01*
X8216330Y-28332698D01*
X8042329Y-28382579D01*
X7868026Y-28431392D01*
X7693426Y-28479134D01*
X7518536Y-28525804D01*
X7343364Y-28571400D01*
X7167915Y-28615920D01*
X6992196Y-28659362D01*
X6816214Y-28701726D01*
X6639975Y-28743009D01*
X6463486Y-28783211D01*
X6286754Y-28822328D01*
X6109785Y-28860360D01*
X5932586Y-28897306D01*
X5755164Y-28933163D01*
X5577525Y-28967932D01*
X5399676Y-29001610D01*
X5221624Y-29034195D01*
X5043375Y-29065688D01*
X4864937Y-29096087D01*
X4686315Y-29125390D01*
X4507517Y-29153596D01*
X4328549Y-29180705D01*
X4149418Y-29206715D01*
X3970131Y-29231625D01*
X3790694Y-29255435D01*
X3611115Y-29278144D01*
X3431399Y-29299750D01*
X3251555Y-29320253D01*
X3071588Y-29339652D01*
X2891505Y-29357947D01*
X2711314Y-29375136D01*
X2531021Y-29391220D01*
X2350632Y-29406196D01*
X2170154Y-29420066D01*
X1989595Y-29432828D01*
X1808962Y-29444482D01*
X1628260Y-29455027D01*
X1447496Y-29464464D01*
X1266678Y-29472791D01*
X1085813Y-29480008D01*
X904907Y-29486115D01*
X723966Y-29491113D01*
X542998Y-29495000D01*
X362010Y-29497776D01*
X181009Y-29499442D01*
X0Y-29499998D01*
X-181009Y-29499442D01*
X-362010Y-29497776D01*
X-542998Y-29495000D01*
X-723966Y-29491113D01*
X-904907Y-29486115D01*
X-1085813Y-29480008D01*
X-1266678Y-29472791D01*
X-1447496Y-29464464D01*
X-1628260Y-29455027D01*
X-1808962Y-29444482D01*
X-1989595Y-29432828D01*
X-2170154Y-29420066D01*
X-2350632Y-29406196D01*
X-2531021Y-29391220D01*
X-2711314Y-29375136D01*
X-2891505Y-29357947D01*
X-3071588Y-29339652D01*
X-3251555Y-29320253D01*
X-3431399Y-29299750D01*
X-3611115Y-29278144D01*
X-3790694Y-29255435D01*
X-3970131Y-29231625D01*
X-4149418Y-29206715D01*
X-4328549Y-29180705D01*
X-4507517Y-29153596D01*
X-4686315Y-29125390D01*
X-4864937Y-29096087D01*
X-5043375Y-29065688D01*
X-5221624Y-29034195D01*
X-5399676Y-29001610D01*
X-5577525Y-28967932D01*
X-5755164Y-28933163D01*
X-5932586Y-28897306D01*
X-6109785Y-28860360D01*
X-6286754Y-28822328D01*
X-6463486Y-28783211D01*
X-6639975Y-28743009D01*
X-6816214Y-28701726D01*
X-6992196Y-28659362D01*
X-7167915Y-28615920D01*
X-7343364Y-28571400D01*
X-7518536Y-28525804D01*
X-7693426Y-28479134D01*
X-7868026Y-28431392D01*
X-8042329Y-28382579D01*
X-8216330Y-28332698D01*
X-8390022Y-28281750D01*
X-8563397Y-28229738D01*
X-8736451Y-28176662D01*
X-8909175Y-28122526D01*
X-9081564Y-28067331D01*
X-9253611Y-28011079D01*
X-9425309Y-27953773D01*
X-9596653Y-27895414D01*
X-9767635Y-27836005D01*
X-9938250Y-27775548D01*
X-10108490Y-27714045D01*
X-10278350Y-27651499D01*
X-10447823Y-27587911D01*
X-10616903Y-27523285D01*
X-10785583Y-27457623D01*
X-10953856Y-27390927D01*
X-11121718Y-27323200D01*
X-11289160Y-27254444D01*
X-11456178Y-27184662D01*
X-11622764Y-27113856D01*
X-11788913Y-27042030D01*
X-11954618Y-26969186D01*
X-12119873Y-26895326D01*
X-12284671Y-26820453D01*
X-12449007Y-26744571D01*
X-12612874Y-26667682D01*
X-12776267Y-26589789D01*
X-12939178Y-26510895D01*
X-13101602Y-26431002D01*
X-13263533Y-26350115D01*
X-13424965Y-26268235D01*
X-13585891Y-26185367D01*
X-13746306Y-26101512D01*
X-13906203Y-26016675D01*
X-14065576Y-25930859D01*
X-14224420Y-25844066D01*
X-14382729Y-25756300D01*
X-14540496Y-25667564D01*
X-14697715Y-25577862D01*
X-14854381Y-25487197D01*
X-15010488Y-25395573D01*
X-15166030Y-25302992D01*
X-15321000Y-25209459D01*
X-15475394Y-25114976D01*
X-15629206Y-25019548D01*
X-15782429Y-24923178D01*
X-15935057Y-24825870D01*
X-16087086Y-24727627D01*
X-16238509Y-24628453D01*
X-16389321Y-24528352D01*
X-16539515Y-24427327D01*
X-16689087Y-24325382D01*
X-16838031Y-24222522D01*
X-16986340Y-24118750D01*
X-17134010Y-24014070D01*
X-17281035Y-23908485D01*
X-17427410Y-23802001D01*
X-17573128Y-23694620D01*
X-17718185Y-23586348D01*
X-17862574Y-23477187D01*
X-18006291Y-23367142D01*
X-18149330Y-23256218D01*
X-18291686Y-23144418D01*
X-18433353Y-23031746D01*
X-18574327Y-22918208D01*
X-18714600Y-22803807D01*
X-18854170Y-22688547D01*
X-18993029Y-22572433D01*
X-19131173Y-22455469D01*
X-19268597Y-22337659D01*
X-19405296Y-22219009D01*
X-19541264Y-22099522D01*
X-19676496Y-21979203D01*
X-19810988Y-21858056D01*
X-19944733Y-21736087D01*
X-20077728Y-21613299D01*
X-20209967Y-21489698D01*
X-20341444Y-21365287D01*
X-20472156Y-21240072D01*
X-20602098Y-21114058D01*
X-20731263Y-20987248D01*
X-20859648Y-20859648D01*
X-20987248Y-20731263D01*
X-21114058Y-20602098D01*
X-21240072Y-20472156D01*
X-21365287Y-20341444D01*
X-21489698Y-20209967D01*
X-21613299Y-20077728D01*
X-21736087Y-19944733D01*
X-21858056Y-19810988D01*
X-21979203Y-19676496D01*
X-22099522Y-19541264D01*
X-22219009Y-19405296D01*
X-22337659Y-19268597D01*
X-22455469Y-19131173D01*
X-22572433Y-18993029D01*
X-22688547Y-18854170D01*
X-22803807Y-18714600D01*
X-22918208Y-18574327D01*
X-23031746Y-18433353D01*
X-23144418Y-18291686D01*
X-23256218Y-18149330D01*
X-23367142Y-18006291D01*
X-23477187Y-17862574D01*
X-23586348Y-17718185D01*
X-23694620Y-17573128D01*
X-23802001Y-17427410D01*
X-23908485Y-17281035D01*
X-24014070Y-17134010D01*
X-24118750Y-16986340D01*
X-24222522Y-16838031D01*
X-24325382Y-16689087D01*
X-24427327Y-16539515D01*
X-24528352Y-16389321D01*
X-24628453Y-16238509D01*
X-24727627Y-16087086D01*
X-24825870Y-15935057D01*
X-24923178Y-15782429D01*
X-25019548Y-15629206D01*
X-25114976Y-15475394D01*
X-25209459Y-15321000D01*
X-25302992Y-15166030D01*
X-25395573Y-15010488D01*
X-25487197Y-14854381D01*
X-25577862Y-14697715D01*
X-25667564Y-14540496D01*
X-25756300Y-14382729D01*
X-25844066Y-14224420D01*
X-25930859Y-14065576D01*
X-26016675Y-13906203D01*
X-26101512Y-13746306D01*
X-26185367Y-13585891D01*
X-26268235Y-13424965D01*
X-26350115Y-13263533D01*
X-26431002Y-13101602D01*
X-26510895Y-12939178D01*
X-26589789Y-12776267D01*
X-26667682Y-12612874D01*
X-26744571Y-12449007D01*
X-26820453Y-12284671D01*
X-26895326Y-12119873D01*
X-26969186Y-11954618D01*
X-27042030Y-11788913D01*
X-27113856Y-11622764D01*
X-27184662Y-11456178D01*
X-27254444Y-11289160D01*
X-27323200Y-11121718D01*
X-27390927Y-10953856D01*
X-27457623Y-10785583D01*
X-27523285Y-10616903D01*
X-27587911Y-10447823D01*
X-27651499Y-10278350D01*
X-27714045Y-10108490D01*
X-27775548Y-9938250D01*
X-27836005Y-9767635D01*
X-27895414Y-9596653D01*
X-27953773Y-9425309D01*
X-28011079Y-9253611D01*
X-28067331Y-9081564D01*
X-28122526Y-8909175D01*
X-28176662Y-8736451D01*
X-28229738Y-8563397D01*
X-28281750Y-8390022D01*
X-28332698Y-8216330D01*
X-28382579Y-8042329D01*
X-28431392Y-7868026D01*
X-28479134Y-7693426D01*
X-28525804Y-7518536D01*
X-28571400Y-7343364D01*
X-28615920Y-7167915D01*
X-28659362Y-6992196D01*
X-28701726Y-6816214D01*
X-28743009Y-6639975D01*
X-28783211Y-6463486D01*
X-28822328Y-6286754D01*
X-28860360Y-6109785D01*
X-28897306Y-5932586D01*
X-28933163Y-5755164D01*
X-28967932Y-5577525D01*
X-29001610Y-5399676D01*
X-29034195Y-5221624D01*
X-29065688Y-5043375D01*
X-29096087Y-4864937D01*
X-29125390Y-4686315D01*
X-29153596Y-4507517D01*
X-29180705Y-4328549D01*
X-29206715Y-4149418D01*
X-29231625Y-3970131D01*
X-29255435Y-3790694D01*
X-29278144Y-3611115D01*
X-29299750Y-3431399D01*
X-29320253Y-3251555D01*
X-29339652Y-3071588D01*
X-29357947Y-2891505D01*
X-29375136Y-2711314D01*
X-29391220Y-2531021D01*
X-29406196Y-2350632D01*
X-29420066Y-2170154D01*
X-29432828Y-1989595D01*
X-29444482Y-1808962D01*
X-29455027Y-1628260D01*
X-29464464Y-1447496D01*
X-29472791Y-1266678D01*
X-29480008Y-1085813D01*
X-29486115Y-904907D01*
X-29491113Y-723966D01*
X-29495000Y-542998D01*
X-29497776Y-362010D01*
X-29499442Y-181009D01*
X-29499998Y0D01*
X-29499442Y181009D01*
X-29497776Y362010D01*
X-29495000Y542998D01*
X-29491113Y723966D01*
X-29486115Y904907D01*
X-29480008Y1085813D01*
X-29472791Y1266678D01*
X-29464464Y1447496D01*
X-29455027Y1628260D01*
X-29444482Y1808962D01*
X-29432828Y1989595D01*
X-29420066Y2170154D01*
X-29406196Y2350632D01*
X-29391220Y2531021D01*
X-29375136Y2711314D01*
X-29357947Y2891505D01*
X-29339652Y3071588D01*
X-29320253Y3251555D01*
X-29299750Y3431399D01*
X-29278144Y3611115D01*
X-29255435Y3790694D01*
X-29231625Y3970131D01*
X-29206715Y4149418D01*
X-29180705Y4328549D01*
X-29153596Y4507517D01*
X-29125390Y4686315D01*
X-29096087Y4864937D01*
X-29065688Y5043375D01*
X-29034195Y5221624D01*
X-29001610Y5399676D01*
X-28967932Y5577525D01*
X-28933163Y5755164D01*
X-28897306Y5932586D01*
X-28860360Y6109785D01*
X-28822328Y6286754D01*
X-28783211Y6463486D01*
X-28743009Y6639975D01*
X-28701726Y6816214D01*
X-28659362Y6992196D01*
X-28615920Y7167915D01*
X-28571400Y7343364D01*
X-28525804Y7518536D01*
X-28479134Y7693426D01*
X-28431392Y7868026D01*
X-28382579Y8042329D01*
X-28332698Y8216330D01*
X-28281750Y8390022D01*
X-28229738Y8563397D01*
X-28176662Y8736451D01*
X-28122526Y8909175D01*
X-28067331Y9081564D01*
X-28011079Y9253611D01*
X-27953773Y9425309D01*
X-27895414Y9596653D01*
X-27836005Y9767635D01*
X-27775548Y9938250D01*
X-27714045Y10108490D01*
X-27651499Y10278350D01*
X-27587911Y10447823D01*
X-27523285Y10616903D01*
X-27457623Y10785583D01*
X-27390927Y10953856D01*
X-27323200Y11121718D01*
X-27254444Y11289160D01*
X-27184662Y11456178D01*
X-27113856Y11622764D01*
X-27042030Y11788913D01*
X-26969186Y11954618D01*
X-26895326Y12119873D01*
X-26820453Y12284671D01*
X-26744571Y12449007D01*
X-26667682Y12612874D01*
X-26589789Y12776267D01*
X-26510895Y12939178D01*
X-26431002Y13101602D01*
X-26350115Y13263533D01*
X-26268235Y13424965D01*
X-26185367Y13585891D01*
X-26101512Y13746306D01*
X-26016675Y13906203D01*
X-25930859Y14065576D01*
X-25844066Y14224420D01*
X-25756300Y14382729D01*
X-25667564Y14540496D01*
X-25577862Y14697715D01*
X-25487197Y14854381D01*
X-25395573Y15010488D01*
X-25302992Y15166030D01*
X-25209459Y15321000D01*
X-25114976Y15475394D01*
X-25019548Y15629206D01*
X-24923178Y15782429D01*
X-24825870Y15935057D01*
X-24727627Y16087086D01*
X-24628453Y16238509D01*
X-24528352Y16389321D01*
X-24427327Y16539515D01*
X-24325382Y16689087D01*
X-24222522Y16838031D01*
X-24118750Y16986340D01*
X-24014070Y17134010D01*
X-23908485Y17281035D01*
X-23802001Y17427410D01*
X-23694620Y17573128D01*
X-23586348Y17718185D01*
X-23477187Y17862574D01*
X-23367142Y18006291D01*
X-23256218Y18149330D01*
X-23144418Y18291686D01*
X-23031746Y18433353D01*
X-22918208Y18574327D01*
X-22803807Y18714600D01*
X-22688547Y18854170D01*
X-22572433Y18993029D01*
X-22455469Y19131173D01*
X-22337659Y19268597D01*
X-22219009Y19405296D01*
X-22099522Y19541264D01*
X-21979203Y19676496D01*
X-21858056Y19810988D01*
X-21736087Y19944733D01*
X-21613299Y20077728D01*
X-21489698Y20209967D01*
X-21365287Y20341444D01*
X-21240072Y20472156D01*
X-21114058Y20602098D01*
X-20987248Y20731263D01*
X-20859648Y20859648D01*
X-20731263Y20987248D01*
X-20602098Y21114058D01*
X-20472156Y21240072D01*
X-20341444Y21365287D01*
X-20209967Y21489698D01*
X-20077728Y21613299D01*
X-19944733Y21736087D01*
X-19810988Y21858056D01*
X-19676496Y21979203D01*
X-19541264Y22099522D01*
X-19405296Y22219009D01*
X-19268597Y22337659D01*
X-19131173Y22455469D01*
X-18993029Y22572433D01*
X-18854170Y22688547D01*
X-18714600Y22803807D01*
X-18574327Y22918208D01*
X-18433353Y23031746D01*
X-18291686Y23144418D01*
X-18149330Y23256218D01*
X-18006291Y23367142D01*
X-17862574Y23477187D01*
X-17718185Y23586348D01*
X-17573128Y23694620D01*
X-17427410Y23802001D01*
X-17281035Y23908485D01*
X-17134010Y24014070D01*
X-16986340Y24118750D01*
X-16838031Y24222522D01*
X-16689087Y24325382D01*
X-16539515Y24427327D01*
X-16389321Y24528352D01*
X-16238509Y24628453D01*
X-16087086Y24727627D01*
X-15935057Y24825870D01*
X-15782429Y24923178D01*
X-15629206Y25019548D01*
X-15475394Y25114976D01*
X-15321000Y25209459D01*
X-15166030Y25302992D01*
X-15010488Y25395573D01*
X-14854381Y25487197D01*
X-14697715Y25577862D01*
X-14540496Y25667564D01*
X-14382729Y25756300D01*
X-14224420Y25844066D01*
X-14065576Y25930859D01*
X-13906203Y26016675D01*
X-13746306Y26101512D01*
X-13585891Y26185367D01*
X-13424965Y26268235D01*
X-13263533Y26350115D01*
X-13101602Y26431002D01*
X-12939178Y26510895D01*
X-12776267Y26589789D01*
X-12612874Y26667682D01*
X-12449007Y26744571D01*
X-12284671Y26820453D01*
X-12119873Y26895326D01*
X-11954618Y26969186D01*
X-11788913Y27042030D01*
X-11622764Y27113856D01*
X-11456178Y27184662D01*
X-11289160Y27254444D01*
X-11121718Y27323200D01*
X-10953856Y27390927D01*
X-10785583Y27457623D01*
X-10616903Y27523285D01*
X-10447823Y27587911D01*
X-10278350Y27651499D01*
X-10108490Y27714045D01*
X-9938250Y27775548D01*
X-9767635Y27836005D01*
X-9596653Y27895414D01*
X-9425309Y27953773D01*
X-9253611Y28011079D01*
X-9081564Y28067331D01*
X-8909175Y28122526D01*
X-8736451Y28176662D01*
X-8563397Y28229738D01*
X-8390022Y28281750D01*
X-8216330Y28332698D01*
X-8042329Y28382579D01*
X-7868026Y28431392D01*
X-7693426Y28479134D01*
X-7518536Y28525804D01*
X-7343364Y28571400D01*
X-7167915Y28615920D01*
X-6992196Y28659362D01*
X-6816214Y28701726D01*
X-6639975Y28743009D01*
X-6463486Y28783211D01*
X-6286754Y28822328D01*
X-6109785Y28860360D01*
X-5932586Y28897306D01*
X-5755164Y28933163D01*
X-5577525Y28967932D01*
X-5399676Y29001610D01*
X-5221624Y29034195D01*
X-5043375Y29065688D01*
X-4864937Y29096087D01*
X-4686315Y29125390D01*
X-4507517Y29153596D01*
X-4328549Y29180705D01*
X-4149418Y29206715D01*
X-3970131Y29231625D01*
X-3790694Y29255435D01*
X-3611115Y29278144D01*
X-3431399Y29299750D01*
X-3251555Y29320253D01*
X-3071588Y29339652D01*
X-2891505Y29357947D01*
X-2711314Y29375136D01*
X-2531021Y29391220D01*
X-2350632Y29406196D01*
X-2170154Y29420066D01*
X-1989595Y29432828D01*
X-1808962Y29444482D01*
X-1628260Y29455027D01*
X-1447496Y29464464D01*
X-1266678Y29472791D01*
X-1085813Y29480008D01*
X-904907Y29486115D01*
X-723966Y29491113D01*
X-542998Y29495000D01*
X-362010Y29497776D01*
X-181009Y29499442D01*
X0Y29499998D01*
X181009Y29499442D01*
X362010Y29497776D01*
X542998Y29495000D01*
X723966Y29491113D01*
X904907Y29486115D01*
X1085813Y29480008D01*
X1266678Y29472791D01*
X1447496Y29464464D01*
X1628260Y29455027D01*
X1808962Y29444482D01*
X1989595Y29432828D01*
X2170154Y29420066D01*
X2350632Y29406196D01*
X2531021Y29391220D01*
X2711314Y29375136D01*
X2891505Y29357947D01*
X3071588Y29339652D01*
X3251555Y29320253D01*
X3431399Y29299750D01*
X3611115Y29278144D01*
X3790694Y29255435D01*
X3970131Y29231625D01*
X4149418Y29206715D01*
X4328549Y29180705D01*
X4507517Y29153596D01*
X4686315Y29125390D01*
X4864937Y29096087D01*
X5043375Y29065688D01*
X5221624Y29034195D01*
X5399676Y29001610D01*
X5577525Y28967932D01*
X5755164Y28933163D01*
X5932586Y28897306D01*
X6109785Y28860360D01*
X6286754Y28822328D01*
X6463486Y28783211D01*
X6639975Y28743009D01*
X6816214Y28701726D01*
X6992196Y28659362D01*
X7167915Y28615920D01*
X7343364Y28571400D01*
X7518536Y28525804D01*
X7693426Y28479134D01*
X7868026Y28431392D01*
X8042329Y28382579D01*
X8216330Y28332698D01*
X8390022Y28281750D01*
X8563397Y28229738D01*
X8736451Y28176662D01*
X8909175Y28122526D01*
X9081564Y28067331D01*
X9253611Y28011079D01*
X9425309Y27953773D01*
X9596653Y27895414D01*
X9767635Y27836005D01*
X9938250Y27775548D01*
X10108490Y27714045D01*
X10278350Y27651499D01*
X10447823Y27587911D01*
X10616903Y27523285D01*
X10785583Y27457623D01*
X10953856Y27390927D01*
X11121718Y27323200D01*
X11289160Y27254444D01*
X11456178Y27184662D01*
X11622764Y27113856D01*
X11788913Y27042030D01*
X11954618Y26969186D01*
X12119873Y26895326D01*
X12284671Y26820453D01*
X12449007Y26744571D01*
X12612874Y26667682D01*
X12776267Y26589789D01*
X12939178Y26510895D01*
X13101602Y26431002D01*
X13263533Y26350115D01*
X13424965Y26268235D01*
X13585891Y26185367D01*
X13746306Y26101512D01*
X13906203Y26016675D01*
X14065576Y25930859D01*
X14224420Y25844066D01*
X14382729Y25756300D01*
X14540496Y25667564D01*
X14697715Y25577862D01*
X14854381Y25487197D01*
X15010488Y25395573D01*
X15166030Y25302992D01*
X15321000Y25209459D01*
X15475394Y25114976D01*
X15629206Y25019548D01*
X15782429Y24923178D01*
X15935057Y24825870D01*
X16087086Y24727627D01*
X16238509Y24628453D01*
X16389321Y24528352D01*
X16539515Y24427327D01*
X16689087Y24325382D01*
X16838031Y24222522D01*
X16986340Y24118750D01*
X17134010Y24014070D01*
X17281035Y23908485D01*
X17427410Y23802001D01*
X17573128Y23694620D01*
X17718185Y23586348D01*
X17862574Y23477187D01*
X18006291Y23367142D01*
X18149330Y23256218D01*
X18291686Y23144418D01*
X18433353Y23031746D01*
X18574327Y22918208D01*
X18714600Y22803807D01*
X18854170Y22688547D01*
X18993029Y22572433D01*
X19131173Y22455469D01*
X19268597Y22337659D01*
X19405296Y22219009D01*
X19541264Y22099522D01*
X19676496Y21979203D01*
X19810988Y21858056D01*
X19944733Y21736087D01*
X20077728Y21613299D01*
X20209967Y21489698D01*
X20341444Y21365287D01*
X20472156Y21240072D01*
X20602098Y21114058D01*
X20731263Y20987248D01*
X20859648Y20859648D01*
X20987248Y20731263D01*
X21114058Y20602098D01*
X21240072Y20472156D01*
X21365287Y20341444D01*
X21489698Y20209967D01*
X21613299Y20077728D01*
X21736087Y19944733D01*
X21858056Y19810988D01*
X21979203Y19676496D01*
X22099522Y19541264D01*
X22219009Y19405296D01*
X22337659Y19268597D01*
X22455469Y19131173D01*
X22572433Y18993029D01*
X22688547Y18854170D01*
X22803807Y18714600D01*
X22918208Y18574327D01*
X23031746Y18433353D01*
X23144418Y18291686D01*
X23256218Y18149330D01*
X23367142Y18006291D01*
X23477187Y17862574D01*
X23586348Y17718185D01*
X23694620Y17573128D01*
X23802001Y17427410D01*
X23908485Y17281035D01*
X24014070Y17134010D01*
X24118750Y16986340D01*
X24222522Y16838031D01*
X24325382Y16689087D01*
X24427327Y16539515D01*
X24528352Y16389321D01*
X24628453Y16238509D01*
X24727627Y16087086D01*
X24825870Y15935057D01*
X24923178Y15782429D01*
X25019548Y15629206D01*
X25114976Y15475394D01*
X25209459Y15321000D01*
X25302992Y15166030D01*
X25395573Y15010488D01*
X25487197Y14854381D01*
X25577862Y14697715D01*
X25667564Y14540496D01*
X25756300Y14382729D01*
X25844066Y14224420D01*
X25930859Y14065576D01*
X26016675Y13906203D01*
X26101512Y13746306D01*
X26185367Y13585891D01*
X26268235Y13424965D01*
X26350115Y13263533D01*
X26431002Y13101602D01*
X26510895Y12939178D01*
X26589789Y12776267D01*
X26667682Y12612874D01*
X26744571Y12449007D01*
X26820453Y12284671D01*
X26895326Y12119873D01*
X26969186Y11954618D01*
X27042030Y11788913D01*
X27113856Y11622764D01*
X27184662Y11456178D01*
X27254444Y11289160D01*
X27323200Y11121718D01*
X27390927Y10953856D01*
X27457623Y10785583D01*
X27523285Y10616903D01*
X27587911Y10447823D01*
X27651499Y10278350D01*
X27714045Y10108490D01*
X27775548Y9938250D01*
X27836005Y9767635D01*
X27895414Y9596653D01*
X27953773Y9425309D01*
X28011079Y9253611D01*
X28067331Y9081564D01*
X28122526Y8909175D01*
X28176662Y8736451D01*
X28229738Y8563397D01*
X28281750Y8390022D01*
X28332698Y8216330D01*
X28382579Y8042329D01*
X28431392Y7868026D01*
X28479134Y7693426D01*
X28525804Y7518536D01*
X28571400Y7343364D01*
X28615920Y7167915D01*
X28659362Y6992196D01*
X28701726Y6816214D01*
X28743009Y6639975D01*
X28783211Y6463486D01*
X28822328Y6286754D01*
X28860360Y6109785D01*
X28897306Y5932586D01*
X28933163Y5755164D01*
X28967932Y5577525D01*
X29001610Y5399676D01*
X29034195Y5221624D01*
X29065688Y5043375D01*
X29096087Y4864937D01*
X29125390Y4686315D01*
X29153596Y4507517D01*
X29180705Y4328549D01*
X29206715Y4149418D01*
X29231625Y3970131D01*
X29255435Y3790694D01*
X29278144Y3611115D01*
X29299750Y3431399D01*
X29320253Y3251555D01*
X29339652Y3071588D01*
X29357947Y2891505D01*
X29375136Y2711314D01*
X29391220Y2531021D01*
X29406196Y2350632D01*
X29420066Y2170154D01*
X29432828Y1989595D01*
X29444482Y1808962D01*
X29455027Y1628260D01*
X29464464Y1447496D01*
X29472791Y1266678D01*
X29480008Y1085813D01*
X29486115Y904907D01*
X29491113Y723966D01*
X29495000Y542998D01*
X29497776Y362010D01*
X29499442Y181009D01*
X29499998Y0D01*
X29499442Y-181009D01*
X29497776Y-362010D01*
X29495000Y-542998D01*
X29491113Y-723966D01*
X29486115Y-904907D01*
X29480008Y-1085813D01*
X29472791Y-1266678D01*
X29464464Y-1447496D01*
G37*
%LPC*%
G36*
X-2290000Y-23250000D02*
G01*
X-1417856Y-23250000D01*
X-1424464Y-23220573D01*
X-1439519Y-23166173D01*
X-1457224Y-23112577D01*
X-1477539Y-23059914D01*
X-1500412Y-23008312D01*
X-1525791Y-22957894D01*
X-1553612Y-22908782D01*
X-1583810Y-22861094D01*
X-1616311Y-22814946D01*
X-1651038Y-22770448D01*
X-1687906Y-22727707D01*
X-1726827Y-22686827D01*
X-1767707Y-22647906D01*
X-1810448Y-22611038D01*
X-1854946Y-22576311D01*
X-1901094Y-22543810D01*
X-1948782Y-22513612D01*
X-1997894Y-22485791D01*
X-2048312Y-22460412D01*
X-2099914Y-22437539D01*
X-2152577Y-22417224D01*
X-2206173Y-22399519D01*
X-2260573Y-22384464D01*
X-2290000Y-22377856D01*
X-2290000Y-23250000D01*
G37*
%LPC*%
G36*
X-2290000Y-23750000D02*
G01*
X-2290000Y-24622144D01*
X-2260573Y-24615536D01*
X-2206173Y-24600481D01*
X-2152577Y-24582776D01*
X-2099914Y-24562461D01*
X-2048312Y-24539588D01*
X-1997894Y-24514209D01*
X-1948782Y-24486388D01*
X-1901094Y-24456190D01*
X-1854946Y-24423689D01*
X-1810448Y-24388962D01*
X-1767707Y-24352094D01*
X-1726827Y-24313173D01*
X-1687906Y-24272293D01*
X-1651038Y-24229552D01*
X-1616311Y-24185054D01*
X-1583810Y-24138906D01*
X-1553612Y-24091218D01*
X-1525791Y-24042106D01*
X-1500412Y-23991688D01*
X-1477539Y-23940086D01*
X-1457224Y-23887423D01*
X-1439519Y-23833827D01*
X-1424464Y-23779427D01*
X-1417856Y-23750000D01*
X-2290000Y-23750000D01*
G37*
%LPC*%
G36*
X-2790000Y-23750000D02*
G01*
X-3662144Y-23750000D01*
X-3655536Y-23779427D01*
X-3640481Y-23833827D01*
X-3622776Y-23887423D01*
X-3602461Y-23940086D01*
X-3579588Y-23991688D01*
X-3554209Y-24042106D01*
X-3526388Y-24091218D01*
X-3496190Y-24138906D01*
X-3463689Y-24185054D01*
X-3428962Y-24229552D01*
X-3392094Y-24272293D01*
X-3353173Y-24313173D01*
X-3312293Y-24352094D01*
X-3269552Y-24388962D01*
X-3225054Y-24423689D01*
X-3178906Y-24456190D01*
X-3131218Y-24486388D01*
X-3082106Y-24514209D01*
X-3031688Y-24539588D01*
X-2980086Y-24562461D01*
X-2927423Y-24582776D01*
X-2873827Y-24600481D01*
X-2819427Y-24615536D01*
X-2790000Y-24622144D01*
X-2790000Y-23750000D01*
G37*
%LPC*%
G36*
X-3930000Y-23250000D02*
G01*
X-3930000Y-22650000D01*
X-3931445Y-22620595D01*
X-3935764Y-22591473D01*
X-3942918Y-22562915D01*
X-3952836Y-22535195D01*
X-3965424Y-22508581D01*
X-3980559Y-22483329D01*
X-3998097Y-22459682D01*
X-4017868Y-22437868D01*
X-4039682Y-22418097D01*
X-4063329Y-22400559D01*
X-4088581Y-22385424D01*
X-4115195Y-22372836D01*
X-4142915Y-22362918D01*
X-4171473Y-22355764D01*
X-4200595Y-22351445D01*
X-4230000Y-22350000D01*
X-5930000Y-22350000D01*
X-5959405Y-22351445D01*
X-5988527Y-22355764D01*
X-6017085Y-22362918D01*
X-6044805Y-22372836D01*
X-6071419Y-22385424D01*
X-6096671Y-22400559D01*
X-6120318Y-22418097D01*
X-6142132Y-22437868D01*
X-6161903Y-22459682D01*
X-6179441Y-22483329D01*
X-6194576Y-22508581D01*
X-6207164Y-22535195D01*
X-6217082Y-22562915D01*
X-6224236Y-22591473D01*
X-6228555Y-22620595D01*
X-6230000Y-22650000D01*
X-6230000Y-24350000D01*
X-6228555Y-24379405D01*
X-6224236Y-24408527D01*
X-6217082Y-24437085D01*
X-6207164Y-24464805D01*
X-6194576Y-24491419D01*
X-6179441Y-24516671D01*
X-6161903Y-24540318D01*
X-6142132Y-24562132D01*
X-6120318Y-24581903D01*
X-6096671Y-24599441D01*
X-6071419Y-24614576D01*
X-6044805Y-24627164D01*
X-6017085Y-24637082D01*
X-5988527Y-24644236D01*
X-5959405Y-24648555D01*
X-5930000Y-24650000D01*
X-4230000Y-24650000D01*
X-4200595Y-24648555D01*
X-4171473Y-24644236D01*
X-4142915Y-24637082D01*
X-4115195Y-24627164D01*
X-4088581Y-24614576D01*
X-4063329Y-24599441D01*
X-4039682Y-24581903D01*
X-4017868Y-24562132D01*
X-3998097Y-24540318D01*
X-3980559Y-24516671D01*
X-3965424Y-24491419D01*
X-3952836Y-24464805D01*
X-3942918Y-24437085D01*
X-3935764Y-24408527D01*
X-3931445Y-24379405D01*
X-3930000Y-24350000D01*
X-3930000Y-23750000D01*
X-3930000Y-23250000D01*
G37*
%LPC*%
G36*
X-2790000Y-23250000D02*
G01*
X-2790000Y-22377856D01*
X-2819427Y-22384464D01*
X-2873827Y-22399519D01*
X-2927423Y-22417224D01*
X-2980086Y-22437539D01*
X-3031688Y-22460412D01*
X-3082106Y-22485791D01*
X-3131218Y-22513612D01*
X-3178906Y-22543810D01*
X-3225054Y-22576311D01*
X-3269552Y-22611038D01*
X-3312293Y-22647906D01*
X-3353173Y-22686827D01*
X-3392094Y-22727707D01*
X-3428962Y-22770448D01*
X-3463689Y-22814946D01*
X-3496190Y-22861094D01*
X-3526388Y-22908782D01*
X-3554209Y-22957894D01*
X-3579588Y-23008312D01*
X-3602461Y-23059914D01*
X-3622776Y-23112577D01*
X-3640481Y-23166173D01*
X-3655536Y-23220573D01*
X-3662144Y-23250000D01*
X-2790000Y-23250000D01*
G37*
%LPC*%
G36*
X-2290000Y-18750000D02*
G01*
X-1417856Y-18750000D01*
X-1424464Y-18720573D01*
X-1439519Y-18666173D01*
X-1457224Y-18612577D01*
X-1477539Y-18559914D01*
X-1500412Y-18508312D01*
X-1525791Y-18457894D01*
X-1553612Y-18408782D01*
X-1583810Y-18361094D01*
X-1616311Y-18314946D01*
X-1651038Y-18270448D01*
X-1687906Y-18227707D01*
X-1726827Y-18186827D01*
X-1767707Y-18147906D01*
X-1810448Y-18111038D01*
X-1854946Y-18076311D01*
X-1901094Y-18043810D01*
X-1948782Y-18013612D01*
X-1997894Y-17985791D01*
X-2048312Y-17960412D01*
X-2099914Y-17937539D01*
X-2152577Y-17917224D01*
X-2206173Y-17899519D01*
X-2260573Y-17884464D01*
X-2290000Y-17877856D01*
X-2290000Y-18750000D01*
G37*
%LPC*%
G36*
X-2290000Y-19250000D02*
G01*
X-2290000Y-20122144D01*
X-2260573Y-20115536D01*
X-2206173Y-20100481D01*
X-2152577Y-20082776D01*
X-2099914Y-20062461D01*
X-2048312Y-20039588D01*
X-1997894Y-20014209D01*
X-1948782Y-19986388D01*
X-1901094Y-19956190D01*
X-1854946Y-19923689D01*
X-1810448Y-19888962D01*
X-1767707Y-19852094D01*
X-1726827Y-19813173D01*
X-1687906Y-19772293D01*
X-1651038Y-19729552D01*
X-1616311Y-19685054D01*
X-1583810Y-19638906D01*
X-1553612Y-19591218D01*
X-1525791Y-19542106D01*
X-1500412Y-19491688D01*
X-1477539Y-19440086D01*
X-1457224Y-19387423D01*
X-1439519Y-19333827D01*
X-1424464Y-19279427D01*
X-1417856Y-19250000D01*
X-2290000Y-19250000D01*
G37*
%LPC*%
G36*
X-2790000Y-19250000D02*
G01*
X-3662144Y-19250000D01*
X-3655536Y-19279427D01*
X-3640481Y-19333827D01*
X-3622776Y-19387423D01*
X-3602461Y-19440086D01*
X-3579588Y-19491688D01*
X-3554209Y-19542106D01*
X-3526388Y-19591218D01*
X-3496190Y-19638906D01*
X-3463689Y-19685054D01*
X-3428962Y-19729552D01*
X-3392094Y-19772293D01*
X-3353173Y-19813173D01*
X-3312293Y-19852094D01*
X-3269552Y-19888962D01*
X-3225054Y-19923689D01*
X-3178906Y-19956190D01*
X-3131218Y-19986388D01*
X-3082106Y-20014209D01*
X-3031688Y-20039588D01*
X-2980086Y-20062461D01*
X-2927423Y-20082776D01*
X-2873827Y-20100481D01*
X-2819427Y-20115536D01*
X-2790000Y-20122144D01*
X-2790000Y-19250000D01*
G37*
%LPC*%
G36*
X-3953622Y-19231557D02*
G01*
X-3950749Y-19217115D01*
X-3943617Y-19176009D01*
X-3941456Y-19161444D01*
X-3936349Y-19120038D01*
X-3934906Y-19105384D01*
X-3931837Y-19063777D01*
X-3931114Y-19049070D01*
X-3930090Y-19007362D01*
X-3930090Y-18992638D01*
X-3931114Y-18950930D01*
X-3931837Y-18936223D01*
X-3934906Y-18894616D01*
X-3936349Y-18879962D01*
X-3941456Y-18838556D01*
X-3943617Y-18823991D01*
X-3950749Y-18782885D01*
X-3953622Y-18768443D01*
X-3957763Y-18750000D01*
X-3962763Y-18727736D01*
X-3966341Y-18713453D01*
X-3977468Y-18673244D01*
X-3981742Y-18659154D01*
X-3994829Y-18619539D01*
X-3999790Y-18605675D01*
X-4014805Y-18566751D01*
X-4020439Y-18553147D01*
X-4037346Y-18515006D01*
X-4043642Y-18501695D01*
X-4062400Y-18464429D01*
X-4069341Y-18451443D01*
X-4089905Y-18415143D01*
X-4097475Y-18402513D01*
X-4119795Y-18367266D01*
X-4127975Y-18355023D01*
X-4151998Y-18320913D01*
X-4160770Y-18309086D01*
X-4186437Y-18276196D01*
X-4195778Y-18264814D01*
X-4223029Y-18233223D01*
X-4232917Y-18222313D01*
X-4261685Y-18192097D01*
X-4272097Y-18181685D01*
X-4302313Y-18152917D01*
X-4313223Y-18143029D01*
X-4344814Y-18115778D01*
X-4356196Y-18106437D01*
X-4389086Y-18080770D01*
X-4400913Y-18071998D01*
X-4435023Y-18047975D01*
X-4447266Y-18039795D01*
X-4482513Y-18017475D01*
X-4495143Y-18009905D01*
X-4530000Y-17990158D01*
X-4530000Y-16900000D01*
X-4530361Y-16885280D01*
X-4531565Y-16860775D01*
X-4534451Y-16831477D01*
X-4538051Y-16807208D01*
X-4543794Y-16778333D01*
X-4549756Y-16754535D01*
X-4558302Y-16726362D01*
X-4566567Y-16703262D01*
X-4577833Y-16676063D01*
X-4588323Y-16653884D01*
X-4602201Y-16627920D01*
X-4614814Y-16606877D01*
X-4631170Y-16582398D01*
X-4645785Y-16562692D01*
X-4664462Y-16539934D01*
X-4680938Y-16521756D01*
X-4701756Y-16500938D01*
X-4719934Y-16484462D01*
X-4742692Y-16465785D01*
X-4762398Y-16451170D01*
X-4786877Y-16434814D01*
X-4807920Y-16422201D01*
X-4833884Y-16408323D01*
X-4856063Y-16397833D01*
X-4883262Y-16386567D01*
X-4906362Y-16378302D01*
X-4934535Y-16369756D01*
X-4958333Y-16363794D01*
X-4987208Y-16358051D01*
X-5011477Y-16354451D01*
X-5040775Y-16351565D01*
X-5065280Y-16350361D01*
X-5080000Y-16350000D01*
X-21772183Y-16350000D01*
X-23950000Y-14172183D01*
X-23950000Y-13946076D01*
X-23942130Y-13933420D01*
X-23932315Y-13916419D01*
X-23921518Y-13896220D01*
X-23912835Y-13878613D01*
X-23903383Y-13857751D01*
X-23895870Y-13839614D01*
X-23887803Y-13818179D01*
X-23881492Y-13799589D01*
X-23874844Y-13777672D01*
X-23869763Y-13758710D01*
X-23864562Y-13736404D01*
X-23860732Y-13717150D01*
X-23857001Y-13694553D01*
X-23854439Y-13675089D01*
X-23852194Y-13652296D01*
X-23850910Y-13632707D01*
X-23850161Y-13609816D01*
X-23850161Y-13590184D01*
X-23850910Y-13567293D01*
X-23852194Y-13547704D01*
X-23854439Y-13524911D01*
X-23857001Y-13505447D01*
X-23860732Y-13482850D01*
X-23864562Y-13463596D01*
X-23869763Y-13441290D01*
X-23874844Y-13422328D01*
X-23881492Y-13400411D01*
X-23887803Y-13381821D01*
X-23895870Y-13360386D01*
X-23903383Y-13342249D01*
X-23912835Y-13321387D01*
X-23921518Y-13303780D01*
X-23932315Y-13283581D01*
X-23942130Y-13266580D01*
X-23954225Y-13247130D01*
X-23965132Y-13230807D01*
X-23978472Y-13212190D01*
X-23990423Y-13196616D01*
X-24004953Y-13178911D01*
X-24017897Y-13164151D01*
X-24033553Y-13147435D01*
X-24047435Y-13133553D01*
X-24064151Y-13117897D01*
X-24078911Y-13104953D01*
X-24096616Y-13090423D01*
X-24112190Y-13078472D01*
X-24130807Y-13065132D01*
X-24147130Y-13054225D01*
X-24166580Y-13042130D01*
X-24183581Y-13032315D01*
X-24203780Y-13021518D01*
X-24221387Y-13012835D01*
X-24242249Y-13003383D01*
X-24260386Y-12995870D01*
X-24281821Y-12987803D01*
X-24300411Y-12981492D01*
X-24322328Y-12974844D01*
X-24341290Y-12969763D01*
X-24363596Y-12964562D01*
X-24382850Y-12960732D01*
X-24405447Y-12957001D01*
X-24424911Y-12954439D01*
X-24447704Y-12952194D01*
X-24467293Y-12950910D01*
X-24490184Y-12950161D01*
X-24509816Y-12950161D01*
X-24532707Y-12950910D01*
X-24552296Y-12952194D01*
X-24575089Y-12954439D01*
X-24594553Y-12957001D01*
X-24617150Y-12960732D01*
X-24636404Y-12964562D01*
X-24658710Y-12969763D01*
X-24677672Y-12974844D01*
X-24699589Y-12981492D01*
X-24718179Y-12987803D01*
X-24739614Y-12995870D01*
X-24757751Y-13003383D01*
X-24778613Y-13012835D01*
X-24796220Y-13021518D01*
X-24816419Y-13032315D01*
X-24833420Y-13042130D01*
X-24852870Y-13054225D01*
X-24869193Y-13065132D01*
X-24887810Y-13078472D01*
X-24903384Y-13090423D01*
X-24921089Y-13104953D01*
X-24935849Y-13117897D01*
X-24952565Y-13133553D01*
X-24966447Y-13147435D01*
X-24982103Y-13164151D01*
X-24995047Y-13178911D01*
X-25009577Y-13196616D01*
X-25021528Y-13212190D01*
X-25034868Y-13230807D01*
X-25045775Y-13247130D01*
X-25057870Y-13266580D01*
X-25067685Y-13283581D01*
X-25078482Y-13303780D01*
X-25087165Y-13321387D01*
X-25096617Y-13342249D01*
X-25104130Y-13360386D01*
X-25112197Y-13381821D01*
X-25118508Y-13400411D01*
X-25125156Y-13422328D01*
X-25130237Y-13441290D01*
X-25135438Y-13463596D01*
X-25139268Y-13482850D01*
X-25142999Y-13505447D01*
X-25145561Y-13524911D01*
X-25147806Y-13547704D01*
X-25149090Y-13567293D01*
X-25149839Y-13590184D01*
X-25149839Y-13609816D01*
X-25149090Y-13632707D01*
X-25147806Y-13652296D01*
X-25145561Y-13675089D01*
X-25142999Y-13694553D01*
X-25139268Y-13717150D01*
X-25135438Y-13736404D01*
X-25130237Y-13758710D01*
X-25125156Y-13777672D01*
X-25118508Y-13799589D01*
X-25112197Y-13818179D01*
X-25104130Y-13839614D01*
X-25096617Y-13857751D01*
X-25087165Y-13878613D01*
X-25078482Y-13896220D01*
X-25067685Y-13916419D01*
X-25057870Y-13933420D01*
X-25050000Y-13946076D01*
X-25050000Y-14400000D01*
X-25049639Y-14414720D01*
X-25048435Y-14439225D01*
X-25045549Y-14468523D01*
X-25041949Y-14492792D01*
X-25036206Y-14521667D01*
X-25030244Y-14545465D01*
X-25021698Y-14573638D01*
X-25013433Y-14596738D01*
X-25002167Y-14623937D01*
X-24991677Y-14646116D01*
X-24977799Y-14672080D01*
X-24965186Y-14693123D01*
X-24948830Y-14717602D01*
X-24934215Y-14737308D01*
X-24915538Y-14760066D01*
X-24899062Y-14778244D01*
X-24888909Y-14788909D01*
X-22388909Y-17288909D01*
X-22378244Y-17299062D01*
X-22360066Y-17315538D01*
X-22337308Y-17334215D01*
X-22317602Y-17348830D01*
X-22293123Y-17365186D01*
X-22272080Y-17377799D01*
X-22246116Y-17391677D01*
X-22223937Y-17402167D01*
X-22196738Y-17413433D01*
X-22173638Y-17421698D01*
X-22145465Y-17430244D01*
X-22121667Y-17436206D01*
X-22092792Y-17441949D01*
X-22068523Y-17445549D01*
X-22039225Y-17448435D01*
X-22014720Y-17449639D01*
X-22000000Y-17450000D01*
X-5630000Y-17450000D01*
X-5630000Y-17990158D01*
X-5664857Y-18009905D01*
X-5677487Y-18017475D01*
X-5712734Y-18039795D01*
X-5724977Y-18047975D01*
X-5759087Y-18071998D01*
X-5770914Y-18080770D01*
X-5803804Y-18106437D01*
X-5815186Y-18115778D01*
X-5846777Y-18143029D01*
X-5857687Y-18152917D01*
X-5887903Y-18181685D01*
X-5898315Y-18192097D01*
X-5927083Y-18222313D01*
X-5936971Y-18233223D01*
X-5964222Y-18264814D01*
X-5973563Y-18276196D01*
X-5999230Y-18309086D01*
X-6008002Y-18320913D01*
X-6032025Y-18355023D01*
X-6040205Y-18367266D01*
X-6062525Y-18402513D01*
X-6070095Y-18415143D01*
X-6090659Y-18451443D01*
X-6097600Y-18464429D01*
X-6116358Y-18501695D01*
X-6122654Y-18515006D01*
X-6139561Y-18553147D01*
X-6145195Y-18566751D01*
X-6160210Y-18605675D01*
X-6165171Y-18619539D01*
X-6178258Y-18659154D01*
X-6182532Y-18673244D01*
X-6193659Y-18713453D01*
X-6197237Y-18727736D01*
X-6206378Y-18768443D01*
X-6209251Y-18782885D01*
X-6216383Y-18823991D01*
X-6218544Y-18838556D01*
X-6223651Y-18879962D01*
X-6225094Y-18894616D01*
X-6228163Y-18936223D01*
X-6228886Y-18950930D01*
X-6229910Y-18992638D01*
X-6229910Y-19007362D01*
X-6228886Y-19049070D01*
X-6228163Y-19063777D01*
X-6225094Y-19105384D01*
X-6223651Y-19120038D01*
X-6218544Y-19161444D01*
X-6216383Y-19176009D01*
X-6209251Y-19217115D01*
X-6206378Y-19231557D01*
X-6197237Y-19272264D01*
X-6193659Y-19286547D01*
X-6182532Y-19326756D01*
X-6178258Y-19340846D01*
X-6165171Y-19380461D01*
X-6160210Y-19394325D01*
X-6145195Y-19433249D01*
X-6139561Y-19446853D01*
X-6122654Y-19484994D01*
X-6116358Y-19498305D01*
X-6097600Y-19535571D01*
X-6090659Y-19548557D01*
X-6070095Y-19584857D01*
X-6062525Y-19597487D01*
X-6040205Y-19632734D01*
X-6032025Y-19644977D01*
X-6008002Y-19679087D01*
X-5999230Y-19690914D01*
X-5973563Y-19723804D01*
X-5964222Y-19735186D01*
X-5936971Y-19766777D01*
X-5927083Y-19777687D01*
X-5898315Y-19807903D01*
X-5887903Y-19818315D01*
X-5857687Y-19847083D01*
X-5846777Y-19856971D01*
X-5815186Y-19884222D01*
X-5803804Y-19893563D01*
X-5770914Y-19919230D01*
X-5759087Y-19928002D01*
X-5724977Y-19952025D01*
X-5712734Y-19960205D01*
X-5677487Y-19982525D01*
X-5664857Y-19990095D01*
X-5628557Y-20010659D01*
X-5615571Y-20017600D01*
X-5578305Y-20036358D01*
X-5564994Y-20042654D01*
X-5526853Y-20059561D01*
X-5513249Y-20065195D01*
X-5474325Y-20080210D01*
X-5460461Y-20085171D01*
X-5420846Y-20098258D01*
X-5406756Y-20102532D01*
X-5366547Y-20113659D01*
X-5352264Y-20117237D01*
X-5311557Y-20126378D01*
X-5297115Y-20129251D01*
X-5256009Y-20136383D01*
X-5241444Y-20138544D01*
X-5200038Y-20143651D01*
X-5185384Y-20145094D01*
X-5143777Y-20148163D01*
X-5129070Y-20148886D01*
X-5087362Y-20149910D01*
X-5072638Y-20149910D01*
X-5030930Y-20148886D01*
X-5016223Y-20148163D01*
X-4974616Y-20145094D01*
X-4959962Y-20143651D01*
X-4918556Y-20138544D01*
X-4903991Y-20136383D01*
X-4862885Y-20129251D01*
X-4848443Y-20126378D01*
X-4807736Y-20117237D01*
X-4793453Y-20113659D01*
X-4753244Y-20102532D01*
X-4739154Y-20098258D01*
X-4699539Y-20085171D01*
X-4685675Y-20080210D01*
X-4646751Y-20065195D01*
X-4633147Y-20059561D01*
X-4595006Y-20042654D01*
X-4581695Y-20036358D01*
X-4544429Y-20017600D01*
X-4531443Y-20010659D01*
X-4495143Y-19990095D01*
X-4482513Y-19982525D01*
X-4447266Y-19960205D01*
X-4435023Y-19952025D01*
X-4400913Y-19928002D01*
X-4389086Y-19919230D01*
X-4356196Y-19893563D01*
X-4344814Y-19884222D01*
X-4313223Y-19856971D01*
X-4302313Y-19847083D01*
X-4272097Y-19818315D01*
X-4261685Y-19807903D01*
X-4232917Y-19777687D01*
X-4223029Y-19766777D01*
X-4195778Y-19735186D01*
X-4186437Y-19723804D01*
X-4160770Y-19690914D01*
X-4151998Y-19679087D01*
X-4127975Y-19644977D01*
X-4119795Y-19632734D01*
X-4097475Y-19597487D01*
X-4089905Y-19584857D01*
X-4069341Y-19548557D01*
X-4062400Y-19535571D01*
X-4043642Y-19498305D01*
X-4037346Y-19484994D01*
X-4020439Y-19446853D01*
X-4014805Y-19433249D01*
X-3999790Y-19394325D01*
X-3994829Y-19380461D01*
X-3981742Y-19340846D01*
X-3977468Y-19326756D01*
X-3966341Y-19286547D01*
X-3962763Y-19272264D01*
X-3957763Y-19250000D01*
X-3953622Y-19231557D01*
G37*
%LPC*%
G36*
X-2790000Y-18750000D02*
G01*
X-2790000Y-17877856D01*
X-2819427Y-17884464D01*
X-2873827Y-17899519D01*
X-2927423Y-17917224D01*
X-2980086Y-17937539D01*
X-3031688Y-17960412D01*
X-3082106Y-17985791D01*
X-3131218Y-18013612D01*
X-3178906Y-18043810D01*
X-3225054Y-18076311D01*
X-3269552Y-18111038D01*
X-3312293Y-18147906D01*
X-3353173Y-18186827D01*
X-3392094Y-18227707D01*
X-3428962Y-18270448D01*
X-3463689Y-18314946D01*
X-3496190Y-18361094D01*
X-3526388Y-18408782D01*
X-3554209Y-18457894D01*
X-3579588Y-18508312D01*
X-3602461Y-18559914D01*
X-3622776Y-18612577D01*
X-3640481Y-18666173D01*
X-3655536Y-18720573D01*
X-3662144Y-18750000D01*
X-2790000Y-18750000D01*
G37*
%LPC*%
G36*
X7662144Y-12750000D02*
G01*
X7655536Y-12720573D01*
X7640481Y-12666173D01*
X7622776Y-12612577D01*
X7602461Y-12559914D01*
X7579588Y-12508312D01*
X7554209Y-12457894D01*
X7526388Y-12408782D01*
X7496190Y-12361094D01*
X7463689Y-12314946D01*
X7428962Y-12270448D01*
X7392094Y-12227707D01*
X7353173Y-12186827D01*
X7312293Y-12147906D01*
X7269552Y-12111038D01*
X7225054Y-12076311D01*
X7178906Y-12043810D01*
X7131218Y-12013612D01*
X7082106Y-11985791D01*
X7031688Y-11960412D01*
X6980086Y-11937539D01*
X6927423Y-11917224D01*
X6873827Y-11899519D01*
X6819427Y-11884464D01*
X6790000Y-11877856D01*
X6790000Y-12750000D01*
X7662144Y-12750000D01*
G37*
%LPC*%
G36*
X7950749Y-12782885D02*
G01*
X7943617Y-12823991D01*
X7941456Y-12838556D01*
X7936349Y-12879962D01*
X7934906Y-12894616D01*
X7931837Y-12936223D01*
X7931114Y-12950930D01*
X7930090Y-12992638D01*
X7930090Y-13007362D01*
X7931114Y-13049070D01*
X7931837Y-13063777D01*
X7934906Y-13105384D01*
X7936349Y-13120038D01*
X7941456Y-13161444D01*
X7943617Y-13176009D01*
X7950749Y-13217115D01*
X7953622Y-13231557D01*
X7962763Y-13272264D01*
X7966341Y-13286547D01*
X7977468Y-13326756D01*
X7981742Y-13340846D01*
X7994829Y-13380461D01*
X7999790Y-13394325D01*
X8014805Y-13433249D01*
X8020439Y-13446853D01*
X8037346Y-13484994D01*
X8043642Y-13498305D01*
X8062400Y-13535571D01*
X8069341Y-13548557D01*
X8089905Y-13584857D01*
X8097475Y-13597487D01*
X8119795Y-13632734D01*
X8127975Y-13644977D01*
X8151998Y-13679087D01*
X8160770Y-13690914D01*
X8186437Y-13723804D01*
X8195778Y-13735186D01*
X8223029Y-13766777D01*
X8232917Y-13777687D01*
X8261685Y-13807903D01*
X8272097Y-13818315D01*
X8302313Y-13847083D01*
X8313223Y-13856971D01*
X8344814Y-13884222D01*
X8356196Y-13893563D01*
X8389086Y-13919230D01*
X8400913Y-13928002D01*
X8435023Y-13952025D01*
X8447266Y-13960205D01*
X8482513Y-13982525D01*
X8495143Y-13990095D01*
X8531443Y-14010659D01*
X8544429Y-14017600D01*
X8581695Y-14036358D01*
X8595006Y-14042654D01*
X8633147Y-14059561D01*
X8646751Y-14065195D01*
X8685675Y-14080210D01*
X8699539Y-14085171D01*
X8739154Y-14098258D01*
X8753244Y-14102532D01*
X8793453Y-14113659D01*
X8807736Y-14117237D01*
X8848443Y-14126378D01*
X8862885Y-14129251D01*
X8903991Y-14136383D01*
X8918556Y-14138544D01*
X8959962Y-14143651D01*
X8974616Y-14145094D01*
X9016223Y-14148163D01*
X9030930Y-14148886D01*
X9072638Y-14149910D01*
X9087362Y-14149910D01*
X9129070Y-14148886D01*
X9143777Y-14148163D01*
X9185384Y-14145094D01*
X9200038Y-14143651D01*
X9241444Y-14138544D01*
X9256009Y-14136383D01*
X9297115Y-14129251D01*
X9311557Y-14126378D01*
X9352264Y-14117237D01*
X9366547Y-14113659D01*
X9406756Y-14102532D01*
X9420846Y-14098258D01*
X9460461Y-14085171D01*
X9474325Y-14080210D01*
X9513249Y-14065195D01*
X9526853Y-14059561D01*
X9564994Y-14042654D01*
X9578305Y-14036358D01*
X9615571Y-14017600D01*
X9628557Y-14010659D01*
X9664857Y-13990095D01*
X9677487Y-13982525D01*
X9712734Y-13960205D01*
X9724977Y-13952025D01*
X9759087Y-13928002D01*
X9770914Y-13919230D01*
X9803804Y-13893563D01*
X9815186Y-13884222D01*
X9846777Y-13856971D01*
X9857687Y-13847083D01*
X9887903Y-13818315D01*
X9898315Y-13807903D01*
X9927083Y-13777687D01*
X9936971Y-13766777D01*
X9964222Y-13735186D01*
X9973563Y-13723804D01*
X9999230Y-13690914D01*
X10008002Y-13679087D01*
X10032025Y-13644977D01*
X10040205Y-13632734D01*
X10062525Y-13597487D01*
X10070095Y-13584857D01*
X10090659Y-13548557D01*
X10097600Y-13535571D01*
X10116358Y-13498305D01*
X10122654Y-13484994D01*
X10139561Y-13446853D01*
X10145195Y-13433249D01*
X10160210Y-13394325D01*
X10165171Y-13380461D01*
X10178258Y-13340846D01*
X10182532Y-13326756D01*
X10193659Y-13286547D01*
X10197237Y-13272264D01*
X10206378Y-13231557D01*
X10209251Y-13217115D01*
X10216383Y-13176009D01*
X10218544Y-13161444D01*
X10223651Y-13120038D01*
X10225094Y-13105384D01*
X10228163Y-13063777D01*
X10228886Y-13049070D01*
X10229910Y-13007362D01*
X10229910Y-12992638D01*
X10228886Y-12950930D01*
X10228163Y-12936223D01*
X10225094Y-12894616D01*
X10223651Y-12879962D01*
X10218544Y-12838556D01*
X10216383Y-12823991D01*
X10209251Y-12782885D01*
X10206378Y-12768443D01*
X10197237Y-12727736D01*
X10193659Y-12713453D01*
X10182532Y-12673244D01*
X10178258Y-12659154D01*
X10165171Y-12619539D01*
X10160210Y-12605675D01*
X10145195Y-12566751D01*
X10139561Y-12553147D01*
X10122654Y-12515006D01*
X10116358Y-12501695D01*
X10097600Y-12464429D01*
X10090659Y-12451443D01*
X10070095Y-12415143D01*
X10062525Y-12402513D01*
X10040205Y-12367266D01*
X10032025Y-12355023D01*
X10008002Y-12320913D01*
X9999230Y-12309086D01*
X9973563Y-12276196D01*
X9964222Y-12264814D01*
X9936971Y-12233223D01*
X9927083Y-12222313D01*
X9898315Y-12192097D01*
X9887903Y-12181685D01*
X9857687Y-12152917D01*
X9846777Y-12143029D01*
X9815186Y-12115778D01*
X9803804Y-12106437D01*
X9770914Y-12080770D01*
X9759087Y-12071998D01*
X9724977Y-12047975D01*
X9712734Y-12039795D01*
X9677487Y-12017475D01*
X9664857Y-12009905D01*
X9628557Y-11989341D01*
X9615571Y-11982400D01*
X9578305Y-11963642D01*
X9564994Y-11957346D01*
X9526853Y-11940439D01*
X9513249Y-11934805D01*
X9474325Y-11919790D01*
X9460461Y-11914829D01*
X9420846Y-11901742D01*
X9406756Y-11897468D01*
X9366547Y-11886341D01*
X9352264Y-11882763D01*
X9311557Y-11873622D01*
X9297115Y-11870749D01*
X9256009Y-11863617D01*
X9241444Y-11861456D01*
X9200038Y-11856349D01*
X9185384Y-11854906D01*
X9143777Y-11851837D01*
X9129070Y-11851114D01*
X9087362Y-11850090D01*
X9072638Y-11850090D01*
X9030930Y-11851114D01*
X9016223Y-11851837D01*
X8974616Y-11854906D01*
X8959962Y-11856349D01*
X8918556Y-11861456D01*
X8903991Y-11863617D01*
X8862885Y-11870749D01*
X8848443Y-11873622D01*
X8807736Y-11882763D01*
X8793453Y-11886341D01*
X8753244Y-11897468D01*
X8739154Y-11901742D01*
X8699539Y-11914829D01*
X8685675Y-11919790D01*
X8646751Y-11934805D01*
X8633147Y-11940439D01*
X8595006Y-11957346D01*
X8581695Y-11963642D01*
X8544429Y-11982400D01*
X8531443Y-11989341D01*
X8495143Y-12009905D01*
X8482513Y-12017475D01*
X8447266Y-12039795D01*
X8435023Y-12047975D01*
X8400913Y-12071998D01*
X8389086Y-12080770D01*
X8356196Y-12106437D01*
X8344814Y-12115778D01*
X8313223Y-12143029D01*
X8302313Y-12152917D01*
X8272097Y-12181685D01*
X8261685Y-12192097D01*
X8232917Y-12222313D01*
X8223029Y-12233223D01*
X8195778Y-12264814D01*
X8186437Y-12276196D01*
X8160770Y-12309086D01*
X8151998Y-12320913D01*
X8127975Y-12355023D01*
X8119795Y-12367266D01*
X8097475Y-12402513D01*
X8089905Y-12415143D01*
X8069341Y-12451443D01*
X8062400Y-12464429D01*
X8043642Y-12501695D01*
X8037346Y-12515006D01*
X8020439Y-12553147D01*
X8014805Y-12566751D01*
X7999790Y-12605675D01*
X7994829Y-12619539D01*
X7981742Y-12659154D01*
X7977468Y-12673244D01*
X7966341Y-12713453D01*
X7962763Y-12727736D01*
X7953622Y-12768443D01*
X7950749Y-12782885D01*
G37*
%LPC*%
G36*
X6790000Y-13250000D02*
G01*
X6790000Y-14122144D01*
X6819427Y-14115536D01*
X6873827Y-14100481D01*
X6927423Y-14082776D01*
X6980086Y-14062461D01*
X7031688Y-14039588D01*
X7082106Y-14014209D01*
X7131218Y-13986388D01*
X7178906Y-13956190D01*
X7225054Y-13923689D01*
X7269552Y-13888962D01*
X7312293Y-13852094D01*
X7353173Y-13813173D01*
X7392094Y-13772293D01*
X7428962Y-13729552D01*
X7463689Y-13685054D01*
X7496190Y-13638906D01*
X7526388Y-13591218D01*
X7554209Y-13542106D01*
X7579588Y-13491688D01*
X7602461Y-13440086D01*
X7622776Y-13387423D01*
X7640481Y-13333827D01*
X7655536Y-13279427D01*
X7662144Y-13250000D01*
X6790000Y-13250000D01*
G37*
%LPC*%
G36*
X6290000Y-13250000D02*
G01*
X5417856Y-13250000D01*
X5424464Y-13279427D01*
X5439519Y-13333827D01*
X5457224Y-13387423D01*
X5477539Y-13440086D01*
X5500412Y-13491688D01*
X5525791Y-13542106D01*
X5553612Y-13591218D01*
X5583810Y-13638906D01*
X5616311Y-13685054D01*
X5651038Y-13729552D01*
X5687906Y-13772293D01*
X5726827Y-13813173D01*
X5767707Y-13852094D01*
X5810448Y-13888962D01*
X5854946Y-13923689D01*
X5901094Y-13956190D01*
X5948782Y-13986388D01*
X5997894Y-14014209D01*
X6048312Y-14039588D01*
X6099914Y-14062461D01*
X6152577Y-14082776D01*
X6206173Y-14100481D01*
X6260573Y-14115536D01*
X6290000Y-14122144D01*
X6290000Y-13250000D01*
G37*
%LPC*%
G36*
X5150000Y-12750000D02*
G01*
X5150000Y-12150000D01*
X5148555Y-12120595D01*
X5144236Y-12091473D01*
X5137082Y-12062915D01*
X5127164Y-12035195D01*
X5114576Y-12008581D01*
X5099441Y-11983329D01*
X5081903Y-11959682D01*
X5062132Y-11937868D01*
X5040318Y-11918097D01*
X5016671Y-11900559D01*
X4991419Y-11885424D01*
X4964805Y-11872836D01*
X4937085Y-11862918D01*
X4908527Y-11855764D01*
X4879405Y-11851445D01*
X4850000Y-11850000D01*
X4450000Y-11850000D01*
X4450000Y-11200000D01*
X4449639Y-11185280D01*
X4448916Y-11170577D01*
X4446031Y-11141278D01*
X4443871Y-11126717D01*
X4438127Y-11097842D01*
X4434550Y-11083563D01*
X4426004Y-11055390D01*
X4421045Y-11041531D01*
X4409779Y-11014331D01*
X4403485Y-11001024D01*
X4389607Y-10975060D01*
X4382039Y-10962434D01*
X4365683Y-10937955D01*
X4356914Y-10926131D01*
X4338237Y-10903373D01*
X4328351Y-10892466D01*
X4307534Y-10871649D01*
X4296627Y-10861763D01*
X4273869Y-10843086D01*
X4262045Y-10834317D01*
X4237566Y-10817961D01*
X4224940Y-10810393D01*
X4198976Y-10796515D01*
X4185669Y-10790221D01*
X4158469Y-10778955D01*
X4144610Y-10773996D01*
X4116437Y-10765450D01*
X4102158Y-10761873D01*
X4073283Y-10756129D01*
X4058722Y-10753969D01*
X4029423Y-10751084D01*
X4014720Y-10750361D01*
X4000000Y-10750000D01*
X-16360000Y-10750000D01*
X-16360000Y-5426133D01*
X-16358315Y-5427903D01*
X-16347903Y-5438315D01*
X-16317687Y-5467083D01*
X-16306777Y-5476971D01*
X-16275186Y-5504222D01*
X-16263804Y-5513563D01*
X-16230914Y-5539230D01*
X-16219087Y-5548002D01*
X-16184977Y-5572025D01*
X-16172734Y-5580205D01*
X-16137487Y-5602525D01*
X-16124857Y-5610095D01*
X-16088557Y-5630659D01*
X-16075571Y-5637600D01*
X-16038305Y-5656358D01*
X-16024994Y-5662654D01*
X-15986853Y-5679561D01*
X-15973249Y-5685195D01*
X-15934325Y-5700210D01*
X-15920461Y-5705171D01*
X-15880846Y-5718258D01*
X-15866756Y-5722532D01*
X-15826547Y-5733659D01*
X-15812264Y-5737237D01*
X-15771557Y-5746378D01*
X-15757115Y-5749251D01*
X-15716009Y-5756383D01*
X-15701444Y-5758544D01*
X-15660038Y-5763651D01*
X-15645384Y-5765094D01*
X-15603777Y-5768163D01*
X-15589070Y-5768886D01*
X-15547362Y-5769910D01*
X-15532638Y-5769910D01*
X-15490930Y-5768886D01*
X-15476223Y-5768163D01*
X-15434616Y-5765094D01*
X-15419962Y-5763651D01*
X-15378556Y-5758544D01*
X-15363991Y-5756383D01*
X-15322885Y-5749251D01*
X-15308443Y-5746378D01*
X-15267736Y-5737237D01*
X-15253453Y-5733659D01*
X-15213244Y-5722532D01*
X-15199154Y-5718258D01*
X-15159539Y-5705171D01*
X-15145675Y-5700210D01*
X-15106751Y-5685195D01*
X-15093147Y-5679561D01*
X-15055006Y-5662654D01*
X-15041695Y-5656358D01*
X-15004429Y-5637600D01*
X-14991443Y-5630659D01*
X-14955143Y-5610095D01*
X-14942513Y-5602525D01*
X-14907266Y-5580205D01*
X-14895023Y-5572025D01*
X-14860913Y-5548002D01*
X-14849086Y-5539230D01*
X-14816196Y-5513563D01*
X-14804814Y-5504222D01*
X-14773223Y-5476971D01*
X-14762313Y-5467083D01*
X-14732097Y-5438315D01*
X-14721685Y-5427903D01*
X-14692917Y-5397687D01*
X-14683029Y-5386777D01*
X-14655778Y-5355186D01*
X-14646437Y-5343804D01*
X-14620770Y-5310914D01*
X-14611998Y-5299087D01*
X-14587975Y-5264977D01*
X-14579795Y-5252734D01*
X-14557475Y-5217487D01*
X-14549905Y-5204857D01*
X-14529341Y-5168557D01*
X-14522400Y-5155571D01*
X-14503642Y-5118305D01*
X-14497346Y-5104994D01*
X-14480439Y-5066853D01*
X-14474805Y-5053249D01*
X-14459790Y-5014325D01*
X-14454829Y-5000461D01*
X-14441742Y-4960846D01*
X-14437468Y-4946756D01*
X-14426341Y-4906547D01*
X-14422763Y-4892264D01*
X-14413622Y-4851557D01*
X-14410749Y-4837115D01*
X-14403617Y-4796009D01*
X-14401456Y-4781444D01*
X-14396349Y-4740038D01*
X-14394906Y-4725384D01*
X-14391837Y-4683777D01*
X-14391114Y-4669070D01*
X-14390090Y-4627362D01*
X-14390090Y-4612638D01*
X-14391114Y-4570930D01*
X-14391837Y-4556223D01*
X-14394906Y-4514616D01*
X-14396349Y-4499962D01*
X-14401456Y-4458556D01*
X-14403617Y-4443991D01*
X-14410749Y-4402885D01*
X-14413622Y-4388443D01*
X-14422763Y-4347736D01*
X-14426341Y-4333453D01*
X-14437468Y-4293244D01*
X-14441742Y-4279154D01*
X-14454829Y-4239539D01*
X-14459790Y-4225675D01*
X-14474805Y-4186751D01*
X-14480439Y-4173147D01*
X-14497346Y-4135006D01*
X-14503642Y-4121695D01*
X-14522400Y-4084429D01*
X-14529341Y-4071443D01*
X-14549905Y-4035143D01*
X-14557475Y-4022513D01*
X-14579795Y-3987266D01*
X-14587975Y-3975023D01*
X-14611998Y-3940913D01*
X-14620770Y-3929086D01*
X-14646437Y-3896196D01*
X-14655778Y-3884814D01*
X-14683029Y-3853223D01*
X-14692917Y-3842313D01*
X-14721685Y-3812097D01*
X-14732097Y-3801685D01*
X-14762313Y-3772917D01*
X-14773223Y-3763029D01*
X-14804814Y-3735778D01*
X-14816196Y-3726437D01*
X-14849086Y-3700770D01*
X-14860913Y-3691998D01*
X-14895023Y-3667975D01*
X-14907266Y-3659795D01*
X-14942513Y-3637475D01*
X-14955143Y-3629905D01*
X-14991443Y-3609341D01*
X-15004429Y-3602400D01*
X-15041695Y-3583642D01*
X-15055006Y-3577346D01*
X-15093147Y-3560439D01*
X-15106751Y-3554805D01*
X-15145675Y-3539790D01*
X-15159539Y-3534829D01*
X-15199154Y-3521742D01*
X-15213244Y-3517468D01*
X-15253453Y-3506341D01*
X-15267736Y-3502763D01*
X-15308443Y-3493622D01*
X-15322885Y-3490749D01*
X-15363991Y-3483617D01*
X-15378556Y-3481456D01*
X-15419962Y-3476349D01*
X-15434616Y-3474906D01*
X-15476223Y-3471837D01*
X-15490930Y-3471114D01*
X-15532638Y-3470090D01*
X-15547362Y-3470090D01*
X-15589070Y-3471114D01*
X-15603777Y-3471837D01*
X-15645384Y-3474906D01*
X-15660038Y-3476349D01*
X-15701444Y-3481456D01*
X-15716009Y-3483617D01*
X-15757115Y-3490749D01*
X-15771557Y-3493622D01*
X-15812264Y-3502763D01*
X-15826547Y-3506341D01*
X-15866756Y-3517468D01*
X-15880846Y-3521742D01*
X-15920461Y-3534829D01*
X-15934325Y-3539790D01*
X-15973249Y-3554805D01*
X-15986853Y-3560439D01*
X-16024994Y-3577346D01*
X-16038305Y-3583642D01*
X-16075571Y-3602400D01*
X-16088557Y-3609341D01*
X-16124857Y-3629905D01*
X-16137487Y-3637475D01*
X-16172734Y-3659795D01*
X-16184977Y-3667975D01*
X-16219087Y-3691998D01*
X-16230914Y-3700770D01*
X-16263804Y-3726437D01*
X-16275186Y-3735778D01*
X-16306777Y-3763029D01*
X-16317687Y-3772917D01*
X-16347903Y-3801685D01*
X-16358315Y-3812097D01*
X-16360000Y-3813867D01*
X-16360000Y9163604D01*
X-15970038Y9553566D01*
X-15934325Y9539790D01*
X-15920461Y9534829D01*
X-15880846Y9521742D01*
X-15866756Y9517468D01*
X-15826547Y9506341D01*
X-15812264Y9502763D01*
X-15771557Y9493622D01*
X-15757115Y9490749D01*
X-15716009Y9483617D01*
X-15701444Y9481456D01*
X-15660038Y9476349D01*
X-15645384Y9474906D01*
X-15603777Y9471837D01*
X-15589070Y9471114D01*
X-15547362Y9470090D01*
X-15532638Y9470090D01*
X-15490930Y9471114D01*
X-15476223Y9471837D01*
X-15434616Y9474906D01*
X-15419962Y9476349D01*
X-15378556Y9481456D01*
X-15363991Y9483617D01*
X-15322885Y9490749D01*
X-15308443Y9493622D01*
X-15267736Y9502763D01*
X-15253453Y9506341D01*
X-15213244Y9517468D01*
X-15199154Y9521742D01*
X-15159539Y9534829D01*
X-15145675Y9539790D01*
X-15106751Y9554805D01*
X-15093147Y9560439D01*
X-15055006Y9577346D01*
X-15041695Y9583642D01*
X-15004429Y9602400D01*
X-14991443Y9609341D01*
X-14955143Y9629905D01*
X-14942513Y9637475D01*
X-14907266Y9659795D01*
X-14895023Y9667975D01*
X-14860913Y9691998D01*
X-14849086Y9700770D01*
X-14816196Y9726437D01*
X-14804814Y9735778D01*
X-14773223Y9763029D01*
X-14762313Y9772917D01*
X-14732097Y9801685D01*
X-14721685Y9812097D01*
X-14692917Y9842313D01*
X-14683029Y9853223D01*
X-14655778Y9884814D01*
X-14646437Y9896196D01*
X-14620770Y9929086D01*
X-14611998Y9940913D01*
X-14587975Y9975023D01*
X-14579795Y9987266D01*
X-14557475Y10022513D01*
X-14549905Y10035143D01*
X-14529341Y10071443D01*
X-14522400Y10084429D01*
X-14503642Y10121695D01*
X-14497346Y10135006D01*
X-14480439Y10173147D01*
X-14474805Y10186751D01*
X-14459790Y10225675D01*
X-14454829Y10239539D01*
X-14441742Y10279154D01*
X-14437468Y10293244D01*
X-14426341Y10333453D01*
X-14422763Y10347736D01*
X-14413622Y10388443D01*
X-14410749Y10402885D01*
X-14403617Y10443991D01*
X-14401456Y10458556D01*
X-14396349Y10499962D01*
X-14394906Y10514616D01*
X-14391837Y10556223D01*
X-14391114Y10570930D01*
X-14390090Y10612638D01*
X-14390090Y10627362D01*
X-14391114Y10669070D01*
X-14391837Y10683777D01*
X-14394906Y10725384D01*
X-14396349Y10740038D01*
X-14401456Y10781444D01*
X-14403617Y10796009D01*
X-14410749Y10837115D01*
X-14413622Y10851557D01*
X-14422763Y10892264D01*
X-14426341Y10906547D01*
X-14437468Y10946756D01*
X-14441742Y10960846D01*
X-14454829Y11000461D01*
X-14459790Y11014325D01*
X-14474805Y11053249D01*
X-14480439Y11066853D01*
X-14497346Y11104994D01*
X-14503642Y11118305D01*
X-14522400Y11155571D01*
X-14529341Y11168557D01*
X-14549905Y11204857D01*
X-14557475Y11217487D01*
X-14579795Y11252734D01*
X-14587975Y11264977D01*
X-14611998Y11299087D01*
X-14620770Y11310914D01*
X-14646437Y11343804D01*
X-14655778Y11355186D01*
X-14683029Y11386777D01*
X-14692917Y11397687D01*
X-14721685Y11427903D01*
X-14732097Y11438315D01*
X-14762313Y11467083D01*
X-14773223Y11476971D01*
X-14804814Y11504222D01*
X-14816196Y11513563D01*
X-14849086Y11539230D01*
X-14860913Y11548002D01*
X-14895023Y11572025D01*
X-14907266Y11580205D01*
X-14942513Y11602525D01*
X-14955143Y11610095D01*
X-14991443Y11630659D01*
X-15004429Y11637600D01*
X-15041695Y11656358D01*
X-15055006Y11662654D01*
X-15093147Y11679561D01*
X-15106751Y11685195D01*
X-15145675Y11700210D01*
X-15159539Y11705171D01*
X-15199154Y11718258D01*
X-15213244Y11722532D01*
X-15253453Y11733659D01*
X-15267736Y11737237D01*
X-15308443Y11746378D01*
X-15322885Y11749251D01*
X-15363991Y11756383D01*
X-15378556Y11758544D01*
X-15419962Y11763651D01*
X-15434616Y11765094D01*
X-15476223Y11768163D01*
X-15490930Y11768886D01*
X-15532638Y11769910D01*
X-15547362Y11769910D01*
X-15589070Y11768886D01*
X-15603777Y11768163D01*
X-15645384Y11765094D01*
X-15660038Y11763651D01*
X-15701444Y11758544D01*
X-15716009Y11756383D01*
X-15757115Y11749251D01*
X-15771557Y11746378D01*
X-15812264Y11737237D01*
X-15826547Y11733659D01*
X-15866756Y11722532D01*
X-15880846Y11718258D01*
X-15920461Y11705171D01*
X-15934325Y11700210D01*
X-15973249Y11685195D01*
X-15986853Y11679561D01*
X-16024994Y11662654D01*
X-16038305Y11656358D01*
X-16075571Y11637600D01*
X-16088557Y11630659D01*
X-16124857Y11610095D01*
X-16137487Y11602525D01*
X-16172734Y11580205D01*
X-16184977Y11572025D01*
X-16219087Y11548002D01*
X-16230914Y11539230D01*
X-16263804Y11513563D01*
X-16275186Y11504222D01*
X-16306777Y11476971D01*
X-16317687Y11467083D01*
X-16347903Y11438315D01*
X-16358315Y11427903D01*
X-16387083Y11397687D01*
X-16396971Y11386777D01*
X-16424222Y11355186D01*
X-16433563Y11343804D01*
X-16459230Y11310914D01*
X-16468002Y11299087D01*
X-16492025Y11264977D01*
X-16500205Y11252734D01*
X-16522525Y11217487D01*
X-16530095Y11204857D01*
X-16550659Y11168557D01*
X-16557600Y11155571D01*
X-16576358Y11118305D01*
X-16582654Y11104994D01*
X-16599561Y11066853D01*
X-16605195Y11053249D01*
X-16620210Y11014325D01*
X-16625171Y11000461D01*
X-16638258Y10960846D01*
X-16642532Y10946756D01*
X-16653659Y10906547D01*
X-16657237Y10892264D01*
X-16666378Y10851557D01*
X-16669251Y10837115D01*
X-16676383Y10796009D01*
X-16678544Y10781444D01*
X-16683651Y10740038D01*
X-16685094Y10725384D01*
X-16688163Y10683777D01*
X-16688886Y10669070D01*
X-16689910Y10627362D01*
X-16689910Y10612638D01*
X-16688886Y10570930D01*
X-16688163Y10556223D01*
X-16685094Y10514616D01*
X-16683651Y10499962D01*
X-16678544Y10458556D01*
X-16676383Y10443991D01*
X-16669251Y10402885D01*
X-16666378Y10388443D01*
X-16657237Y10347736D01*
X-16653659Y10333453D01*
X-16642532Y10293244D01*
X-16638258Y10279154D01*
X-16625171Y10239539D01*
X-16620210Y10225675D01*
X-16606434Y10189962D01*
X-17128198Y9668198D01*
X-17138351Y9657534D01*
X-17148237Y9646627D01*
X-17166914Y9623869D01*
X-17175683Y9612045D01*
X-17192039Y9587566D01*
X-17199607Y9574940D01*
X-17213485Y9548976D01*
X-17219779Y9535669D01*
X-17231045Y9508469D01*
X-17236004Y9494610D01*
X-17244550Y9466437D01*
X-17248127Y9452158D01*
X-17253871Y9423283D01*
X-17256031Y9408722D01*
X-17258916Y9379423D01*
X-17259639Y9364720D01*
X-17260000Y9350000D01*
X-17260000Y-3813867D01*
X-17261685Y-3812097D01*
X-17272097Y-3801685D01*
X-17302313Y-3772917D01*
X-17313223Y-3763029D01*
X-17344814Y-3735778D01*
X-17356196Y-3726437D01*
X-17389086Y-3700770D01*
X-17400913Y-3691998D01*
X-17435023Y-3667975D01*
X-17447266Y-3659795D01*
X-17482513Y-3637475D01*
X-17495143Y-3629905D01*
X-17531443Y-3609341D01*
X-17544429Y-3602400D01*
X-17581695Y-3583642D01*
X-17595006Y-3577346D01*
X-17633147Y-3560439D01*
X-17646751Y-3554805D01*
X-17685675Y-3539790D01*
X-17699539Y-3534829D01*
X-17739154Y-3521742D01*
X-17753244Y-3517468D01*
X-17793453Y-3506341D01*
X-17807736Y-3502763D01*
X-17848443Y-3493622D01*
X-17862885Y-3490749D01*
X-17903991Y-3483617D01*
X-17918556Y-3481456D01*
X-17959962Y-3476349D01*
X-17974616Y-3474906D01*
X-18016223Y-3471837D01*
X-18030930Y-3471114D01*
X-18072638Y-3470090D01*
X-18087362Y-3470090D01*
X-18129070Y-3471114D01*
X-18143777Y-3471837D01*
X-18185384Y-3474906D01*
X-18200038Y-3476349D01*
X-18241444Y-3481456D01*
X-18256009Y-3483617D01*
X-18297115Y-3490749D01*
X-18311557Y-3493622D01*
X-18352264Y-3502763D01*
X-18366547Y-3506341D01*
X-18406756Y-3517468D01*
X-18420846Y-3521742D01*
X-18460461Y-3534829D01*
X-18474325Y-3539790D01*
X-18513249Y-3554805D01*
X-18526853Y-3560439D01*
X-18564994Y-3577346D01*
X-18578305Y-3583642D01*
X-18615571Y-3602400D01*
X-18628557Y-3609341D01*
X-18664857Y-3629905D01*
X-18677487Y-3637475D01*
X-18712734Y-3659795D01*
X-18724977Y-3667975D01*
X-18759087Y-3691998D01*
X-18770914Y-3700770D01*
X-18803804Y-3726437D01*
X-18815186Y-3735778D01*
X-18846777Y-3763029D01*
X-18857687Y-3772917D01*
X-18887903Y-3801685D01*
X-18898315Y-3812097D01*
X-18927083Y-3842313D01*
X-18936971Y-3853223D01*
X-18964222Y-3884814D01*
X-18973563Y-3896196D01*
X-18999230Y-3929086D01*
X-19008002Y-3940913D01*
X-19032025Y-3975023D01*
X-19040205Y-3987266D01*
X-19062525Y-4022513D01*
X-19070095Y-4035143D01*
X-19090659Y-4071443D01*
X-19097600Y-4084429D01*
X-19116358Y-4121695D01*
X-19122654Y-4135006D01*
X-19139561Y-4173147D01*
X-19145195Y-4186751D01*
X-19160210Y-4225675D01*
X-19165171Y-4239539D01*
X-19178258Y-4279154D01*
X-19182532Y-4293244D01*
X-19193659Y-4333453D01*
X-19197237Y-4347736D01*
X-19206378Y-4388443D01*
X-19209251Y-4402885D01*
X-19216383Y-4443991D01*
X-19218544Y-4458556D01*
X-19223651Y-4499962D01*
X-19225094Y-4514616D01*
X-19228163Y-4556223D01*
X-19228886Y-4570930D01*
X-19229910Y-4612638D01*
X-19229910Y-4627362D01*
X-19228886Y-4669070D01*
X-19228163Y-4683777D01*
X-19225094Y-4725384D01*
X-19223651Y-4740038D01*
X-19218544Y-4781444D01*
X-19216383Y-4796009D01*
X-19209251Y-4837115D01*
X-19206378Y-4851557D01*
X-19197237Y-4892264D01*
X-19193659Y-4906547D01*
X-19182532Y-4946756D01*
X-19178258Y-4960846D01*
X-19165171Y-5000461D01*
X-19160210Y-5014325D01*
X-19145195Y-5053249D01*
X-19139561Y-5066853D01*
X-19122654Y-5104994D01*
X-19116358Y-5118305D01*
X-19097600Y-5155571D01*
X-19090659Y-5168557D01*
X-19070095Y-5204857D01*
X-19062525Y-5217487D01*
X-19040205Y-5252734D01*
X-19032025Y-5264977D01*
X-19008002Y-5299087D01*
X-18999230Y-5310914D01*
X-18973563Y-5343804D01*
X-18964222Y-5355186D01*
X-18936971Y-5386777D01*
X-18927083Y-5397687D01*
X-18898315Y-5427903D01*
X-18887903Y-5438315D01*
X-18857687Y-5467083D01*
X-18846777Y-5476971D01*
X-18815186Y-5504222D01*
X-18803804Y-5513563D01*
X-18770914Y-5539230D01*
X-18759087Y-5548002D01*
X-18724977Y-5572025D01*
X-18712734Y-5580205D01*
X-18677487Y-5602525D01*
X-18664857Y-5610095D01*
X-18628557Y-5630659D01*
X-18615571Y-5637600D01*
X-18578305Y-5656358D01*
X-18564994Y-5662654D01*
X-18526853Y-5679561D01*
X-18513249Y-5685195D01*
X-18474325Y-5700210D01*
X-18460461Y-5705171D01*
X-18420846Y-5718258D01*
X-18406756Y-5722532D01*
X-18366547Y-5733659D01*
X-18352264Y-5737237D01*
X-18311557Y-5746378D01*
X-18297115Y-5749251D01*
X-18256009Y-5756383D01*
X-18241444Y-5758544D01*
X-18200038Y-5763651D01*
X-18185384Y-5765094D01*
X-18143777Y-5768163D01*
X-18129070Y-5768886D01*
X-18087362Y-5769910D01*
X-18072638Y-5769910D01*
X-18030930Y-5768886D01*
X-18016223Y-5768163D01*
X-17974616Y-5765094D01*
X-17959962Y-5763651D01*
X-17918556Y-5758544D01*
X-17903991Y-5756383D01*
X-17862885Y-5749251D01*
X-17848443Y-5746378D01*
X-17807736Y-5737237D01*
X-17793453Y-5733659D01*
X-17753244Y-5722532D01*
X-17739154Y-5718258D01*
X-17699539Y-5705171D01*
X-17685675Y-5700210D01*
X-17646751Y-5685195D01*
X-17633147Y-5679561D01*
X-17595006Y-5662654D01*
X-17581695Y-5656358D01*
X-17544429Y-5637600D01*
X-17531443Y-5630659D01*
X-17495143Y-5610095D01*
X-17482513Y-5602525D01*
X-17447266Y-5580205D01*
X-17435023Y-5572025D01*
X-17400913Y-5548002D01*
X-17389086Y-5539230D01*
X-17356196Y-5513563D01*
X-17344814Y-5504222D01*
X-17313223Y-5476971D01*
X-17302313Y-5467083D01*
X-17272097Y-5438315D01*
X-17261685Y-5427903D01*
X-17260000Y-5426133D01*
X-17260000Y-11200000D01*
X-17259639Y-11214720D01*
X-17258916Y-11229423D01*
X-17256031Y-11258722D01*
X-17253871Y-11273283D01*
X-17248127Y-11302158D01*
X-17244550Y-11316437D01*
X-17236004Y-11344610D01*
X-17231045Y-11358469D01*
X-17219779Y-11385669D01*
X-17213485Y-11398976D01*
X-17199607Y-11424940D01*
X-17192039Y-11437566D01*
X-17175683Y-11462045D01*
X-17166914Y-11473869D01*
X-17148237Y-11496627D01*
X-17138351Y-11507534D01*
X-17117534Y-11528351D01*
X-17106627Y-11538237D01*
X-17083869Y-11556914D01*
X-17072045Y-11565683D01*
X-17047566Y-11582039D01*
X-17034940Y-11589607D01*
X-17008976Y-11603485D01*
X-16995669Y-11609779D01*
X-16968469Y-11621045D01*
X-16954610Y-11626004D01*
X-16926437Y-11634550D01*
X-16912158Y-11638127D01*
X-16883283Y-11643871D01*
X-16868722Y-11646031D01*
X-16839423Y-11648916D01*
X-16824720Y-11649639D01*
X-16810000Y-11650000D01*
X3550000Y-11650000D01*
X3550000Y-11850000D01*
X3150000Y-11850000D01*
X3120595Y-11851445D01*
X3091473Y-11855764D01*
X3062915Y-11862918D01*
X3035195Y-11872836D01*
X3008581Y-11885424D01*
X2983329Y-11900559D01*
X2959682Y-11918097D01*
X2937868Y-11937868D01*
X2918097Y-11959682D01*
X2900559Y-11983329D01*
X2885424Y-12008581D01*
X2872836Y-12035195D01*
X2862918Y-12062915D01*
X2855764Y-12091473D01*
X2851445Y-12120595D01*
X2850000Y-12150000D01*
X2850000Y-13850000D01*
X2851445Y-13879405D01*
X2855764Y-13908527D01*
X2862918Y-13937085D01*
X2872836Y-13964805D01*
X2885424Y-13991419D01*
X2900559Y-14016671D01*
X2918097Y-14040318D01*
X2937868Y-14062132D01*
X2959682Y-14081903D01*
X2983329Y-14099441D01*
X3008581Y-14114576D01*
X3035195Y-14127164D01*
X3062915Y-14137082D01*
X3091473Y-14144236D01*
X3120595Y-14148555D01*
X3150000Y-14150000D01*
X4850000Y-14150000D01*
X4879405Y-14148555D01*
X4908527Y-14144236D01*
X4937085Y-14137082D01*
X4964805Y-14127164D01*
X4991419Y-14114576D01*
X5016671Y-14099441D01*
X5040318Y-14081903D01*
X5062132Y-14062132D01*
X5081903Y-14040318D01*
X5099441Y-14016671D01*
X5114576Y-13991419D01*
X5127164Y-13964805D01*
X5137082Y-13937085D01*
X5144236Y-13908527D01*
X5148555Y-13879405D01*
X5150000Y-13850000D01*
X5150000Y-13250000D01*
X5150000Y-12750000D01*
G37*
%LPC*%
G36*
X6290000Y-12750000D02*
G01*
X6290000Y-11877856D01*
X6260573Y-11884464D01*
X6206173Y-11899519D01*
X6152577Y-11917224D01*
X6099914Y-11937539D01*
X6048312Y-11960412D01*
X5997894Y-11985791D01*
X5948782Y-12013612D01*
X5901094Y-12043810D01*
X5854946Y-12076311D01*
X5810448Y-12111038D01*
X5767707Y-12147906D01*
X5726827Y-12186827D01*
X5687906Y-12227707D01*
X5651038Y-12270448D01*
X5616311Y-12314946D01*
X5583810Y-12361094D01*
X5553612Y-12408782D01*
X5525791Y-12457894D01*
X5500412Y-12508312D01*
X5477539Y-12559914D01*
X5457224Y-12612577D01*
X5439519Y-12666173D01*
X5424464Y-12720573D01*
X5417856Y-12750000D01*
X6290000Y-12750000D01*
G37*
%LPC*%
G36*
X-7164184Y-23409319D02*
G01*
X-7165627Y-23394665D01*
X-7169833Y-23360565D01*
X-7171993Y-23346000D01*
X-7177867Y-23312148D01*
X-7180740Y-23297706D01*
X-7188267Y-23264184D01*
X-7191845Y-23249900D01*
X-7201009Y-23216787D01*
X-7205283Y-23202696D01*
X-7216061Y-23170073D01*
X-7221021Y-23156209D01*
X-7233386Y-23124153D01*
X-7239021Y-23110549D01*
X-7252945Y-23079139D01*
X-7259240Y-23065828D01*
X-7274688Y-23035139D01*
X-7281629Y-23022153D01*
X-7298564Y-22992259D01*
X-7306134Y-22979629D01*
X-7324515Y-22950602D01*
X-7332696Y-22938358D01*
X-7352479Y-22910268D01*
X-7361251Y-22898441D01*
X-7382389Y-22871355D01*
X-7391730Y-22859973D01*
X-7414172Y-22833957D01*
X-7424060Y-22823047D01*
X-7447751Y-22798163D01*
X-7458163Y-22787751D01*
X-7483047Y-22764060D01*
X-7493957Y-22754172D01*
X-7519973Y-22731730D01*
X-7531355Y-22722389D01*
X-7558441Y-22701251D01*
X-7570268Y-22692479D01*
X-7598358Y-22672696D01*
X-7610602Y-22664515D01*
X-7639629Y-22646134D01*
X-7652259Y-22638564D01*
X-7682153Y-22621629D01*
X-7695139Y-22614688D01*
X-7725828Y-22599240D01*
X-7739139Y-22592945D01*
X-7770549Y-22579021D01*
X-7784153Y-22573386D01*
X-7816209Y-22561021D01*
X-7830073Y-22556061D01*
X-7862696Y-22545283D01*
X-7876787Y-22541009D01*
X-7909900Y-22531845D01*
X-7924184Y-22528267D01*
X-7957706Y-22520740D01*
X-7972148Y-22517867D01*
X-8006000Y-22511993D01*
X-8020565Y-22509833D01*
X-8054665Y-22505627D01*
X-8069319Y-22504184D01*
X-8103583Y-22501656D01*
X-8118290Y-22500934D01*
X-8152638Y-22500090D01*
X-8167362Y-22500090D01*
X-8201710Y-22500934D01*
X-8216417Y-22501656D01*
X-8250681Y-22504184D01*
X-8265335Y-22505627D01*
X-8299435Y-22509833D01*
X-8314000Y-22511993D01*
X-8347852Y-22517867D01*
X-8362294Y-22520740D01*
X-8395816Y-22528267D01*
X-8410100Y-22531845D01*
X-8443213Y-22541009D01*
X-8457304Y-22545283D01*
X-8489927Y-22556061D01*
X-8503791Y-22561021D01*
X-8535847Y-22573386D01*
X-8549451Y-22579021D01*
X-8580861Y-22592945D01*
X-8594172Y-22599240D01*
X-8624861Y-22614688D01*
X-8637847Y-22621629D01*
X-8667741Y-22638564D01*
X-8680371Y-22646134D01*
X-8709398Y-22664515D01*
X-8721642Y-22672696D01*
X-8749732Y-22692479D01*
X-8761559Y-22701251D01*
X-8788645Y-22722389D01*
X-8800027Y-22731730D01*
X-8826043Y-22754172D01*
X-8836953Y-22764060D01*
X-8861837Y-22787751D01*
X-8872249Y-22798163D01*
X-8895940Y-22823047D01*
X-8905828Y-22833957D01*
X-8928270Y-22859973D01*
X-8937611Y-22871355D01*
X-8958749Y-22898441D01*
X-8967521Y-22910268D01*
X-8987304Y-22938358D01*
X-8995485Y-22950602D01*
X-9013866Y-22979629D01*
X-9021436Y-22992259D01*
X-9038371Y-23022153D01*
X-9045312Y-23035139D01*
X-9060760Y-23065828D01*
X-9067055Y-23079139D01*
X-9080979Y-23110549D01*
X-9086614Y-23124153D01*
X-9098979Y-23156209D01*
X-9103939Y-23170073D01*
X-9114717Y-23202696D01*
X-9118991Y-23216787D01*
X-9128155Y-23249900D01*
X-9131733Y-23264184D01*
X-9139260Y-23297706D01*
X-9142133Y-23312148D01*
X-9148007Y-23346000D01*
X-9150167Y-23360565D01*
X-9154373Y-23394665D01*
X-9155816Y-23409319D01*
X-9158344Y-23443583D01*
X-9159066Y-23458290D01*
X-9159910Y-23492638D01*
X-9159910Y-23507362D01*
X-9159066Y-23541710D01*
X-9158344Y-23556417D01*
X-9155816Y-23590681D01*
X-9154373Y-23605335D01*
X-9150167Y-23639435D01*
X-9148007Y-23654000D01*
X-9142133Y-23687852D01*
X-9139260Y-23702294D01*
X-9131733Y-23735816D01*
X-9128155Y-23750100D01*
X-9118991Y-23783213D01*
X-9114717Y-23797304D01*
X-9103939Y-23829927D01*
X-9098979Y-23843791D01*
X-9086614Y-23875847D01*
X-9080979Y-23889451D01*
X-9067055Y-23920861D01*
X-9060760Y-23934172D01*
X-9045312Y-23964861D01*
X-9038371Y-23977847D01*
X-9021436Y-24007741D01*
X-9013866Y-24020371D01*
X-8995485Y-24049398D01*
X-8987304Y-24061642D01*
X-8967521Y-24089732D01*
X-8958749Y-24101559D01*
X-8937611Y-24128645D01*
X-8928270Y-24140027D01*
X-8905828Y-24166043D01*
X-8895940Y-24176953D01*
X-8872249Y-24201837D01*
X-8861837Y-24212249D01*
X-8836953Y-24235940D01*
X-8826043Y-24245828D01*
X-8800027Y-24268270D01*
X-8788645Y-24277611D01*
X-8761559Y-24298749D01*
X-8749732Y-24307521D01*
X-8721642Y-24327304D01*
X-8709398Y-24335485D01*
X-8680371Y-24353866D01*
X-8667741Y-24361436D01*
X-8637847Y-24378371D01*
X-8624861Y-24385312D01*
X-8594172Y-24400760D01*
X-8580861Y-24407055D01*
X-8549451Y-24420979D01*
X-8535847Y-24426614D01*
X-8503791Y-24438979D01*
X-8489927Y-24443939D01*
X-8457304Y-24454717D01*
X-8443213Y-24458991D01*
X-8410100Y-24468155D01*
X-8395816Y-24471733D01*
X-8362294Y-24479260D01*
X-8347852Y-24482133D01*
X-8314000Y-24488007D01*
X-8299435Y-24490167D01*
X-8265335Y-24494373D01*
X-8250681Y-24495816D01*
X-8216417Y-24498344D01*
X-8201710Y-24499066D01*
X-8167362Y-24499910D01*
X-8152638Y-24499910D01*
X-8118290Y-24499066D01*
X-8103583Y-24498344D01*
X-8069319Y-24495816D01*
X-8054665Y-24494373D01*
X-8020565Y-24490167D01*
X-8006000Y-24488007D01*
X-7972148Y-24482133D01*
X-7957706Y-24479260D01*
X-7924184Y-24471733D01*
X-7909900Y-24468155D01*
X-7876787Y-24458991D01*
X-7862696Y-24454717D01*
X-7830073Y-24443939D01*
X-7816209Y-24438979D01*
X-7784153Y-24426614D01*
X-7770549Y-24420979D01*
X-7739139Y-24407055D01*
X-7725828Y-24400760D01*
X-7695139Y-24385312D01*
X-7682153Y-24378371D01*
X-7652259Y-24361436D01*
X-7639629Y-24353866D01*
X-7610602Y-24335485D01*
X-7598358Y-24327304D01*
X-7570268Y-24307521D01*
X-7558441Y-24298749D01*
X-7531355Y-24277611D01*
X-7519973Y-24268270D01*
X-7493957Y-24245828D01*
X-7483047Y-24235940D01*
X-7458163Y-24212249D01*
X-7447751Y-24201837D01*
X-7424060Y-24176953D01*
X-7414172Y-24166043D01*
X-7391730Y-24140027D01*
X-7382389Y-24128645D01*
X-7361251Y-24101559D01*
X-7352479Y-24089732D01*
X-7332696Y-24061642D01*
X-7324515Y-24049398D01*
X-7306134Y-24020371D01*
X-7298564Y-24007741D01*
X-7281629Y-23977847D01*
X-7274688Y-23964861D01*
X-7259240Y-23934172D01*
X-7252945Y-23920861D01*
X-7239021Y-23889451D01*
X-7233386Y-23875847D01*
X-7221021Y-23843791D01*
X-7216061Y-23829927D01*
X-7205283Y-23797304D01*
X-7201009Y-23783213D01*
X-7191845Y-23750100D01*
X-7188267Y-23735816D01*
X-7180740Y-23702294D01*
X-7177867Y-23687852D01*
X-7171993Y-23654000D01*
X-7169833Y-23639435D01*
X-7165627Y-23605335D01*
X-7164184Y-23590681D01*
X-7161656Y-23556417D01*
X-7160934Y-23541710D01*
X-7160090Y-23507362D01*
X-7160090Y-23492638D01*
X-7160934Y-23458290D01*
X-7161656Y-23443583D01*
X-7164184Y-23409319D01*
G37*
%LPC*%
G36*
X-9372915Y-24487082D02*
G01*
X-9345195Y-24477164D01*
X-9318581Y-24464576D01*
X-9293329Y-24449441D01*
X-9269682Y-24431903D01*
X-9247868Y-24412132D01*
X-9228097Y-24390318D01*
X-9210559Y-24366671D01*
X-9195424Y-24341419D01*
X-9182836Y-24314805D01*
X-9172918Y-24287085D01*
X-9165764Y-24258527D01*
X-9161445Y-24229405D01*
X-9160000Y-24200000D01*
X-9160000Y-22800000D01*
X-9161445Y-22770595D01*
X-9165764Y-22741473D01*
X-9172918Y-22712915D01*
X-9182836Y-22685195D01*
X-9195424Y-22658581D01*
X-9210559Y-22633329D01*
X-9228097Y-22609682D01*
X-9247868Y-22587868D01*
X-9269682Y-22568097D01*
X-9293329Y-22550559D01*
X-9318581Y-22535424D01*
X-9345195Y-22522836D01*
X-9372915Y-22512918D01*
X-9401473Y-22505764D01*
X-9430595Y-22501445D01*
X-9460000Y-22500000D01*
X-10860000Y-22500000D01*
X-10889405Y-22501445D01*
X-10918527Y-22505764D01*
X-10947085Y-22512918D01*
X-10974805Y-22522836D01*
X-11001419Y-22535424D01*
X-11026671Y-22550559D01*
X-11050318Y-22568097D01*
X-11072132Y-22587868D01*
X-11091903Y-22609682D01*
X-11109441Y-22633329D01*
X-11124576Y-22658581D01*
X-11137164Y-22685195D01*
X-11147082Y-22712915D01*
X-11154236Y-22741473D01*
X-11158555Y-22770595D01*
X-11160000Y-22800000D01*
X-11160000Y-24200000D01*
X-11158555Y-24229405D01*
X-11154236Y-24258527D01*
X-11147082Y-24287085D01*
X-11137164Y-24314805D01*
X-11124576Y-24341419D01*
X-11109441Y-24366671D01*
X-11091903Y-24390318D01*
X-11072132Y-24412132D01*
X-11050318Y-24431903D01*
X-11026671Y-24449441D01*
X-11001419Y-24464576D01*
X-10974805Y-24477164D01*
X-10947085Y-24487082D01*
X-10918527Y-24494236D01*
X-10889405Y-24498555D01*
X-10860000Y-24500000D01*
X-9460000Y-24500000D01*
X-9430595Y-24498555D01*
X-9401473Y-24494236D01*
X-9372915Y-24487082D01*
G37*
%LPC*%
G36*
X-11554906Y-23394616D02*
G01*
X-11556349Y-23379962D01*
X-11561456Y-23338556D01*
X-11563617Y-23323991D01*
X-11570749Y-23282885D01*
X-11573622Y-23268443D01*
X-11582763Y-23227736D01*
X-11586341Y-23213453D01*
X-11597468Y-23173244D01*
X-11601742Y-23159154D01*
X-11614829Y-23119539D01*
X-11619790Y-23105675D01*
X-11634805Y-23066751D01*
X-11640439Y-23053147D01*
X-11657346Y-23015006D01*
X-11663642Y-23001695D01*
X-11682400Y-22964429D01*
X-11689341Y-22951443D01*
X-11709905Y-22915143D01*
X-11717475Y-22902513D01*
X-11739795Y-22867266D01*
X-11747975Y-22855023D01*
X-11771998Y-22820913D01*
X-11780770Y-22809086D01*
X-11806437Y-22776196D01*
X-11815778Y-22764814D01*
X-11843029Y-22733223D01*
X-11852917Y-22722313D01*
X-11881685Y-22692097D01*
X-11892097Y-22681685D01*
X-11922313Y-22652917D01*
X-11933223Y-22643029D01*
X-11964814Y-22615778D01*
X-11976196Y-22606437D01*
X-12009086Y-22580770D01*
X-12020913Y-22571998D01*
X-12055023Y-22547975D01*
X-12067266Y-22539795D01*
X-12102513Y-22517475D01*
X-12115143Y-22509905D01*
X-12151443Y-22489341D01*
X-12164429Y-22482400D01*
X-12201695Y-22463642D01*
X-12215006Y-22457346D01*
X-12253147Y-22440439D01*
X-12266751Y-22434805D01*
X-12305675Y-22419790D01*
X-12319539Y-22414829D01*
X-12359154Y-22401742D01*
X-12373244Y-22397468D01*
X-12413453Y-22386341D01*
X-12427736Y-22382763D01*
X-12468443Y-22373622D01*
X-12482885Y-22370749D01*
X-12523991Y-22363617D01*
X-12538556Y-22361456D01*
X-12579962Y-22356349D01*
X-12594616Y-22354906D01*
X-12636223Y-22351837D01*
X-12650930Y-22351114D01*
X-12692638Y-22350090D01*
X-12707362Y-22350090D01*
X-12749070Y-22351114D01*
X-12763777Y-22351837D01*
X-12805384Y-22354906D01*
X-12820038Y-22356349D01*
X-12861444Y-22361456D01*
X-12876009Y-22363617D01*
X-12917115Y-22370749D01*
X-12931557Y-22373622D01*
X-12972264Y-22382763D01*
X-12986547Y-22386341D01*
X-13026756Y-22397468D01*
X-13040846Y-22401742D01*
X-13080461Y-22414829D01*
X-13094325Y-22419790D01*
X-13133249Y-22434805D01*
X-13146853Y-22440439D01*
X-13184994Y-22457346D01*
X-13198305Y-22463642D01*
X-13235571Y-22482400D01*
X-13248557Y-22489341D01*
X-13284857Y-22509905D01*
X-13297487Y-22517475D01*
X-13332734Y-22539795D01*
X-13344977Y-22547975D01*
X-13379087Y-22571998D01*
X-13390914Y-22580770D01*
X-13423804Y-22606437D01*
X-13435186Y-22615778D01*
X-13466777Y-22643029D01*
X-13477687Y-22652917D01*
X-13507903Y-22681685D01*
X-13518315Y-22692097D01*
X-13547083Y-22722313D01*
X-13556971Y-22733223D01*
X-13584222Y-22764814D01*
X-13593563Y-22776196D01*
X-13619230Y-22809086D01*
X-13628002Y-22820913D01*
X-13652025Y-22855023D01*
X-13660205Y-22867266D01*
X-13682525Y-22902513D01*
X-13690095Y-22915143D01*
X-13710659Y-22951443D01*
X-13717600Y-22964429D01*
X-13736358Y-23001695D01*
X-13742654Y-23015006D01*
X-13759561Y-23053147D01*
X-13765195Y-23066751D01*
X-13780210Y-23105675D01*
X-13785171Y-23119539D01*
X-13798258Y-23159154D01*
X-13802532Y-23173244D01*
X-13813659Y-23213453D01*
X-13817237Y-23227736D01*
X-13826378Y-23268443D01*
X-13829251Y-23282885D01*
X-13836383Y-23323991D01*
X-13838544Y-23338556D01*
X-13843651Y-23379962D01*
X-13845094Y-23394616D01*
X-13848163Y-23436223D01*
X-13848886Y-23450930D01*
X-13849910Y-23492638D01*
X-13849910Y-23507362D01*
X-13848886Y-23549070D01*
X-13848163Y-23563777D01*
X-13845094Y-23605384D01*
X-13843651Y-23620038D01*
X-13838544Y-23661444D01*
X-13836383Y-23676009D01*
X-13829251Y-23717115D01*
X-13826378Y-23731557D01*
X-13817237Y-23772264D01*
X-13813659Y-23786547D01*
X-13802532Y-23826756D01*
X-13798258Y-23840846D01*
X-13785171Y-23880461D01*
X-13780210Y-23894325D01*
X-13765195Y-23933249D01*
X-13759561Y-23946853D01*
X-13742654Y-23984994D01*
X-13736358Y-23998305D01*
X-13717600Y-24035571D01*
X-13710659Y-24048557D01*
X-13690095Y-24084857D01*
X-13682525Y-24097487D01*
X-13660205Y-24132734D01*
X-13652025Y-24144977D01*
X-13628002Y-24179087D01*
X-13619230Y-24190914D01*
X-13593563Y-24223804D01*
X-13584222Y-24235186D01*
X-13556971Y-24266777D01*
X-13547083Y-24277687D01*
X-13518315Y-24307903D01*
X-13507903Y-24318315D01*
X-13477687Y-24347083D01*
X-13466777Y-24356971D01*
X-13435186Y-24384222D01*
X-13423804Y-24393563D01*
X-13390914Y-24419230D01*
X-13379087Y-24428002D01*
X-13344977Y-24452025D01*
X-13332734Y-24460205D01*
X-13297487Y-24482525D01*
X-13284857Y-24490095D01*
X-13248557Y-24510659D01*
X-13235571Y-24517600D01*
X-13198305Y-24536358D01*
X-13184994Y-24542654D01*
X-13146853Y-24559561D01*
X-13133249Y-24565195D01*
X-13094325Y-24580210D01*
X-13080461Y-24585171D01*
X-13040846Y-24598258D01*
X-13026756Y-24602532D01*
X-12986547Y-24613659D01*
X-12972264Y-24617237D01*
X-12931557Y-24626378D01*
X-12917115Y-24629251D01*
X-12876009Y-24636383D01*
X-12861444Y-24638544D01*
X-12820038Y-24643651D01*
X-12805384Y-24645094D01*
X-12763777Y-24648163D01*
X-12749070Y-24648886D01*
X-12707362Y-24649910D01*
X-12692638Y-24649910D01*
X-12650930Y-24648886D01*
X-12636223Y-24648163D01*
X-12594616Y-24645094D01*
X-12579962Y-24643651D01*
X-12538556Y-24638544D01*
X-12523991Y-24636383D01*
X-12482885Y-24629251D01*
X-12468443Y-24626378D01*
X-12427736Y-24617237D01*
X-12413453Y-24613659D01*
X-12373244Y-24602532D01*
X-12359154Y-24598258D01*
X-12319539Y-24585171D01*
X-12305675Y-24580210D01*
X-12266751Y-24565195D01*
X-12253147Y-24559561D01*
X-12215006Y-24542654D01*
X-12201695Y-24536358D01*
X-12164429Y-24517600D01*
X-12151443Y-24510659D01*
X-12115143Y-24490095D01*
X-12102513Y-24482525D01*
X-12067266Y-24460205D01*
X-12055023Y-24452025D01*
X-12020913Y-24428002D01*
X-12009086Y-24419230D01*
X-11976196Y-24393563D01*
X-11964814Y-24384222D01*
X-11933223Y-24356971D01*
X-11922313Y-24347083D01*
X-11892097Y-24318315D01*
X-11881685Y-24307903D01*
X-11852917Y-24277687D01*
X-11843029Y-24266777D01*
X-11815778Y-24235186D01*
X-11806437Y-24223804D01*
X-11780770Y-24190914D01*
X-11771998Y-24179087D01*
X-11747975Y-24144977D01*
X-11739795Y-24132734D01*
X-11717475Y-24097487D01*
X-11709905Y-24084857D01*
X-11689341Y-24048557D01*
X-11682400Y-24035571D01*
X-11663642Y-23998305D01*
X-11657346Y-23984994D01*
X-11640439Y-23946853D01*
X-11634805Y-23933249D01*
X-11619790Y-23894325D01*
X-11614829Y-23880461D01*
X-11601742Y-23840846D01*
X-11597468Y-23826756D01*
X-11586341Y-23786547D01*
X-11582763Y-23772264D01*
X-11573622Y-23731557D01*
X-11570749Y-23717115D01*
X-11563617Y-23676009D01*
X-11561456Y-23661444D01*
X-11556349Y-23620038D01*
X-11554906Y-23605384D01*
X-11551837Y-23563777D01*
X-11551114Y-23549070D01*
X-11550090Y-23507362D01*
X-11550090Y-23492638D01*
X-11551114Y-23450930D01*
X-11551837Y-23436223D01*
X-11554906Y-23394616D01*
G37*
%LPC*%
G36*
X-14302915Y-24637082D02*
G01*
X-14275195Y-24627164D01*
X-14248581Y-24614576D01*
X-14223329Y-24599441D01*
X-14199682Y-24581903D01*
X-14177868Y-24562132D01*
X-14158097Y-24540318D01*
X-14140559Y-24516671D01*
X-14125424Y-24491419D01*
X-14112836Y-24464805D01*
X-14102918Y-24437085D01*
X-14095764Y-24408527D01*
X-14091445Y-24379405D01*
X-14090000Y-24350000D01*
X-14090000Y-22650000D01*
X-14091445Y-22620595D01*
X-14095764Y-22591473D01*
X-14102918Y-22562915D01*
X-14112836Y-22535195D01*
X-14125424Y-22508581D01*
X-14140559Y-22483329D01*
X-14158097Y-22459682D01*
X-14177868Y-22437868D01*
X-14199682Y-22418097D01*
X-14223329Y-22400559D01*
X-14248581Y-22385424D01*
X-14275195Y-22372836D01*
X-14302915Y-22362918D01*
X-14331473Y-22355764D01*
X-14360595Y-22351445D01*
X-14390000Y-22350000D01*
X-16090000Y-22350000D01*
X-16119405Y-22351445D01*
X-16148527Y-22355764D01*
X-16177085Y-22362918D01*
X-16204805Y-22372836D01*
X-16231419Y-22385424D01*
X-16256671Y-22400559D01*
X-16280318Y-22418097D01*
X-16302132Y-22437868D01*
X-16321903Y-22459682D01*
X-16339441Y-22483329D01*
X-16354576Y-22508581D01*
X-16367164Y-22535195D01*
X-16377082Y-22562915D01*
X-16384236Y-22591473D01*
X-16388555Y-22620595D01*
X-16390000Y-22650000D01*
X-16390000Y-24350000D01*
X-16388555Y-24379405D01*
X-16384236Y-24408527D01*
X-16377082Y-24437085D01*
X-16367164Y-24464805D01*
X-16354576Y-24491419D01*
X-16339441Y-24516671D01*
X-16321903Y-24540318D01*
X-16302132Y-24562132D01*
X-16280318Y-24581903D01*
X-16256671Y-24599441D01*
X-16231419Y-24614576D01*
X-16204805Y-24627164D01*
X-16177085Y-24637082D01*
X-16148527Y-24644236D01*
X-16119405Y-24648555D01*
X-16090000Y-24650000D01*
X-14390000Y-24650000D01*
X-14360595Y-24648555D01*
X-14331473Y-24644236D01*
X-14302915Y-24637082D01*
G37*
%LPC*%
G36*
X-9014906Y-18894616D02*
G01*
X-9016349Y-18879962D01*
X-9021456Y-18838556D01*
X-9023617Y-18823991D01*
X-9030749Y-18782885D01*
X-9033622Y-18768443D01*
X-9042763Y-18727736D01*
X-9046341Y-18713453D01*
X-9057468Y-18673244D01*
X-9061742Y-18659154D01*
X-9074829Y-18619539D01*
X-9079790Y-18605675D01*
X-9094805Y-18566751D01*
X-9100439Y-18553147D01*
X-9117346Y-18515006D01*
X-9123642Y-18501695D01*
X-9142400Y-18464429D01*
X-9149341Y-18451443D01*
X-9169905Y-18415143D01*
X-9177475Y-18402513D01*
X-9199795Y-18367266D01*
X-9207975Y-18355023D01*
X-9231998Y-18320913D01*
X-9240770Y-18309086D01*
X-9266437Y-18276196D01*
X-9275778Y-18264814D01*
X-9303029Y-18233223D01*
X-9312917Y-18222313D01*
X-9341685Y-18192097D01*
X-9352097Y-18181685D01*
X-9382313Y-18152917D01*
X-9393223Y-18143029D01*
X-9424814Y-18115778D01*
X-9436196Y-18106437D01*
X-9469086Y-18080770D01*
X-9480913Y-18071998D01*
X-9515023Y-18047975D01*
X-9527266Y-18039795D01*
X-9562513Y-18017475D01*
X-9575143Y-18009905D01*
X-9611443Y-17989341D01*
X-9624429Y-17982400D01*
X-9661695Y-17963642D01*
X-9675006Y-17957346D01*
X-9713147Y-17940439D01*
X-9726751Y-17934805D01*
X-9765675Y-17919790D01*
X-9779539Y-17914829D01*
X-9819154Y-17901742D01*
X-9833244Y-17897468D01*
X-9873453Y-17886341D01*
X-9887736Y-17882763D01*
X-9928443Y-17873622D01*
X-9942885Y-17870749D01*
X-9983991Y-17863617D01*
X-9998556Y-17861456D01*
X-10039962Y-17856349D01*
X-10054616Y-17854906D01*
X-10096223Y-17851837D01*
X-10110930Y-17851114D01*
X-10152638Y-17850090D01*
X-10167362Y-17850090D01*
X-10209070Y-17851114D01*
X-10223777Y-17851837D01*
X-10265384Y-17854906D01*
X-10280038Y-17856349D01*
X-10321444Y-17861456D01*
X-10336009Y-17863617D01*
X-10377115Y-17870749D01*
X-10391557Y-17873622D01*
X-10432264Y-17882763D01*
X-10446547Y-17886341D01*
X-10486756Y-17897468D01*
X-10500846Y-17901742D01*
X-10540461Y-17914829D01*
X-10554325Y-17919790D01*
X-10593249Y-17934805D01*
X-10606853Y-17940439D01*
X-10644994Y-17957346D01*
X-10658305Y-17963642D01*
X-10695571Y-17982400D01*
X-10708557Y-17989341D01*
X-10744857Y-18009905D01*
X-10757487Y-18017475D01*
X-10792734Y-18039795D01*
X-10804977Y-18047975D01*
X-10839087Y-18071998D01*
X-10850914Y-18080770D01*
X-10883804Y-18106437D01*
X-10895186Y-18115778D01*
X-10926777Y-18143029D01*
X-10937687Y-18152917D01*
X-10967903Y-18181685D01*
X-10978315Y-18192097D01*
X-11007083Y-18222313D01*
X-11016971Y-18233223D01*
X-11044222Y-18264814D01*
X-11053563Y-18276196D01*
X-11079230Y-18309086D01*
X-11088002Y-18320913D01*
X-11112025Y-18355023D01*
X-11120205Y-18367266D01*
X-11142525Y-18402513D01*
X-11150095Y-18415143D01*
X-11170659Y-18451443D01*
X-11177600Y-18464429D01*
X-11196358Y-18501695D01*
X-11202654Y-18515006D01*
X-11219561Y-18553147D01*
X-11225195Y-18566751D01*
X-11240210Y-18605675D01*
X-11245171Y-18619539D01*
X-11258258Y-18659154D01*
X-11262532Y-18673244D01*
X-11273659Y-18713453D01*
X-11277237Y-18727736D01*
X-11286378Y-18768443D01*
X-11289251Y-18782885D01*
X-11296383Y-18823991D01*
X-11298544Y-18838556D01*
X-11303651Y-18879962D01*
X-11305094Y-18894616D01*
X-11308163Y-18936223D01*
X-11308886Y-18950930D01*
X-11309910Y-18992638D01*
X-11309910Y-19007362D01*
X-11308886Y-19049070D01*
X-11308163Y-19063777D01*
X-11305094Y-19105384D01*
X-11303651Y-19120038D01*
X-11298544Y-19161444D01*
X-11296383Y-19176009D01*
X-11289251Y-19217115D01*
X-11286378Y-19231557D01*
X-11277237Y-19272264D01*
X-11273659Y-19286547D01*
X-11262532Y-19326756D01*
X-11258258Y-19340846D01*
X-11245171Y-19380461D01*
X-11240210Y-19394325D01*
X-11225195Y-19433249D01*
X-11219561Y-19446853D01*
X-11202654Y-19484994D01*
X-11196358Y-19498305D01*
X-11177600Y-19535571D01*
X-11170659Y-19548557D01*
X-11150095Y-19584857D01*
X-11142525Y-19597487D01*
X-11120205Y-19632734D01*
X-11112025Y-19644977D01*
X-11088002Y-19679087D01*
X-11079230Y-19690914D01*
X-11053563Y-19723804D01*
X-11044222Y-19735186D01*
X-11016971Y-19766777D01*
X-11007083Y-19777687D01*
X-10978315Y-19807903D01*
X-10967903Y-19818315D01*
X-10937687Y-19847083D01*
X-10926777Y-19856971D01*
X-10895186Y-19884222D01*
X-10883804Y-19893563D01*
X-10850914Y-19919230D01*
X-10839087Y-19928002D01*
X-10804977Y-19952025D01*
X-10792734Y-19960205D01*
X-10757487Y-19982525D01*
X-10744857Y-19990095D01*
X-10708557Y-20010659D01*
X-10695571Y-20017600D01*
X-10658305Y-20036358D01*
X-10644994Y-20042654D01*
X-10606853Y-20059561D01*
X-10593249Y-20065195D01*
X-10554325Y-20080210D01*
X-10540461Y-20085171D01*
X-10500846Y-20098258D01*
X-10486756Y-20102532D01*
X-10446547Y-20113659D01*
X-10432264Y-20117237D01*
X-10391557Y-20126378D01*
X-10377115Y-20129251D01*
X-10336009Y-20136383D01*
X-10321444Y-20138544D01*
X-10280038Y-20143651D01*
X-10265384Y-20145094D01*
X-10223777Y-20148163D01*
X-10209070Y-20148886D01*
X-10167362Y-20149910D01*
X-10152638Y-20149910D01*
X-10110930Y-20148886D01*
X-10096223Y-20148163D01*
X-10054616Y-20145094D01*
X-10039962Y-20143651D01*
X-9998556Y-20138544D01*
X-9983991Y-20136383D01*
X-9942885Y-20129251D01*
X-9928443Y-20126378D01*
X-9887736Y-20117237D01*
X-9873453Y-20113659D01*
X-9833244Y-20102532D01*
X-9819154Y-20098258D01*
X-9779539Y-20085171D01*
X-9765675Y-20080210D01*
X-9726751Y-20065195D01*
X-9713147Y-20059561D01*
X-9675006Y-20042654D01*
X-9661695Y-20036358D01*
X-9624429Y-20017600D01*
X-9611443Y-20010659D01*
X-9575143Y-19990095D01*
X-9562513Y-19982525D01*
X-9527266Y-19960205D01*
X-9515023Y-19952025D01*
X-9480913Y-19928002D01*
X-9469086Y-19919230D01*
X-9436196Y-19893563D01*
X-9424814Y-19884222D01*
X-9393223Y-19856971D01*
X-9382313Y-19847083D01*
X-9352097Y-19818315D01*
X-9341685Y-19807903D01*
X-9312917Y-19777687D01*
X-9303029Y-19766777D01*
X-9275778Y-19735186D01*
X-9266437Y-19723804D01*
X-9240770Y-19690914D01*
X-9231998Y-19679087D01*
X-9207975Y-19644977D01*
X-9199795Y-19632734D01*
X-9177475Y-19597487D01*
X-9169905Y-19584857D01*
X-9149341Y-19548557D01*
X-9142400Y-19535571D01*
X-9123642Y-19498305D01*
X-9117346Y-19484994D01*
X-9100439Y-19446853D01*
X-9094805Y-19433249D01*
X-9079790Y-19394325D01*
X-9074829Y-19380461D01*
X-9061742Y-19340846D01*
X-9057468Y-19326756D01*
X-9046341Y-19286547D01*
X-9042763Y-19272264D01*
X-9033622Y-19231557D01*
X-9030749Y-19217115D01*
X-9023617Y-19176009D01*
X-9021456Y-19161444D01*
X-9016349Y-19120038D01*
X-9014906Y-19105384D01*
X-9011837Y-19063777D01*
X-9011114Y-19049070D01*
X-9010090Y-19007362D01*
X-9010090Y-18992638D01*
X-9011114Y-18950930D01*
X-9011837Y-18936223D01*
X-9014906Y-18894616D01*
G37*
%LPC*%
G36*
X-11554906Y-18894616D02*
G01*
X-11556349Y-18879962D01*
X-11561456Y-18838556D01*
X-11563617Y-18823991D01*
X-11570749Y-18782885D01*
X-11573622Y-18768443D01*
X-11582763Y-18727736D01*
X-11586341Y-18713453D01*
X-11597468Y-18673244D01*
X-11601742Y-18659154D01*
X-11614829Y-18619539D01*
X-11619790Y-18605675D01*
X-11634805Y-18566751D01*
X-11640439Y-18553147D01*
X-11657346Y-18515006D01*
X-11663642Y-18501695D01*
X-11682400Y-18464429D01*
X-11689341Y-18451443D01*
X-11709905Y-18415143D01*
X-11717475Y-18402513D01*
X-11739795Y-18367266D01*
X-11747975Y-18355023D01*
X-11771998Y-18320913D01*
X-11780770Y-18309086D01*
X-11806437Y-18276196D01*
X-11815778Y-18264814D01*
X-11843029Y-18233223D01*
X-11852917Y-18222313D01*
X-11881685Y-18192097D01*
X-11892097Y-18181685D01*
X-11922313Y-18152917D01*
X-11933223Y-18143029D01*
X-11964814Y-18115778D01*
X-11976196Y-18106437D01*
X-12009086Y-18080770D01*
X-12020913Y-18071998D01*
X-12055023Y-18047975D01*
X-12067266Y-18039795D01*
X-12102513Y-18017475D01*
X-12115143Y-18009905D01*
X-12151443Y-17989341D01*
X-12164429Y-17982400D01*
X-12201695Y-17963642D01*
X-12215006Y-17957346D01*
X-12253147Y-17940439D01*
X-12266751Y-17934805D01*
X-12305675Y-17919790D01*
X-12319539Y-17914829D01*
X-12359154Y-17901742D01*
X-12373244Y-17897468D01*
X-12413453Y-17886341D01*
X-12427736Y-17882763D01*
X-12468443Y-17873622D01*
X-12482885Y-17870749D01*
X-12523991Y-17863617D01*
X-12538556Y-17861456D01*
X-12579962Y-17856349D01*
X-12594616Y-17854906D01*
X-12636223Y-17851837D01*
X-12650930Y-17851114D01*
X-12692638Y-17850090D01*
X-12707362Y-17850090D01*
X-12749070Y-17851114D01*
X-12763777Y-17851837D01*
X-12805384Y-17854906D01*
X-12820038Y-17856349D01*
X-12861444Y-17861456D01*
X-12876009Y-17863617D01*
X-12917115Y-17870749D01*
X-12931557Y-17873622D01*
X-12972264Y-17882763D01*
X-12986547Y-17886341D01*
X-13026756Y-17897468D01*
X-13040846Y-17901742D01*
X-13080461Y-17914829D01*
X-13094325Y-17919790D01*
X-13133249Y-17934805D01*
X-13146853Y-17940439D01*
X-13184994Y-17957346D01*
X-13198305Y-17963642D01*
X-13235571Y-17982400D01*
X-13248557Y-17989341D01*
X-13284857Y-18009905D01*
X-13297487Y-18017475D01*
X-13332734Y-18039795D01*
X-13344977Y-18047975D01*
X-13379087Y-18071998D01*
X-13390914Y-18080770D01*
X-13423804Y-18106437D01*
X-13435186Y-18115778D01*
X-13466777Y-18143029D01*
X-13477687Y-18152917D01*
X-13507903Y-18181685D01*
X-13518315Y-18192097D01*
X-13547083Y-18222313D01*
X-13556971Y-18233223D01*
X-13584222Y-18264814D01*
X-13593563Y-18276196D01*
X-13619230Y-18309086D01*
X-13628002Y-18320913D01*
X-13652025Y-18355023D01*
X-13660205Y-18367266D01*
X-13682525Y-18402513D01*
X-13690095Y-18415143D01*
X-13710659Y-18451443D01*
X-13717600Y-18464429D01*
X-13736358Y-18501695D01*
X-13742654Y-18515006D01*
X-13759561Y-18553147D01*
X-13765195Y-18566751D01*
X-13780210Y-18605675D01*
X-13785171Y-18619539D01*
X-13798258Y-18659154D01*
X-13802532Y-18673244D01*
X-13813659Y-18713453D01*
X-13817237Y-18727736D01*
X-13826378Y-18768443D01*
X-13829251Y-18782885D01*
X-13836383Y-18823991D01*
X-13838544Y-18838556D01*
X-13843651Y-18879962D01*
X-13845094Y-18894616D01*
X-13848163Y-18936223D01*
X-13848886Y-18950930D01*
X-13849910Y-18992638D01*
X-13849910Y-19007362D01*
X-13848886Y-19049070D01*
X-13848163Y-19063777D01*
X-13845094Y-19105384D01*
X-13843651Y-19120038D01*
X-13838544Y-19161444D01*
X-13836383Y-19176009D01*
X-13829251Y-19217115D01*
X-13826378Y-19231557D01*
X-13817237Y-19272264D01*
X-13813659Y-19286547D01*
X-13802532Y-19326756D01*
X-13798258Y-19340846D01*
X-13785171Y-19380461D01*
X-13780210Y-19394325D01*
X-13765195Y-19433249D01*
X-13759561Y-19446853D01*
X-13742654Y-19484994D01*
X-13736358Y-19498305D01*
X-13717600Y-19535571D01*
X-13710659Y-19548557D01*
X-13690095Y-19584857D01*
X-13682525Y-19597487D01*
X-13660205Y-19632734D01*
X-13652025Y-19644977D01*
X-13628002Y-19679087D01*
X-13619230Y-19690914D01*
X-13593563Y-19723804D01*
X-13584222Y-19735186D01*
X-13556971Y-19766777D01*
X-13547083Y-19777687D01*
X-13518315Y-19807903D01*
X-13507903Y-19818315D01*
X-13477687Y-19847083D01*
X-13466777Y-19856971D01*
X-13435186Y-19884222D01*
X-13423804Y-19893563D01*
X-13390914Y-19919230D01*
X-13379087Y-19928002D01*
X-13344977Y-19952025D01*
X-13332734Y-19960205D01*
X-13297487Y-19982525D01*
X-13284857Y-19990095D01*
X-13248557Y-20010659D01*
X-13235571Y-20017600D01*
X-13198305Y-20036358D01*
X-13184994Y-20042654D01*
X-13146853Y-20059561D01*
X-13133249Y-20065195D01*
X-13094325Y-20080210D01*
X-13080461Y-20085171D01*
X-13040846Y-20098258D01*
X-13026756Y-20102532D01*
X-12986547Y-20113659D01*
X-12972264Y-20117237D01*
X-12931557Y-20126378D01*
X-12917115Y-20129251D01*
X-12876009Y-20136383D01*
X-12861444Y-20138544D01*
X-12820038Y-20143651D01*
X-12805384Y-20145094D01*
X-12763777Y-20148163D01*
X-12749070Y-20148886D01*
X-12707362Y-20149910D01*
X-12692638Y-20149910D01*
X-12650930Y-20148886D01*
X-12636223Y-20148163D01*
X-12594616Y-20145094D01*
X-12579962Y-20143651D01*
X-12538556Y-20138544D01*
X-12523991Y-20136383D01*
X-12482885Y-20129251D01*
X-12468443Y-20126378D01*
X-12427736Y-20117237D01*
X-12413453Y-20113659D01*
X-12373244Y-20102532D01*
X-12359154Y-20098258D01*
X-12319539Y-20085171D01*
X-12305675Y-20080210D01*
X-12266751Y-20065195D01*
X-12253147Y-20059561D01*
X-12215006Y-20042654D01*
X-12201695Y-20036358D01*
X-12164429Y-20017600D01*
X-12151443Y-20010659D01*
X-12115143Y-19990095D01*
X-12102513Y-19982525D01*
X-12067266Y-19960205D01*
X-12055023Y-19952025D01*
X-12020913Y-19928002D01*
X-12009086Y-19919230D01*
X-11976196Y-19893563D01*
X-11964814Y-19884222D01*
X-11933223Y-19856971D01*
X-11922313Y-19847083D01*
X-11892097Y-19818315D01*
X-11881685Y-19807903D01*
X-11852917Y-19777687D01*
X-11843029Y-19766777D01*
X-11815778Y-19735186D01*
X-11806437Y-19723804D01*
X-11780770Y-19690914D01*
X-11771998Y-19679087D01*
X-11747975Y-19644977D01*
X-11739795Y-19632734D01*
X-11717475Y-19597487D01*
X-11709905Y-19584857D01*
X-11689341Y-19548557D01*
X-11682400Y-19535571D01*
X-11663642Y-19498305D01*
X-11657346Y-19484994D01*
X-11640439Y-19446853D01*
X-11634805Y-19433249D01*
X-11619790Y-19394325D01*
X-11614829Y-19380461D01*
X-11601742Y-19340846D01*
X-11597468Y-19326756D01*
X-11586341Y-19286547D01*
X-11582763Y-19272264D01*
X-11573622Y-19231557D01*
X-11570749Y-19217115D01*
X-11563617Y-19176009D01*
X-11561456Y-19161444D01*
X-11556349Y-19120038D01*
X-11554906Y-19105384D01*
X-11551837Y-19063777D01*
X-11551114Y-19049070D01*
X-11550090Y-19007362D01*
X-11550090Y-18992638D01*
X-11551114Y-18950930D01*
X-11551837Y-18936223D01*
X-11554906Y-18894616D01*
G37*
%LPC*%
G36*
X-14302915Y-20137082D02*
G01*
X-14275195Y-20127164D01*
X-14248581Y-20114576D01*
X-14223329Y-20099441D01*
X-14199682Y-20081903D01*
X-14177868Y-20062132D01*
X-14158097Y-20040318D01*
X-14140559Y-20016671D01*
X-14125424Y-19991419D01*
X-14112836Y-19964805D01*
X-14102918Y-19937085D01*
X-14095764Y-19908527D01*
X-14091445Y-19879405D01*
X-14090000Y-19850000D01*
X-14090000Y-18150000D01*
X-14091445Y-18120595D01*
X-14095764Y-18091473D01*
X-14102918Y-18062915D01*
X-14112836Y-18035195D01*
X-14125424Y-18008581D01*
X-14140559Y-17983329D01*
X-14158097Y-17959682D01*
X-14177868Y-17937868D01*
X-14199682Y-17918097D01*
X-14223329Y-17900559D01*
X-14248581Y-17885424D01*
X-14275195Y-17872836D01*
X-14302915Y-17862918D01*
X-14331473Y-17855764D01*
X-14360595Y-17851445D01*
X-14390000Y-17850000D01*
X-16090000Y-17850000D01*
X-16119405Y-17851445D01*
X-16148527Y-17855764D01*
X-16177085Y-17862918D01*
X-16204805Y-17872836D01*
X-16231419Y-17885424D01*
X-16256671Y-17900559D01*
X-16280318Y-17918097D01*
X-16302132Y-17937868D01*
X-16321903Y-17959682D01*
X-16339441Y-17983329D01*
X-16354576Y-18008581D01*
X-16367164Y-18035195D01*
X-16377082Y-18062915D01*
X-16384236Y-18091473D01*
X-16388555Y-18120595D01*
X-16390000Y-18150000D01*
X-16390000Y-19850000D01*
X-16388555Y-19879405D01*
X-16384236Y-19908527D01*
X-16377082Y-19937085D01*
X-16367164Y-19964805D01*
X-16354576Y-19991419D01*
X-16339441Y-20016671D01*
X-16321903Y-20040318D01*
X-16302132Y-20062132D01*
X-16280318Y-20081903D01*
X-16256671Y-20099441D01*
X-16231419Y-20114576D01*
X-16204805Y-20127164D01*
X-16177085Y-20137082D01*
X-16148527Y-20144236D01*
X-16119405Y-20148555D01*
X-16090000Y-20150000D01*
X-14390000Y-20150000D01*
X-14360595Y-20148555D01*
X-14331473Y-20144236D01*
X-14302915Y-20137082D01*
G37*
%LPC*%
G36*
X-19682915Y-5757082D02*
G01*
X-19655195Y-5747164D01*
X-19628581Y-5734576D01*
X-19603329Y-5719441D01*
X-19579682Y-5701903D01*
X-19557868Y-5682132D01*
X-19538097Y-5660318D01*
X-19520559Y-5636671D01*
X-19505424Y-5611419D01*
X-19492836Y-5584805D01*
X-19482918Y-5557085D01*
X-19475764Y-5528527D01*
X-19471445Y-5499405D01*
X-19470000Y-5470000D01*
X-19470000Y-3770000D01*
X-19471445Y-3740595D01*
X-19475764Y-3711473D01*
X-19482918Y-3682915D01*
X-19492836Y-3655195D01*
X-19505424Y-3628581D01*
X-19520559Y-3603329D01*
X-19538097Y-3579682D01*
X-19557868Y-3557868D01*
X-19579682Y-3538097D01*
X-19603329Y-3520559D01*
X-19628581Y-3505424D01*
X-19655195Y-3492836D01*
X-19682915Y-3482918D01*
X-19711473Y-3475764D01*
X-19740595Y-3471445D01*
X-19770000Y-3470000D01*
X-21470000Y-3470000D01*
X-21499405Y-3471445D01*
X-21528527Y-3475764D01*
X-21557085Y-3482918D01*
X-21584805Y-3492836D01*
X-21611419Y-3505424D01*
X-21636671Y-3520559D01*
X-21660318Y-3538097D01*
X-21682132Y-3557868D01*
X-21701903Y-3579682D01*
X-21719441Y-3603329D01*
X-21734576Y-3628581D01*
X-21747164Y-3655195D01*
X-21757082Y-3682915D01*
X-21764236Y-3711473D01*
X-21768555Y-3740595D01*
X-21770000Y-3770000D01*
X-21770000Y-5470000D01*
X-21768555Y-5499405D01*
X-21764236Y-5528527D01*
X-21757082Y-5557085D01*
X-21747164Y-5584805D01*
X-21734576Y-5611419D01*
X-21719441Y-5636671D01*
X-21701903Y-5660318D01*
X-21682132Y-5682132D01*
X-21660318Y-5701903D01*
X-21636671Y-5719441D01*
X-21611419Y-5734576D01*
X-21584805Y-5747164D01*
X-21557085Y-5757082D01*
X-21528527Y-5764236D01*
X-21499405Y-5768555D01*
X-21470000Y-5770000D01*
X-19770000Y-5770000D01*
X-19740595Y-5768555D01*
X-19711473Y-5764236D01*
X-19682915Y-5757082D01*
G37*
%LPC*%
G36*
X-11854906Y-4514616D02*
G01*
X-11856349Y-4499962D01*
X-11861456Y-4458556D01*
X-11863617Y-4443991D01*
X-11870749Y-4402885D01*
X-11873622Y-4388443D01*
X-11882763Y-4347736D01*
X-11886341Y-4333453D01*
X-11897468Y-4293244D01*
X-11901742Y-4279154D01*
X-11914829Y-4239539D01*
X-11919790Y-4225675D01*
X-11934805Y-4186751D01*
X-11940439Y-4173147D01*
X-11957346Y-4135006D01*
X-11963642Y-4121695D01*
X-11982400Y-4084429D01*
X-11989341Y-4071443D01*
X-12009905Y-4035143D01*
X-12017475Y-4022513D01*
X-12039795Y-3987266D01*
X-12047975Y-3975023D01*
X-12071998Y-3940913D01*
X-12080770Y-3929086D01*
X-12106437Y-3896196D01*
X-12115778Y-3884814D01*
X-12143029Y-3853223D01*
X-12152917Y-3842313D01*
X-12181685Y-3812097D01*
X-12192097Y-3801685D01*
X-12222313Y-3772917D01*
X-12233223Y-3763029D01*
X-12264814Y-3735778D01*
X-12276196Y-3726437D01*
X-12309086Y-3700770D01*
X-12320913Y-3691998D01*
X-12355023Y-3667975D01*
X-12367266Y-3659795D01*
X-12402513Y-3637475D01*
X-12415143Y-3629905D01*
X-12451443Y-3609341D01*
X-12464429Y-3602400D01*
X-12501695Y-3583642D01*
X-12515006Y-3577346D01*
X-12553147Y-3560439D01*
X-12566751Y-3554805D01*
X-12605675Y-3539790D01*
X-12619539Y-3534829D01*
X-12659154Y-3521742D01*
X-12673244Y-3517468D01*
X-12713453Y-3506341D01*
X-12727736Y-3502763D01*
X-12768443Y-3493622D01*
X-12782885Y-3490749D01*
X-12823991Y-3483617D01*
X-12838556Y-3481456D01*
X-12879962Y-3476349D01*
X-12894616Y-3474906D01*
X-12936223Y-3471837D01*
X-12950930Y-3471114D01*
X-12992638Y-3470090D01*
X-13007362Y-3470090D01*
X-13049070Y-3471114D01*
X-13063777Y-3471837D01*
X-13105384Y-3474906D01*
X-13120038Y-3476349D01*
X-13161444Y-3481456D01*
X-13176009Y-3483617D01*
X-13217115Y-3490749D01*
X-13231557Y-3493622D01*
X-13272264Y-3502763D01*
X-13286547Y-3506341D01*
X-13326756Y-3517468D01*
X-13340846Y-3521742D01*
X-13380461Y-3534829D01*
X-13394325Y-3539790D01*
X-13433249Y-3554805D01*
X-13446853Y-3560439D01*
X-13484994Y-3577346D01*
X-13498305Y-3583642D01*
X-13535571Y-3602400D01*
X-13548557Y-3609341D01*
X-13584857Y-3629905D01*
X-13597487Y-3637475D01*
X-13632734Y-3659795D01*
X-13644977Y-3667975D01*
X-13679087Y-3691998D01*
X-13690914Y-3700770D01*
X-13723804Y-3726437D01*
X-13735186Y-3735778D01*
X-13766777Y-3763029D01*
X-13777687Y-3772917D01*
X-13807903Y-3801685D01*
X-13818315Y-3812097D01*
X-13847083Y-3842313D01*
X-13856971Y-3853223D01*
X-13884222Y-3884814D01*
X-13893563Y-3896196D01*
X-13919230Y-3929086D01*
X-13928002Y-3940913D01*
X-13952025Y-3975023D01*
X-13960205Y-3987266D01*
X-13982525Y-4022513D01*
X-13990095Y-4035143D01*
X-14010659Y-4071443D01*
X-14017600Y-4084429D01*
X-14036358Y-4121695D01*
X-14042654Y-4135006D01*
X-14059561Y-4173147D01*
X-14065195Y-4186751D01*
X-14080210Y-4225675D01*
X-14085171Y-4239539D01*
X-14098258Y-4279154D01*
X-14102532Y-4293244D01*
X-14113659Y-4333453D01*
X-14117237Y-4347736D01*
X-14126378Y-4388443D01*
X-14129251Y-4402885D01*
X-14136383Y-4443991D01*
X-14138544Y-4458556D01*
X-14143651Y-4499962D01*
X-14145094Y-4514616D01*
X-14148163Y-4556223D01*
X-14148886Y-4570930D01*
X-14149910Y-4612638D01*
X-14149910Y-4627362D01*
X-14148886Y-4669070D01*
X-14148163Y-4683777D01*
X-14145094Y-4725384D01*
X-14143651Y-4740038D01*
X-14138544Y-4781444D01*
X-14136383Y-4796009D01*
X-14129251Y-4837115D01*
X-14126378Y-4851557D01*
X-14117237Y-4892264D01*
X-14113659Y-4906547D01*
X-14102532Y-4946756D01*
X-14098258Y-4960846D01*
X-14085171Y-5000461D01*
X-14080210Y-5014325D01*
X-14065195Y-5053249D01*
X-14059561Y-5066853D01*
X-14042654Y-5104994D01*
X-14036358Y-5118305D01*
X-14017600Y-5155571D01*
X-14010659Y-5168557D01*
X-13990095Y-5204857D01*
X-13982525Y-5217487D01*
X-13960205Y-5252734D01*
X-13952025Y-5264977D01*
X-13928002Y-5299087D01*
X-13919230Y-5310914D01*
X-13893563Y-5343804D01*
X-13884222Y-5355186D01*
X-13856971Y-5386777D01*
X-13847083Y-5397687D01*
X-13818315Y-5427903D01*
X-13807903Y-5438315D01*
X-13777687Y-5467083D01*
X-13766777Y-5476971D01*
X-13735186Y-5504222D01*
X-13723804Y-5513563D01*
X-13690914Y-5539230D01*
X-13679087Y-5548002D01*
X-13644977Y-5572025D01*
X-13632734Y-5580205D01*
X-13597487Y-5602525D01*
X-13584857Y-5610095D01*
X-13548557Y-5630659D01*
X-13535571Y-5637600D01*
X-13498305Y-5656358D01*
X-13484994Y-5662654D01*
X-13446853Y-5679561D01*
X-13433249Y-5685195D01*
X-13394325Y-5700210D01*
X-13380461Y-5705171D01*
X-13340846Y-5718258D01*
X-13326756Y-5722532D01*
X-13286547Y-5733659D01*
X-13272264Y-5737237D01*
X-13231557Y-5746378D01*
X-13217115Y-5749251D01*
X-13176009Y-5756383D01*
X-13161444Y-5758544D01*
X-13120038Y-5763651D01*
X-13105384Y-5765094D01*
X-13063777Y-5768163D01*
X-13049070Y-5768886D01*
X-13007362Y-5769910D01*
X-12992638Y-5769910D01*
X-12950930Y-5768886D01*
X-12936223Y-5768163D01*
X-12894616Y-5765094D01*
X-12879962Y-5763651D01*
X-12838556Y-5758544D01*
X-12823991Y-5756383D01*
X-12782885Y-5749251D01*
X-12768443Y-5746378D01*
X-12727736Y-5737237D01*
X-12713453Y-5733659D01*
X-12673244Y-5722532D01*
X-12659154Y-5718258D01*
X-12619539Y-5705171D01*
X-12605675Y-5700210D01*
X-12566751Y-5685195D01*
X-12553147Y-5679561D01*
X-12515006Y-5662654D01*
X-12501695Y-5656358D01*
X-12464429Y-5637600D01*
X-12451443Y-5630659D01*
X-12415143Y-5610095D01*
X-12402513Y-5602525D01*
X-12367266Y-5580205D01*
X-12355023Y-5572025D01*
X-12320913Y-5548002D01*
X-12309086Y-5539230D01*
X-12276196Y-5513563D01*
X-12264814Y-5504222D01*
X-12233223Y-5476971D01*
X-12222313Y-5467083D01*
X-12192097Y-5438315D01*
X-12181685Y-5427903D01*
X-12152917Y-5397687D01*
X-12143029Y-5386777D01*
X-12115778Y-5355186D01*
X-12106437Y-5343804D01*
X-12080770Y-5310914D01*
X-12071998Y-5299087D01*
X-12047975Y-5264977D01*
X-12039795Y-5252734D01*
X-12017475Y-5217487D01*
X-12009905Y-5204857D01*
X-11989341Y-5168557D01*
X-11982400Y-5155571D01*
X-11963642Y-5118305D01*
X-11957346Y-5104994D01*
X-11940439Y-5066853D01*
X-11934805Y-5053249D01*
X-11919790Y-5014325D01*
X-11914829Y-5000461D01*
X-11901742Y-4960846D01*
X-11897468Y-4946756D01*
X-11886341Y-4906547D01*
X-11882763Y-4892264D01*
X-11873622Y-4851557D01*
X-11870749Y-4837115D01*
X-11863617Y-4796009D01*
X-11861456Y-4781444D01*
X-11856349Y-4740038D01*
X-11854906Y-4725384D01*
X-11851837Y-4683777D01*
X-11851114Y-4669070D01*
X-11850090Y-4627362D01*
X-11850090Y-4612638D01*
X-11851114Y-4570930D01*
X-11851837Y-4556223D01*
X-11854906Y-4514616D01*
G37*
%LPC*%
G36*
X-9314906Y-4514616D02*
G01*
X-9316349Y-4499962D01*
X-9321456Y-4458556D01*
X-9323617Y-4443991D01*
X-9330749Y-4402885D01*
X-9333622Y-4388443D01*
X-9342763Y-4347736D01*
X-9346341Y-4333453D01*
X-9357468Y-4293244D01*
X-9361742Y-4279154D01*
X-9374829Y-4239539D01*
X-9379790Y-4225675D01*
X-9394805Y-4186751D01*
X-9400439Y-4173147D01*
X-9417346Y-4135006D01*
X-9423642Y-4121695D01*
X-9442400Y-4084429D01*
X-9449341Y-4071443D01*
X-9469905Y-4035143D01*
X-9477475Y-4022513D01*
X-9499795Y-3987266D01*
X-9507975Y-3975023D01*
X-9531998Y-3940913D01*
X-9540770Y-3929086D01*
X-9566437Y-3896196D01*
X-9575778Y-3884814D01*
X-9603029Y-3853223D01*
X-9612917Y-3842313D01*
X-9641685Y-3812097D01*
X-9652097Y-3801685D01*
X-9682313Y-3772917D01*
X-9693223Y-3763029D01*
X-9724814Y-3735778D01*
X-9736196Y-3726437D01*
X-9769086Y-3700770D01*
X-9780913Y-3691998D01*
X-9815023Y-3667975D01*
X-9827266Y-3659795D01*
X-9862513Y-3637475D01*
X-9875143Y-3629905D01*
X-9911443Y-3609341D01*
X-9924429Y-3602400D01*
X-9961695Y-3583642D01*
X-9975006Y-3577346D01*
X-10013147Y-3560439D01*
X-10026751Y-3554805D01*
X-10065675Y-3539790D01*
X-10079539Y-3534829D01*
X-10119154Y-3521742D01*
X-10133244Y-3517468D01*
X-10173453Y-3506341D01*
X-10187736Y-3502763D01*
X-10228443Y-3493622D01*
X-10242885Y-3490749D01*
X-10283991Y-3483617D01*
X-10298556Y-3481456D01*
X-10339962Y-3476349D01*
X-10354616Y-3474906D01*
X-10396223Y-3471837D01*
X-10410930Y-3471114D01*
X-10452638Y-3470090D01*
X-10467362Y-3470090D01*
X-10509070Y-3471114D01*
X-10523777Y-3471837D01*
X-10565384Y-3474906D01*
X-10580038Y-3476349D01*
X-10621444Y-3481456D01*
X-10636009Y-3483617D01*
X-10677115Y-3490749D01*
X-10691557Y-3493622D01*
X-10732264Y-3502763D01*
X-10746547Y-3506341D01*
X-10786756Y-3517468D01*
X-10800846Y-3521742D01*
X-10840461Y-3534829D01*
X-10854325Y-3539790D01*
X-10893249Y-3554805D01*
X-10906853Y-3560439D01*
X-10944994Y-3577346D01*
X-10958305Y-3583642D01*
X-10995571Y-3602400D01*
X-11008557Y-3609341D01*
X-11044857Y-3629905D01*
X-11057487Y-3637475D01*
X-11092734Y-3659795D01*
X-11104977Y-3667975D01*
X-11139087Y-3691998D01*
X-11150914Y-3700770D01*
X-11183804Y-3726437D01*
X-11195186Y-3735778D01*
X-11226777Y-3763029D01*
X-11237687Y-3772917D01*
X-11267903Y-3801685D01*
X-11278315Y-3812097D01*
X-11307083Y-3842313D01*
X-11316971Y-3853223D01*
X-11344222Y-3884814D01*
X-11353563Y-3896196D01*
X-11379230Y-3929086D01*
X-11388002Y-3940913D01*
X-11412025Y-3975023D01*
X-11420205Y-3987266D01*
X-11442525Y-4022513D01*
X-11450095Y-4035143D01*
X-11470659Y-4071443D01*
X-11477600Y-4084429D01*
X-11496358Y-4121695D01*
X-11502654Y-4135006D01*
X-11519561Y-4173147D01*
X-11525195Y-4186751D01*
X-11540210Y-4225675D01*
X-11545171Y-4239539D01*
X-11558258Y-4279154D01*
X-11562532Y-4293244D01*
X-11573659Y-4333453D01*
X-11577237Y-4347736D01*
X-11586378Y-4388443D01*
X-11589251Y-4402885D01*
X-11596383Y-4443991D01*
X-11598544Y-4458556D01*
X-11603651Y-4499962D01*
X-11605094Y-4514616D01*
X-11608163Y-4556223D01*
X-11608886Y-4570930D01*
X-11609910Y-4612638D01*
X-11609910Y-4627362D01*
X-11608886Y-4669070D01*
X-11608163Y-4683777D01*
X-11605094Y-4725384D01*
X-11603651Y-4740038D01*
X-11598544Y-4781444D01*
X-11596383Y-4796009D01*
X-11589251Y-4837115D01*
X-11586378Y-4851557D01*
X-11577237Y-4892264D01*
X-11573659Y-4906547D01*
X-11562532Y-4946756D01*
X-11558258Y-4960846D01*
X-11545171Y-5000461D01*
X-11540210Y-5014325D01*
X-11525195Y-5053249D01*
X-11519561Y-5066853D01*
X-11502654Y-5104994D01*
X-11496358Y-5118305D01*
X-11477600Y-5155571D01*
X-11470659Y-5168557D01*
X-11450095Y-5204857D01*
X-11442525Y-5217487D01*
X-11420205Y-5252734D01*
X-11412025Y-5264977D01*
X-11388002Y-5299087D01*
X-11379230Y-5310914D01*
X-11353563Y-5343804D01*
X-11344222Y-5355186D01*
X-11316971Y-5386777D01*
X-11307083Y-5397687D01*
X-11278315Y-5427903D01*
X-11267903Y-5438315D01*
X-11237687Y-5467083D01*
X-11226777Y-5476971D01*
X-11195186Y-5504222D01*
X-11183804Y-5513563D01*
X-11150914Y-5539230D01*
X-11139087Y-5548002D01*
X-11104977Y-5572025D01*
X-11092734Y-5580205D01*
X-11057487Y-5602525D01*
X-11044857Y-5610095D01*
X-11008557Y-5630659D01*
X-10995571Y-5637600D01*
X-10958305Y-5656358D01*
X-10944994Y-5662654D01*
X-10906853Y-5679561D01*
X-10893249Y-5685195D01*
X-10854325Y-5700210D01*
X-10840461Y-5705171D01*
X-10800846Y-5718258D01*
X-10786756Y-5722532D01*
X-10746547Y-5733659D01*
X-10732264Y-5737237D01*
X-10691557Y-5746378D01*
X-10677115Y-5749251D01*
X-10636009Y-5756383D01*
X-10621444Y-5758544D01*
X-10580038Y-5763651D01*
X-10565384Y-5765094D01*
X-10523777Y-5768163D01*
X-10509070Y-5768886D01*
X-10467362Y-5769910D01*
X-10452638Y-5769910D01*
X-10410930Y-5768886D01*
X-10396223Y-5768163D01*
X-10354616Y-5765094D01*
X-10339962Y-5763651D01*
X-10298556Y-5758544D01*
X-10283991Y-5756383D01*
X-10242885Y-5749251D01*
X-10228443Y-5746378D01*
X-10187736Y-5737237D01*
X-10173453Y-5733659D01*
X-10133244Y-5722532D01*
X-10119154Y-5718258D01*
X-10079539Y-5705171D01*
X-10065675Y-5700210D01*
X-10026751Y-5685195D01*
X-10013147Y-5679561D01*
X-9975006Y-5662654D01*
X-9961695Y-5656358D01*
X-9924429Y-5637600D01*
X-9911443Y-5630659D01*
X-9875143Y-5610095D01*
X-9862513Y-5602525D01*
X-9827266Y-5580205D01*
X-9815023Y-5572025D01*
X-9780913Y-5548002D01*
X-9769086Y-5539230D01*
X-9736196Y-5513563D01*
X-9724814Y-5504222D01*
X-9693223Y-5476971D01*
X-9682313Y-5467083D01*
X-9652097Y-5438315D01*
X-9641685Y-5427903D01*
X-9612917Y-5397687D01*
X-9603029Y-5386777D01*
X-9575778Y-5355186D01*
X-9566437Y-5343804D01*
X-9540770Y-5310914D01*
X-9531998Y-5299087D01*
X-9507975Y-5264977D01*
X-9499795Y-5252734D01*
X-9477475Y-5217487D01*
X-9469905Y-5204857D01*
X-9449341Y-5168557D01*
X-9442400Y-5155571D01*
X-9423642Y-5118305D01*
X-9417346Y-5104994D01*
X-9400439Y-5066853D01*
X-9394805Y-5053249D01*
X-9379790Y-5014325D01*
X-9374829Y-5000461D01*
X-9361742Y-4960846D01*
X-9357468Y-4946756D01*
X-9346341Y-4906547D01*
X-9342763Y-4892264D01*
X-9333622Y-4851557D01*
X-9330749Y-4837115D01*
X-9323617Y-4796009D01*
X-9321456Y-4781444D01*
X-9316349Y-4740038D01*
X-9314906Y-4725384D01*
X-9311837Y-4683777D01*
X-9311114Y-4669070D01*
X-9310090Y-4627362D01*
X-9310090Y-4612638D01*
X-9311114Y-4570930D01*
X-9311837Y-4556223D01*
X-9314906Y-4514616D01*
G37*
%LPC*%
G36*
X-11854906Y10725384D02*
G01*
X-11856349Y10740038D01*
X-11861456Y10781444D01*
X-11863617Y10796009D01*
X-11870749Y10837115D01*
X-11873622Y10851557D01*
X-11882763Y10892264D01*
X-11886341Y10906547D01*
X-11897468Y10946756D01*
X-11901742Y10960846D01*
X-11914829Y11000461D01*
X-11919790Y11014325D01*
X-11934805Y11053249D01*
X-11940439Y11066853D01*
X-11957346Y11104994D01*
X-11963642Y11118305D01*
X-11982400Y11155571D01*
X-11989341Y11168557D01*
X-12009905Y11204857D01*
X-12017475Y11217487D01*
X-12039795Y11252734D01*
X-12047975Y11264977D01*
X-12071998Y11299087D01*
X-12080770Y11310914D01*
X-12106437Y11343804D01*
X-12115778Y11355186D01*
X-12143029Y11386777D01*
X-12152917Y11397687D01*
X-12181685Y11427903D01*
X-12192097Y11438315D01*
X-12222313Y11467083D01*
X-12233223Y11476971D01*
X-12264814Y11504222D01*
X-12276196Y11513563D01*
X-12309086Y11539230D01*
X-12320913Y11548002D01*
X-12355023Y11572025D01*
X-12367266Y11580205D01*
X-12402513Y11602525D01*
X-12415143Y11610095D01*
X-12451443Y11630659D01*
X-12464429Y11637600D01*
X-12501695Y11656358D01*
X-12515006Y11662654D01*
X-12553147Y11679561D01*
X-12566751Y11685195D01*
X-12605675Y11700210D01*
X-12619539Y11705171D01*
X-12659154Y11718258D01*
X-12673244Y11722532D01*
X-12713453Y11733659D01*
X-12727736Y11737237D01*
X-12768443Y11746378D01*
X-12782885Y11749251D01*
X-12823991Y11756383D01*
X-12838556Y11758544D01*
X-12879962Y11763651D01*
X-12894616Y11765094D01*
X-12936223Y11768163D01*
X-12950930Y11768886D01*
X-12992638Y11769910D01*
X-13007362Y11769910D01*
X-13049070Y11768886D01*
X-13063777Y11768163D01*
X-13105384Y11765094D01*
X-13120038Y11763651D01*
X-13161444Y11758544D01*
X-13176009Y11756383D01*
X-13217115Y11749251D01*
X-13231557Y11746378D01*
X-13272264Y11737237D01*
X-13286547Y11733659D01*
X-13326756Y11722532D01*
X-13340846Y11718258D01*
X-13380461Y11705171D01*
X-13394325Y11700210D01*
X-13433249Y11685195D01*
X-13446853Y11679561D01*
X-13484994Y11662654D01*
X-13498305Y11656358D01*
X-13535571Y11637600D01*
X-13548557Y11630659D01*
X-13584857Y11610095D01*
X-13597487Y11602525D01*
X-13632734Y11580205D01*
X-13644977Y11572025D01*
X-13679087Y11548002D01*
X-13690914Y11539230D01*
X-13723804Y11513563D01*
X-13735186Y11504222D01*
X-13766777Y11476971D01*
X-13777687Y11467083D01*
X-13807903Y11438315D01*
X-13818315Y11427903D01*
X-13847083Y11397687D01*
X-13856971Y11386777D01*
X-13884222Y11355186D01*
X-13893563Y11343804D01*
X-13919230Y11310914D01*
X-13928002Y11299087D01*
X-13952025Y11264977D01*
X-13960205Y11252734D01*
X-13982525Y11217487D01*
X-13990095Y11204857D01*
X-14010659Y11168557D01*
X-14017600Y11155571D01*
X-14036358Y11118305D01*
X-14042654Y11104994D01*
X-14059561Y11066853D01*
X-14065195Y11053249D01*
X-14080210Y11014325D01*
X-14085171Y11000461D01*
X-14098258Y10960846D01*
X-14102532Y10946756D01*
X-14113659Y10906547D01*
X-14117237Y10892264D01*
X-14126378Y10851557D01*
X-14129251Y10837115D01*
X-14136383Y10796009D01*
X-14138544Y10781444D01*
X-14143651Y10740038D01*
X-14145094Y10725384D01*
X-14148163Y10683777D01*
X-14148886Y10669070D01*
X-14149910Y10627362D01*
X-14149910Y10612638D01*
X-14148886Y10570930D01*
X-14148163Y10556223D01*
X-14145094Y10514616D01*
X-14143651Y10499962D01*
X-14138544Y10458556D01*
X-14136383Y10443991D01*
X-14129251Y10402885D01*
X-14126378Y10388443D01*
X-14117237Y10347736D01*
X-14113659Y10333453D01*
X-14102532Y10293244D01*
X-14098258Y10279154D01*
X-14085171Y10239539D01*
X-14080210Y10225675D01*
X-14065195Y10186751D01*
X-14059561Y10173147D01*
X-14042654Y10135006D01*
X-14036358Y10121695D01*
X-14017600Y10084429D01*
X-14010659Y10071443D01*
X-13990095Y10035143D01*
X-13982525Y10022513D01*
X-13960205Y9987266D01*
X-13952025Y9975023D01*
X-13928002Y9940913D01*
X-13919230Y9929086D01*
X-13893563Y9896196D01*
X-13884222Y9884814D01*
X-13856971Y9853223D01*
X-13847083Y9842313D01*
X-13818315Y9812097D01*
X-13807903Y9801685D01*
X-13777687Y9772917D01*
X-13766777Y9763029D01*
X-13735186Y9735778D01*
X-13723804Y9726437D01*
X-13690914Y9700770D01*
X-13679087Y9691998D01*
X-13644977Y9667975D01*
X-13632734Y9659795D01*
X-13597487Y9637475D01*
X-13584857Y9629905D01*
X-13548557Y9609341D01*
X-13535571Y9602400D01*
X-13498305Y9583642D01*
X-13484994Y9577346D01*
X-13446853Y9560439D01*
X-13433249Y9554805D01*
X-13394325Y9539790D01*
X-13380461Y9534829D01*
X-13340846Y9521742D01*
X-13326756Y9517468D01*
X-13286547Y9506341D01*
X-13272264Y9502763D01*
X-13231557Y9493622D01*
X-13217115Y9490749D01*
X-13176009Y9483617D01*
X-13161444Y9481456D01*
X-13120038Y9476349D01*
X-13105384Y9474906D01*
X-13063777Y9471837D01*
X-13049070Y9471114D01*
X-13007362Y9470090D01*
X-12992638Y9470090D01*
X-12950930Y9471114D01*
X-12936223Y9471837D01*
X-12894616Y9474906D01*
X-12879962Y9476349D01*
X-12838556Y9481456D01*
X-12823991Y9483617D01*
X-12782885Y9490749D01*
X-12768443Y9493622D01*
X-12727736Y9502763D01*
X-12713453Y9506341D01*
X-12673244Y9517468D01*
X-12659154Y9521742D01*
X-12619539Y9534829D01*
X-12605675Y9539790D01*
X-12566751Y9554805D01*
X-12553147Y9560439D01*
X-12515006Y9577346D01*
X-12501695Y9583642D01*
X-12464429Y9602400D01*
X-12451443Y9609341D01*
X-12415143Y9629905D01*
X-12402513Y9637475D01*
X-12367266Y9659795D01*
X-12355023Y9667975D01*
X-12320913Y9691998D01*
X-12309086Y9700770D01*
X-12276196Y9726437D01*
X-12264814Y9735778D01*
X-12233223Y9763029D01*
X-12222313Y9772917D01*
X-12192097Y9801685D01*
X-12181685Y9812097D01*
X-12152917Y9842313D01*
X-12143029Y9853223D01*
X-12115778Y9884814D01*
X-12106437Y9896196D01*
X-12080770Y9929086D01*
X-12071998Y9940913D01*
X-12047975Y9975023D01*
X-12039795Y9987266D01*
X-12017475Y10022513D01*
X-12009905Y10035143D01*
X-11989341Y10071443D01*
X-11982400Y10084429D01*
X-11963642Y10121695D01*
X-11957346Y10135006D01*
X-11940439Y10173147D01*
X-11934805Y10186751D01*
X-11919790Y10225675D01*
X-11914829Y10239539D01*
X-11901742Y10279154D01*
X-11897468Y10293244D01*
X-11886341Y10333453D01*
X-11882763Y10347736D01*
X-11873622Y10388443D01*
X-11870749Y10402885D01*
X-11863617Y10443991D01*
X-11861456Y10458556D01*
X-11856349Y10499962D01*
X-11854906Y10514616D01*
X-11851837Y10556223D01*
X-11851114Y10570930D01*
X-11850090Y10612638D01*
X-11850090Y10627362D01*
X-11851114Y10669070D01*
X-11851837Y10683777D01*
X-11854906Y10725384D01*
G37*
%LPC*%
G36*
X-9311837Y10683777D02*
G01*
X-9314906Y10725384D01*
X-9316349Y10740038D01*
X-9321456Y10781444D01*
X-9323617Y10796009D01*
X-9330749Y10837115D01*
X-9333622Y10851557D01*
X-9342763Y10892264D01*
X-9346341Y10906547D01*
X-9357468Y10946756D01*
X-9361742Y10960846D01*
X-9374829Y11000461D01*
X-9379790Y11014325D01*
X-9394805Y11053249D01*
X-9400439Y11066853D01*
X-9417346Y11104994D01*
X-9423642Y11118305D01*
X-9442400Y11155571D01*
X-9449341Y11168557D01*
X-9469905Y11204857D01*
X-9477475Y11217487D01*
X-9499795Y11252734D01*
X-9507975Y11264977D01*
X-9531998Y11299087D01*
X-9540770Y11310914D01*
X-9566437Y11343804D01*
X-9575778Y11355186D01*
X-9603029Y11386777D01*
X-9612917Y11397687D01*
X-9641685Y11427903D01*
X-9652097Y11438315D01*
X-9682313Y11467083D01*
X-9693223Y11476971D01*
X-9724814Y11504222D01*
X-9736196Y11513563D01*
X-9769086Y11539230D01*
X-9780913Y11548002D01*
X-9815023Y11572025D01*
X-9827266Y11580205D01*
X-9862513Y11602525D01*
X-9875143Y11610095D01*
X-9911443Y11630659D01*
X-9924429Y11637600D01*
X-9961695Y11656358D01*
X-9975006Y11662654D01*
X-10013147Y11679561D01*
X-10026751Y11685195D01*
X-10065675Y11700210D01*
X-10079539Y11705171D01*
X-10119154Y11718258D01*
X-10133244Y11722532D01*
X-10173453Y11733659D01*
X-10187736Y11737237D01*
X-10228443Y11746378D01*
X-10242885Y11749251D01*
X-10283991Y11756383D01*
X-10298556Y11758544D01*
X-10339962Y11763651D01*
X-10354616Y11765094D01*
X-10396223Y11768163D01*
X-10410930Y11768886D01*
X-10452638Y11769910D01*
X-10467362Y11769910D01*
X-10509070Y11768886D01*
X-10523777Y11768163D01*
X-10565384Y11765094D01*
X-10580038Y11763651D01*
X-10621444Y11758544D01*
X-10636009Y11756383D01*
X-10677115Y11749251D01*
X-10691557Y11746378D01*
X-10732264Y11737237D01*
X-10746547Y11733659D01*
X-10786756Y11722532D01*
X-10800846Y11718258D01*
X-10840461Y11705171D01*
X-10854325Y11700210D01*
X-10893249Y11685195D01*
X-10906853Y11679561D01*
X-10944994Y11662654D01*
X-10958305Y11656358D01*
X-10995571Y11637600D01*
X-11008557Y11630659D01*
X-11044857Y11610095D01*
X-11057487Y11602525D01*
X-11092734Y11580205D01*
X-11104977Y11572025D01*
X-11139087Y11548002D01*
X-11150914Y11539230D01*
X-11183804Y11513563D01*
X-11195186Y11504222D01*
X-11226777Y11476971D01*
X-11237687Y11467083D01*
X-11267903Y11438315D01*
X-11278315Y11427903D01*
X-11307083Y11397687D01*
X-11316971Y11386777D01*
X-11344222Y11355186D01*
X-11353563Y11343804D01*
X-11379230Y11310914D01*
X-11388002Y11299087D01*
X-11412025Y11264977D01*
X-11420205Y11252734D01*
X-11442525Y11217487D01*
X-11450095Y11204857D01*
X-11470659Y11168557D01*
X-11477600Y11155571D01*
X-11496358Y11118305D01*
X-11502654Y11104994D01*
X-11519561Y11066853D01*
X-11525195Y11053249D01*
X-11540210Y11014325D01*
X-11545171Y11000461D01*
X-11558258Y10960846D01*
X-11562532Y10946756D01*
X-11573659Y10906547D01*
X-11577237Y10892264D01*
X-11586378Y10851557D01*
X-11589251Y10837115D01*
X-11596383Y10796009D01*
X-11598544Y10781444D01*
X-11603651Y10740038D01*
X-11605094Y10725384D01*
X-11608163Y10683777D01*
X-11608886Y10669070D01*
X-11609910Y10627362D01*
X-11609910Y10612638D01*
X-11608886Y10570930D01*
X-11608163Y10556223D01*
X-11605094Y10514616D01*
X-11603651Y10499962D01*
X-11598544Y10458556D01*
X-11596383Y10443991D01*
X-11589251Y10402885D01*
X-11586378Y10388443D01*
X-11577237Y10347736D01*
X-11573659Y10333453D01*
X-11562532Y10293244D01*
X-11558258Y10279154D01*
X-11545171Y10239539D01*
X-11540210Y10225675D01*
X-11525195Y10186751D01*
X-11519561Y10173147D01*
X-11502654Y10135006D01*
X-11496358Y10121695D01*
X-11477600Y10084429D01*
X-11470659Y10071443D01*
X-11450095Y10035143D01*
X-11442525Y10022513D01*
X-11420205Y9987266D01*
X-11412025Y9975023D01*
X-11388002Y9940913D01*
X-11379230Y9929086D01*
X-11353563Y9896196D01*
X-11344222Y9884814D01*
X-11316971Y9853223D01*
X-11307083Y9842313D01*
X-11278315Y9812097D01*
X-11267903Y9801685D01*
X-11237687Y9772917D01*
X-11226777Y9763029D01*
X-11195186Y9735778D01*
X-11183804Y9726437D01*
X-11150914Y9700770D01*
X-11139087Y9691998D01*
X-11104977Y9667975D01*
X-11092734Y9659795D01*
X-11057487Y9637475D01*
X-11044857Y9629905D01*
X-11008557Y9609341D01*
X-10995571Y9602400D01*
X-10958305Y9583642D01*
X-10944994Y9577346D01*
X-10906853Y9560439D01*
X-10893249Y9554805D01*
X-10854325Y9539790D01*
X-10840461Y9534829D01*
X-10800846Y9521742D01*
X-10786756Y9517468D01*
X-10746547Y9506341D01*
X-10732264Y9502763D01*
X-10691557Y9493622D01*
X-10677115Y9490749D01*
X-10636009Y9483617D01*
X-10621444Y9481456D01*
X-10580038Y9476349D01*
X-10565384Y9474906D01*
X-10523777Y9471837D01*
X-10509070Y9471114D01*
X-10467362Y9470090D01*
X-10452638Y9470090D01*
X-10410930Y9471114D01*
X-10396223Y9471837D01*
X-10354616Y9474906D01*
X-10339962Y9476349D01*
X-10298556Y9481456D01*
X-10283991Y9483617D01*
X-10242885Y9490749D01*
X-10228443Y9493622D01*
X-10187736Y9502763D01*
X-10173453Y9506341D01*
X-10133244Y9517468D01*
X-10119154Y9521742D01*
X-10079539Y9534829D01*
X-10065675Y9539790D01*
X-10026751Y9554805D01*
X-10013147Y9560439D01*
X-9975006Y9577346D01*
X-9961695Y9583642D01*
X-9924429Y9602400D01*
X-9911443Y9609341D01*
X-9875143Y9629905D01*
X-9862513Y9637475D01*
X-9827266Y9659795D01*
X-9815023Y9667975D01*
X-9780913Y9691998D01*
X-9769086Y9700770D01*
X-9736196Y9726437D01*
X-9724814Y9735778D01*
X-9693223Y9763029D01*
X-9682313Y9772917D01*
X-9652097Y9801685D01*
X-9641685Y9812097D01*
X-9612917Y9842313D01*
X-9603029Y9853223D01*
X-9575778Y9884814D01*
X-9566437Y9896196D01*
X-9540770Y9929086D01*
X-9531998Y9940913D01*
X-9507975Y9975023D01*
X-9499795Y9987266D01*
X-9477475Y10022513D01*
X-9469905Y10035143D01*
X-9449341Y10071443D01*
X-9442400Y10084429D01*
X-9423642Y10121695D01*
X-9417346Y10135006D01*
X-9400439Y10173147D01*
X-9394805Y10186751D01*
X-9379790Y10225675D01*
X-9374829Y10239539D01*
X-9361742Y10279154D01*
X-9357468Y10293244D01*
X-9346341Y10333453D01*
X-9342763Y10347736D01*
X-9333622Y10388443D01*
X-9330749Y10402885D01*
X-9323617Y10443991D01*
X-9321456Y10458556D01*
X-9316349Y10499962D01*
X-9314906Y10514616D01*
X-9311837Y10556223D01*
X-9311114Y10570930D01*
X-9310090Y10612638D01*
X-9310090Y10627362D01*
X-9311114Y10669070D01*
X-9311837Y10683777D01*
G37*
%LPC*%
G36*
X-19471837Y10683777D02*
G01*
X-19474906Y10725384D01*
X-19476349Y10740038D01*
X-19481456Y10781444D01*
X-19483617Y10796009D01*
X-19490749Y10837115D01*
X-19493622Y10851557D01*
X-19502763Y10892264D01*
X-19506341Y10906547D01*
X-19517468Y10946756D01*
X-19521742Y10960846D01*
X-19534829Y11000461D01*
X-19539790Y11014325D01*
X-19554805Y11053249D01*
X-19560439Y11066853D01*
X-19577346Y11104994D01*
X-19583642Y11118305D01*
X-19602400Y11155571D01*
X-19609341Y11168557D01*
X-19629905Y11204857D01*
X-19637475Y11217487D01*
X-19659795Y11252734D01*
X-19667975Y11264977D01*
X-19691998Y11299087D01*
X-19700770Y11310914D01*
X-19726437Y11343804D01*
X-19735778Y11355186D01*
X-19763029Y11386777D01*
X-19772917Y11397687D01*
X-19801685Y11427903D01*
X-19812097Y11438315D01*
X-19842313Y11467083D01*
X-19853223Y11476971D01*
X-19884814Y11504222D01*
X-19896196Y11513563D01*
X-19929086Y11539230D01*
X-19940913Y11548002D01*
X-19975023Y11572025D01*
X-19987266Y11580205D01*
X-20022513Y11602525D01*
X-20035143Y11610095D01*
X-20071443Y11630659D01*
X-20084429Y11637600D01*
X-20121695Y11656358D01*
X-20135006Y11662654D01*
X-20173147Y11679561D01*
X-20186751Y11685195D01*
X-20225675Y11700210D01*
X-20239539Y11705171D01*
X-20279154Y11718258D01*
X-20293244Y11722532D01*
X-20333453Y11733659D01*
X-20347736Y11737237D01*
X-20388443Y11746378D01*
X-20402885Y11749251D01*
X-20443991Y11756383D01*
X-20458556Y11758544D01*
X-20499962Y11763651D01*
X-20514616Y11765094D01*
X-20556223Y11768163D01*
X-20570930Y11768886D01*
X-20612638Y11769910D01*
X-20627362Y11769910D01*
X-20669070Y11768886D01*
X-20683777Y11768163D01*
X-20725384Y11765094D01*
X-20740038Y11763651D01*
X-20781444Y11758544D01*
X-20796009Y11756383D01*
X-20837115Y11749251D01*
X-20851557Y11746378D01*
X-20892264Y11737237D01*
X-20906547Y11733659D01*
X-20946756Y11722532D01*
X-20960846Y11718258D01*
X-21000461Y11705171D01*
X-21014325Y11700210D01*
X-21053249Y11685195D01*
X-21066853Y11679561D01*
X-21104994Y11662654D01*
X-21118305Y11656358D01*
X-21155571Y11637600D01*
X-21168557Y11630659D01*
X-21204857Y11610095D01*
X-21217487Y11602525D01*
X-21252734Y11580205D01*
X-21264977Y11572025D01*
X-21299087Y11548002D01*
X-21310914Y11539230D01*
X-21343804Y11513563D01*
X-21355186Y11504222D01*
X-21386777Y11476971D01*
X-21397687Y11467083D01*
X-21427903Y11438315D01*
X-21438315Y11427903D01*
X-21467083Y11397687D01*
X-21476971Y11386777D01*
X-21504222Y11355186D01*
X-21513563Y11343804D01*
X-21539230Y11310914D01*
X-21548002Y11299087D01*
X-21572025Y11264977D01*
X-21580205Y11252734D01*
X-21602525Y11217487D01*
X-21610095Y11204857D01*
X-21630659Y11168557D01*
X-21637600Y11155571D01*
X-21656358Y11118305D01*
X-21662654Y11104994D01*
X-21679561Y11066853D01*
X-21685195Y11053249D01*
X-21700210Y11014325D01*
X-21705171Y11000461D01*
X-21718258Y10960846D01*
X-21722532Y10946756D01*
X-21733659Y10906547D01*
X-21737237Y10892264D01*
X-21746378Y10851557D01*
X-21749251Y10837115D01*
X-21756383Y10796009D01*
X-21758544Y10781444D01*
X-21763651Y10740038D01*
X-21765094Y10725384D01*
X-21768163Y10683777D01*
X-21768886Y10669070D01*
X-21769910Y10627362D01*
X-21769910Y10612638D01*
X-21768886Y10570930D01*
X-21768163Y10556223D01*
X-21765094Y10514616D01*
X-21763651Y10499962D01*
X-21758544Y10458556D01*
X-21756383Y10443991D01*
X-21749251Y10402885D01*
X-21746378Y10388443D01*
X-21737237Y10347736D01*
X-21733659Y10333453D01*
X-21722532Y10293244D01*
X-21718258Y10279154D01*
X-21705171Y10239539D01*
X-21700210Y10225675D01*
X-21685195Y10186751D01*
X-21679561Y10173147D01*
X-21662654Y10135006D01*
X-21656358Y10121695D01*
X-21637600Y10084429D01*
X-21630659Y10071443D01*
X-21610095Y10035143D01*
X-21602525Y10022513D01*
X-21580205Y9987266D01*
X-21572025Y9975023D01*
X-21548002Y9940913D01*
X-21539230Y9929086D01*
X-21513563Y9896196D01*
X-21504222Y9884814D01*
X-21476971Y9853223D01*
X-21467083Y9842313D01*
X-21438315Y9812097D01*
X-21427903Y9801685D01*
X-21397687Y9772917D01*
X-21386777Y9763029D01*
X-21355186Y9735778D01*
X-21343804Y9726437D01*
X-21310914Y9700770D01*
X-21299087Y9691998D01*
X-21264977Y9667975D01*
X-21252734Y9659795D01*
X-21217487Y9637475D01*
X-21204857Y9629905D01*
X-21168557Y9609341D01*
X-21155571Y9602400D01*
X-21118305Y9583642D01*
X-21104994Y9577346D01*
X-21066853Y9560439D01*
X-21053249Y9554805D01*
X-21014325Y9539790D01*
X-21000461Y9534829D01*
X-20960846Y9521742D01*
X-20946756Y9517468D01*
X-20906547Y9506341D01*
X-20892264Y9502763D01*
X-20851557Y9493622D01*
X-20837115Y9490749D01*
X-20796009Y9483617D01*
X-20781444Y9481456D01*
X-20740038Y9476349D01*
X-20725384Y9474906D01*
X-20683777Y9471837D01*
X-20669070Y9471114D01*
X-20627362Y9470090D01*
X-20612638Y9470090D01*
X-20570930Y9471114D01*
X-20556223Y9471837D01*
X-20514616Y9474906D01*
X-20499962Y9476349D01*
X-20458556Y9481456D01*
X-20443991Y9483617D01*
X-20402885Y9490749D01*
X-20388443Y9493622D01*
X-20347736Y9502763D01*
X-20333453Y9506341D01*
X-20293244Y9517468D01*
X-20279154Y9521742D01*
X-20239539Y9534829D01*
X-20225675Y9539790D01*
X-20186751Y9554805D01*
X-20173147Y9560439D01*
X-20135006Y9577346D01*
X-20121695Y9583642D01*
X-20084429Y9602400D01*
X-20071443Y9609341D01*
X-20035143Y9629905D01*
X-20022513Y9637475D01*
X-19987266Y9659795D01*
X-19975023Y9667975D01*
X-19940913Y9691998D01*
X-19929086Y9700770D01*
X-19896196Y9726437D01*
X-19884814Y9735778D01*
X-19853223Y9763029D01*
X-19842313Y9772917D01*
X-19812097Y9801685D01*
X-19801685Y9812097D01*
X-19772917Y9842313D01*
X-19763029Y9853223D01*
X-19735778Y9884814D01*
X-19726437Y9896196D01*
X-19700770Y9929086D01*
X-19691998Y9940913D01*
X-19667975Y9975023D01*
X-19659795Y9987266D01*
X-19637475Y10022513D01*
X-19629905Y10035143D01*
X-19609341Y10071443D01*
X-19602400Y10084429D01*
X-19583642Y10121695D01*
X-19577346Y10135006D01*
X-19560439Y10173147D01*
X-19554805Y10186751D01*
X-19539790Y10225675D01*
X-19534829Y10239539D01*
X-19521742Y10279154D01*
X-19517468Y10293244D01*
X-19506341Y10333453D01*
X-19502763Y10347736D01*
X-19493622Y10388443D01*
X-19490749Y10402885D01*
X-19483617Y10443991D01*
X-19481456Y10458556D01*
X-19476349Y10499962D01*
X-19474906Y10514616D01*
X-19471837Y10556223D01*
X-19471114Y10570930D01*
X-19470090Y10612638D01*
X-19470090Y10627362D01*
X-19471114Y10669070D01*
X-19471837Y10683777D01*
G37*
%LPC*%
G36*
X-20633966Y16066055D02*
G01*
X-20698435Y16246233D01*
X-20780254Y16419224D01*
X-20878634Y16583362D01*
X-20992630Y16737067D01*
X-21121142Y16878858D01*
X-21262933Y17007370D01*
X-21416638Y17121366D01*
X-21580776Y17219746D01*
X-21753767Y17301565D01*
X-21933945Y17366034D01*
X-22119574Y17412531D01*
X-22308867Y17440610D01*
X-22500000Y17450000D01*
X-22691133Y17440610D01*
X-22880426Y17412531D01*
X-23066055Y17366034D01*
X-23246233Y17301565D01*
X-23419224Y17219746D01*
X-23583362Y17121366D01*
X-23737067Y17007370D01*
X-23878858Y16878858D01*
X-24007370Y16737067D01*
X-24121366Y16583362D01*
X-24219746Y16419224D01*
X-24301565Y16246233D01*
X-24366034Y16066055D01*
X-24412531Y15880426D01*
X-24440610Y15691133D01*
X-24450000Y15500000D01*
X-24440610Y15308867D01*
X-24412531Y15119574D01*
X-24366034Y14933945D01*
X-24301565Y14753767D01*
X-24219746Y14580776D01*
X-24121366Y14416638D01*
X-24007370Y14262933D01*
X-23878858Y14121142D01*
X-23737067Y13992630D01*
X-23583362Y13878634D01*
X-23419224Y13780254D01*
X-23246233Y13698435D01*
X-23066055Y13633966D01*
X-22880426Y13587469D01*
X-22691133Y13559390D01*
X-22500000Y13550000D01*
X-22308867Y13559390D01*
X-22119574Y13587469D01*
X-21933945Y13633966D01*
X-21753767Y13698435D01*
X-21580776Y13780254D01*
X-21416638Y13878634D01*
X-21262933Y13992630D01*
X-21121142Y14121142D01*
X-20992630Y14262933D01*
X-20878634Y14416638D01*
X-20780254Y14580776D01*
X-20698435Y14753767D01*
X-20633966Y14933945D01*
X-20587469Y15119574D01*
X-20559390Y15308867D01*
X-20550000Y15500000D01*
X-20559390Y15691133D01*
X-20587469Y15880426D01*
X-20633966Y16066055D01*
G37*
%LPC*%
G36*
X-6474906Y-18894616D02*
G01*
X-6476349Y-18879962D01*
X-6481456Y-18838556D01*
X-6483617Y-18823991D01*
X-6490749Y-18782885D01*
X-6493622Y-18768443D01*
X-6502763Y-18727736D01*
X-6506341Y-18713453D01*
X-6517468Y-18673244D01*
X-6521742Y-18659154D01*
X-6534829Y-18619539D01*
X-6539790Y-18605675D01*
X-6554805Y-18566751D01*
X-6560439Y-18553147D01*
X-6577346Y-18515006D01*
X-6583642Y-18501695D01*
X-6602400Y-18464429D01*
X-6609341Y-18451443D01*
X-6629905Y-18415143D01*
X-6637475Y-18402513D01*
X-6659795Y-18367266D01*
X-6667975Y-18355023D01*
X-6691998Y-18320913D01*
X-6700770Y-18309086D01*
X-6726437Y-18276196D01*
X-6735778Y-18264814D01*
X-6763029Y-18233223D01*
X-6772917Y-18222313D01*
X-6801685Y-18192097D01*
X-6812097Y-18181685D01*
X-6842313Y-18152917D01*
X-6853223Y-18143029D01*
X-6884814Y-18115778D01*
X-6896196Y-18106437D01*
X-6929086Y-18080770D01*
X-6940913Y-18071998D01*
X-6975023Y-18047975D01*
X-6987266Y-18039795D01*
X-7022513Y-18017475D01*
X-7035143Y-18009905D01*
X-7071443Y-17989341D01*
X-7084429Y-17982400D01*
X-7121695Y-17963642D01*
X-7135006Y-17957346D01*
X-7173147Y-17940439D01*
X-7186751Y-17934805D01*
X-7225675Y-17919790D01*
X-7239539Y-17914829D01*
X-7279154Y-17901742D01*
X-7293244Y-17897468D01*
X-7333453Y-17886341D01*
X-7347736Y-17882763D01*
X-7388443Y-17873622D01*
X-7402885Y-17870749D01*
X-7443991Y-17863617D01*
X-7458556Y-17861456D01*
X-7499962Y-17856349D01*
X-7514616Y-17854906D01*
X-7556223Y-17851837D01*
X-7570930Y-17851114D01*
X-7612638Y-17850090D01*
X-7627362Y-17850090D01*
X-7669070Y-17851114D01*
X-7683777Y-17851837D01*
X-7725384Y-17854906D01*
X-7740038Y-17856349D01*
X-7781444Y-17861456D01*
X-7796009Y-17863617D01*
X-7837115Y-17870749D01*
X-7851557Y-17873622D01*
X-7892264Y-17882763D01*
X-7906547Y-17886341D01*
X-7946756Y-17897468D01*
X-7960846Y-17901742D01*
X-8000461Y-17914829D01*
X-8014325Y-17919790D01*
X-8053249Y-17934805D01*
X-8066853Y-17940439D01*
X-8104994Y-17957346D01*
X-8118305Y-17963642D01*
X-8155571Y-17982400D01*
X-8168557Y-17989341D01*
X-8204857Y-18009905D01*
X-8217487Y-18017475D01*
X-8252734Y-18039795D01*
X-8264977Y-18047975D01*
X-8299087Y-18071998D01*
X-8310914Y-18080770D01*
X-8343804Y-18106437D01*
X-8355186Y-18115778D01*
X-8386777Y-18143029D01*
X-8397687Y-18152917D01*
X-8427903Y-18181685D01*
X-8438315Y-18192097D01*
X-8467083Y-18222313D01*
X-8476971Y-18233223D01*
X-8504222Y-18264814D01*
X-8513563Y-18276196D01*
X-8539230Y-18309086D01*
X-8548002Y-18320913D01*
X-8572025Y-18355023D01*
X-8580205Y-18367266D01*
X-8602525Y-18402513D01*
X-8610095Y-18415143D01*
X-8630659Y-18451443D01*
X-8637600Y-18464429D01*
X-8656358Y-18501695D01*
X-8662654Y-18515006D01*
X-8679561Y-18553147D01*
X-8685195Y-18566751D01*
X-8700210Y-18605675D01*
X-8705171Y-18619539D01*
X-8718258Y-18659154D01*
X-8722532Y-18673244D01*
X-8733659Y-18713453D01*
X-8737237Y-18727736D01*
X-8746378Y-18768443D01*
X-8749251Y-18782885D01*
X-8756383Y-18823991D01*
X-8758544Y-18838556D01*
X-8763651Y-18879962D01*
X-8765094Y-18894616D01*
X-8768163Y-18936223D01*
X-8768886Y-18950930D01*
X-8769910Y-18992638D01*
X-8769910Y-19007362D01*
X-8768886Y-19049070D01*
X-8768163Y-19063777D01*
X-8765094Y-19105384D01*
X-8763651Y-19120038D01*
X-8758544Y-19161444D01*
X-8756383Y-19176009D01*
X-8749251Y-19217115D01*
X-8746378Y-19231557D01*
X-8737237Y-19272264D01*
X-8733659Y-19286547D01*
X-8722532Y-19326756D01*
X-8718258Y-19340846D01*
X-8705171Y-19380461D01*
X-8700210Y-19394325D01*
X-8685195Y-19433249D01*
X-8679561Y-19446853D01*
X-8662654Y-19484994D01*
X-8656358Y-19498305D01*
X-8637600Y-19535571D01*
X-8630659Y-19548557D01*
X-8610095Y-19584857D01*
X-8602525Y-19597487D01*
X-8580205Y-19632734D01*
X-8572025Y-19644977D01*
X-8548002Y-19679087D01*
X-8539230Y-19690914D01*
X-8513563Y-19723804D01*
X-8504222Y-19735186D01*
X-8476971Y-19766777D01*
X-8467083Y-19777687D01*
X-8438315Y-19807903D01*
X-8427903Y-19818315D01*
X-8397687Y-19847083D01*
X-8386777Y-19856971D01*
X-8355186Y-19884222D01*
X-8343804Y-19893563D01*
X-8310914Y-19919230D01*
X-8299087Y-19928002D01*
X-8264977Y-19952025D01*
X-8252734Y-19960205D01*
X-8217487Y-19982525D01*
X-8204857Y-19990095D01*
X-8168557Y-20010659D01*
X-8155571Y-20017600D01*
X-8118305Y-20036358D01*
X-8104994Y-20042654D01*
X-8066853Y-20059561D01*
X-8053249Y-20065195D01*
X-8014325Y-20080210D01*
X-8000461Y-20085171D01*
X-7960846Y-20098258D01*
X-7946756Y-20102532D01*
X-7906547Y-20113659D01*
X-7892264Y-20117237D01*
X-7851557Y-20126378D01*
X-7837115Y-20129251D01*
X-7796009Y-20136383D01*
X-7781444Y-20138544D01*
X-7740038Y-20143651D01*
X-7725384Y-20145094D01*
X-7683777Y-20148163D01*
X-7669070Y-20148886D01*
X-7627362Y-20149910D01*
X-7612638Y-20149910D01*
X-7570930Y-20148886D01*
X-7556223Y-20148163D01*
X-7514616Y-20145094D01*
X-7499962Y-20143651D01*
X-7458556Y-20138544D01*
X-7443991Y-20136383D01*
X-7402885Y-20129251D01*
X-7388443Y-20126378D01*
X-7347736Y-20117237D01*
X-7333453Y-20113659D01*
X-7293244Y-20102532D01*
X-7279154Y-20098258D01*
X-7239539Y-20085171D01*
X-7225675Y-20080210D01*
X-7186751Y-20065195D01*
X-7173147Y-20059561D01*
X-7135006Y-20042654D01*
X-7121695Y-20036358D01*
X-7084429Y-20017600D01*
X-7071443Y-20010659D01*
X-7035143Y-19990095D01*
X-7022513Y-19982525D01*
X-6987266Y-19960205D01*
X-6975023Y-19952025D01*
X-6940913Y-19928002D01*
X-6929086Y-19919230D01*
X-6896196Y-19893563D01*
X-6884814Y-19884222D01*
X-6853223Y-19856971D01*
X-6842313Y-19847083D01*
X-6812097Y-19818315D01*
X-6801685Y-19807903D01*
X-6772917Y-19777687D01*
X-6763029Y-19766777D01*
X-6735778Y-19735186D01*
X-6726437Y-19723804D01*
X-6700770Y-19690914D01*
X-6691998Y-19679087D01*
X-6667975Y-19644977D01*
X-6659795Y-19632734D01*
X-6637475Y-19597487D01*
X-6629905Y-19584857D01*
X-6609341Y-19548557D01*
X-6602400Y-19535571D01*
X-6583642Y-19498305D01*
X-6577346Y-19484994D01*
X-6560439Y-19446853D01*
X-6554805Y-19433249D01*
X-6539790Y-19394325D01*
X-6534829Y-19380461D01*
X-6521742Y-19340846D01*
X-6517468Y-19326756D01*
X-6506341Y-19286547D01*
X-6502763Y-19272264D01*
X-6493622Y-19231557D01*
X-6490749Y-19217115D01*
X-6483617Y-19176009D01*
X-6481456Y-19161444D01*
X-6476349Y-19120038D01*
X-6474906Y-19105384D01*
X-6471837Y-19063777D01*
X-6471114Y-19049070D01*
X-6470090Y-19007362D01*
X-6470090Y-18992638D01*
X-6471114Y-18950930D01*
X-6471837Y-18936223D01*
X-6474906Y-18894616D01*
G37*
%LPC*%
G36*
X22866034Y-16433945D02*
G01*
X22801565Y-16253767D01*
X22719746Y-16080776D01*
X22621366Y-15916638D01*
X22507370Y-15762933D01*
X22378858Y-15621142D01*
X22237067Y-15492630D01*
X22083362Y-15378634D01*
X21919224Y-15280254D01*
X21746233Y-15198435D01*
X21566055Y-15133966D01*
X21380426Y-15087469D01*
X21191133Y-15059390D01*
X21000000Y-15050000D01*
X20808867Y-15059390D01*
X20619574Y-15087469D01*
X20433945Y-15133966D01*
X20253767Y-15198435D01*
X20080776Y-15280254D01*
X19916638Y-15378634D01*
X19762933Y-15492630D01*
X19621142Y-15621142D01*
X19492630Y-15762933D01*
X19378634Y-15916638D01*
X19280254Y-16080776D01*
X19198435Y-16253767D01*
X19133966Y-16433945D01*
X19087469Y-16619574D01*
X19059390Y-16808867D01*
X19050000Y-17000000D01*
X19059390Y-17191133D01*
X19087469Y-17380426D01*
X19133966Y-17566055D01*
X19198435Y-17746233D01*
X19280254Y-17919224D01*
X19378634Y-18083362D01*
X19492630Y-18237067D01*
X19621142Y-18378858D01*
X19762933Y-18507370D01*
X19916638Y-18621366D01*
X20080776Y-18719746D01*
X20253767Y-18801565D01*
X20433945Y-18866034D01*
X20619574Y-18912531D01*
X20808867Y-18940610D01*
X21000000Y-18950000D01*
X21191133Y-18940610D01*
X21380426Y-18912531D01*
X21566055Y-18866034D01*
X21746233Y-18801565D01*
X21919224Y-18719746D01*
X22083362Y-18621366D01*
X22237067Y-18507370D01*
X22378858Y-18378858D01*
X22507370Y-18237067D01*
X22621366Y-18083362D01*
X22719746Y-17919224D01*
X22801565Y-17746233D01*
X22866034Y-17566055D01*
X22912531Y-17380426D01*
X22940610Y-17191133D01*
X22950000Y-17000000D01*
X22940610Y-16808867D01*
X22912531Y-16619574D01*
X22866034Y-16433945D01*
G37*
%LPC*%
G36*
X15305094Y-12894616D02*
G01*
X15303651Y-12879962D01*
X15298544Y-12838556D01*
X15296383Y-12823991D01*
X15289251Y-12782885D01*
X15286378Y-12768443D01*
X15277237Y-12727736D01*
X15273659Y-12713453D01*
X15262532Y-12673244D01*
X15258258Y-12659154D01*
X15245171Y-12619539D01*
X15240210Y-12605675D01*
X15225195Y-12566751D01*
X15219561Y-12553147D01*
X15202654Y-12515006D01*
X15196358Y-12501695D01*
X15177600Y-12464429D01*
X15170659Y-12451443D01*
X15150095Y-12415143D01*
X15142525Y-12402513D01*
X15120205Y-12367266D01*
X15112025Y-12355023D01*
X15088002Y-12320913D01*
X15079230Y-12309086D01*
X15053563Y-12276196D01*
X15044222Y-12264814D01*
X15016971Y-12233223D01*
X15007083Y-12222313D01*
X14978315Y-12192097D01*
X14967903Y-12181685D01*
X14937687Y-12152917D01*
X14926777Y-12143029D01*
X14895186Y-12115778D01*
X14883804Y-12106437D01*
X14850914Y-12080770D01*
X14839087Y-12071998D01*
X14804977Y-12047975D01*
X14792734Y-12039795D01*
X14757487Y-12017475D01*
X14744857Y-12009905D01*
X14708557Y-11989341D01*
X14695571Y-11982400D01*
X14658305Y-11963642D01*
X14644994Y-11957346D01*
X14610000Y-11941834D01*
X14610000Y-8000000D01*
X14609639Y-7985280D01*
X14608916Y-7970577D01*
X14606031Y-7941278D01*
X14603871Y-7926717D01*
X14598127Y-7897842D01*
X14594550Y-7883563D01*
X14586004Y-7855390D01*
X14581045Y-7841531D01*
X14569779Y-7814331D01*
X14563485Y-7801024D01*
X14549607Y-7775060D01*
X14542039Y-7762434D01*
X14525683Y-7737955D01*
X14516914Y-7726131D01*
X14498237Y-7703373D01*
X14488351Y-7692466D01*
X14467534Y-7671649D01*
X14456627Y-7661763D01*
X14433869Y-7643086D01*
X14422045Y-7634317D01*
X14397566Y-7617961D01*
X14384940Y-7610393D01*
X14358976Y-7596515D01*
X14345669Y-7590221D01*
X14318469Y-7578955D01*
X14304610Y-7573996D01*
X14276437Y-7565450D01*
X14262158Y-7561873D01*
X14233283Y-7556129D01*
X14218722Y-7553969D01*
X14189423Y-7551084D01*
X14174720Y-7550361D01*
X14160000Y-7550000D01*
X-6200000Y-7550000D01*
X-6200000Y-5426133D01*
X-6198315Y-5427903D01*
X-6187903Y-5438315D01*
X-6157687Y-5467083D01*
X-6146777Y-5476971D01*
X-6115186Y-5504222D01*
X-6103804Y-5513563D01*
X-6070914Y-5539230D01*
X-6059087Y-5548002D01*
X-6024977Y-5572025D01*
X-6012734Y-5580205D01*
X-5977487Y-5602525D01*
X-5964857Y-5610095D01*
X-5928557Y-5630659D01*
X-5915571Y-5637600D01*
X-5878305Y-5656358D01*
X-5864994Y-5662654D01*
X-5826853Y-5679561D01*
X-5813249Y-5685195D01*
X-5774325Y-5700210D01*
X-5760461Y-5705171D01*
X-5720846Y-5718258D01*
X-5706756Y-5722532D01*
X-5666547Y-5733659D01*
X-5652264Y-5737237D01*
X-5611557Y-5746378D01*
X-5597115Y-5749251D01*
X-5556009Y-5756383D01*
X-5541444Y-5758544D01*
X-5500038Y-5763651D01*
X-5485384Y-5765094D01*
X-5443777Y-5768163D01*
X-5429070Y-5768886D01*
X-5387362Y-5769910D01*
X-5372638Y-5769910D01*
X-5330930Y-5768886D01*
X-5316223Y-5768163D01*
X-5274616Y-5765094D01*
X-5259962Y-5763651D01*
X-5218556Y-5758544D01*
X-5203991Y-5756383D01*
X-5162885Y-5749251D01*
X-5148443Y-5746378D01*
X-5107736Y-5737237D01*
X-5093453Y-5733659D01*
X-5053244Y-5722532D01*
X-5039154Y-5718258D01*
X-4999539Y-5705171D01*
X-4985675Y-5700210D01*
X-4946751Y-5685195D01*
X-4933147Y-5679561D01*
X-4895006Y-5662654D01*
X-4881695Y-5656358D01*
X-4844429Y-5637600D01*
X-4831443Y-5630659D01*
X-4795143Y-5610095D01*
X-4782513Y-5602525D01*
X-4747266Y-5580205D01*
X-4735023Y-5572025D01*
X-4700913Y-5548002D01*
X-4689086Y-5539230D01*
X-4656196Y-5513563D01*
X-4644814Y-5504222D01*
X-4613223Y-5476971D01*
X-4602313Y-5467083D01*
X-4572097Y-5438315D01*
X-4561685Y-5427903D01*
X-4532917Y-5397687D01*
X-4523029Y-5386777D01*
X-4495778Y-5355186D01*
X-4486437Y-5343804D01*
X-4460770Y-5310914D01*
X-4451998Y-5299087D01*
X-4427975Y-5264977D01*
X-4419795Y-5252734D01*
X-4397475Y-5217487D01*
X-4389905Y-5204857D01*
X-4369341Y-5168557D01*
X-4362400Y-5155571D01*
X-4343642Y-5118305D01*
X-4337346Y-5104994D01*
X-4320439Y-5066853D01*
X-4314805Y-5053249D01*
X-4299790Y-5014325D01*
X-4294829Y-5000461D01*
X-4281742Y-4960846D01*
X-4277468Y-4946756D01*
X-4266341Y-4906547D01*
X-4262763Y-4892264D01*
X-4253622Y-4851557D01*
X-4250749Y-4837115D01*
X-4243617Y-4796009D01*
X-4241456Y-4781444D01*
X-4236349Y-4740038D01*
X-4234906Y-4725384D01*
X-4231837Y-4683777D01*
X-4231114Y-4669070D01*
X-4230090Y-4627362D01*
X-4230090Y-4612638D01*
X-4231114Y-4570930D01*
X-4231837Y-4556223D01*
X-4234906Y-4514616D01*
X-4236349Y-4499962D01*
X-4241456Y-4458556D01*
X-4243617Y-4443991D01*
X-4250749Y-4402885D01*
X-4253622Y-4388443D01*
X-4262763Y-4347736D01*
X-4266341Y-4333453D01*
X-4277468Y-4293244D01*
X-4281742Y-4279154D01*
X-4294829Y-4239539D01*
X-4299790Y-4225675D01*
X-4314805Y-4186751D01*
X-4320439Y-4173147D01*
X-4337346Y-4135006D01*
X-4343642Y-4121695D01*
X-4362400Y-4084429D01*
X-4369341Y-4071443D01*
X-4389905Y-4035143D01*
X-4397475Y-4022513D01*
X-4419795Y-3987266D01*
X-4427975Y-3975023D01*
X-4451998Y-3940913D01*
X-4460770Y-3929086D01*
X-4486437Y-3896196D01*
X-4495778Y-3884814D01*
X-4523029Y-3853223D01*
X-4532917Y-3842313D01*
X-4561685Y-3812097D01*
X-4572097Y-3801685D01*
X-4602313Y-3772917D01*
X-4613223Y-3763029D01*
X-4644814Y-3735778D01*
X-4656196Y-3726437D01*
X-4689086Y-3700770D01*
X-4700913Y-3691998D01*
X-4735023Y-3667975D01*
X-4747266Y-3659795D01*
X-4782513Y-3637475D01*
X-4795143Y-3629905D01*
X-4831443Y-3609341D01*
X-4844429Y-3602400D01*
X-4881695Y-3583642D01*
X-4895006Y-3577346D01*
X-4933147Y-3560439D01*
X-4946751Y-3554805D01*
X-4985675Y-3539790D01*
X-4999539Y-3534829D01*
X-5039154Y-3521742D01*
X-5053244Y-3517468D01*
X-5093453Y-3506341D01*
X-5107736Y-3502763D01*
X-5148443Y-3493622D01*
X-5162885Y-3490749D01*
X-5203991Y-3483617D01*
X-5218556Y-3481456D01*
X-5259962Y-3476349D01*
X-5274616Y-3474906D01*
X-5316223Y-3471837D01*
X-5330930Y-3471114D01*
X-5372638Y-3470090D01*
X-5387362Y-3470090D01*
X-5429070Y-3471114D01*
X-5443777Y-3471837D01*
X-5485384Y-3474906D01*
X-5500038Y-3476349D01*
X-5541444Y-3481456D01*
X-5556009Y-3483617D01*
X-5597115Y-3490749D01*
X-5611557Y-3493622D01*
X-5652264Y-3502763D01*
X-5666547Y-3506341D01*
X-5706756Y-3517468D01*
X-5720846Y-3521742D01*
X-5760461Y-3534829D01*
X-5774325Y-3539790D01*
X-5813249Y-3554805D01*
X-5826853Y-3560439D01*
X-5864994Y-3577346D01*
X-5878305Y-3583642D01*
X-5915571Y-3602400D01*
X-5928557Y-3609341D01*
X-5964857Y-3629905D01*
X-5977487Y-3637475D01*
X-6012734Y-3659795D01*
X-6024977Y-3667975D01*
X-6059087Y-3691998D01*
X-6070914Y-3700770D01*
X-6103804Y-3726437D01*
X-6115186Y-3735778D01*
X-6146777Y-3763029D01*
X-6157687Y-3772917D01*
X-6187903Y-3801685D01*
X-6198315Y-3812097D01*
X-6200000Y-3813867D01*
X-6200000Y9350000D01*
X-6200361Y9364720D01*
X-6201084Y9379423D01*
X-6203969Y9408722D01*
X-6206129Y9423283D01*
X-6211873Y9452158D01*
X-6215450Y9466437D01*
X-6223996Y9494610D01*
X-6228955Y9508469D01*
X-6240221Y9535669D01*
X-6246515Y9548976D01*
X-6260393Y9574940D01*
X-6267961Y9587566D01*
X-6284317Y9612045D01*
X-6293086Y9623869D01*
X-6311763Y9646627D01*
X-6321649Y9657534D01*
X-6331802Y9668198D01*
X-6853566Y10189962D01*
X-6839790Y10225675D01*
X-6834829Y10239539D01*
X-6821742Y10279154D01*
X-6817468Y10293244D01*
X-6806341Y10333453D01*
X-6802763Y10347736D01*
X-6793622Y10388443D01*
X-6790749Y10402885D01*
X-6783617Y10443991D01*
X-6781456Y10458556D01*
X-6776349Y10499962D01*
X-6774906Y10514616D01*
X-6771837Y10556223D01*
X-6771114Y10570930D01*
X-6770090Y10612638D01*
X-6770090Y10627362D01*
X-6771114Y10669070D01*
X-6771837Y10683777D01*
X-6774906Y10725384D01*
X-6776349Y10740038D01*
X-6781456Y10781444D01*
X-6783617Y10796009D01*
X-6790749Y10837115D01*
X-6793622Y10851557D01*
X-6802763Y10892264D01*
X-6806341Y10906547D01*
X-6817468Y10946756D01*
X-6821742Y10960846D01*
X-6834829Y11000461D01*
X-6839790Y11014325D01*
X-6854805Y11053249D01*
X-6860439Y11066853D01*
X-6877346Y11104994D01*
X-6883642Y11118305D01*
X-6902400Y11155571D01*
X-6909341Y11168557D01*
X-6929905Y11204857D01*
X-6937475Y11217487D01*
X-6959795Y11252734D01*
X-6967975Y11264977D01*
X-6991998Y11299087D01*
X-7000770Y11310914D01*
X-7026437Y11343804D01*
X-7035778Y11355186D01*
X-7063029Y11386777D01*
X-7072917Y11397687D01*
X-7101685Y11427903D01*
X-7112097Y11438315D01*
X-7142313Y11467083D01*
X-7153223Y11476971D01*
X-7184814Y11504222D01*
X-7196196Y11513563D01*
X-7229086Y11539230D01*
X-7240913Y11548002D01*
X-7275023Y11572025D01*
X-7287266Y11580205D01*
X-7322513Y11602525D01*
X-7335143Y11610095D01*
X-7371443Y11630659D01*
X-7384429Y11637600D01*
X-7421695Y11656358D01*
X-7435006Y11662654D01*
X-7473147Y11679561D01*
X-7486751Y11685195D01*
X-7525675Y11700210D01*
X-7539539Y11705171D01*
X-7579154Y11718258D01*
X-7593244Y11722532D01*
X-7633453Y11733659D01*
X-7647736Y11737237D01*
X-7688443Y11746378D01*
X-7702885Y11749251D01*
X-7743991Y11756383D01*
X-7758556Y11758544D01*
X-7799962Y11763651D01*
X-7814616Y11765094D01*
X-7856223Y11768163D01*
X-7870930Y11768886D01*
X-7912638Y11769910D01*
X-7927362Y11769910D01*
X-7969070Y11768886D01*
X-7983777Y11768163D01*
X-8025384Y11765094D01*
X-8040038Y11763651D01*
X-8081444Y11758544D01*
X-8096009Y11756383D01*
X-8137115Y11749251D01*
X-8151557Y11746378D01*
X-8192264Y11737237D01*
X-8206547Y11733659D01*
X-8246756Y11722532D01*
X-8260846Y11718258D01*
X-8300461Y11705171D01*
X-8314325Y11700210D01*
X-8353249Y11685195D01*
X-8366853Y11679561D01*
X-8404994Y11662654D01*
X-8418305Y11656358D01*
X-8455571Y11637600D01*
X-8468557Y11630659D01*
X-8504857Y11610095D01*
X-8517487Y11602525D01*
X-8552734Y11580205D01*
X-8564977Y11572025D01*
X-8599087Y11548002D01*
X-8610914Y11539230D01*
X-8643804Y11513563D01*
X-8655186Y11504222D01*
X-8686777Y11476971D01*
X-8697687Y11467083D01*
X-8727903Y11438315D01*
X-8738315Y11427903D01*
X-8767083Y11397687D01*
X-8776971Y11386777D01*
X-8804222Y11355186D01*
X-8813563Y11343804D01*
X-8839230Y11310914D01*
X-8848002Y11299087D01*
X-8872025Y11264977D01*
X-8880205Y11252734D01*
X-8902525Y11217487D01*
X-8910095Y11204857D01*
X-8930659Y11168557D01*
X-8937600Y11155571D01*
X-8956358Y11118305D01*
X-8962654Y11104994D01*
X-8979561Y11066853D01*
X-8985195Y11053249D01*
X-9000210Y11014325D01*
X-9005171Y11000461D01*
X-9018258Y10960846D01*
X-9022532Y10946756D01*
X-9033659Y10906547D01*
X-9037237Y10892264D01*
X-9046378Y10851557D01*
X-9049251Y10837115D01*
X-9056383Y10796009D01*
X-9058544Y10781444D01*
X-9063651Y10740038D01*
X-9065094Y10725384D01*
X-9068163Y10683777D01*
X-9068886Y10669070D01*
X-9069910Y10627362D01*
X-9069910Y10612638D01*
X-9068886Y10570930D01*
X-9068163Y10556223D01*
X-9065094Y10514616D01*
X-9063651Y10499962D01*
X-9058544Y10458556D01*
X-9056383Y10443991D01*
X-9049251Y10402885D01*
X-9046378Y10388443D01*
X-9037237Y10347736D01*
X-9033659Y10333453D01*
X-9022532Y10293244D01*
X-9018258Y10279154D01*
X-9005171Y10239539D01*
X-9000210Y10225675D01*
X-8985195Y10186751D01*
X-8979561Y10173147D01*
X-8962654Y10135006D01*
X-8956358Y10121695D01*
X-8937600Y10084429D01*
X-8930659Y10071443D01*
X-8910095Y10035143D01*
X-8902525Y10022513D01*
X-8880205Y9987266D01*
X-8872025Y9975023D01*
X-8848002Y9940913D01*
X-8839230Y9929086D01*
X-8813563Y9896196D01*
X-8804222Y9884814D01*
X-8776971Y9853223D01*
X-8767083Y9842313D01*
X-8738315Y9812097D01*
X-8727903Y9801685D01*
X-8697687Y9772917D01*
X-8686777Y9763029D01*
X-8655186Y9735778D01*
X-8643804Y9726437D01*
X-8610914Y9700770D01*
X-8599087Y9691998D01*
X-8564977Y9667975D01*
X-8552734Y9659795D01*
X-8517487Y9637475D01*
X-8504857Y9629905D01*
X-8468557Y9609341D01*
X-8455571Y9602400D01*
X-8418305Y9583642D01*
X-8404994Y9577346D01*
X-8366853Y9560439D01*
X-8353249Y9554805D01*
X-8314325Y9539790D01*
X-8300461Y9534829D01*
X-8260846Y9521742D01*
X-8246756Y9517468D01*
X-8206547Y9506341D01*
X-8192264Y9502763D01*
X-8151557Y9493622D01*
X-8137115Y9490749D01*
X-8096009Y9483617D01*
X-8081444Y9481456D01*
X-8040038Y9476349D01*
X-8025384Y9474906D01*
X-7983777Y9471837D01*
X-7969070Y9471114D01*
X-7927362Y9470090D01*
X-7912638Y9470090D01*
X-7870930Y9471114D01*
X-7856223Y9471837D01*
X-7814616Y9474906D01*
X-7799962Y9476349D01*
X-7758556Y9481456D01*
X-7743991Y9483617D01*
X-7702885Y9490749D01*
X-7688443Y9493622D01*
X-7647736Y9502763D01*
X-7633453Y9506341D01*
X-7593244Y9517468D01*
X-7579154Y9521742D01*
X-7539539Y9534829D01*
X-7525675Y9539790D01*
X-7489962Y9553566D01*
X-7100000Y9163604D01*
X-7100000Y-3813867D01*
X-7101685Y-3812097D01*
X-7112097Y-3801685D01*
X-7142313Y-3772917D01*
X-7153223Y-3763029D01*
X-7184814Y-3735778D01*
X-7196196Y-3726437D01*
X-7229086Y-3700770D01*
X-7240913Y-3691998D01*
X-7275023Y-3667975D01*
X-7287266Y-3659795D01*
X-7322513Y-3637475D01*
X-7335143Y-3629905D01*
X-7371443Y-3609341D01*
X-7384429Y-3602400D01*
X-7421695Y-3583642D01*
X-7435006Y-3577346D01*
X-7473147Y-3560439D01*
X-7486751Y-3554805D01*
X-7525675Y-3539790D01*
X-7539539Y-3534829D01*
X-7579154Y-3521742D01*
X-7593244Y-3517468D01*
X-7633453Y-3506341D01*
X-7647736Y-3502763D01*
X-7688443Y-3493622D01*
X-7702885Y-3490749D01*
X-7743991Y-3483617D01*
X-7758556Y-3481456D01*
X-7799962Y-3476349D01*
X-7814616Y-3474906D01*
X-7856223Y-3471837D01*
X-7870930Y-3471114D01*
X-7912638Y-3470090D01*
X-7927362Y-3470090D01*
X-7969070Y-3471114D01*
X-7983777Y-3471837D01*
X-8025384Y-3474906D01*
X-8040038Y-3476349D01*
X-8081444Y-3481456D01*
X-8096009Y-3483617D01*
X-8137115Y-3490749D01*
X-8151557Y-3493622D01*
X-8192264Y-3502763D01*
X-8206547Y-3506341D01*
X-8246756Y-3517468D01*
X-8260846Y-3521742D01*
X-8300461Y-3534829D01*
X-8314325Y-3539790D01*
X-8353249Y-3554805D01*
X-8366853Y-3560439D01*
X-8404994Y-3577346D01*
X-8418305Y-3583642D01*
X-8455571Y-3602400D01*
X-8468557Y-3609341D01*
X-8504857Y-3629905D01*
X-8517487Y-3637475D01*
X-8552734Y-3659795D01*
X-8564977Y-3667975D01*
X-8599087Y-3691998D01*
X-8610914Y-3700770D01*
X-8643804Y-3726437D01*
X-8655186Y-3735778D01*
X-8686777Y-3763029D01*
X-8697687Y-3772917D01*
X-8727903Y-3801685D01*
X-8738315Y-3812097D01*
X-8767083Y-3842313D01*
X-8776971Y-3853223D01*
X-8804222Y-3884814D01*
X-8813563Y-3896196D01*
X-8839230Y-3929086D01*
X-8848002Y-3940913D01*
X-8872025Y-3975023D01*
X-8880205Y-3987266D01*
X-8902525Y-4022513D01*
X-8910095Y-4035143D01*
X-8930659Y-4071443D01*
X-8937600Y-4084429D01*
X-8956358Y-4121695D01*
X-8962654Y-4135006D01*
X-8979561Y-4173147D01*
X-8985195Y-4186751D01*
X-9000210Y-4225675D01*
X-9005171Y-4239539D01*
X-9018258Y-4279154D01*
X-9022532Y-4293244D01*
X-9033659Y-4333453D01*
X-9037237Y-4347736D01*
X-9046378Y-4388443D01*
X-9049251Y-4402885D01*
X-9056383Y-4443991D01*
X-9058544Y-4458556D01*
X-9063651Y-4499962D01*
X-9065094Y-4514616D01*
X-9068163Y-4556223D01*
X-9068886Y-4570930D01*
X-9069910Y-4612638D01*
X-9069910Y-4627362D01*
X-9068886Y-4669070D01*
X-9068163Y-4683777D01*
X-9065094Y-4725384D01*
X-9063651Y-4740038D01*
X-9058544Y-4781444D01*
X-9056383Y-4796009D01*
X-9049251Y-4837115D01*
X-9046378Y-4851557D01*
X-9037237Y-4892264D01*
X-9033659Y-4906547D01*
X-9022532Y-4946756D01*
X-9018258Y-4960846D01*
X-9005171Y-5000461D01*
X-9000210Y-5014325D01*
X-8985195Y-5053249D01*
X-8979561Y-5066853D01*
X-8962654Y-5104994D01*
X-8956358Y-5118305D01*
X-8937600Y-5155571D01*
X-8930659Y-5168557D01*
X-8910095Y-5204857D01*
X-8902525Y-5217487D01*
X-8880205Y-5252734D01*
X-8872025Y-5264977D01*
X-8848002Y-5299087D01*
X-8839230Y-5310914D01*
X-8813563Y-5343804D01*
X-8804222Y-5355186D01*
X-8776971Y-5386777D01*
X-8767083Y-5397687D01*
X-8738315Y-5427903D01*
X-8727903Y-5438315D01*
X-8697687Y-5467083D01*
X-8686777Y-5476971D01*
X-8655186Y-5504222D01*
X-8643804Y-5513563D01*
X-8610914Y-5539230D01*
X-8599087Y-5548002D01*
X-8564977Y-5572025D01*
X-8552734Y-5580205D01*
X-8517487Y-5602525D01*
X-8504857Y-5610095D01*
X-8468557Y-5630659D01*
X-8455571Y-5637600D01*
X-8418305Y-5656358D01*
X-8404994Y-5662654D01*
X-8366853Y-5679561D01*
X-8353249Y-5685195D01*
X-8314325Y-5700210D01*
X-8300461Y-5705171D01*
X-8260846Y-5718258D01*
X-8246756Y-5722532D01*
X-8206547Y-5733659D01*
X-8192264Y-5737237D01*
X-8151557Y-5746378D01*
X-8137115Y-5749251D01*
X-8096009Y-5756383D01*
X-8081444Y-5758544D01*
X-8040038Y-5763651D01*
X-8025384Y-5765094D01*
X-7983777Y-5768163D01*
X-7969070Y-5768886D01*
X-7927362Y-5769910D01*
X-7912638Y-5769910D01*
X-7870930Y-5768886D01*
X-7856223Y-5768163D01*
X-7814616Y-5765094D01*
X-7799962Y-5763651D01*
X-7758556Y-5758544D01*
X-7743991Y-5756383D01*
X-7702885Y-5749251D01*
X-7688443Y-5746378D01*
X-7647736Y-5737237D01*
X-7633453Y-5733659D01*
X-7593244Y-5722532D01*
X-7579154Y-5718258D01*
X-7539539Y-5705171D01*
X-7525675Y-5700210D01*
X-7486751Y-5685195D01*
X-7473147Y-5679561D01*
X-7435006Y-5662654D01*
X-7421695Y-5656358D01*
X-7384429Y-5637600D01*
X-7371443Y-5630659D01*
X-7335143Y-5610095D01*
X-7322513Y-5602525D01*
X-7287266Y-5580205D01*
X-7275023Y-5572025D01*
X-7240913Y-5548002D01*
X-7229086Y-5539230D01*
X-7196196Y-5513563D01*
X-7184814Y-5504222D01*
X-7153223Y-5476971D01*
X-7142313Y-5467083D01*
X-7112097Y-5438315D01*
X-7101685Y-5427903D01*
X-7100000Y-5426133D01*
X-7100000Y-8000000D01*
X-7099639Y-8014720D01*
X-7098916Y-8029423D01*
X-7096031Y-8058722D01*
X-7093871Y-8073283D01*
X-7088127Y-8102158D01*
X-7084550Y-8116437D01*
X-7076004Y-8144610D01*
X-7071045Y-8158469D01*
X-7059779Y-8185669D01*
X-7053485Y-8198976D01*
X-7039607Y-8224940D01*
X-7032039Y-8237566D01*
X-7015683Y-8262045D01*
X-7006914Y-8273869D01*
X-6988237Y-8296627D01*
X-6978351Y-8307534D01*
X-6957534Y-8328351D01*
X-6946627Y-8338237D01*
X-6923869Y-8356914D01*
X-6912045Y-8365683D01*
X-6887566Y-8382039D01*
X-6874940Y-8389607D01*
X-6848976Y-8403485D01*
X-6835669Y-8409779D01*
X-6808469Y-8421045D01*
X-6794610Y-8426004D01*
X-6766437Y-8434550D01*
X-6752158Y-8438127D01*
X-6723283Y-8443871D01*
X-6708722Y-8446031D01*
X-6679423Y-8448916D01*
X-6664720Y-8449639D01*
X-6650000Y-8450000D01*
X13710000Y-8450000D01*
X13710000Y-11941834D01*
X13675006Y-11957346D01*
X13661695Y-11963642D01*
X13624429Y-11982400D01*
X13611443Y-11989341D01*
X13575143Y-12009905D01*
X13562513Y-12017475D01*
X13527266Y-12039795D01*
X13515023Y-12047975D01*
X13480913Y-12071998D01*
X13469086Y-12080770D01*
X13436196Y-12106437D01*
X13424814Y-12115778D01*
X13393223Y-12143029D01*
X13382313Y-12152917D01*
X13352097Y-12181685D01*
X13341685Y-12192097D01*
X13312917Y-12222313D01*
X13303029Y-12233223D01*
X13275778Y-12264814D01*
X13266437Y-12276196D01*
X13240770Y-12309086D01*
X13231998Y-12320913D01*
X13207975Y-12355023D01*
X13199795Y-12367266D01*
X13177475Y-12402513D01*
X13169905Y-12415143D01*
X13149341Y-12451443D01*
X13142400Y-12464429D01*
X13123642Y-12501695D01*
X13117346Y-12515006D01*
X13100439Y-12553147D01*
X13094805Y-12566751D01*
X13079790Y-12605675D01*
X13074829Y-12619539D01*
X13061742Y-12659154D01*
X13057468Y-12673244D01*
X13046341Y-12713453D01*
X13042763Y-12727736D01*
X13033622Y-12768443D01*
X13030749Y-12782885D01*
X13023617Y-12823991D01*
X13021456Y-12838556D01*
X13016349Y-12879962D01*
X13014906Y-12894616D01*
X13011837Y-12936223D01*
X13011114Y-12950930D01*
X13010090Y-12992638D01*
X13010090Y-13007362D01*
X13011114Y-13049070D01*
X13011837Y-13063777D01*
X13014906Y-13105384D01*
X13016349Y-13120038D01*
X13021456Y-13161444D01*
X13023617Y-13176009D01*
X13030749Y-13217115D01*
X13033622Y-13231557D01*
X13042763Y-13272264D01*
X13046341Y-13286547D01*
X13057468Y-13326756D01*
X13061742Y-13340846D01*
X13074829Y-13380461D01*
X13079790Y-13394325D01*
X13094805Y-13433249D01*
X13100439Y-13446853D01*
X13117346Y-13484994D01*
X13123642Y-13498305D01*
X13142400Y-13535571D01*
X13149341Y-13548557D01*
X13169905Y-13584857D01*
X13177475Y-13597487D01*
X13199795Y-13632734D01*
X13207975Y-13644977D01*
X13231998Y-13679087D01*
X13240770Y-13690914D01*
X13266437Y-13723804D01*
X13275778Y-13735186D01*
X13303029Y-13766777D01*
X13312917Y-13777687D01*
X13341685Y-13807903D01*
X13352097Y-13818315D01*
X13382313Y-13847083D01*
X13393223Y-13856971D01*
X13424814Y-13884222D01*
X13436196Y-13893563D01*
X13469086Y-13919230D01*
X13480913Y-13928002D01*
X13515023Y-13952025D01*
X13527266Y-13960205D01*
X13562513Y-13982525D01*
X13575143Y-13990095D01*
X13611443Y-14010659D01*
X13624429Y-14017600D01*
X13661695Y-14036358D01*
X13675006Y-14042654D01*
X13713147Y-14059561D01*
X13726751Y-14065195D01*
X13765675Y-14080210D01*
X13779539Y-14085171D01*
X13819154Y-14098258D01*
X13833244Y-14102532D01*
X13873453Y-14113659D01*
X13887736Y-14117237D01*
X13928443Y-14126378D01*
X13942885Y-14129251D01*
X13983991Y-14136383D01*
X13998556Y-14138544D01*
X14039962Y-14143651D01*
X14054616Y-14145094D01*
X14096223Y-14148163D01*
X14110930Y-14148886D01*
X14152638Y-14149910D01*
X14167362Y-14149910D01*
X14209070Y-14148886D01*
X14223777Y-14148163D01*
X14265384Y-14145094D01*
X14280038Y-14143651D01*
X14321444Y-14138544D01*
X14336009Y-14136383D01*
X14377115Y-14129251D01*
X14391557Y-14126378D01*
X14432264Y-14117237D01*
X14446547Y-14113659D01*
X14486756Y-14102532D01*
X14500846Y-14098258D01*
X14540461Y-14085171D01*
X14554325Y-14080210D01*
X14593249Y-14065195D01*
X14606853Y-14059561D01*
X14644994Y-14042654D01*
X14658305Y-14036358D01*
X14695571Y-14017600D01*
X14708557Y-14010659D01*
X14744857Y-13990095D01*
X14757487Y-13982525D01*
X14792734Y-13960205D01*
X14804977Y-13952025D01*
X14839087Y-13928002D01*
X14850914Y-13919230D01*
X14883804Y-13893563D01*
X14895186Y-13884222D01*
X14926777Y-13856971D01*
X14937687Y-13847083D01*
X14967903Y-13818315D01*
X14978315Y-13807903D01*
X15007083Y-13777687D01*
X15016971Y-13766777D01*
X15044222Y-13735186D01*
X15053563Y-13723804D01*
X15079230Y-13690914D01*
X15088002Y-13679087D01*
X15112025Y-13644977D01*
X15120205Y-13632734D01*
X15142525Y-13597487D01*
X15150095Y-13584857D01*
X15170659Y-13548557D01*
X15177600Y-13535571D01*
X15196358Y-13498305D01*
X15202654Y-13484994D01*
X15219561Y-13446853D01*
X15225195Y-13433249D01*
X15240210Y-13394325D01*
X15245171Y-13380461D01*
X15258258Y-13340846D01*
X15262532Y-13326756D01*
X15273659Y-13286547D01*
X15277237Y-13272264D01*
X15286378Y-13231557D01*
X15289251Y-13217115D01*
X15296383Y-13176009D01*
X15298544Y-13161444D01*
X15303651Y-13120038D01*
X15305094Y-13105384D01*
X15308163Y-13063777D01*
X15308886Y-13049070D01*
X15309910Y-13007362D01*
X15309910Y-12992638D01*
X15308886Y-12950930D01*
X15308163Y-12936223D01*
X15305094Y-12894616D01*
G37*
%LPC*%
G36*
X12765094Y-12894616D02*
G01*
X12763651Y-12879962D01*
X12758544Y-12838556D01*
X12756383Y-12823991D01*
X12749251Y-12782885D01*
X12746378Y-12768443D01*
X12737237Y-12727736D01*
X12733659Y-12713453D01*
X12722532Y-12673244D01*
X12718258Y-12659154D01*
X12705171Y-12619539D01*
X12700210Y-12605675D01*
X12685195Y-12566751D01*
X12679561Y-12553147D01*
X12662654Y-12515006D01*
X12656358Y-12501695D01*
X12637600Y-12464429D01*
X12630659Y-12451443D01*
X12610095Y-12415143D01*
X12602525Y-12402513D01*
X12580205Y-12367266D01*
X12572025Y-12355023D01*
X12548002Y-12320913D01*
X12539230Y-12309086D01*
X12513563Y-12276196D01*
X12504222Y-12264814D01*
X12476971Y-12233223D01*
X12467083Y-12222313D01*
X12438315Y-12192097D01*
X12427903Y-12181685D01*
X12397687Y-12152917D01*
X12386777Y-12143029D01*
X12355186Y-12115778D01*
X12343804Y-12106437D01*
X12310914Y-12080770D01*
X12299087Y-12071998D01*
X12264977Y-12047975D01*
X12252734Y-12039795D01*
X12217487Y-12017475D01*
X12204857Y-12009905D01*
X12168557Y-11989341D01*
X12155571Y-11982400D01*
X12118305Y-11963642D01*
X12104994Y-11957346D01*
X12066853Y-11940439D01*
X12053249Y-11934805D01*
X12014325Y-11919790D01*
X12000461Y-11914829D01*
X11960846Y-11901742D01*
X11946756Y-11897468D01*
X11906547Y-11886341D01*
X11892264Y-11882763D01*
X11851557Y-11873622D01*
X11837115Y-11870749D01*
X11796009Y-11863617D01*
X11781444Y-11861456D01*
X11740038Y-11856349D01*
X11725384Y-11854906D01*
X11683777Y-11851837D01*
X11669070Y-11851114D01*
X11627362Y-11850090D01*
X11612638Y-11850090D01*
X11570930Y-11851114D01*
X11556223Y-11851837D01*
X11514616Y-11854906D01*
X11499962Y-11856349D01*
X11458556Y-11861456D01*
X11443991Y-11863617D01*
X11402885Y-11870749D01*
X11388443Y-11873622D01*
X11347736Y-11882763D01*
X11333453Y-11886341D01*
X11293244Y-11897468D01*
X11279154Y-11901742D01*
X11239539Y-11914829D01*
X11225675Y-11919790D01*
X11186751Y-11934805D01*
X11173147Y-11940439D01*
X11135006Y-11957346D01*
X11121695Y-11963642D01*
X11084429Y-11982400D01*
X11071443Y-11989341D01*
X11035143Y-12009905D01*
X11022513Y-12017475D01*
X10987266Y-12039795D01*
X10975023Y-12047975D01*
X10940913Y-12071998D01*
X10929086Y-12080770D01*
X10896196Y-12106437D01*
X10884814Y-12115778D01*
X10853223Y-12143029D01*
X10842313Y-12152917D01*
X10812097Y-12181685D01*
X10801685Y-12192097D01*
X10772917Y-12222313D01*
X10763029Y-12233223D01*
X10735778Y-12264814D01*
X10726437Y-12276196D01*
X10700770Y-12309086D01*
X10691998Y-12320913D01*
X10667975Y-12355023D01*
X10659795Y-12367266D01*
X10637475Y-12402513D01*
X10629905Y-12415143D01*
X10609341Y-12451443D01*
X10602400Y-12464429D01*
X10583642Y-12501695D01*
X10577346Y-12515006D01*
X10560439Y-12553147D01*
X10554805Y-12566751D01*
X10539790Y-12605675D01*
X10534829Y-12619539D01*
X10521742Y-12659154D01*
X10517468Y-12673244D01*
X10506341Y-12713453D01*
X10502763Y-12727736D01*
X10493622Y-12768443D01*
X10490749Y-12782885D01*
X10483617Y-12823991D01*
X10481456Y-12838556D01*
X10476349Y-12879962D01*
X10474906Y-12894616D01*
X10471837Y-12936223D01*
X10471114Y-12950930D01*
X10470090Y-12992638D01*
X10470090Y-13007362D01*
X10471114Y-13049070D01*
X10471837Y-13063777D01*
X10474906Y-13105384D01*
X10476349Y-13120038D01*
X10481456Y-13161444D01*
X10483617Y-13176009D01*
X10490749Y-13217115D01*
X10493622Y-13231557D01*
X10502763Y-13272264D01*
X10506341Y-13286547D01*
X10517468Y-13326756D01*
X10521742Y-13340846D01*
X10534829Y-13380461D01*
X10539790Y-13394325D01*
X10554805Y-13433249D01*
X10560439Y-13446853D01*
X10577346Y-13484994D01*
X10583642Y-13498305D01*
X10602400Y-13535571D01*
X10609341Y-13548557D01*
X10629905Y-13584857D01*
X10637475Y-13597487D01*
X10659795Y-13632734D01*
X10667975Y-13644977D01*
X10691998Y-13679087D01*
X10700770Y-13690914D01*
X10726437Y-13723804D01*
X10735778Y-13735186D01*
X10763029Y-13766777D01*
X10772917Y-13777687D01*
X10801685Y-13807903D01*
X10812097Y-13818315D01*
X10842313Y-13847083D01*
X10853223Y-13856971D01*
X10884814Y-13884222D01*
X10896196Y-13893563D01*
X10929086Y-13919230D01*
X10940913Y-13928002D01*
X10975023Y-13952025D01*
X10987266Y-13960205D01*
X11022513Y-13982525D01*
X11035143Y-13990095D01*
X11071443Y-14010659D01*
X11084429Y-14017600D01*
X11121695Y-14036358D01*
X11135006Y-14042654D01*
X11173147Y-14059561D01*
X11186751Y-14065195D01*
X11225675Y-14080210D01*
X11239539Y-14085171D01*
X11279154Y-14098258D01*
X11293244Y-14102532D01*
X11333453Y-14113659D01*
X11347736Y-14117237D01*
X11388443Y-14126378D01*
X11402885Y-14129251D01*
X11443991Y-14136383D01*
X11458556Y-14138544D01*
X11499962Y-14143651D01*
X11514616Y-14145094D01*
X11556223Y-14148163D01*
X11570930Y-14148886D01*
X11612638Y-14149910D01*
X11627362Y-14149910D01*
X11669070Y-14148886D01*
X11683777Y-14148163D01*
X11725384Y-14145094D01*
X11740038Y-14143651D01*
X11781444Y-14138544D01*
X11796009Y-14136383D01*
X11837115Y-14129251D01*
X11851557Y-14126378D01*
X11892264Y-14117237D01*
X11906547Y-14113659D01*
X11946756Y-14102532D01*
X11960846Y-14098258D01*
X12000461Y-14085171D01*
X12014325Y-14080210D01*
X12053249Y-14065195D01*
X12066853Y-14059561D01*
X12104994Y-14042654D01*
X12118305Y-14036358D01*
X12155571Y-14017600D01*
X12168557Y-14010659D01*
X12204857Y-13990095D01*
X12217487Y-13982525D01*
X12252734Y-13960205D01*
X12264977Y-13952025D01*
X12299087Y-13928002D01*
X12310914Y-13919230D01*
X12343804Y-13893563D01*
X12355186Y-13884222D01*
X12386777Y-13856971D01*
X12397687Y-13847083D01*
X12427903Y-13818315D01*
X12438315Y-13807903D01*
X12467083Y-13777687D01*
X12476971Y-13766777D01*
X12504222Y-13735186D01*
X12513563Y-13723804D01*
X12539230Y-13690914D01*
X12548002Y-13679087D01*
X12572025Y-13644977D01*
X12580205Y-13632734D01*
X12602525Y-13597487D01*
X12610095Y-13584857D01*
X12630659Y-13548557D01*
X12637600Y-13535571D01*
X12656358Y-13498305D01*
X12662654Y-13484994D01*
X12679561Y-13446853D01*
X12685195Y-13433249D01*
X12700210Y-13394325D01*
X12705171Y-13380461D01*
X12718258Y-13340846D01*
X12722532Y-13326756D01*
X12733659Y-13286547D01*
X12737237Y-13272264D01*
X12746378Y-13231557D01*
X12749251Y-13217115D01*
X12756383Y-13176009D01*
X12758544Y-13161444D01*
X12763651Y-13120038D01*
X12765094Y-13105384D01*
X12768163Y-13063777D01*
X12768886Y-13049070D01*
X12769910Y-13007362D01*
X12769910Y-12992638D01*
X12768886Y-12950930D01*
X12768163Y-12936223D01*
X12765094Y-12894616D01*
G37*
%LPC*%
G36*
X-4231837Y10683777D02*
G01*
X-4234906Y10725384D01*
X-4236349Y10740038D01*
X-4241456Y10781444D01*
X-4243617Y10796009D01*
X-4250749Y10837115D01*
X-4253622Y10851557D01*
X-4262763Y10892264D01*
X-4266341Y10906547D01*
X-4277468Y10946756D01*
X-4281742Y10960846D01*
X-4294829Y11000461D01*
X-4299790Y11014325D01*
X-4314805Y11053249D01*
X-4320439Y11066853D01*
X-4337346Y11104994D01*
X-4343642Y11118305D01*
X-4362400Y11155571D01*
X-4369341Y11168557D01*
X-4389905Y11204857D01*
X-4397475Y11217487D01*
X-4419795Y11252734D01*
X-4427975Y11264977D01*
X-4451998Y11299087D01*
X-4460770Y11310914D01*
X-4486437Y11343804D01*
X-4495778Y11355186D01*
X-4523029Y11386777D01*
X-4532917Y11397687D01*
X-4561685Y11427903D01*
X-4572097Y11438315D01*
X-4602313Y11467083D01*
X-4613223Y11476971D01*
X-4644814Y11504222D01*
X-4656196Y11513563D01*
X-4689086Y11539230D01*
X-4700913Y11548002D01*
X-4735023Y11572025D01*
X-4747266Y11580205D01*
X-4782513Y11602525D01*
X-4795143Y11610095D01*
X-4831443Y11630659D01*
X-4844429Y11637600D01*
X-4881695Y11656358D01*
X-4895006Y11662654D01*
X-4933147Y11679561D01*
X-4946751Y11685195D01*
X-4985675Y11700210D01*
X-4999539Y11705171D01*
X-5039154Y11718258D01*
X-5053244Y11722532D01*
X-5093453Y11733659D01*
X-5107736Y11737237D01*
X-5148443Y11746378D01*
X-5162885Y11749251D01*
X-5203991Y11756383D01*
X-5218556Y11758544D01*
X-5259962Y11763651D01*
X-5274616Y11765094D01*
X-5316223Y11768163D01*
X-5330930Y11768886D01*
X-5372638Y11769910D01*
X-5387362Y11769910D01*
X-5429070Y11768886D01*
X-5443777Y11768163D01*
X-5485384Y11765094D01*
X-5500038Y11763651D01*
X-5541444Y11758544D01*
X-5556009Y11756383D01*
X-5597115Y11749251D01*
X-5611557Y11746378D01*
X-5652264Y11737237D01*
X-5666547Y11733659D01*
X-5706756Y11722532D01*
X-5720846Y11718258D01*
X-5760461Y11705171D01*
X-5774325Y11700210D01*
X-5813249Y11685195D01*
X-5826853Y11679561D01*
X-5864994Y11662654D01*
X-5878305Y11656358D01*
X-5915571Y11637600D01*
X-5928557Y11630659D01*
X-5964857Y11610095D01*
X-5977487Y11602525D01*
X-6012734Y11580205D01*
X-6024977Y11572025D01*
X-6059087Y11548002D01*
X-6070914Y11539230D01*
X-6103804Y11513563D01*
X-6115186Y11504222D01*
X-6146777Y11476971D01*
X-6157687Y11467083D01*
X-6187903Y11438315D01*
X-6198315Y11427903D01*
X-6227083Y11397687D01*
X-6236971Y11386777D01*
X-6264222Y11355186D01*
X-6273563Y11343804D01*
X-6299230Y11310914D01*
X-6308002Y11299087D01*
X-6332025Y11264977D01*
X-6340205Y11252734D01*
X-6362525Y11217487D01*
X-6370095Y11204857D01*
X-6390659Y11168557D01*
X-6397600Y11155571D01*
X-6416358Y11118305D01*
X-6422654Y11104994D01*
X-6439561Y11066853D01*
X-6445195Y11053249D01*
X-6460210Y11014325D01*
X-6465171Y11000461D01*
X-6478258Y10960846D01*
X-6482532Y10946756D01*
X-6493659Y10906547D01*
X-6497237Y10892264D01*
X-6506378Y10851557D01*
X-6509251Y10837115D01*
X-6516383Y10796009D01*
X-6518544Y10781444D01*
X-6523651Y10740038D01*
X-6525094Y10725384D01*
X-6528163Y10683777D01*
X-6528886Y10669070D01*
X-6529910Y10627362D01*
X-6529910Y10612638D01*
X-6528886Y10570930D01*
X-6528163Y10556223D01*
X-6525094Y10514616D01*
X-6523651Y10499962D01*
X-6518544Y10458556D01*
X-6516383Y10443991D01*
X-6509251Y10402885D01*
X-6506378Y10388443D01*
X-6497237Y10347736D01*
X-6493659Y10333453D01*
X-6482532Y10293244D01*
X-6478258Y10279154D01*
X-6465171Y10239539D01*
X-6460210Y10225675D01*
X-6445195Y10186751D01*
X-6439561Y10173147D01*
X-6422654Y10135006D01*
X-6416358Y10121695D01*
X-6397600Y10084429D01*
X-6390659Y10071443D01*
X-6370095Y10035143D01*
X-6362525Y10022513D01*
X-6340205Y9987266D01*
X-6332025Y9975023D01*
X-6308002Y9940913D01*
X-6299230Y9929086D01*
X-6273563Y9896196D01*
X-6264222Y9884814D01*
X-6236971Y9853223D01*
X-6227083Y9842313D01*
X-6198315Y9812097D01*
X-6187903Y9801685D01*
X-6157687Y9772917D01*
X-6146777Y9763029D01*
X-6115186Y9735778D01*
X-6103804Y9726437D01*
X-6070914Y9700770D01*
X-6059087Y9691998D01*
X-6024977Y9667975D01*
X-6012734Y9659795D01*
X-5977487Y9637475D01*
X-5964857Y9629905D01*
X-5928557Y9609341D01*
X-5915571Y9602400D01*
X-5878305Y9583642D01*
X-5864994Y9577346D01*
X-5826853Y9560439D01*
X-5813249Y9554805D01*
X-5774325Y9539790D01*
X-5760461Y9534829D01*
X-5720846Y9521742D01*
X-5706756Y9517468D01*
X-5666547Y9506341D01*
X-5652264Y9502763D01*
X-5611557Y9493622D01*
X-5597115Y9490749D01*
X-5556009Y9483617D01*
X-5541444Y9481456D01*
X-5500038Y9476349D01*
X-5485384Y9474906D01*
X-5443777Y9471837D01*
X-5429070Y9471114D01*
X-5387362Y9470090D01*
X-5372638Y9470090D01*
X-5330930Y9471114D01*
X-5316223Y9471837D01*
X-5274616Y9474906D01*
X-5259962Y9476349D01*
X-5218556Y9481456D01*
X-5203991Y9483617D01*
X-5162885Y9490749D01*
X-5148443Y9493622D01*
X-5107736Y9502763D01*
X-5093453Y9506341D01*
X-5053244Y9517468D01*
X-5039154Y9521742D01*
X-4999539Y9534829D01*
X-4985675Y9539790D01*
X-4946751Y9554805D01*
X-4933147Y9560439D01*
X-4895006Y9577346D01*
X-4881695Y9583642D01*
X-4844429Y9602400D01*
X-4831443Y9609341D01*
X-4795143Y9629905D01*
X-4782513Y9637475D01*
X-4747266Y9659795D01*
X-4735023Y9667975D01*
X-4700913Y9691998D01*
X-4689086Y9700770D01*
X-4656196Y9726437D01*
X-4644814Y9735778D01*
X-4613223Y9763029D01*
X-4602313Y9772917D01*
X-4572097Y9801685D01*
X-4561685Y9812097D01*
X-4532917Y9842313D01*
X-4523029Y9853223D01*
X-4495778Y9884814D01*
X-4486437Y9896196D01*
X-4460770Y9929086D01*
X-4451998Y9940913D01*
X-4427975Y9975023D01*
X-4419795Y9987266D01*
X-4397475Y10022513D01*
X-4389905Y10035143D01*
X-4369341Y10071443D01*
X-4362400Y10084429D01*
X-4343642Y10121695D01*
X-4337346Y10135006D01*
X-4320439Y10173147D01*
X-4314805Y10186751D01*
X-4299790Y10225675D01*
X-4294829Y10239539D01*
X-4281742Y10279154D01*
X-4277468Y10293244D01*
X-4266341Y10333453D01*
X-4262763Y10347736D01*
X-4253622Y10388443D01*
X-4250749Y10402885D01*
X-4243617Y10443991D01*
X-4241456Y10458556D01*
X-4236349Y10499962D01*
X-4234906Y10514616D01*
X-4231837Y10556223D01*
X-4231114Y10570930D01*
X-4230090Y10612638D01*
X-4230090Y10627362D01*
X-4231114Y10669070D01*
X-4231837Y10683777D01*
G37*
%LPC*%
G36*
X-1394906Y19605384D02*
G01*
X-1396349Y19620038D01*
X-1401456Y19661444D01*
X-1403617Y19676009D01*
X-1410749Y19717115D01*
X-1413622Y19731557D01*
X-1422763Y19772264D01*
X-1426341Y19786547D01*
X-1437468Y19826756D01*
X-1441742Y19840846D01*
X-1454829Y19880461D01*
X-1459790Y19894325D01*
X-1474805Y19933249D01*
X-1480439Y19946853D01*
X-1497346Y19984994D01*
X-1503642Y19998305D01*
X-1522400Y20035571D01*
X-1529341Y20048557D01*
X-1549905Y20084857D01*
X-1557475Y20097487D01*
X-1579795Y20132734D01*
X-1587975Y20144977D01*
X-1611998Y20179087D01*
X-1620770Y20190914D01*
X-1646437Y20223804D01*
X-1655778Y20235186D01*
X-1683029Y20266777D01*
X-1692917Y20277687D01*
X-1721685Y20307903D01*
X-1732097Y20318315D01*
X-1762313Y20347083D01*
X-1773223Y20356971D01*
X-1804814Y20384222D01*
X-1816196Y20393563D01*
X-1849086Y20419230D01*
X-1860913Y20428002D01*
X-1895023Y20452025D01*
X-1907266Y20460205D01*
X-1942513Y20482525D01*
X-1955143Y20490095D01*
X-1991443Y20510659D01*
X-2004429Y20517600D01*
X-2041695Y20536358D01*
X-2055006Y20542654D01*
X-2093147Y20559561D01*
X-2106751Y20565195D01*
X-2145675Y20580210D01*
X-2159539Y20585171D01*
X-2199154Y20598258D01*
X-2213244Y20602532D01*
X-2253453Y20613659D01*
X-2267736Y20617237D01*
X-2308443Y20626378D01*
X-2322885Y20629251D01*
X-2363991Y20636383D01*
X-2378556Y20638544D01*
X-2419962Y20643651D01*
X-2434616Y20645094D01*
X-2476223Y20648163D01*
X-2490930Y20648886D01*
X-2532638Y20649910D01*
X-2547362Y20649910D01*
X-2589070Y20648886D01*
X-2603777Y20648163D01*
X-2645384Y20645094D01*
X-2660038Y20643651D01*
X-2701444Y20638544D01*
X-2716009Y20636383D01*
X-2757115Y20629251D01*
X-2771557Y20626378D01*
X-2812264Y20617237D01*
X-2826547Y20613659D01*
X-2866756Y20602532D01*
X-2880846Y20598258D01*
X-2920461Y20585171D01*
X-2934325Y20580210D01*
X-2973249Y20565195D01*
X-2986853Y20559561D01*
X-3024994Y20542654D01*
X-3038305Y20536358D01*
X-3075571Y20517600D01*
X-3088557Y20510659D01*
X-3124857Y20490095D01*
X-3137487Y20482525D01*
X-3172734Y20460205D01*
X-3184977Y20452025D01*
X-3219087Y20428002D01*
X-3230914Y20419230D01*
X-3263804Y20393563D01*
X-3275186Y20384222D01*
X-3306777Y20356971D01*
X-3317687Y20347083D01*
X-3347903Y20318315D01*
X-3358315Y20307903D01*
X-3387083Y20277687D01*
X-3396971Y20266777D01*
X-3424222Y20235186D01*
X-3433563Y20223804D01*
X-3459230Y20190914D01*
X-3468002Y20179087D01*
X-3492025Y20144977D01*
X-3500205Y20132734D01*
X-3522525Y20097487D01*
X-3530095Y20084857D01*
X-3550659Y20048557D01*
X-3557600Y20035571D01*
X-3576358Y19998305D01*
X-3582654Y19984994D01*
X-3599561Y19946853D01*
X-3605195Y19933249D01*
X-3620210Y19894325D01*
X-3625171Y19880461D01*
X-3638258Y19840846D01*
X-3642532Y19826756D01*
X-3653659Y19786547D01*
X-3657237Y19772264D01*
X-3662237Y19750000D01*
X-3666378Y19731557D01*
X-3669251Y19717115D01*
X-3676383Y19676009D01*
X-3678544Y19661444D01*
X-3683651Y19620038D01*
X-3685094Y19605384D01*
X-3688163Y19563777D01*
X-3688886Y19549070D01*
X-3689910Y19507362D01*
X-3689910Y19492638D01*
X-3688886Y19450930D01*
X-3688163Y19436223D01*
X-3685094Y19394616D01*
X-3683651Y19379962D01*
X-3678544Y19338556D01*
X-3676383Y19323991D01*
X-3669251Y19282885D01*
X-3666378Y19268443D01*
X-3662237Y19250000D01*
X-3657237Y19227736D01*
X-3653659Y19213453D01*
X-3642532Y19173244D01*
X-3638258Y19159154D01*
X-3625171Y19119539D01*
X-3620210Y19105675D01*
X-3605195Y19066751D01*
X-3599561Y19053147D01*
X-3582654Y19015006D01*
X-3576358Y19001695D01*
X-3557600Y18964429D01*
X-3550659Y18951443D01*
X-3530095Y18915143D01*
X-3522525Y18902513D01*
X-3500205Y18867266D01*
X-3492025Y18855023D01*
X-3468002Y18820913D01*
X-3459230Y18809086D01*
X-3433563Y18776196D01*
X-3424222Y18764814D01*
X-3396971Y18733223D01*
X-3387083Y18722313D01*
X-3358315Y18692097D01*
X-3347903Y18681685D01*
X-3317687Y18652917D01*
X-3306777Y18643029D01*
X-3275186Y18615778D01*
X-3263804Y18606437D01*
X-3230914Y18580770D01*
X-3219087Y18571998D01*
X-3184977Y18547975D01*
X-3172734Y18539795D01*
X-3137487Y18517475D01*
X-3124857Y18509905D01*
X-3088557Y18489341D01*
X-3075571Y18482400D01*
X-3038305Y18463642D01*
X-3024994Y18457346D01*
X-2986853Y18440439D01*
X-2973249Y18434805D01*
X-2934325Y18419790D01*
X-2920461Y18414829D01*
X-2880846Y18401742D01*
X-2866756Y18397468D01*
X-2826547Y18386341D01*
X-2812264Y18382763D01*
X-2771557Y18373622D01*
X-2757115Y18370749D01*
X-2716009Y18363617D01*
X-2701444Y18361456D01*
X-2660038Y18356349D01*
X-2645384Y18354906D01*
X-2603777Y18351837D01*
X-2589070Y18351114D01*
X-2547362Y18350090D01*
X-2532638Y18350090D01*
X-2490930Y18351114D01*
X-2476223Y18351837D01*
X-2434616Y18354906D01*
X-2419962Y18356349D01*
X-2378556Y18361456D01*
X-2363991Y18363617D01*
X-2322885Y18370749D01*
X-2308443Y18373622D01*
X-2267736Y18382763D01*
X-2253453Y18386341D01*
X-2213244Y18397468D01*
X-2199154Y18401742D01*
X-2159539Y18414829D01*
X-2145675Y18419790D01*
X-2106751Y18434805D01*
X-2093147Y18440439D01*
X-2055006Y18457346D01*
X-2041695Y18463642D01*
X-2004429Y18482400D01*
X-1991443Y18489341D01*
X-1955143Y18509905D01*
X-1942513Y18517475D01*
X-1907266Y18539795D01*
X-1895023Y18547975D01*
X-1860913Y18571998D01*
X-1849086Y18580770D01*
X-1816196Y18606437D01*
X-1804814Y18615778D01*
X-1773223Y18643029D01*
X-1762313Y18652917D01*
X-1732097Y18681685D01*
X-1721685Y18692097D01*
X-1692917Y18722313D01*
X-1683029Y18733223D01*
X-1655778Y18764814D01*
X-1646437Y18776196D01*
X-1620770Y18809086D01*
X-1611998Y18820913D01*
X-1587975Y18855023D01*
X-1579795Y18867266D01*
X-1557475Y18902513D01*
X-1549905Y18915143D01*
X-1529341Y18951443D01*
X-1522400Y18964429D01*
X-1503642Y19001695D01*
X-1497346Y19015006D01*
X-1480439Y19053147D01*
X-1474805Y19066751D01*
X-1459790Y19105675D01*
X-1454829Y19119539D01*
X-1441742Y19159154D01*
X-1437468Y19173244D01*
X-1426341Y19213453D01*
X-1422763Y19227736D01*
X-1413622Y19268443D01*
X-1410749Y19282885D01*
X-1403617Y19323991D01*
X-1401456Y19338556D01*
X-1396349Y19379962D01*
X-1394906Y19394616D01*
X-1391837Y19436223D01*
X-1391114Y19450930D01*
X-1390090Y19492638D01*
X-1390090Y19507362D01*
X-1391114Y19549070D01*
X-1391837Y19563777D01*
X-1394906Y19605384D01*
G37*
%LPC*%
G36*
X1145094Y19605384D02*
G01*
X1143651Y19620038D01*
X1138544Y19661444D01*
X1136383Y19676009D01*
X1129251Y19717115D01*
X1126378Y19731557D01*
X1117237Y19772264D01*
X1113659Y19786547D01*
X1102532Y19826756D01*
X1098258Y19840846D01*
X1085171Y19880461D01*
X1080210Y19894325D01*
X1065195Y19933249D01*
X1059561Y19946853D01*
X1042654Y19984994D01*
X1036358Y19998305D01*
X1017600Y20035571D01*
X1010659Y20048557D01*
X990095Y20084857D01*
X982525Y20097487D01*
X960205Y20132734D01*
X952025Y20144977D01*
X928002Y20179087D01*
X919230Y20190914D01*
X893563Y20223804D01*
X884222Y20235186D01*
X856971Y20266777D01*
X847083Y20277687D01*
X818315Y20307903D01*
X807903Y20318315D01*
X777687Y20347083D01*
X766777Y20356971D01*
X735186Y20384222D01*
X723804Y20393563D01*
X690914Y20419230D01*
X679087Y20428002D01*
X644977Y20452025D01*
X632734Y20460205D01*
X597487Y20482525D01*
X584857Y20490095D01*
X548557Y20510659D01*
X535571Y20517600D01*
X498305Y20536358D01*
X484994Y20542654D01*
X446853Y20559561D01*
X433249Y20565195D01*
X394325Y20580210D01*
X380461Y20585171D01*
X340846Y20598258D01*
X326756Y20602532D01*
X286547Y20613659D01*
X272264Y20617237D01*
X231557Y20626378D01*
X217115Y20629251D01*
X176009Y20636383D01*
X161444Y20638544D01*
X120038Y20643651D01*
X105384Y20645094D01*
X63777Y20648163D01*
X49070Y20648886D01*
X7362Y20649910D01*
X-7362Y20649910D01*
X-49070Y20648886D01*
X-63777Y20648163D01*
X-105384Y20645094D01*
X-120038Y20643651D01*
X-161444Y20638544D01*
X-176009Y20636383D01*
X-217115Y20629251D01*
X-231557Y20626378D01*
X-272264Y20617237D01*
X-286547Y20613659D01*
X-326756Y20602532D01*
X-340846Y20598258D01*
X-380461Y20585171D01*
X-394325Y20580210D01*
X-433249Y20565195D01*
X-446853Y20559561D01*
X-484994Y20542654D01*
X-498305Y20536358D01*
X-535571Y20517600D01*
X-548557Y20510659D01*
X-584857Y20490095D01*
X-597487Y20482525D01*
X-632734Y20460205D01*
X-644977Y20452025D01*
X-679087Y20428002D01*
X-690914Y20419230D01*
X-723804Y20393563D01*
X-735186Y20384222D01*
X-766777Y20356971D01*
X-777687Y20347083D01*
X-807903Y20318315D01*
X-818315Y20307903D01*
X-847083Y20277687D01*
X-856971Y20266777D01*
X-884222Y20235186D01*
X-893563Y20223804D01*
X-919230Y20190914D01*
X-928002Y20179087D01*
X-952025Y20144977D01*
X-960205Y20132734D01*
X-982525Y20097487D01*
X-990095Y20084857D01*
X-1010659Y20048557D01*
X-1017600Y20035571D01*
X-1036358Y19998305D01*
X-1042654Y19984994D01*
X-1059561Y19946853D01*
X-1065195Y19933249D01*
X-1080210Y19894325D01*
X-1085171Y19880461D01*
X-1098258Y19840846D01*
X-1102532Y19826756D01*
X-1113659Y19786547D01*
X-1117237Y19772264D01*
X-1126378Y19731557D01*
X-1129251Y19717115D01*
X-1136383Y19676009D01*
X-1138544Y19661444D01*
X-1143651Y19620038D01*
X-1145094Y19605384D01*
X-1148163Y19563777D01*
X-1148886Y19549070D01*
X-1149910Y19507362D01*
X-1149910Y19492638D01*
X-1148886Y19450930D01*
X-1148163Y19436223D01*
X-1145094Y19394616D01*
X-1143651Y19379962D01*
X-1138544Y19338556D01*
X-1136383Y19323991D01*
X-1129251Y19282885D01*
X-1126378Y19268443D01*
X-1117237Y19227736D01*
X-1113659Y19213453D01*
X-1102532Y19173244D01*
X-1098258Y19159154D01*
X-1085171Y19119539D01*
X-1080210Y19105675D01*
X-1065195Y19066751D01*
X-1059561Y19053147D01*
X-1042654Y19015006D01*
X-1036358Y19001695D01*
X-1017600Y18964429D01*
X-1010659Y18951443D01*
X-990095Y18915143D01*
X-982525Y18902513D01*
X-960205Y18867266D01*
X-952025Y18855023D01*
X-928002Y18820913D01*
X-919230Y18809086D01*
X-893563Y18776196D01*
X-884222Y18764814D01*
X-856971Y18733223D01*
X-847083Y18722313D01*
X-818315Y18692097D01*
X-807903Y18681685D01*
X-777687Y18652917D01*
X-766777Y18643029D01*
X-735186Y18615778D01*
X-723804Y18606437D01*
X-690914Y18580770D01*
X-679087Y18571998D01*
X-644977Y18547975D01*
X-632734Y18539795D01*
X-597487Y18517475D01*
X-584857Y18509905D01*
X-548557Y18489341D01*
X-535571Y18482400D01*
X-498305Y18463642D01*
X-484994Y18457346D01*
X-446853Y18440439D01*
X-433249Y18434805D01*
X-394325Y18419790D01*
X-380461Y18414829D01*
X-340846Y18401742D01*
X-326756Y18397468D01*
X-286547Y18386341D01*
X-272264Y18382763D01*
X-231557Y18373622D01*
X-217115Y18370749D01*
X-176009Y18363617D01*
X-161444Y18361456D01*
X-120038Y18356349D01*
X-105384Y18354906D01*
X-63777Y18351837D01*
X-49070Y18351114D01*
X-7362Y18350090D01*
X7362Y18350090D01*
X49070Y18351114D01*
X63777Y18351837D01*
X105384Y18354906D01*
X120038Y18356349D01*
X161444Y18361456D01*
X176009Y18363617D01*
X217115Y18370749D01*
X231557Y18373622D01*
X272264Y18382763D01*
X286547Y18386341D01*
X326756Y18397468D01*
X340846Y18401742D01*
X380461Y18414829D01*
X394325Y18419790D01*
X433249Y18434805D01*
X446853Y18440439D01*
X484994Y18457346D01*
X498305Y18463642D01*
X535571Y18482400D01*
X548557Y18489341D01*
X584857Y18509905D01*
X597487Y18517475D01*
X632734Y18539795D01*
X644977Y18547975D01*
X679087Y18571998D01*
X690914Y18580770D01*
X723804Y18606437D01*
X735186Y18615778D01*
X766777Y18643029D01*
X777687Y18652917D01*
X807903Y18681685D01*
X818315Y18692097D01*
X847083Y18722313D01*
X856971Y18733223D01*
X884222Y18764814D01*
X893563Y18776196D01*
X919230Y18809086D01*
X928002Y18820913D01*
X952025Y18855023D01*
X960205Y18867266D01*
X982525Y18902513D01*
X990095Y18915143D01*
X1010659Y18951443D01*
X1017600Y18964429D01*
X1036358Y19001695D01*
X1042654Y19015006D01*
X1059561Y19053147D01*
X1065195Y19066751D01*
X1080210Y19105675D01*
X1085171Y19119539D01*
X1098258Y19159154D01*
X1102532Y19173244D01*
X1113659Y19213453D01*
X1117237Y19227736D01*
X1126378Y19268443D01*
X1129251Y19282885D01*
X1136383Y19323991D01*
X1138544Y19338556D01*
X1143651Y19379962D01*
X1145094Y19394616D01*
X1148163Y19436223D01*
X1148886Y19450930D01*
X1149910Y19492638D01*
X1149910Y19507362D01*
X1148886Y19549070D01*
X1148163Y19563777D01*
X1145094Y19605384D01*
G37*
%LPC*%
G36*
X-6711473Y18355764D02*
G01*
X-6682915Y18362918D01*
X-6655195Y18372836D01*
X-6628581Y18385424D01*
X-6603329Y18400559D01*
X-6579682Y18418097D01*
X-6557868Y18437868D01*
X-6538097Y18459682D01*
X-6520559Y18483329D01*
X-6505424Y18508581D01*
X-6492836Y18535195D01*
X-6482918Y18562915D01*
X-6475764Y18591473D01*
X-6471445Y18620595D01*
X-6470000Y18650000D01*
X-6470000Y19250000D01*
X-6470000Y19750000D01*
X-6470000Y20350000D01*
X-6471445Y20379405D01*
X-6475764Y20408527D01*
X-6482918Y20437085D01*
X-6492836Y20464805D01*
X-6505424Y20491419D01*
X-6520559Y20516671D01*
X-6538097Y20540318D01*
X-6557868Y20562132D01*
X-6579682Y20581903D01*
X-6603329Y20599441D01*
X-6628581Y20614576D01*
X-6655195Y20627164D01*
X-6682915Y20637082D01*
X-6711473Y20644236D01*
X-6740595Y20648555D01*
X-6770000Y20650000D01*
X-8470000Y20650000D01*
X-8499405Y20648555D01*
X-8528527Y20644236D01*
X-8557085Y20637082D01*
X-8584805Y20627164D01*
X-8611419Y20614576D01*
X-8636671Y20599441D01*
X-8660318Y20581903D01*
X-8682132Y20562132D01*
X-8701903Y20540318D01*
X-8719441Y20516671D01*
X-8734576Y20491419D01*
X-8747164Y20464805D01*
X-8757082Y20437085D01*
X-8764236Y20408527D01*
X-8768555Y20379405D01*
X-8770000Y20350000D01*
X-8770000Y18650000D01*
X-8768555Y18620595D01*
X-8764236Y18591473D01*
X-8757082Y18562915D01*
X-8747164Y18535195D01*
X-8734576Y18508581D01*
X-8719441Y18483329D01*
X-8701903Y18459682D01*
X-8682132Y18437868D01*
X-8660318Y18418097D01*
X-8636671Y18400559D01*
X-8611419Y18385424D01*
X-8584805Y18372836D01*
X-8557085Y18362918D01*
X-8528527Y18355764D01*
X-8499405Y18351445D01*
X-8470000Y18350000D01*
X-6770000Y18350000D01*
X-6740595Y18351445D01*
X-6711473Y18355764D01*
G37*
%LPC*%
G36*
X1912531Y26380426D02*
G01*
X1866034Y26566055D01*
X1801565Y26746233D01*
X1719746Y26919224D01*
X1621366Y27083362D01*
X1507370Y27237067D01*
X1378858Y27378858D01*
X1237067Y27507370D01*
X1083362Y27621366D01*
X919224Y27719746D01*
X746233Y27801565D01*
X566055Y27866034D01*
X380426Y27912531D01*
X191133Y27940610D01*
X0Y27950000D01*
X-191133Y27940610D01*
X-380426Y27912531D01*
X-566055Y27866034D01*
X-746233Y27801565D01*
X-919224Y27719746D01*
X-1083362Y27621366D01*
X-1237067Y27507370D01*
X-1378858Y27378858D01*
X-1507370Y27237067D01*
X-1621366Y27083362D01*
X-1719746Y26919224D01*
X-1801565Y26746233D01*
X-1866034Y26566055D01*
X-1912531Y26380426D01*
X-1940610Y26191133D01*
X-1950000Y26000000D01*
X-1940610Y25808867D01*
X-1912531Y25619574D01*
X-1866034Y25433945D01*
X-1801565Y25253767D01*
X-1719746Y25080776D01*
X-1621366Y24916638D01*
X-1507370Y24762933D01*
X-1378858Y24621142D01*
X-1237067Y24492630D01*
X-1083362Y24378634D01*
X-919224Y24280254D01*
X-746233Y24198435D01*
X-566055Y24133966D01*
X-380426Y24087469D01*
X-191133Y24059390D01*
X0Y24050000D01*
X191133Y24059390D01*
X380426Y24087469D01*
X566055Y24133966D01*
X746233Y24198435D01*
X919224Y24280254D01*
X1083362Y24378634D01*
X1237067Y24492630D01*
X1378858Y24621142D01*
X1507370Y24762933D01*
X1621366Y24916638D01*
X1719746Y25080776D01*
X1801565Y25253767D01*
X1866034Y25433945D01*
X1912531Y25619574D01*
X1940610Y25808867D01*
X1950000Y26000000D01*
X1940610Y26191133D01*
X1912531Y26380426D01*
G37*
%LPC*%
G36*
X-16997224Y11007423D02*
G01*
X-17017539Y11060086D01*
X-17040412Y11111688D01*
X-17065791Y11162106D01*
X-17093612Y11211218D01*
X-17123810Y11258906D01*
X-17156311Y11305054D01*
X-17191038Y11349552D01*
X-17227906Y11392293D01*
X-17266827Y11433173D01*
X-17307707Y11472094D01*
X-17350448Y11508962D01*
X-17394946Y11543689D01*
X-17441094Y11576190D01*
X-17488782Y11606388D01*
X-17537894Y11634209D01*
X-17588312Y11659588D01*
X-17639914Y11682461D01*
X-17692577Y11702776D01*
X-17746173Y11720481D01*
X-17800573Y11735536D01*
X-17830000Y11742144D01*
X-17830000Y10870000D01*
X-16957856Y10870000D01*
X-16964464Y10899427D01*
X-16979519Y10953827D01*
X-16997224Y11007423D01*
G37*
%LPC*%
G36*
X-18413827Y11720481D02*
G01*
X-18467423Y11702776D01*
X-18520086Y11682461D01*
X-18571688Y11659588D01*
X-18622106Y11634209D01*
X-18671218Y11606388D01*
X-18718906Y11576190D01*
X-18765054Y11543689D01*
X-18809552Y11508962D01*
X-18852293Y11472094D01*
X-18893173Y11433173D01*
X-18932094Y11392293D01*
X-18968962Y11349552D01*
X-19003689Y11305054D01*
X-19036190Y11258906D01*
X-19066388Y11211218D01*
X-19094209Y11162106D01*
X-19119588Y11111688D01*
X-19142461Y11060086D01*
X-19162776Y11007423D01*
X-19180481Y10953827D01*
X-19195536Y10899427D01*
X-19202144Y10870000D01*
X-18330000Y10870000D01*
X-18330000Y11742144D01*
X-18359427Y11735536D01*
X-18413827Y11720481D01*
G37*
%LPC*%
G36*
X-19180481Y10286173D02*
G01*
X-19162776Y10232577D01*
X-19142461Y10179914D01*
X-19119588Y10128312D01*
X-19094209Y10077894D01*
X-19066388Y10028782D01*
X-19036190Y9981094D01*
X-19003689Y9934946D01*
X-18968962Y9890448D01*
X-18932094Y9847707D01*
X-18893173Y9806827D01*
X-18852293Y9767906D01*
X-18809552Y9731038D01*
X-18765054Y9696311D01*
X-18718906Y9663810D01*
X-18671218Y9633612D01*
X-18622106Y9605791D01*
X-18571688Y9580412D01*
X-18520086Y9557539D01*
X-18467423Y9537224D01*
X-18413827Y9519519D01*
X-18359427Y9504464D01*
X-18330000Y9497856D01*
X-18330000Y10370000D01*
X-19202144Y10370000D01*
X-19195536Y10340573D01*
X-19180481Y10286173D01*
G37*
%LPC*%
G36*
X-17746173Y9519519D02*
G01*
X-17692577Y9537224D01*
X-17639914Y9557539D01*
X-17588312Y9580412D01*
X-17537894Y9605791D01*
X-17488782Y9633612D01*
X-17441094Y9663810D01*
X-17394946Y9696311D01*
X-17350448Y9731038D01*
X-17307707Y9767906D01*
X-17266827Y9806827D01*
X-17227906Y9847707D01*
X-17191038Y9890448D01*
X-17156311Y9934946D01*
X-17123810Y9981094D01*
X-17093612Y10028782D01*
X-17065791Y10077894D01*
X-17040412Y10128312D01*
X-17017539Y10179914D01*
X-16997224Y10232577D01*
X-16979519Y10286173D01*
X-16964464Y10340573D01*
X-16957856Y10370000D01*
X-17830000Y10370000D01*
X-17830000Y9497856D01*
X-17800573Y9504464D01*
X-17746173Y9519519D01*
G37*
%LPC*%
G36*
X-3979519Y19833827D02*
G01*
X-3997224Y19887423D01*
X-4017539Y19940086D01*
X-4040412Y19991688D01*
X-4065791Y20042106D01*
X-4093612Y20091218D01*
X-4123810Y20138906D01*
X-4156311Y20185054D01*
X-4191038Y20229552D01*
X-4227906Y20272293D01*
X-4266827Y20313173D01*
X-4307707Y20352094D01*
X-4350448Y20388962D01*
X-4394946Y20423689D01*
X-4441094Y20456190D01*
X-4488782Y20486388D01*
X-4537894Y20514209D01*
X-4588312Y20539588D01*
X-4639914Y20562461D01*
X-4692577Y20582776D01*
X-4746173Y20600481D01*
X-4800573Y20615536D01*
X-4830000Y20622144D01*
X-4830000Y19750000D01*
X-3957856Y19750000D01*
X-3964464Y19779427D01*
X-3979519Y19833827D01*
G37*
%LPC*%
G36*
X-5413827Y20600481D02*
G01*
X-5467423Y20582776D01*
X-5520086Y20562461D01*
X-5571688Y20539588D01*
X-5622106Y20514209D01*
X-5671218Y20486388D01*
X-5718906Y20456190D01*
X-5765054Y20423689D01*
X-5809552Y20388962D01*
X-5852293Y20352094D01*
X-5893173Y20313173D01*
X-5932094Y20272293D01*
X-5968962Y20229552D01*
X-6003689Y20185054D01*
X-6036190Y20138906D01*
X-6066388Y20091218D01*
X-6094209Y20042106D01*
X-6119588Y19991688D01*
X-6142461Y19940086D01*
X-6162776Y19887423D01*
X-6180481Y19833827D01*
X-6195536Y19779427D01*
X-6202144Y19750000D01*
X-5330000Y19750000D01*
X-5330000Y20622144D01*
X-5359427Y20615536D01*
X-5413827Y20600481D01*
G37*
%LPC*%
G36*
X-6180481Y19166173D02*
G01*
X-6162776Y19112577D01*
X-6142461Y19059914D01*
X-6119588Y19008312D01*
X-6094209Y18957894D01*
X-6066388Y18908782D01*
X-6036190Y18861094D01*
X-6003689Y18814946D01*
X-5968962Y18770448D01*
X-5932094Y18727707D01*
X-5893173Y18686827D01*
X-5852293Y18647906D01*
X-5809552Y18611038D01*
X-5765054Y18576311D01*
X-5718906Y18543810D01*
X-5671218Y18513612D01*
X-5622106Y18485791D01*
X-5571688Y18460412D01*
X-5520086Y18437539D01*
X-5467423Y18417224D01*
X-5413827Y18399519D01*
X-5359427Y18384464D01*
X-5330000Y18377856D01*
X-5330000Y19250000D01*
X-6202144Y19250000D01*
X-6195536Y19220573D01*
X-6180481Y19166173D01*
G37*
%LPC*%
G36*
X-4746173Y18399519D02*
G01*
X-4692577Y18417224D01*
X-4639914Y18437539D01*
X-4588312Y18460412D01*
X-4537894Y18485791D01*
X-4488782Y18513612D01*
X-4441094Y18543810D01*
X-4394946Y18576311D01*
X-4350448Y18611038D01*
X-4307707Y18647906D01*
X-4266827Y18686827D01*
X-4227906Y18727707D01*
X-4191038Y18770448D01*
X-4156311Y18814946D01*
X-4123810Y18861094D01*
X-4093612Y18908782D01*
X-4065791Y18957894D01*
X-4040412Y19008312D01*
X-4017539Y19059914D01*
X-3997224Y19112577D01*
X-3979519Y19166173D01*
X-3964464Y19220573D01*
X-3957856Y19250000D01*
X-4830000Y19250000D01*
X-4830000Y18377856D01*
X-4800573Y18384464D01*
X-4746173Y18399519D01*
G37*
%LPD*%
D10*
X-7920000Y10620000D02*
X-6650000Y9350000D01*
X-6650000Y-8000000D01*
X14160000Y-8000000D01*
X14160000Y-13000000D01*
D10*
X-15540000Y10620000D02*
X-16810000Y9350000D01*
X-16810000Y-11200000D01*
X4000000Y-11200000D01*
X4000000Y-13000000D01*
D11*
X-5080000Y-19000000D02*
X-5080000Y-16900000D01*
X-22000000Y-16900000D01*
X-24500000Y-14400000D01*
X-24500000Y-13600000D01*
D12*
X-20620000Y-4620000D03*
D13*
X-18080000Y-4620000D03*
D13*
X-15540000Y-4620000D03*
D13*
X-13000000Y-4620000D03*
D13*
X-10460000Y-4620000D03*
D13*
X-7920000Y-4620000D03*
D13*
X-5380000Y-4620000D03*
D13*
X-20620000Y10620000D03*
D13*
X-18080000Y10620000D03*
D13*
X-15540000Y10620000D03*
D13*
X-13000000Y10620000D03*
D13*
X-10460000Y10620000D03*
D13*
X-7920000Y10620000D03*
D13*
X-5380000Y10620000D03*
D12*
X-7620000Y19500000D03*
D13*
X-5080000Y19500000D03*
D13*
X-2540000Y19500000D03*
D13*
X0Y19500000D03*
D12*
X4000000Y-13000000D03*
D13*
X6540000Y-13000000D03*
D13*
X9080000Y-13000000D03*
D13*
X11620000Y-13000000D03*
D13*
X14160000Y-13000000D03*
D12*
X-15240000Y-19000000D03*
D13*
X-12700000Y-19000000D03*
D13*
X-10160000Y-19000000D03*
D13*
X-7620000Y-19000000D03*
D13*
X-5080000Y-19000000D03*
D13*
X-2540000Y-19000000D03*
D12*
X-15240000Y-23500000D03*
D13*
X-12700000Y-23500000D03*
D14*
X-10160000Y-23500000D03*
D15*
X-8160000Y-23500000D03*
D12*
X-5080000Y-23500000D03*
D13*
X-2540000Y-23500000D03*
D16*
X-21500000Y-13600000D03*
D16*
X-15200000Y-13400000D03*
D16*
X-9400000Y-15500000D03*
D16*
X-24500000Y-13600000D03*
M02*
